<?xml version="1.0" encoding="UTF-8"?>
<svg width="11px" height="9px" viewBox="0 0 11 9" version="1.1" xmlns="http://www.w3.org/2000/svg" xmlns:xlink="http://www.w3.org/1999/xlink">
    <title>hot_wallet</title>
    <defs>
        <filter id="filter-1">
            <feColorMatrix in="SourceGraphic" type="matrix" values="0 0 0 0 1.000000 0 0 0 0 1.000000 0 0 0 0 1.000000 0 0 0 1.000000 0"></feColorMatrix>
        </filter>
    </defs>
    <g id="Page-1" stroke="none" stroke-width="1" fill="none" fill-rule="evenodd">
        <g filter="url(#filter-1)" id="hot_wallet">
            <g>
                <path d="M10,2.4 L10,1.5 C10,0.7 9.3,0 8.5,0 L1.5,0 C0.7,0 0,0.7 0,1.5 L0,7.5 C0,8.3 0.7,9 1.5,9 L9,9 C9.8,9 10.5,8.3 10.5,7.5 L10.5,3.5 C10.5,3.1 10.3,2.7 10,2.4 Z M1.5,1 L8.5,1 C8.8,1 9,1.2 9,1.5 L9,2 L1.5,2 C1.2,2 1,1.8 1,1.5 C1,1.2 1.2,1 1.5,1 Z M9,8 L1.5,8 C1.2,8 1,7.8 1,7.5 L1,2.9 C1.2,3 1.3,3 1.5,3 L9,3 C9.3,3 9.5,3.2 9.5,3.5 L9.5,4 L8.5,4 C7.7,4 7,4.7 7,5.5 C7,6.3 7.7,7 8.5,7 L9.5,7 L9.5,7.5 C9.5,7.8 9.3,8 9,8 Z M9.5,5 L9.5,6 L8.5,6 C8.2,6 8,5.8 8,5.5 C8,5.2 8.2,5 8.5,5 L9.5,5 Z" id="Shape" fill="#333333" fill-rule="nonzero"></path>
            </g>
        </g>
    </g>
</svg>