<svg width="11" height="11" xmlns="http://www.w3.org/2000/svg" enable-background="new 0 0 2499 614">
 <g id="Layer_1">
  <title>Layer 1</title>
  <path stroke="null" d="m8.18551,2.76121l-3.6879,0l0,4.97671l4.97671,0l0,-3.6879c0,-0.71409 -0.57472,-1.28881 -1.28881,-1.28881zm-4.83734,0l-0.63423,0c-0.71409,0 -1.28881,0.57472 -1.28881,1.28881l0,0.63423l1.92303,0l0,-1.92303zm-1.92303,3.07247l1.92303,0l0,1.92303l-1.92303,0l0,-1.92303zm6.14651,4.97671l0.63423,0c0.71409,0 1.28881,-0.57472 1.28881,-1.28881l0,-0.61387l-1.92303,0l0,1.90268l0,0zm-3.07404,-1.90268l1.92303,0l0,1.92303l-1.92303,0l0,-1.92303zm-3.07247,0l0,0.63423c0,0.71409 0.57472,1.28881 1.28881,1.28881l0.63423,0l0,-1.92303l-1.92303,0z" fill="#1d2028" id="svg_1"/>
 </g>

</svg>