<svg width="22" height="22" viewBox="0 0 22 22" fill="none" xmlns="http://www.w3.org/2000/svg">
    <circle cx="11" cy="11" r="11" fill="#C4C4C4"/>
    <path d="M10.5907 4.18178L5.6212 7.05212C5.43227 7.1612 5.27537 7.31811 5.16633 7.50706C5.05728 7.69601 4.99992 7.91034 5 8.1285L5.00311 13.8755C5.00325 14.0933 5.06065 14.3073 5.16957 14.4959C5.27849 14.6845 5.43508 14.8412 5.62366 14.9503L10.599 17.8264C10.7879 17.9354 11.0021 17.9928 11.2202 17.9928C11.4382 17.9928 11.6525 17.9354 11.8414 17.8264L16.8109 14.9569C16.9998 14.8478 17.1567 14.6909 17.2658 14.502C17.3748 14.313 17.4322 14.0987 17.4321 13.8805L17.429 8.13353C17.4288 7.91572 17.3714 7.70179 17.2625 7.51317C17.1536 7.32455 16.997 7.16788 16.8084 7.05887L11.8331 4.18264C11.6443 4.0736 11.43 4.01619 11.2119 4.01619C10.9938 4.01619 10.7796 4.0736 10.5907 4.18264V4.18178Z" fill="white"/>
    <path d="M8.95045 15.8839C8.95811 15.8464 8.97486 15.8114 8.99927 15.782C10.4858 13.2595 11.9727 10.7372 13.4598 8.21493C13.4804 8.1799 13.4996 8.14392 13.5172 8.11254C13.5041 8.08972 13.4892 8.09444 13.4766 8.09444C12.8413 8.09668 12.2059 8.10075 11.5702 8.1C11.543 8.09952 11.5163 8.10737 11.4938 8.1225C11.4712 8.13763 11.4538 8.15931 11.4439 8.18462C10.9646 8.97718 10.4848 9.76951 10.0043 10.5616C8.98649 12.2409 7.96856 13.9202 6.95052 15.5994C6.94153 15.6143 6.93209 15.6289 6.92406 15.6442C6.90607 15.6789 6.88562 15.6843 6.8491 15.6631C6.69112 15.5698 6.53143 15.4796 6.36361 15.3831L10.894 8.11703C10.8843 8.08747 10.8642 8.09487 10.8488 8.09433C10.606 8.08705 10.3631 8.07655 10.1205 8.07441C9.77975 8.06431 9.44012 8.11905 9.11976 8.23571C8.828 8.34374 8.58006 8.54504 8.41439 8.80838C7.58663 10.0995 6.75574 11.3885 5.92171 12.6756C5.90864 12.696 5.89472 12.7159 5.88123 12.736C5.83346 12.736 5.84051 12.6966 5.83612 12.6691C5.8319 12.6276 5.83091 12.5859 5.83314 12.5443C5.83314 11.1207 5.83807 9.69711 5.82875 8.27362C5.82127 8.15096 5.85075 8.02888 5.91342 7.92317C5.97608 7.81747 6.06905 7.733 6.18026 7.6807C7.27495 7.05662 8.36256 6.41969 9.45372 5.78928C9.94071 5.50793 10.4292 5.22924 10.9127 4.942C11.0036 4.88098 11.1106 4.8484 11.2201 4.8484C11.3297 4.8484 11.4367 4.88098 11.5276 4.942C12.4166 5.46369 13.3135 5.97328 14.207 6.48758C14.881 6.87565 15.5553 7.26304 16.2299 7.64975C16.2782 7.67728 16.3252 7.70673 16.3737 7.73382C16.4526 7.77574 16.5178 7.83937 16.5617 7.91718C16.6056 7.995 16.6262 8.08375 16.6213 8.17294C16.6226 9.7215 16.6226 11.27 16.6213 12.8186C16.6244 12.8567 16.6203 12.895 16.6091 12.9316C16.5555 12.9833 16.5362 12.9253 16.5167 12.8978C16.4364 12.7848 16.3643 12.6658 16.2896 12.5488C15.6918 11.6131 15.0921 10.6786 14.4903 9.74542C14.2881 9.43 14.0833 9.11587 13.8832 8.79917C13.8365 8.72527 13.8281 8.7242 13.7814 8.80356C13.4795 9.31437 13.1778 9.82528 12.8763 10.3363C12.8597 10.3647 12.8526 10.3976 12.8559 10.4303C12.8592 10.463 12.8728 10.4939 12.8947 10.5184C13.1433 10.9195 13.3915 11.3209 13.6391 11.7226L14.9091 13.7768C15.0804 14.0545 15.2521 14.3318 15.424 14.6089C15.4559 14.6461 15.4739 14.6932 15.4748 14.7422C15.4404 14.8105 15.3687 14.8297 15.3091 14.8607C15.2112 14.9314 15.1036 14.9876 14.9896 15.0275C14.9281 15.0122 14.9064 14.9567 14.8773 14.9113C14.4841 14.298 14.096 13.6816 13.7054 13.0669C13.3036 12.435 12.9038 11.8007 12.5004 11.1694C12.4486 11.0885 12.4404 11.0879 12.3917 11.1694C12.0408 11.7599 11.6946 12.3531 11.3428 12.9429C11.3248 12.9706 11.3159 13.0032 11.3175 13.0361C11.3191 13.0691 11.3309 13.1007 11.3515 13.1265C11.8254 13.857 12.2884 14.5938 12.7573 15.3279C12.8881 15.5325 13.0198 15.7363 13.1482 15.9423C13.1733 15.9824 13.2075 16.0223 13.1848 16.0765C13.0617 16.1723 12.9289 16.2549 12.7886 16.3229C12.3506 16.5777 11.9124 16.8322 11.474 17.0863C11.4038 17.1316 11.3219 17.1558 11.2383 17.1558C11.1548 17.1558 11.0729 17.1316 11.0027 17.0863C10.357 16.7127 9.71006 16.3408 9.06195 15.9706C9.0173 15.9529 8.97862 15.9228 8.95045 15.8839Z" fill="#C4C4C4"/>
    <path d="M16.59 12.9471C16.5909 12.9089 16.5928 12.8708 16.5928 12.8326C16.5928 11.2876 16.5933 9.7426 16.5943 8.19769C16.5998 8.10399 16.5778 8.01074 16.5311 7.92936C16.4843 7.84799 16.4148 7.78204 16.3311 7.73961C14.7087 6.80953 13.0875 5.87735 11.4675 4.94307C11.3945 4.8956 11.3094 4.87024 11.2224 4.87001C11.1354 4.86978 11.0501 4.8947 10.977 4.94178C10.0773 5.46465 9.17648 5.98617 8.27454 6.50633C7.55088 6.92524 6.82729 7.34426 6.10371 7.76339C6.02642 7.80348 5.96235 7.86502 5.91921 7.94064C5.87606 8.01626 5.85567 8.10272 5.86048 8.18965C5.86419 9.67216 5.86628 11.1547 5.86678 12.6372C5.86678 12.6702 5.8534 12.7069 5.88221 12.736C5.71084 13.0213 5.52256 13.2955 5.34209 13.5747C5.2517 13.7145 5.16095 13.8541 5.06984 13.9934C5.05528 14.0157 5.03846 14.0363 5.00965 14.076C5.00751 14.0293 5.00526 14.0035 5.00526 13.9778C5.00526 12.0227 5.00561 10.0677 5.00633 8.11265C5.00155 7.89566 5.05664 7.68156 5.16554 7.49382C5.27444 7.30608 5.43293 7.15196 5.62366 7.04837C6.25277 6.6748 6.89025 6.31515 7.52354 5.94822C8.05787 5.6388 8.59039 5.32703 9.1244 5.01707C9.62242 4.7279 10.1154 4.43005 10.6219 4.15662C10.8159 4.0486 11.0353 3.99465 11.2573 4.00042C11.4792 4.00618 11.6955 4.07145 11.8837 4.18939C12.2906 4.4203 12.6959 4.6555 13.1017 4.88877C13.4835 5.10847 13.8651 5.32832 14.2468 5.5483C14.5985 5.7508 14.9503 5.95307 15.3023 6.15514C15.6512 6.35556 16.0002 6.55588 16.3492 6.75609C16.5026 6.84424 16.6558 6.93249 16.8082 7.02224C16.9765 7.11743 17.1212 7.2493 17.2315 7.40805C17.3418 7.5668 17.4149 7.74836 17.4455 7.93925C17.4527 7.99438 17.4549 8.05004 17.4521 8.10557C17.4521 10.0293 17.4524 11.9531 17.4529 13.877C17.4539 14.0598 17.4144 14.2405 17.3374 14.4063C17.2603 14.5721 17.1475 14.7187 17.0071 14.8358C16.927 14.8969 16.8409 14.9497 16.7501 14.9933C16.2288 15.2974 15.7069 15.6003 15.1841 15.9019C14.6287 16.2232 14.073 16.5439 13.5171 16.8642C12.9829 17.1736 12.4494 17.4842 11.9163 17.796C11.7836 17.8852 11.6343 17.9468 11.4772 17.9771C11.2163 18.028 10.9459 17.9936 10.7061 17.879C10.4403 17.7364 10.1813 17.5818 9.91922 17.4316C9.56728 17.2297 9.21552 17.0274 8.86394 16.8247C8.76462 16.7675 8.66521 16.7107 8.56575 16.6543C8.52922 16.6335 8.50428 16.6124 8.53277 16.5647C8.66429 16.3444 8.79377 16.1228 8.92465 15.9021C8.92926 15.894 8.94103 15.8903 8.94949 15.8844C9.07144 15.9414 9.18952 16.0063 9.30294 16.0788C9.87722 16.4072 10.4506 16.7373 11.0231 17.0689C11.0892 17.1108 11.1661 17.1326 11.2443 17.1317C11.3226 17.1309 11.3989 17.1075 11.4641 17.0642C12.0079 16.7452 12.5544 16.4307 13.0998 16.1147C13.1268 16.099 13.1544 16.0848 13.1819 16.07C13.2333 16.0043 13.302 15.9542 13.3802 15.9253C13.8729 15.643 14.3619 15.3551 14.8545 15.0735C14.8956 15.0501 14.9326 15.0139 14.9862 15.02L15.4688 14.7404C15.4983 14.6788 15.5611 14.6588 15.6138 14.6284C15.8566 14.4882 16.0972 14.3442 16.3421 14.2085C16.413 14.1712 16.4716 14.1142 16.5109 14.0444C16.5502 13.9746 16.5686 13.8949 16.5637 13.815C16.5662 13.5693 16.5637 13.3235 16.5649 13.0777C16.5564 13.0326 16.5653 12.9859 16.59 12.9471Z" fill="#F2F1F1"/>
    <path d="M16.5905 12.947C16.5918 13.252 16.5985 13.5575 16.5917 13.8621C16.5936 13.9335 16.5756 14.004 16.5399 14.0658C16.5042 14.1276 16.4521 14.1783 16.3893 14.2123C16.0822 14.3863 15.7806 14.57 15.4706 14.7393C15.3473 14.5144 15.205 14.3001 15.0703 14.0817C14.3705 12.9475 13.67 11.814 12.9687 10.6812C12.9267 10.6133 12.8883 10.5428 12.8414 10.4786C12.8261 10.4602 12.8177 10.4371 12.8177 10.4131C12.8177 10.3892 12.8261 10.3661 12.8414 10.3477C13.0088 10.0677 13.1734 9.78612 13.3391 9.50497L13.799 8.72484C13.8071 8.70629 13.8215 8.69115 13.8396 8.682C13.9196 8.80527 14.0002 8.92962 14.0807 9.05407C14.5646 9.80736 15.0483 10.5606 15.5319 11.3139C15.8598 11.825 16.1877 12.3362 16.5156 12.8473C16.5336 12.8852 16.5591 12.9192 16.5905 12.947Z" fill="#D8D8D8"/>
    <path d="M14.988 15.0188C14.7883 15.1499 14.5764 15.2614 14.3706 15.383C13.9973 15.6024 13.6217 15.8178 13.2472 16.0348C13.2258 16.0469 13.2043 16.0582 13.1837 16.0699C13.1789 16.0353 13.164 16.0028 13.1408 15.9766C12.8073 15.4525 12.4738 14.9284 12.1402 14.4045C11.8661 13.9742 11.5912 13.5444 11.3155 13.115C11.2968 13.0927 11.286 13.0649 11.2847 13.0359C11.2834 13.0068 11.2916 12.9782 11.3082 12.9543C11.6767 12.3337 12.0437 11.7121 12.4091 11.0897C12.4178 11.0753 12.4247 11.0586 12.4463 11.054C12.4763 11.0607 12.4835 11.0907 12.4978 11.1131C13.1618 12.1591 13.8259 13.2051 14.4899 14.2512C14.6312 14.4739 14.7718 14.6971 14.9139 14.9193C14.932 14.9569 14.9571 14.9908 14.9878 15.019L14.988 15.0188Z" fill="#D8D8D8"/>
</svg>
