<svg width="24" height="24" viewBox="0 0 24 24" fill="none" xmlns="http://www.w3.org/2000/svg">
<circle cx="12" cy="12" r="12" fill="#C4C4C4"/>
<path fill-rule="evenodd" clip-rule="evenodd" d="M11.9282 4.55425L5.48 8.27713V15.7228L11.9282 19.4457L18.3764 15.7228V8.27713L11.9282 4.55425ZM18.8564 8L11.9282 4L5 8V16L11.9282 20L18.8564 16V8Z" fill="white"/>
<path fill-rule="evenodd" clip-rule="evenodd" d="M11.9255 9.13085C11.4302 9.13085 11.0274 8.7277 11.0274 8.2321C11.0274 7.73654 11.4302 7.33337 11.9255 7.33337C12.4207 7.33337 12.8236 7.73654 12.8236 8.2321C12.8236 8.7277 12.4207 9.13085 11.9255 9.13085ZM11.9255 7.82306C11.7001 7.82306 11.5167 8.00656 11.5167 8.2321C11.5167 8.45765 11.7001 8.64115 11.9255 8.64115C12.1509 8.64115 12.3342 8.45765 12.3342 8.2321C12.3342 8.00656 12.1509 7.82306 11.9255 7.82306Z" fill="white"/>
<path d="M11.6941 9.2795C11.7712 9.2973 11.8515 9.3067 11.934 9.3067C12.0165 9.3067 12.0969 9.2973 12.1741 9.2795V10.9606C12.0969 10.9428 12.0165 10.9334 11.934 10.9334C11.8515 10.9334 11.7712 10.9428 11.6941 10.9606V9.2795Z" fill="white"/>
<path d="M11.1544 11.2728L9.698 10.4319C9.67485 10.5076 9.6428 10.5819 9.60155 10.6534C9.56032 10.7248 9.51201 10.7897 9.45801 10.8476L10.9139 11.6881C10.9619 11.5313 11.0452 11.3898 11.1544 11.2728Z" fill="white"/>
<path d="M10.9139 12.3119L9.458 13.1525C9.51201 13.2104 9.56034 13.2753 9.6016 13.3467C9.64285 13.4181 9.67485 13.4924 9.698 13.5681L11.1544 12.7273C11.0452 12.6103 10.9619 12.4687 10.9139 12.3119Z" fill="white"/>
<path d="M11.6941 13.0395V14.7206C11.7712 14.7028 11.8516 14.6934 11.9341 14.6934C12.0166 14.6934 12.0969 14.7028 12.1741 14.7206V13.0395C12.0969 13.0573 12.0165 13.0667 11.934 13.0667C11.8515 13.0667 11.7712 13.0573 11.6941 13.0395Z" fill="white"/>
<path d="M12.7137 12.7273L14.1701 13.5681C14.1933 13.4924 14.2253 13.4181 14.2666 13.3467C14.3078 13.2752 14.3561 13.2104 14.4101 13.1524L12.9542 12.3119C12.9062 12.4687 12.8229 12.6102 12.7137 12.7273Z" fill="white"/>
<path d="M12.9542 11.6882L14.4101 10.8476C14.3561 10.7897 14.3078 10.7248 14.2665 10.6533C14.2253 10.5819 14.1933 10.5076 14.1701 10.4319L12.7137 11.2728C12.8229 11.3898 12.9062 11.5313 12.9542 11.6882Z" fill="white"/>
<path fill-rule="evenodd" clip-rule="evenodd" d="M9.44497 10.5729C9.19736 11.0017 8.6468 11.149 8.21761 10.9012C7.78844 10.6535 7.64071 10.103 7.88832 9.67415C8.13593 9.2453 8.68654 9.09795 9.1157 9.3457C9.54489 9.5935 9.6926 10.144 9.44497 10.5729ZM8.3124 9.919C8.1997 10.1142 8.26695 10.3647 8.46227 10.4775C8.6576 10.5902 8.90819 10.5232 9.02089 10.328C9.13359 10.1328 9.06637 9.88225 8.87104 9.7695C8.67571 9.6567 8.42511 9.7238 8.3124 9.919Z" fill="white"/>
<path fill-rule="evenodd" clip-rule="evenodd" d="M9.45356 13.4421C9.7012 13.8709 9.55347 14.4214 9.12428 14.6692C8.69511 14.917 8.14453 14.7697 7.89692 14.3408C7.64931 13.9119 7.79701 13.3614 8.22618 13.1136C8.65537 12.8658 9.20595 13.0132 9.45356 13.4421ZM8.321 14.096C8.4337 14.2912 8.68429 14.3582 8.87961 14.2454C9.07494 14.1326 9.14218 13.8821 9.02948 13.6869C8.91678 13.4917 8.66618 13.4247 8.47085 13.5374C8.27552 13.6502 8.2083 13.9008 8.321 14.096Z" fill="white"/>
<path fill-rule="evenodd" clip-rule="evenodd" d="M11.9426 14.8692C12.4379 14.8692 12.8407 15.2724 12.8407 15.768C12.8407 16.2635 12.4379 16.6667 11.9426 16.6667C11.4474 16.6667 11.0445 16.2635 11.0445 15.768C11.0445 15.2724 11.4474 14.8692 11.9426 14.8692ZM11.9426 16.177C12.168 16.177 12.3514 15.9935 12.3514 15.768C12.3514 15.5424 12.168 15.3589 11.9426 15.3589C11.7172 15.3589 11.5339 15.5424 11.5339 15.768C11.5339 15.9935 11.7172 16.177 11.9426 16.177Z" fill="white"/>
<path fill-rule="evenodd" clip-rule="evenodd" d="M14.4232 13.4272C14.6708 12.9983 15.2213 12.851 15.6505 13.0988C16.0797 13.3466 16.2274 13.897 15.9798 14.3259C15.7322 14.7548 15.1816 14.9021 14.7524 14.6543C14.3232 14.4065 14.1755 13.8561 14.4232 13.4272ZM15.5557 14.0811C15.6684 13.8859 15.6012 13.6353 15.4059 13.5226C15.2105 13.4098 14.9599 13.4768 14.8472 13.672C14.7345 13.8672 14.8018 14.1178 14.9971 14.2306C15.1924 14.3433 15.443 14.2763 15.5557 14.0811Z" fill="white"/>
<path fill-rule="evenodd" clip-rule="evenodd" d="M14.4146 10.558C14.167 10.1291 14.3147 9.57865 14.7438 9.3309C15.173 9.0831 15.7236 9.2304 15.9712 9.65925C16.2188 10.0881 16.0711 10.6386 15.6419 10.8864C15.2128 11.1342 14.6622 10.9868 14.4146 10.558ZM15.5471 9.9041C15.4344 9.7089 15.1838 9.6419 14.9885 9.75465C14.7932 9.8674 14.7259 10.1179 14.8386 10.3131C14.9513 10.5083 15.2019 10.5754 15.3973 10.4626C15.5926 10.3499 15.6598 10.0993 15.5471 9.9041Z" fill="white"/>
<path fill-rule="evenodd" clip-rule="evenodd" d="M11.9255 11.583C11.7001 11.583 11.5167 11.7665 11.5167 11.9921C11.5167 12.2176 11.7001 12.4011 11.9255 12.4011C12.1509 12.4011 12.3342 12.2176 12.3342 11.9921C12.3342 11.7665 12.1509 11.583 11.9255 11.583ZM11.9255 12.8908C11.4302 12.8908 11.0274 12.4877 11.0274 11.9921C11.0274 11.4965 11.4302 11.0934 11.9255 11.0934C12.4207 11.0934 12.8236 11.4965 12.8236 11.9921C12.8236 12.4877 12.4207 12.8908 11.9255 12.8908Z" fill="white"/>
</svg>
