<svg width="22" height="22" viewBox="0 0 22 22" fill="none" xmlns="http://www.w3.org/2000/svg">
	<circle cx="11" cy="11" r="11" fill="#C4C4C4"/>
	<circle cx="11.0184" cy="10.8918" r="5.93972" fill="white"/>
	<path fill-rule="evenodd" clip-rule="evenodd" d="M11 18C14.866 18 18 14.866 18 11C18 7.13401 14.866 4 11 4C7.134 4 4 7.13401 4 11C4 14.866 7.134 18 11 18ZM8.88491 14.1713H7.24278C6.85344 14.1713 6.65876 14.1713 6.54217 14.0959C6.41617 14.0144 6.33667 13.8777 6.32826 13.728C6.32044 13.5894 6.41686 13.4205 6.6097 13.0827L6.60979 13.0826L10.2052 6.78388C10.4008 6.44104 10.4987 6.26962 10.6232 6.20581C10.7577 6.13688 10.9172 6.13676 11.0518 6.20551C11.1763 6.26913 11.2744 6.44041 11.4706 6.78295L12.2998 8.23073L12.2999 8.23077C12.4425 8.47983 12.5138 8.60438 12.5452 8.73576C12.5794 8.87882 12.5794 9.02784 12.5454 9.17089C12.5142 9.30232 12.4429 9.42696 12.3005 9.67617L10.1505 13.4373C10.0059 13.6902 9.93368 13.8166 9.83466 13.9111C9.72688 14.014 9.59618 14.0898 9.45333 14.1323C9.32207 14.1713 9.17636 14.1713 8.88491 14.1713ZM14.7436 14.1713H12.8397C12.4468 14.1713 12.2504 14.1713 12.1334 14.0953C12.007 14.0131 11.9278 13.8753 11.9203 13.7249C11.9134 13.5857 12.0123 13.416 12.21 13.0768L13.1603 11.4463C13.3556 11.1114 13.4532 10.944 13.5768 10.8812C13.7104 10.8134 13.8683 10.8133 14.002 10.8809C14.1257 10.9434 14.2235 11.1108 14.4192 11.4454L14.4192 11.4455L15.3728 13.0759C15.5712 13.4153 15.6705 13.5851 15.6637 13.7244C15.6564 13.875 15.5771 14.0129 15.4507 14.0952C15.3338 14.1713 15.137 14.1713 14.7436 14.1713Z" fill="#D8D8D8"/>
</svg>
