<svg width="22" height="22" viewBox="0 0 22 22" fill="none" xmlns="http://www.w3.org/2000/svg">
    <circle cx="11" cy="11" r="11" fill="#C4C4C4"/>
    <path fill-rule="evenodd" clip-rule="evenodd" d="M8.66959 10.0416L10.9997 7.71148L13.3318 10.0436L14.6876 8.68785L10.9997 5L7.31385 8.68586L8.66959 10.0416ZM5 10.9995L6.35539 9.64413L7.71077 10.9995L6.35539 12.3549L5 10.9995ZM10.9997 14.2885L8.66954 11.9584L7.3118 13.3121L7.3138 13.3141L10.9997 17L14.6875 13.3121L13.3318 11.9564L10.9997 14.2885ZM14.2874 11.0005L15.6428 9.64509L16.9982 11.0005L15.6428 12.3559L14.2874 11.0005ZM10.9997 9.62429L12.3754 11L10.9997 12.3777L9.624 11.002V10.998L9.8656 10.7564L9.9834 10.6406L10.9997 9.62429Z" fill="#F2F1F1"/>
</svg>
