<svg width="22" height="22" viewBox="0 0 22 22" fill="none" xmlns="http://www.w3.org/2000/svg">
    <circle cx="11" cy="11" r="11" fill="#C4C4C4"/>
    <path d="M12.2759 14.9655V16.3103L11.1034 17L9.96552 16.3103V14.9655L11.1034 15.6552L12.2759 14.9655ZM6 10.3103L7.13793 11V13.3103L9.10345 14.4828V15.8276L6 14V10.3103ZM16.2069 10.3103V14L13.069 15.8276V14.4828L15.0345 13.3103V11L16.2069 10.3103ZM13.069 8.48276L14.2414 9.17241V10.5172L12.2759 11.6897V14.0345L11.1379 14.7241L10 14.0345V11.6897L7.96552 10.5172V9.17241L9.13793 8.48276L11.1034 9.65517L13.069 8.48276ZM7.96552 11.4828L9.10345 12.1724V13.5172L7.96552 12.8276V11.4828ZM14.2414 11.4828V12.8276L13.1034 13.5172V12.1724L14.2414 11.4828ZM7.13793 7.31034L8.31034 8L7.13793 8.68966V10.0345L6 9.34483V8L7.13793 7.31034ZM15.069 7.31034L16.2414 8V9.34483L15.069 10.0345V8.68966L13.931 8L15.069 7.31034ZM11.1034 7.31034L12.2759 8L11.1034 8.68966L9.96552 8L11.1034 7.31034ZM11.1034 5L14.2414 6.82759L13.1034 7.51724L11.1379 6.34483L9.13793 7.51724L8 6.82759L11.1034 5Z" fill="#F2F1F1"/>
</svg>
