<svg width="24" height="24" viewBox="0 0 24 24" fill="none" xmlns="http://www.w3.org/2000/svg">
<path d="M23.9901 12C23.9901 13.5759 23.6798 15.1363 23.077 16.5922C22.4742 18.0481 21.5906 19.371 20.4768 20.4853C19.363 21.5996 18.0406 22.4835 16.5853 23.0865C15.13 23.6896 13.5702 24 11.995 24C10.4198 24 8.86004 23.6896 7.40473 23.0865C5.94943 22.4835 4.62711 21.5996 3.51326 20.4853C2.39942 19.371 1.51587 18.0481 0.913067 16.5922C0.31026 15.1363 -2.98224e-07 13.5759 0 12C6.02292e-07 8.8174 1.26376 5.76516 3.51327 3.51472C5.76277 1.26429 8.81375 1.32614e-07 11.995 0C15.1763 -1.20558e-07 18.2273 1.26429 20.4768 3.51472C22.7263 5.76516 23.9901 8.8174 23.9901 12Z" fill="#C4C4C4"/>
<path d="M11.928 1L5 5V13L11.928 17L18.8444 13V5L11.928 1ZM16.7925 11.8127L11.9164 14.6254L7.05187 11.8127V6.18732L11.928 3.37464L16.7925 6.18732V11.8127Z" fill="white"/>
<path d="M11.928 17L18.8444 13V5L11.928 1V3.37464L16.7925 6.18732V11.8242L11.9164 14.6369V17H11.928Z" fill="white"/>
<path d="M11.9164 1L5 5V13L11.9164 17V14.6254L7.05187 11.8127V6.17579L11.9164 3.37464V1Z" fill="white"/>
<path d="M15.1556 10.8674L11.928 12.7349L8.68876 10.8674V7.13257L11.928 5.26513L15.1556 7.13257L13.8069 7.91643L11.9164 6.82133L10.0375 7.91643V10.0951L11.928 11.1902L13.8184 10.0951L15.1556 10.8674Z" fill="white"/>
<path d="M8.7062 19.0714V18.9214H8.5562H5.27453V18.0643H8.16533H8.31533V17.9143V17.0143V16.8643H8.16533H5.27453V16.0786H8.46546H8.61546V15.9286V15.0775L10.7152 20.0583L10.7539 20.15H10.8535H11.9702H12.0696L12.1084 20.0584L14.2232 15.0584L14.3114 14.85H14.0851H12.9613H12.8618L12.8231 14.9417L11.4547 18.1834L10.1055 14.9424L10.0671 14.85H9.96703H8.74558L8.61546 14.85L8.51956 14.85H8.46546L4 14.85L3.85 14.85V15V20V20.15H4H8.5562H8.7062V20V19.0714ZM18.7891 20.0003L18.7894 20.15H18.9391H20H20.1504L20.15 19.9996L20.136 14.9996L20.1356 14.85H19.986H19.0577H18.9713L18.928 14.9248L17.256 17.8097L15.5576 14.9239L15.514 14.85H15.4283H14.493H14.343V15V20V20.15H14.493H15.5539H15.7039V20V17.6102L16.8558 19.5481L16.8994 19.6214H16.9848H17.4943H17.5806L17.6239 19.5469L18.7834 17.5539L18.7891 20.0003Z" fill="#BFC2D9" stroke="white" stroke-width="0.3"/>
</svg>
