<svg width="22" height="22" viewBox="0 0 22 22" fill="none" xmlns="http://www.w3.org/2000/svg">
	<circle cx="11" cy="11" r="11" fill="#C4C4C4"/>
	<path d="M10.9985 3L10.8893 3.36071V13.8277L10.9985 13.9336L15.997 11.0617L10.9985 3Z" fill="#CFCFCF"/>
	<path d="M10.9985 3L6 11.0617L10.9985 13.9336L10.9985 8.85331L10.9985 3Z" fill="#A7A7A7"/>
	<path d="M10.9985 14.8536L10.937 14.9265V18.6551L10.9985 18.8297L16 11.9831L10.9985 14.8536Z" fill="#CFCFCF"/>
	<path d="M10.9985 18.8297V14.8536L6 11.9831L10.9985 18.8297Z" fill="#A7A7A7"/>
	<path d="M10.9985 13.9336L15.997 11.0617L10.9985 8.85331L10.9985 13.9336Z" fill="#ECECEC"/>
	<path d="M6 11.0617L10.9985 13.9336L10.9985 8.85331L6 11.0617Z" fill="#CBCBCB"/>
</svg>
