
<svg width="24" height="24" viewBox="0 0 24 24" fill="none" xmlns="http://www.w3.org/2000/svg">
    <circle cx="12" cy="12" r="12" fill="#C4C4C4"/>
    <path d="M11.5903 4.15327C11.9772 3.94891 12.5658 3.94891 12.9527 4.15327L16.9002 6.23855C17.1332 6.36162 17.2612 6.54502 17.2841 6.73434H17.2879V17.216C17.2828 17.4225 17.1536 17.6276 16.9002 17.7614L12.9527 19.8467C12.5658 20.0511 11.9772 20.0511 11.5903 19.8467L7.64277 17.7614C7.39048 17.6282 7.26941 17.4216 7.26342 17.216C7.2628 17.1949 7.26275 17.1775 7.2634 17.1631L7.26342 6.80491C7.26283 6.79034 7.26282 6.77583 7.2634 6.76139L7.26342 6.73434H7.26518C7.28271 6.54292 7.40486 6.36421 7.64277 6.23855L11.5903 4.15327ZM16.6665 12.5819L12.9527 14.5438C12.5658 14.7481 11.9772 14.7481 11.5903 14.5438L7.88475 12.5863V17.1953L11.5903 19.1424C11.8093 19.2594 12.037 19.3734 12.2587 19.3784L12.2715 19.3786C12.4928 19.3793 12.7076 19.2669 12.9255 19.1605L16.6665 17.1785V12.5819ZM6.62135 16.9881C6.62135 17.3897 6.66802 17.6536 6.76068 17.8396C6.83748 17.9937 6.95271 18.1115 7.16312 18.2548L7.17513 18.263C7.22131 18.2941 7.27217 18.3267 7.33409 18.3651L7.40711 18.4098L7.63133 18.5451L7.30974 19.0768L7.05878 18.9253L7.01659 18.8994C6.94403 18.8545 6.88389 18.8161 6.82779 18.7782C6.22812 18.3739 6.00448 17.9331 6.00007 17.016L6 16.9881H6.62135ZM11.9608 9.77258C11.9321 9.78245 11.9051 9.79389 11.8805 9.80686L7.93296 11.8921C7.92881 11.8943 7.92486 11.8965 7.9211 11.8986L7.91776 11.9006L7.92396 11.9041L7.93296 11.909L11.8805 13.9943C11.9051 14.0073 11.9321 14.0187 11.9608 14.0286V9.77258ZM12.5822 9.77258V14.0286C12.611 14.0187 12.6379 14.0073 12.6625 13.9943L16.6101 11.909C16.6142 11.9068 16.6182 11.9046 16.6219 11.9025L16.6253 11.9006L16.6191 11.897L16.6101 11.8921L12.6625 9.80686C12.6379 9.79389 12.611 9.78245 12.5822 9.77258ZM16.6665 7.47787L13.1253 9.34852L16.6665 11.2192V7.47787ZM7.88475 7.48224V11.2148L11.4177 9.34852L7.88475 7.48224ZM12.6625 4.70277C12.4572 4.59433 12.0858 4.59433 11.8805 4.70277L7.93296 6.78804C7.92881 6.79024 7.92486 6.79239 7.9211 6.79455L7.91776 6.79648L7.92396 6.80002L7.93296 6.80491L11.8805 8.89018C12.0858 8.99863 12.4572 8.99863 12.6625 8.89018L16.6101 6.80491C16.6142 6.80272 16.6182 6.80056 16.6219 6.79842L16.6253 6.79648L16.6191 6.79293L16.6101 6.78804L12.6625 4.70277ZM17.2498 4.93144L17.5008 5.08303L17.543 5.10893C17.6155 5.15373 17.6757 5.19221 17.7318 5.23004C18.3315 5.63438 18.5551 6.07521 18.5595 6.99227L18.5596 7.02021H17.9382C17.9382 6.61859 17.8916 6.35465 17.7989 6.16868C17.7221 6.01456 17.6069 5.89678 17.3965 5.75345L17.3845 5.74531C17.3383 5.71418 17.2874 5.68156 17.2255 5.64323L17.1525 5.5985L16.9282 5.46317L17.2498 4.93144Z" fill="white"/>
    </svg>
    