<svg width="24" height="24" viewBox="0 0 24 24" fill="none" xmlns="http://www.w3.org/2000/svg">
    <path
        d="M23.9901 12C23.9901 13.5759 23.6798 15.1363 23.077 16.5922C22.4742 18.0481 21.5906 19.371 20.4768 20.4853C19.363 21.5996 18.0406 22.4835 16.5853 23.0865C15.13 23.6896 13.5702 24 11.995 24C10.4198 24 8.86004 23.6896 7.40473 23.0865C5.94943 22.4835 4.62711 21.5996 3.51326 20.4853C2.39942 19.371 1.51587 18.0481 0.913067 16.5922C0.31026 15.1363 -2.98224e-07 13.5759 0 12C6.02292e-07 8.8174 1.26376 5.76516 3.51327 3.51472C5.76277 1.26429 8.81375 1.32614e-07 11.995 0C15.1763 -1.20558e-07 18.2273 1.26429 20.4768 3.51472C22.7263 5.76516 23.9901 8.8174 23.9901 12Z"
        fill="white" />
    <path
        d="M5.29373 10.7867C5.29373 10.1821 5.49306 9.63088 5.83762 9.19455L9.48199 12.8377C9.03777 13.1823 8.48658 13.381 7.88921 13.381C6.44957 13.3816 5.28583 12.2179 5.29373 10.7867ZM16.1351 13.3737C17.5668 13.3816 18.7306 12.2179 18.7306 10.7788C18.7306 10.1821 18.5312 9.63088 18.1867 9.18665L14.5423 12.8298C14.9792 13.175 15.5304 13.3737 16.1351 13.3737ZM12.0009 13.8483L4.06861 5.91905C4.29042 5.63587 4.52803 5.36058 4.77293 5.09987C6.59542 3.19413 9.15991 2 12.0088 2C14.8571 2 17.4295 3.19413 19.2441 5.09987C19.4969 5.35268 19.7339 5.63587 19.9332 5.91115L12.0009 13.8483ZM5.86011 5.85038L12.0082 11.9967L18.1569 5.85038C16.5258 4.20473 14.3515 3.30169 12.0088 3.30169C9.66613 3.30169 7.49847 4.20473 5.86011 5.85038ZM12.0009 22C17.5212 22 22.0006 17.5225 22.0006 12.0039C22.0158 10.0982 21.4877 8.3298 20.5689 6.82209L18.953 8.43736C19.489 9.08031 19.8105 9.89159 19.8105 10.7946C19.8105 12.8231 18.1642 14.4688 16.1351 14.4688C15.2393 14.4688 14.4202 14.1473 13.7766 13.6113L12.0082 15.3791L10.2392 13.6113C9.59624 14.1473 8.78436 14.4688 7.88071 14.4688C5.8516 14.4688 4.20534 12.8231 4.20534 10.7946C4.20534 9.89888 4.52681 9.08031 5.0628 8.43736L4.23573 7.61089L3.44693 6.8227C2.52809 8.33831 2 10.1061 2 12.0046C2.00122 17.5298 6.48057 22 12.0009 22Z"
        fill="#C4C4C4" />
</svg>
    