<svg width="24" height="24" viewBox="0 0 24 24" fill="none" xmlns="http://www.w3.org/2000/svg">
<path d="M23.9901 12C23.9901 13.5759 23.6798 15.1363 23.077 16.5922C22.4742 18.0481 21.5906 19.371 20.4768 20.4853C19.363 21.5996 18.0406 22.4835 16.5853 23.0865C15.13 23.6896 13.5702 24 11.995 24C10.4198 24 8.86004 23.6896 7.40473 23.0865C5.94943 22.4835 4.62711 21.5996 3.51326 20.4853C2.39942 19.371 1.51587 18.0481 0.913067 16.5922C0.31026 15.1363 -2.98224e-07 13.5759 0 12C6.02292e-07 8.8174 1.26376 5.76516 3.51327 3.51472C5.76277 1.26429 8.81375 1.32614e-07 11.995 0C15.1763 -1.20558e-07 18.2273 1.26429 20.4768 3.51472C22.7263 5.76516 23.9901 8.8174 23.9901 12Z" fill="#C4C4C4"/>
<path d="M19.9875 6.19556L17.8032 4.01135L15.0505 2.60952L11.9994 2.12566L8.94818 2.60952L6.19552 4.01135L4.0113 6.19556L2.60947 8.94822L2.12561 11.9994L2.60947 15.0506L4.0113 17.8033L6.19552 19.9875L8.94818 21.3905L11.9994 21.8744L15.0505 21.3905L17.8032 19.9875L19.9875 17.8033L21.3905 15.0506L21.8744 11.9994L21.3905 8.94822L19.9875 6.19556Z" fill="#A5A5A5" stroke="white" stroke-width="0.375" stroke-miterlimit="10"/>
<path fill-rule="evenodd" clip-rule="evenodd" d="M11.9994 2L15.0894 2.49002L17.8771 3.90968L20.0891 6.12169L21.51 8.90935L22 11.9994L21.51 15.0894L20.0891 17.8771L17.8771 20.0891L15.0894 21.51L11.9994 22L8.90935 21.51L6.12169 20.0891L3.90968 17.8771L2.49002 15.0894L2 11.9994L2.49002 8.90938L3.90968 6.12171L6.12171 3.90968L8.90938 2.49002L11.9994 2ZM10.5701 9.87648L11.9994 11.8438L13.4288 9.87648H10.5701ZM10.4215 9.98307L11.8515 11.9513L9.53828 12.703L10.4215 9.98307ZM9.23127 12.8027L7.22477 10.6221L6.53573 13.6786L9.23127 12.8027ZM6.3667 13.5968L7.04983 10.5665L4.71798 11.2993L6.3667 13.5968ZM3.06379 11.8191L4.4627 11.3795L4.12667 14.2013L3.06379 11.8191ZM2.376 12.0352L2.83568 11.8908L2.66915 13.8838L2.376 12.0352ZM2.82768 14.8835L2.78933 14.6417L2.99968 12.1243L4.05314 14.4853L2.82768 14.8835ZM4.10861 14.6596L4.64431 17.1879L2.99488 15.2748L2.88419 15.0574L4.10861 14.6596ZM4.34118 14.584L6.33685 16.7385L6.32043 13.9408L4.34118 14.584ZM6.59182 13.8527L8.9453 15.9213L9.28841 12.9764L6.59182 13.8527ZM8.83547 16.0683L6.50375 14.0188L6.52035 16.8453L8.83547 16.0683ZM6.26573 16.9308L4.33517 14.8466L4.87564 17.3974L6.26573 16.9308ZM4.64908 17.4735L3.34329 15.9589L4.19261 17.6267L4.64908 17.4735ZM9.46835 13.0122L9.12568 15.9533L11.8191 14.7199L9.46835 13.0122ZM11.908 14.8803L9.21282 16.1146L11.908 17.7151V14.8803ZM9.08227 18.7075L9.10596 16.2638L11.7776 17.8504L9.08227 18.7075ZM9.06546 20.4423L9.07968 18.9748L11.6602 20.1676L9.06546 20.4423ZM9.05848 21.1633L9.06315 20.6804L10.9155 21.4578L9.05848 21.1633ZM11.908 21.6152L11.675 21.5783L9.33773 20.5973L11.908 20.3253V21.6152ZM12.0908 20.0818L14.7556 18.8497L12.0908 18.0008V20.0818ZM12.0908 20.3265V21.6152L12.3287 21.5775L14.6612 20.5986L12.0908 20.3265ZM13.0883 21.457L14.9391 21.1635L14.9344 20.6822L13.0883 21.457ZM14.9321 20.4433L14.9179 18.9762L12.3385 20.1688L14.9321 20.4433ZM14.9153 18.7087L14.8916 16.2651L12.2212 17.8505L14.9153 18.7087ZM14.7849 16.1158L12.0908 17.7152V14.8804L14.7849 16.1158ZM12.1797 14.7199L14.5304 13.0122L14.872 15.9545L12.1797 14.7199ZM14.7103 12.9762L15.0522 15.9215L17.4072 13.8525L14.7103 12.9762ZM17.4773 16.8468L15.1612 16.0692L17.495 14.0188L17.4773 16.8468ZM19.1219 17.399L17.7308 16.9319L19.6625 14.8466L19.1219 17.399ZM19.8053 17.6284L19.3483 17.475L20.6575 15.9565L19.8053 17.6284ZM21.1158 15.0574L21.0067 15.2715L19.3533 17.1892L19.8892 14.6589L21.1158 15.0574ZM19.714 14.4098L17.7353 13.7668L19.3658 11.4946L19.714 14.4098ZM17.4631 13.6783L14.7677 12.8027L16.7743 10.6229L17.4631 13.6783ZM16.9493 10.5678L19.2802 11.3003L17.6322 13.5968L16.9493 10.5678ZM19.5363 11.3808L20.9351 11.8203L19.8733 14.2014L19.5363 11.3808ZM21.1632 11.892L21.3295 13.8923L21.6238 12.0368L21.1632 11.892ZM21.2092 14.6513L21.1723 14.8835L19.9469 14.4853L20.9991 12.1258L21.2092 14.6513ZM14.6418 12.6693L13.7444 9.90556L16.6477 10.4904L14.6418 12.6693ZM13.7661 9.72338L15.4328 7.42942L16.6719 10.3088L13.7661 9.72338ZM16.8233 5.51561L15.6003 7.199L18.2561 8.07881L16.8233 5.51561ZM19.2067 6.60897L16.967 5.31789L17.7249 4.27475L17.8932 4.44302L19.2067 6.60897ZM15.6183 7.3976L16.8461 10.2508L18.3021 8.28669L15.6183 7.3976ZM18.4366 4.98643L19.7643 6.3142L19.4769 6.70193L18.4366 4.98643ZM17.0752 5.59133L19.3347 6.89383L18.4616 8.07159L17.0752 5.59133ZM16.9841 10.3717L18.4187 8.43657L19.2873 11.1109L16.9897 10.3888L17.0022 10.3753L16.9841 10.3717ZM21.6043 11.839L21.1588 11.699L21.3202 10.0478L21.6043 11.839ZM21.1725 9.11648L21.2065 9.33096L21.0123 11.3183L20.3809 9.37395L21.1725 9.11648ZM19.5526 11.1943L20.2535 9.57383L20.9193 11.6237L19.5526 11.1943ZM19.5869 6.86058L20.6877 8.10144L19.8644 6.4863L19.5869 6.86058ZM21.0178 8.74926L21.1163 8.94246L20.3244 9.20001L19.692 7.25459L21.0178 8.74926ZM19.4373 7.06248L20.1038 9.11302L18.5847 8.21265L19.4373 7.06248ZM19.6569 14.5834L17.6784 13.9406L17.6608 16.7384L19.6569 14.5834ZM15.0743 16.2484L15.0911 16.2562L15.089 16.2378L17.3703 17.0038L15.0977 18.6554L15.0743 16.2484ZM15.1212 21.0833L15.1167 20.6183L16.7319 20.2623L15.1212 21.0833ZM17.5754 19.8323L17.3791 19.9324L15.432 20.3615L17.0866 19.1596L17.5754 19.8323ZM15.1003 18.9346L16.8573 19.1001L15.1143 20.3663L15.1003 18.9346ZM18.993 17.5486L17.6349 17.0927L17.2489 18.8155L18.993 17.5486ZM17.8783 19.5707L17.7237 19.7253L17.2345 19.052L18.8892 17.8501L17.8783 19.5707ZM18.3925 19.0564L19.2313 17.6287L19.6723 17.7767L18.3925 19.0564ZM11.908 20.0807V18.0008L9.24225 18.8485L11.908 20.0807ZM8.90857 16.2366L8.90644 16.2548L8.92324 16.2472L8.89992 18.6542L6.62597 17.0028L8.90857 16.2366ZM4.325 17.7752L4.76498 17.6275L5.60387 19.054L4.325 17.7752ZM6.27382 19.724L6.11885 19.569L5.10743 17.8491L6.76192 19.0509L6.27382 19.724ZM6.36237 17.0913L6.7476 18.8145L5.00338 17.5474L6.36237 17.0913ZM8.88333 20.365L8.89721 18.9333L7.13935 19.0989L8.88333 20.365ZM6.6162 19.9306L6.42173 19.8315L6.90992 19.1583L8.56545 20.3602L6.6162 19.9306ZM7.26338 20.2605L8.88089 20.6169L8.87638 21.0827L7.26338 20.2605ZM4.28602 14.4097L6.26373 13.767L4.63314 11.4947L4.28602 14.4097ZM9.35696 12.6693L10.2544 9.9055L7.35112 10.4893L9.35696 12.6693ZM8.39796 7.19802L5.74271 8.07872L7.17514 5.51501L8.39796 7.19802ZM8.56564 7.42881L7.32552 10.3079L10.2328 9.72333L8.56564 7.42881ZM7.15196 10.2486L8.38045 7.39648L5.69738 8.28642L7.15196 10.2486ZM5.5376 8.07089L4.66411 6.89261L6.92374 5.59003L5.5376 8.07089ZM4.52187 6.70072L4.23494 6.31367L5.56036 4.98827L4.52187 6.70072ZM6.10377 4.44485L4.79213 6.60773L7.03126 5.31698L6.27396 4.27467L6.10377 4.44485ZM7.01463 10.3704L5.58053 8.43587L4.71202 11.1095L7.00907 10.3876L6.99658 10.3741L7.01463 10.3704ZM4.13478 6.48563L4.41189 6.85944L3.31426 8.09683L4.13478 6.48563ZM2.88401 8.94168L2.98474 8.74387L4.30692 7.25336L3.67448 9.19877L2.88401 8.94168ZM4.56161 7.0614L3.895 9.11195L5.41478 8.21229L4.56161 7.0614ZM2.82762 9.11564L3.61798 9.37269L2.98656 11.317L2.79283 9.335L2.82762 9.11564ZM2.67916 10.0518L2.84003 11.6978L2.39602 11.8372L2.67916 10.0518ZM3.07964 11.6224L3.74533 9.57257L4.44591 11.1931L3.07964 11.6224ZM8.54638 7.09118L7.3237 5.40836L10.2038 4.83781L8.54638 7.09118ZM10.3803 9.61528L8.71398 7.32185L11.8342 7.03251L10.3803 9.61528ZM10.4155 4.85862L11.8328 6.84899L8.74062 7.13573L10.4155 4.85862ZM9.40979 3.44616L10.26 4.64025L7.47283 5.19239L9.40979 3.44616ZM8.99146 2.85866L9.27106 3.25133L7.32081 3.70946L8.99146 2.85866ZM9.09981 3.4794L6.63613 4.05814L6.42193 4.16722L7.17983 5.21033L9.09981 3.4794ZM12.1647 7.0325L13.6186 9.61535L15.285 7.32175L12.1647 7.0325ZM16.8191 5.21031L17.5769 4.16727L17.3624 4.05802L14.9002 3.4794L16.8191 5.21031ZM16.6775 3.70921L15.0073 2.85866L14.7279 3.25106L16.6775 3.70921ZM14.5895 3.44543L13.7388 4.64022L16.5263 5.19243L14.5895 3.44543ZM13.5833 4.85849L12.166 6.84897L15.2594 7.13573L13.5833 4.85849ZM16.6753 5.40836L15.4531 7.09037L13.7952 4.83783L16.6753 5.40836ZM13.4528 9.69361L11.9994 7.11175L10.5461 9.69361H13.4528ZM12.0084 6.75499L11.9994 6.73894L11.9903 6.75504L10.5939 4.79382H13.4049L12.0084 6.75499ZM14.8128 2.81648L14.543 3.1954L13.0251 2.53296L14.8128 2.81648ZM12.0909 2.38483L12.3068 2.41907L14.1367 3.21758H12.0909V2.38483ZM13.5665 4.56688L12.2417 3.40044H14.3971L13.5665 4.56688ZM9.60173 3.40044L10.4323 4.56698L11.7572 3.40044H9.60173ZM9.45604 3.19585L9.18592 2.81647L10.9747 2.53281L9.45604 3.19585ZM11.6924 2.41899L9.86332 3.21758H11.9081V2.3848L11.6924 2.41899ZM13.5773 9.9832L12.1474 11.9513L14.4604 12.7028L13.5773 9.9832ZM14.4052 12.8771L12.0908 12.1252V14.5584L14.4052 12.8771ZM11.908 14.5585V12.1252L9.59377 12.8772L11.908 14.5585ZM10.6592 4.61095L11.9995 3.43083L13.3398 4.61095H10.6592ZM5.38638 8.44162L3.84906 9.35166L4.55803 10.9916L5.38638 8.44162ZM6.57169 17.1894L6.96126 18.932L8.74049 18.7644L6.57169 17.1894ZM15.257 18.7657L17.0352 18.9332L17.4257 17.1896L15.257 18.7657ZM18.6126 8.44179L20.1498 9.35284L19.4409 10.9917L18.6126 8.44179Z" fill="white"/>
</svg>
