<svg width="25" height="24" viewBox="0 0 25 24" fill="none" xmlns="http://www.w3.org/2000/svg">
	<circle cx="12.2651" cy="12" r="12" fill="#C4C4C4"/>
	<path d="M16.2269 6.11907L13.4905 10.1818C13.4516 10.2403 13.4351 10.311 13.4442 10.3807C13.4533 10.4504 13.4873 10.5144 13.54 10.561C13.5926 10.6076 13.6604 10.6335 13.7307 10.634C13.801 10.6345 13.8691 10.6095 13.9224 10.5636L16.616 8.22726C16.6318 8.21313 16.6513 8.20391 16.6723 8.20072C16.6932 8.19752 16.7146 8.20049 16.7339 8.20926C16.7532 8.21804 16.7695 8.23223 16.7809 8.25012C16.7922 8.268 16.7981 8.2888 16.7978 8.30998V15.6245C16.7978 15.6469 16.7909 15.6688 16.7781 15.6871C16.7652 15.7054 16.747 15.7194 16.726 15.727C16.7049 15.7347 16.682 15.7357 16.6604 15.7298C16.6388 15.724 16.6195 15.7117 16.6051 15.6945L8.46327 5.94817C8.33231 5.79352 8.16925 5.66926 7.98541 5.58401C7.80157 5.49877 7.60137 5.45458 7.39873 5.45453H7.11418C6.74432 5.45453 6.38962 5.60145 6.12809 5.86298C5.86656 6.12451 5.71964 6.47922 5.71964 6.84907V17.1509C5.71964 17.5208 5.86656 17.8755 6.12809 18.137C6.38962 18.3985 6.74432 18.5454 7.11418 18.5454C7.35265 18.5455 7.58716 18.4845 7.79532 18.3681C8.00349 18.2518 8.17837 18.084 8.30327 17.8809L11.0396 13.8182C11.0786 13.7597 11.0951 13.689 11.086 13.6193C11.0769 13.5496 11.0429 13.4855 10.9902 13.439C10.9376 13.3924 10.8698 13.3665 10.7995 13.366C10.7292 13.3655 10.6611 13.3905 10.6078 13.4363L7.91418 15.7727C7.89839 15.7868 7.87884 15.7961 7.8579 15.7993C7.83696 15.8024 7.81554 15.7995 7.79626 15.7907C7.77699 15.7819 7.76068 15.7677 7.74933 15.7499C7.73798 15.732 7.73209 15.7112 7.73236 15.69V8.37362C7.73237 8.35123 7.73927 8.32938 7.75212 8.31104C7.76498 8.29271 7.78316 8.27877 7.80421 8.27112C7.82526 8.26348 7.84815 8.2625 7.86977 8.26831C7.8914 8.27412 7.91071 8.28645 7.92509 8.30362L16.066 18.0518C16.197 18.2064 16.36 18.3307 16.5439 18.416C16.7277 18.5012 16.9279 18.5454 17.1305 18.5454H17.4151C17.5983 18.5456 17.7797 18.5096 17.949 18.4395C18.1183 18.3695 18.2722 18.2668 18.4018 18.1373C18.5314 18.0078 18.6342 17.854 18.7043 17.6848C18.7744 17.5155 18.8105 17.3341 18.8105 17.1509V6.84907C18.8105 6.47922 18.6636 6.12451 18.4021 5.86298C18.1406 5.60145 17.7859 5.45453 17.416 5.45453C17.1775 5.45447 16.943 5.51552 16.7349 5.63185C16.5267 5.74819 16.3518 5.91593 16.2269 6.11907Z" fill="white"/>
	</svg>
	