<svg width="24" height="24" viewBox="0 0 24 24" fill="none" xmlns="http://www.w3.org/2000/svg">
    <path
        d="M12 24C18.6274 24 24 18.6274 24 12C24 5.37258 18.6274 0 12 0C5.37258 0 0 5.37258 0 12C0 18.6274 5.37258 24 12 24Z"
        fill="#C4C4C4" />
    <path
        d="M8.50233 15.1894C7.7878 15.1894 7.2024 15.0213 6.74606 14.685C6.29572 14.3428 6.07056 13.8564 6.07056 13.226C6.07056 13.0939 6.08558 12.9317 6.11558 12.7396C6.19368 12.3073 6.30475 11.7879 6.44884 11.1815C6.85713 9.53025 7.91092 8.70465 9.61017 8.70465C10.0725 8.70465 10.4868 8.7827 10.8531 8.9388C11.2194 9.08889 11.5076 9.31708 11.7177 9.62332C11.9279 9.92351 12.033 10.2838 12.033 10.7041C12.033 10.8302 12.0179 10.9893 11.9879 11.1815C11.8979 11.7158 11.7898 12.2352 11.6637 12.7396C11.4535 13.5622 11.0903 14.1777 10.5739 14.5859C10.0575 14.9882 9.367 15.1894 8.50233 15.1894ZM8.62843 13.8924C8.96472 13.8924 9.24988 13.7934 9.48408 13.5952C9.72427 13.3971 9.89539 13.0939 9.99744 12.6856C10.1355 12.1211 10.2407 11.6288 10.3127 11.2085C10.3367 11.0824 10.3487 10.9533 10.3487 10.8212C10.3487 10.2748 10.0635 10.0016 9.4931 10.0016C9.15681 10.0016 8.86862 10.1006 8.62843 10.2988C8.39428 10.497 8.22614 10.8002 8.12409 11.2085C8.016 11.6108 7.9079 12.1031 7.79985 12.6856C7.7758 12.8056 7.7638 12.9317 7.7638 13.0638C7.7638 13.6163 8.05204 13.8924 8.62843 13.8924Z"
        fill="white" />
    <path
        d="M12.4465 15.0994C12.3805 15.0994 12.3294 15.0783 12.2934 15.0363C12.2634 14.9882 12.2544 14.9342 12.2664 14.8742L13.5093 9.01988C13.5213 8.95383 13.5543 8.89978 13.6084 8.85773C13.6624 8.81573 13.7194 8.79471 13.7795 8.79471H16.1753C16.8417 8.79471 17.3761 8.9328 17.7784 9.209C18.1867 9.48524 18.3909 9.8845 18.3909 10.4069C18.3909 10.557 18.3729 10.7131 18.3368 10.8752C18.1867 11.5657 17.8835 12.0761 17.4272 12.4064C16.9769 12.7366 16.3584 12.9017 15.5718 12.9017H14.3559L13.9416 14.8742C13.9296 14.9402 13.8966 14.9942 13.8426 15.0363C13.7885 15.0783 13.7314 15.0994 13.6714 15.0994H12.4465ZM15.6349 11.6588C15.887 11.6588 16.1062 11.5897 16.2923 11.4517C16.4845 11.3136 16.6106 11.1154 16.6706 10.8572C16.6886 10.7551 16.6976 10.6651 16.6976 10.587C16.6976 10.4129 16.6466 10.2808 16.5445 10.1907C16.4424 10.0946 16.2683 10.0466 16.0221 10.0466H14.9413L14.5991 11.6588H15.6349Z"
        fill="white" />
</svg>
    