<svg width="24" height="24" viewBox="0 0 24 24" fill="none" xmlns="http://www.w3.org/2000/svg">
  <path d="M12 24C18.6274 24 24 18.6274 24 12C24 5.37258 18.6274 0 12 0C5.37258 0 0 5.37258 0 12C0 18.6274 5.37258 24 12 24Z" fill="#C4C4C4"/>
  <path d="M20.4521 6.18197C20.2689 5.47635 19.6799 4.77073 18.6197 3.9852C17.769 3.35947 16.8659 3 16.146 3C16.0021 3 15.8712 3.01331 15.7403 3.03994C15.4131 3.10651 15.1251 3.34616 14.9419 3.70563C14.7194 4.13166 14.6671 4.70416 14.811 5.0503C14.8634 5.15681 14.9288 5.28995 15.0073 5.40978C14.3137 5.8358 13.921 5.95563 13.8687 5.96895C15.6749 6.58139 17.18 7.85949 18.1224 9.5237L18.1355 9.36396C18.1747 8.92459 18.3056 8.41868 18.4889 7.89943C18.6721 7.95269 18.8553 7.97932 19.0386 7.97932C19.5228 7.97932 19.9416 7.77961 20.2034 7.42015C20.4652 7.06067 20.5699 6.58139 20.4521 6.18197Z" fill="white"/>
  <path d="M18.5674 7.51352C19.7584 7.84637 20.2427 6.91441 20.0856 6.28868C19.9154 5.66292 19.3658 5.02387 18.3972 4.30493C17.4287 3.586 16.447 3.29308 15.8188 3.42622C15.1906 3.55937 15.0073 4.53125 15.1644 4.90404C15.2298 5.0505 15.3738 5.26352 15.5701 5.50315C15.3214 5.67623 15.0859 5.80937 14.8895 5.9292C16.0937 6.47505 17.1407 7.32712 17.926 8.39222C18.0176 8.03277 18.1485 7.71323 18.2663 7.43363C18.358 7.44695 18.4626 7.47358 18.5674 7.51352Z" fill="#969DA3"/>
  <path d="M11.7483 20.5607C15.789 20.5607 19.0647 17.2287 19.0647 13.1184C19.0647 9.00808 15.789 5.67603 11.7483 5.67603C7.70756 5.67603 4.43188 9.00808 4.43188 13.1184C4.43188 17.2287 7.70756 20.5607 11.7483 20.5607Z" fill="#969DA3"/>
  <path opacity="0.6" d="M19.4836 5.67609C18.4889 4.61099 17.6513 4.33139 16.6435 4.10508C15.8582 3.91869 16.0676 3.46601 17.023 3.5592C16.5649 3.39945 16.133 3.3595 15.8189 3.42607C15.1906 3.5592 15.0074 4.53111 15.1645 4.9039C15.2299 5.05036 15.3739 5.26335 15.5702 5.50301C15.2168 5.74266 14.9158 5.91574 14.6671 6.04889C14.7849 6.10211 14.9289 6.16868 15.099 6.26188C15.544 6.50154 16.0283 6.90096 16.0283 6.90096C15.2954 6.26188 15.4524 5.969 16.4602 5.25004C16.7743 5.02373 17.3502 5.05036 17.8868 5.32992C18.4235 5.60952 19.0517 6.31514 19.0517 6.31514L18.4496 7.48675C18.4889 7.50007 18.5282 7.51338 18.5674 7.52669C18.947 7.63321 19.248 7.60658 19.4836 7.51338C19.7585 7.3403 20.4783 6.7545 19.4836 5.67609Z" fill="#969DA3"/>
  <path d="M16.6302 4.74406C16.892 4.85058 17.2323 5.03697 17.6511 5.31657C18.1484 5.64939 18.5803 6.02219 18.8552 6.3151C18.3971 6.92752 18.0961 7.76628 17.9128 8.35207C18.0044 8.48521 18.1092 8.61835 18.2008 8.75149C18.2924 8.41864 18.4495 7.92605 18.6589 7.43343C18.7112 7.44674 18.7767 7.44674 18.8421 7.44674C18.9992 7.44674 19.1824 7.42011 19.3264 7.30031C19.4311 7.22043 19.5489 7.07397 19.5358 6.80769C19.5358 6.55472 19.3395 6.23521 18.9337 5.84911C18.6458 5.56951 18.2531 5.26331 17.8605 4.98372C16.7349 4.22484 15.9496 4.01182 15.5962 4.3713C15.3606 4.61092 15.3868 4.90383 15.4653 5.11686C15.0465 5.39645 14.6931 5.59614 14.4575 5.72928C14.6146 5.78253 14.7585 5.8491 14.9156 5.91568C15.3344 5.68934 15.9365 5.30326 16.6302 4.74406ZM19.1039 6.64792C19.1431 6.71449 19.1562 6.78106 19.1562 6.82101C19.1562 6.94083 19.117 6.98078 19.0908 7.0074C19.0384 7.04735 18.9337 7.07397 18.8421 7.07397C18.9206 6.9142 19.0122 6.78106 19.1039 6.64792ZM15.8711 4.66418C15.9103 4.62424 16.015 4.59761 16.1852 4.62424C16.0543 4.73075 15.9234 4.82395 15.7925 4.91715C15.7794 4.82395 15.7925 4.73075 15.8711 4.66418Z" fill="white"/>
  <path d="M11.7483 5.23657C7.46843 5.23657 4 8.7647 4 13.1183C4 17.4719 7.46843 21 11.7483 21C16.0282 21 19.4966 17.4719 19.4966 13.1183C19.4966 8.7647 16.0151 5.23657 11.7483 5.23657ZM11.7483 20.5607C7.70401 20.5607 4.43191 17.2322 4.43191 13.1183C4.43191 9.00435 7.70401 5.67591 11.7483 5.67591C15.7926 5.67591 19.0647 9.00435 19.0647 13.1183C19.0647 17.2322 15.7795 20.5607 11.7483 20.5607Z" fill="white"/>
  <path opacity="0.6" d="M11.7483 20.5607C15.789 20.5607 19.0647 17.2287 19.0647 13.1184C19.0647 9.00808 15.789 5.67603 11.7483 5.67603C7.70756 5.67603 4.43188 9.00808 4.43188 13.1184C4.43188 17.2287 7.70756 20.5607 11.7483 20.5607Z" fill="white"/>
  <path opacity="0.6" d="M11.6959 19.6553C7.704 19.0029 4.99473 15.1819 5.64915 11.1212C5.93709 9.32385 6.82709 7.79276 8.08358 6.68774C6.2512 7.76613 4.89001 9.64336 4.52354 11.9333C3.88221 15.994 6.5915 19.815 10.5703 20.4674C12.7954 20.8402 14.9419 20.1346 16.5256 18.75C15.1251 19.5754 13.4236 19.9349 11.6959 19.6553Z" fill="#969DA3"/>
  <path opacity="0.6" d="M12.9133 5.78266C11.0678 5.47643 9.27474 5.90248 7.80885 6.84776C7.78266 6.87438 7.75649 6.90098 7.75649 6.90098C8.3193 6.55485 9.14385 6.24862 9.14385 6.24862C7.02355 7.50012 6.36914 8.92467 6.36914 8.92467C7.19369 7.30041 9.61504 6.15542 11.5128 6.07554C13.4107 5.99565 14.654 6.56816 16.1723 7.80634C17.6906 9.05781 18.6067 11.614 18.5151 13.6377C18.4366 15.6614 17.3895 17.299 17.3895 17.299C18.1094 16.3537 18.5413 15.6614 18.8161 14.9558C18.8685 14.7428 18.9209 14.5297 18.947 14.3034C19.6014 10.2561 16.9053 6.43502 12.9133 5.78266Z" fill="url(#paint0_linear_13292_817)"/>
  <path d="M18.6982 13.0518C18.6982 16.9527 15.5832 20.1214 11.7483 20.1214C7.9134 20.1214 4.78528 16.9527 4.78528 13.0518H18.6982Z" fill="#D5D8DA"/>
  <g opacity="0.6">
  <path opacity="0.6" d="M18.1485 13.0518C18.1485 16.8595 15.1905 19.975 11.4734 20.1214C11.565 20.1214 11.6566 20.1214 11.7482 20.1214C15.5831 20.1214 18.6982 16.9527 18.6982 13.0518H18.1485Z" fill="white"/>
  </g>
  <g opacity="0.7">
  <path opacity="0.7" d="M5.76691 13.0518H4.78528C4.78528 16.9527 7.90032 20.1214 11.7352 20.1214C11.9054 20.1214 12.0624 20.1214 12.2195 20.1081C8.62017 19.8418 5.76691 16.7797 5.76691 13.0518Z" fill="#969DA3"/>
  </g>
  <path d="M18.6851 13.1183C18.6851 12.3061 17.2977 11.8402 15.4523 11.6804C14.1173 11.5739 12.7692 11.707 11.2247 12.1863C9.88975 12.5857 8.68562 12.5192 7.80871 12.4127C5.85852 12.1863 4.78528 12.1597 4.78528 13.1183C4.78528 14.5029 7.56001 16.2337 11.7221 15.6346C13.8293 15.3284 14.9157 14.7026 16.1591 14.2766C17.5072 13.8239 18.6851 13.8372 18.6851 13.1183Z" fill="white"/>
  <path d="M14.0256 9.76318C14.6762 9.76318 15.2036 9.22672 15.2036 8.56494C15.2036 7.90316 14.6762 7.3667 14.0256 7.3667C13.3751 7.3667 12.8477 7.90316 12.8477 8.56494C12.8477 9.22672 13.3751 9.76318 14.0256 9.76318Z" fill="white"/>
  <path d="M15.9496 10.6554C16.2243 10.6554 16.447 10.4289 16.447 10.1495C16.447 9.87007 16.2243 9.64355 15.9496 9.64355C15.6749 9.64355 15.4523 9.87007 15.4523 10.1495C15.4523 10.4289 15.6749 10.6554 15.9496 10.6554Z" fill="white"/>
  <g opacity="0.6">
  <path opacity="0.6" d="M17.7297 7.60655C17.7166 7.60655 17.7035 7.60655 17.7035 7.60655C17.625 7.59324 17.5727 7.51335 17.5857 7.42016C17.7035 6.80773 18.2009 6.22191 18.2271 6.19529C18.2794 6.12872 18.3841 6.12872 18.4365 6.18197C18.5019 6.23523 18.5019 6.34174 18.4496 6.395C18.4365 6.40831 17.9784 6.95419 17.8737 7.48673C17.8606 7.56661 17.7952 7.60655 17.7297 7.60655Z" fill="url(#paint1_linear_13292_817)"/>
  </g>
  <path opacity="0.2" d="M11.2663 18.6702C11.4686 18.6702 11.6327 18.5033 11.6327 18.2974C11.6327 18.0915 11.4686 17.9246 11.2663 17.9246C11.0639 17.9246 10.8998 18.0915 10.8998 18.2974C10.8998 18.5033 11.0639 18.6702 11.2663 18.6702Z" fill="white"/>
  <g opacity="0.4">
  <path opacity="0.6" d="M11.0547 18.5401C10.9107 18.3937 10.9107 18.154 11.0547 18.0075C11.0809 17.9809 11.1071 17.9676 11.1332 17.941C11.0809 17.9543 11.0416 17.9809 11.0024 18.0209C10.8584 18.1673 10.8584 18.407 11.0024 18.5534C11.1202 18.6732 11.3034 18.6999 11.4474 18.62C11.3165 18.6732 11.1594 18.6466 11.0547 18.5401Z" fill="white"/>
  </g>
  <path opacity="0.3" d="M11.3949 18.1908C11.4383 18.1908 11.4735 18.1551 11.4735 18.111C11.4735 18.0669 11.4383 18.0311 11.3949 18.0311C11.3516 18.0311 11.3164 18.0669 11.3164 18.111C11.3164 18.1551 11.3516 18.1908 11.3949 18.1908Z" fill="white"/>
  <path opacity="0.2" d="M13.1771 18.4839C13.3795 18.4839 13.5436 18.317 13.5436 18.1111C13.5436 17.9052 13.3795 17.7383 13.1771 17.7383C12.9747 17.7383 12.8107 17.9052 12.8107 18.1111C12.8107 18.317 12.9747 18.4839 13.1771 18.4839Z" fill="white"/>
  <g opacity="0.4">
  <path opacity="0.6" d="M12.9655 18.3537C12.8215 18.2073 12.8215 17.9677 12.9655 17.8212C12.9917 17.7946 13.0179 17.7813 13.044 17.7546C12.9917 17.768 12.9524 17.7946 12.9132 17.8345C12.7692 17.981 12.7692 18.2206 12.9132 18.3671C13.031 18.4869 13.2142 18.5135 13.3582 18.4336C13.2273 18.4869 13.0702 18.4603 12.9655 18.3537Z" fill="white"/>
  </g>
  <path opacity="0.3" d="M13.3059 18.0045C13.3492 18.0045 13.3844 17.9687 13.3844 17.9246C13.3844 17.8805 13.3492 17.8447 13.3059 17.8447C13.2625 17.8447 13.2273 17.8805 13.2273 17.9246C13.2273 17.9687 13.2625 18.0045 13.3059 18.0045Z" fill="white"/>
  <path opacity="0.2" d="M12.2325 19.3493C12.3843 19.3493 12.5073 19.2241 12.5073 19.0697C12.5073 18.9153 12.3843 18.7901 12.2325 18.7901C12.0807 18.7901 11.9576 18.9153 11.9576 19.0697C11.9576 19.2241 12.0807 19.3493 12.2325 19.3493Z" fill="white"/>
  <g opacity="0.4">
  <path opacity="0.6" d="M12.0754 19.2458C11.9707 19.1393 11.9707 18.9529 12.0754 18.8464C12.0885 18.8331 12.1147 18.8198 12.1278 18.8065C12.0885 18.8198 12.0623 18.8464 12.0362 18.873C11.9315 18.9795 11.9315 19.1659 12.0362 19.2724C12.1278 19.3656 12.2587 19.3789 12.3765 19.3124C12.2718 19.3523 12.154 19.3257 12.0754 19.2458Z" fill="url(#paint2_linear_13292_817)"/>
  </g>
  <path opacity="0.3" d="M12.3241 18.9764C12.353 18.9764 12.3764 18.9526 12.3764 18.9232C12.3764 18.8938 12.353 18.8699 12.3241 18.8699C12.2952 18.8699 12.2717 18.8938 12.2717 18.9232C12.2717 18.9526 12.2952 18.9764 12.3241 18.9764Z" fill="white"/>
  <path opacity="0.2" d="M13.921 19.1496C14.0728 19.1496 14.1958 19.0244 14.1958 18.87C14.1958 18.7156 14.0728 18.5904 13.921 18.5904C13.7692 18.5904 13.6461 18.7156 13.6461 18.87C13.6461 19.0244 13.7692 19.1496 13.921 19.1496Z" fill="white"/>
  <g opacity="0.4">
  <path opacity="0.6" d="M13.7639 19.0461C13.6592 18.9396 13.6592 18.7532 13.7639 18.6467C13.777 18.6334 13.8032 18.6201 13.8162 18.6068C13.777 18.6201 13.7508 18.6467 13.7246 18.6733C13.6199 18.7798 13.6199 18.9662 13.7246 19.0727C13.8162 19.1659 13.9471 19.1793 14.0649 19.1127C13.9602 19.1526 13.8424 19.126 13.7639 19.0461Z" fill="url(#paint3_linear_13292_817)"/>
  </g>
  <path opacity="0.3" d="M14.0126 18.777C14.0415 18.777 14.0649 18.7531 14.0649 18.7237C14.0649 18.6943 14.0415 18.6705 14.0126 18.6705C13.9837 18.6705 13.9602 18.6943 13.9602 18.7237C13.9602 18.7531 13.9837 18.777 14.0126 18.777Z" fill="white"/>
  <path opacity="0.2" d="M9.70642 18.5372C10.039 18.5372 10.3085 18.263 10.3085 17.9247C10.3085 17.5865 10.039 17.3123 9.70642 17.3123C9.37392 17.3123 9.10437 17.5865 9.10437 17.9247C9.10437 18.263 9.37392 18.5372 9.70642 18.5372Z" fill="white"/>
  <g opacity="0.4">
  <path opacity="0.6" d="M9.36654 18.3107C9.13096 18.0711 9.13096 17.685 9.36654 17.4453C9.40582 17.4054 9.44507 17.3787 9.49743 17.3521C9.4189 17.3787 9.35346 17.432 9.28801 17.4853C9.05243 17.7249 9.05243 18.111 9.28801 18.3506C9.48435 18.5504 9.78537 18.5903 10.021 18.4438C9.79846 18.537 9.53668 18.4971 9.36654 18.3107Z" fill="url(#paint4_linear_13292_817)"/>
  </g>
  <path opacity="0.3" d="M9.91592 17.7383C9.98821 17.7383 10.0468 17.6787 10.0468 17.6051C10.0468 17.5316 9.98821 17.472 9.91592 17.472C9.84363 17.472 9.78503 17.5316 9.78503 17.6051C9.78503 17.6787 9.84363 17.7383 9.91592 17.7383Z" fill="white"/>
  <path opacity="0.2" d="M15.0879 17.0325C15.4204 17.0325 15.69 16.7583 15.69 16.4201C15.69 16.0818 15.4204 15.8076 15.0879 15.8076C14.7554 15.8076 14.4858 16.0818 14.4858 16.4201C14.4858 16.7583 14.7554 17.0325 15.0879 17.0325Z" fill="white"/>
  <g opacity="0.4">
  <path opacity="0.6" d="M14.7324 16.8063C14.4968 16.5667 14.4968 16.1805 14.7324 15.9409C14.7717 15.901 14.8109 15.8743 14.8633 15.8477C14.7847 15.8743 14.7193 15.9276 14.6539 15.9808C14.4183 16.2205 14.4183 16.6066 14.6539 16.8462C14.8502 17.0459 15.1512 17.0859 15.3868 16.9394C15.1643 17.0326 14.9156 16.9927 14.7324 16.8063Z" fill="white"/>
  </g>
  <path opacity="0.3" d="M15.2952 16.2338C15.3675 16.2338 15.4261 16.1742 15.4261 16.1007C15.4261 16.0271 15.3675 15.9675 15.2952 15.9675C15.2229 15.9675 15.1643 16.0271 15.1643 16.1007C15.1643 16.1742 15.2229 16.2338 15.2952 16.2338Z" fill="white"/>
  <defs>
  <linearGradient id="paint0_linear_13292_817" x1="16.9046" y1="8.06416" x2="10.7604" y2="13.6062" gradientUnits="userSpaceOnUse">
  <stop offset="0.289" stop-color="white"/>
  <stop offset="0.78" stop-color="white" stop-opacity="0"/>
  </linearGradient>
  <linearGradient id="paint1_linear_13292_817" x1="18.4577" y1="6.13045" x2="17.4349" y2="7.76444" gradientUnits="userSpaceOnUse">
  <stop offset="0.289" stop-color="white"/>
  <stop offset="0.78" stop-color="white" stop-opacity="0"/>
  </linearGradient>
  <linearGradient id="paint2_linear_13292_817" x1="11.9559" y1="19.0759" x2="12.3717" y2="19.0759" gradientUnits="userSpaceOnUse">
  <stop offset="0.289" stop-color="white"/>
  <stop offset="0.78" stop-color="white" stop-opacity="0"/>
  </linearGradient>
  <linearGradient id="paint3_linear_13292_817" x1="13.6387" y1="18.8757" x2="14.0545" y2="18.8757" gradientUnits="userSpaceOnUse">
  <stop offset="0.289" stop-color="white"/>
  <stop offset="0.78" stop-color="white" stop-opacity="0"/>
  </linearGradient>
  <linearGradient id="paint4_linear_13292_817" x1="9.10531" y1="17.9402" x2="10.0096" y2="17.9402" gradientUnits="userSpaceOnUse">
  <stop offset="0.289" stop-color="white"/>
  <stop offset="0.78" stop-color="white" stop-opacity="0"/>
  </linearGradient>
  </defs>
  </svg>
  