<svg width="24" height="24" viewBox="0 0 24 24" fill="none" xmlns="http://www.w3.org/2000/svg">
<circle cx="12" cy="12" r="12" fill="#C4C4C4"/>
<path d="M15.4705 14.5895L18.8656 12.6291C19.0454 12.5253 19.1566 12.3322 19.1566 12.1245V8.20417C19.1566 7.99691 19.0449 7.80337 18.8656 7.69949L15.4705 5.7391C15.2907 5.63522 15.0678 5.63571 14.888 5.7391L11.4929 7.69949C11.3131 7.80337 11.2019 7.99691 11.2019 8.20417V15.2103L8.82107 16.5847L6.44028 15.2103V12.4611L8.82107 11.0867L10.3914 11.9932V10.1489L9.11211 9.41049C9.02392 9.35953 8.92298 9.33258 8.82058 9.33258C8.71817 9.33258 8.61724 9.35953 8.52953 9.41049L5.13449 11.3709C4.95467 11.4748 4.84344 11.6678 4.84344 11.8756V15.7959C4.84344 16.0031 4.95516 16.1967 5.13449 16.3005L8.52953 18.2609C8.70886 18.3643 8.93229 18.3643 9.11211 18.2609L12.5072 16.301C12.687 16.1971 12.7982 16.0036 12.7982 15.7963V8.79018L12.8413 8.76568L15.179 7.4158L17.5598 8.79018V11.5394L15.179 12.9138L13.6111 12.0083V13.8526L14.888 14.59C15.0678 14.6934 15.2907 14.6934 15.4705 14.59V14.5895Z" fill="white"/>
</svg>
