<svg width="24" height="24" viewBox="0 0 24 24" fill="none" xmlns="http://www.w3.org/2000/svg">
    <circle cx="12" cy="12" r="12" fill="#C4C4C4" />
    <path d="M18.478 15.5382L16.317 17.796C16.27 17.8451 16.2131 17.8842 16.15 17.9109C16.0868 17.9376 16.0187 17.9514 15.9498 17.9514H5.70541C5.65653 17.9514 5.60871 17.9375 5.56784 17.9113C5.52696 17.8852 5.4948 17.8481 5.47532 17.8044C5.45584 17.7607 5.44987 17.7124 5.45816 17.6655C5.46645 17.6186 5.48863 17.575 5.52198 17.5402L7.68466 15.2824C7.73152 15.2335 7.78817 15.1944 7.85112 15.1677C7.91409 15.141 7.98201 15.1272 8.05069 15.127H18.2945C18.3434 15.127 18.3912 15.141 18.4321 15.1671C18.473 15.1932 18.5051 15.2304 18.5247 15.274C18.5441 15.3177 18.5501 15.366 18.5418 15.4129C18.5335 15.4598 18.5113 15.5034 18.478 15.5382ZM16.317 10.9916C16.27 10.9425 16.2131 10.9034 16.15 10.8767C16.0868 10.85 16.0187 10.8362 15.9498 10.8362H5.70541C5.65653 10.8362 5.60871 10.8502 5.56784 10.8763C5.52696 10.9024 5.4948 10.9396 5.47532 10.9832C5.45584 11.0269 5.44987 11.0752 5.45816 11.1221C5.46645 11.169 5.48863 11.2126 5.52198 11.2474L7.68466 13.5052C7.73152 13.5542 7.78817 13.5932 7.85112 13.6199C7.91409 13.6466 7.98201 13.6605 8.05069 13.6606H18.2945C18.3434 13.6606 18.3912 13.6467 18.4321 13.6205C18.473 13.5944 18.5051 13.5573 18.5247 13.5136C18.5441 13.4699 18.5501 13.4216 18.5418 13.3747C18.5335 13.3278 18.5113 13.2842 18.478 13.2494L16.317 10.9916ZM5.70541 9.36977H15.9498C16.0187 9.3698 16.0868 9.35603 16.15 9.3293C16.2131 9.30258 16.27 9.26347 16.317 9.21443L18.478 6.9566C18.5113 6.92178 18.5335 6.87823 18.5418 6.8313C18.5501 6.78437 18.5441 6.73611 18.5247 6.69243C18.5051 6.64876 18.473 6.61158 18.4321 6.58547C18.3912 6.55935 18.3434 6.54544 18.2945 6.54544H8.05069C7.98201 6.54555 7.91409 6.5594 7.85112 6.58612C7.78817 6.61284 7.73152 6.65186 7.68466 6.70078L5.52254 8.95861C5.48922 8.99339 5.46705 9.0369 5.45874 9.08377C5.45044 9.13065 5.45635 9.17888 5.47577 9.22253C5.49518 9.26618 5.52725 9.30336 5.56804 9.32951C5.60884 9.35567 5.65658 9.36965 5.70541 9.36977Z" fill="white" />
</svg>
    