<svg width="24" height="24" viewBox="0 0 24 24" fill="none" xmlns="http://www.w3.org/2000/svg">
<path d="M23.9901 12C23.9901 13.5759 23.6798 15.1363 23.077 16.5922C22.4742 18.0481 21.5906 19.371 20.4768 20.4853C19.363 21.5996 18.0406 22.4835 16.5853 23.0865C15.13 23.6896 13.5702 24 11.995 24C10.4198 24 8.86004 23.6896 7.40473 23.0865C5.94943 22.4835 4.62711 21.5996 3.51326 20.4853C2.39942 19.371 1.51587 18.0481 0.913067 16.5922C0.31026 15.1363 -2.98224e-07 13.5759 0 12C6.02292e-07 8.8174 1.26376 5.76516 3.51327 3.51472C5.76277 1.26429 8.81375 1.32614e-07 11.995 0C15.1763 -1.20558e-07 18.2273 1.26429 20.4768 3.51472C22.7263 5.76516 23.9901 8.8174 23.9901 12Z" fill="white"/>
<path d="M0 12C0 18.6274 5.37258 24 12 24C18.6274 24 24 18.6274 24 12C24 5.37258 18.6274 0 12 0C5.37258 0 0 5.37258 0 12ZM13.3125 5.38125C15 5.73281 16.275 6.65156 16.9266 7.9875C17.1281 8.4 17.1562 8.61562 17.025 8.73281C16.9359 8.8125 14.5641 9.5625 14.4094 9.5625C14.2594 9.55781 14.1328 9.4125 13.9594 9.04687C13.5891 8.25469 12.8578 7.86094 11.7656 7.86562C10.6734 7.86562 10.0312 8.19844 9.89062 8.83125C9.80625 9.21094 9.9 9.52969 10.1672 9.79687C10.4766 10.1062 10.9313 10.2609 12.3188 10.5187C14.6297 10.9547 15.9094 11.4469 16.7156 12.1969C17.0953 12.5578 17.325 12.9047 17.5031 13.4062C17.6438 13.7906 17.6484 13.8328 17.6484 14.6016C17.6484 15.2906 17.6344 15.45 17.5406 15.7734C17.0813 17.3719 15.8109 18.3562 13.7109 18.7312C13.0219 18.8531 11.4703 18.8438 10.7344 18.7125C9.65625 18.5156 8.84063 18.2062 8.13281 17.7141C7.65938 17.3906 7.05938 16.7437 6.80156 16.2937C6.57188 15.8906 6.28125 15.1031 6.28125 14.8781C6.28125 14.625 6.40313 14.5687 7.69688 14.2359C8.35781 14.0625 8.93906 13.9219 8.98594 13.9219C9.15938 13.9219 9.26719 14.0625 9.41719 14.4703C9.49688 14.6953 9.64688 15 9.74063 15.1406C9.95625 15.45 10.4719 15.8531 10.8188 15.9844C11.5641 16.2656 12.7547 16.2937 13.5281 16.05C14.1 15.8719 14.4844 15.3844 14.4844 14.8406C14.4844 14.0437 13.9219 13.6969 12.0234 13.3359C10.9172 13.125 10.5375 13.0312 9.79688 12.7875C8.09531 12.2297 7.10625 11.3578 6.79688 10.1437C6.61875 9.45937 6.69375 8.325 6.95156 7.71094C7.47656 6.45469 8.87813 5.54062 10.6641 5.30156C11.2078 5.22656 12.7922 5.27812 13.3125 5.38125Z" fill="#C4C4C4"/>
</svg>
