<svg width="22" height="22" viewBox="0 0 22 22" fill="none" xmlns="http://www.w3.org/2000/svg">
	<circle cx="11" cy="11" r="11" fill="#C4C4C4"/>
	<path fill-rule="evenodd" clip-rule="evenodd" d="M10.6553 14.755C10.995 16.0506 12.214 17.0393 12.8293 16.9988C12.8508 16.9973 15.1644 16.5528 16.4307 14.3714C17.4165 12.6742 17.0807 11.0355 15.7402 10.9999C15.2581 11.036 10.0078 12.2862 10.6553 14.755ZM11.8197 5C10.9467 5 10.118 5.18739 9.36849 5.52167C9.23734 5.57664 9.10958 5.63938 8.9859 5.70955C8.90099 5.75493 8.81608 5.79983 8.73409 5.84863L8.75361 5.85497C8.50522 6.02723 8.29148 6.2278 8.11629 6.46008C6.38245 8.7556 12.1935 10.4241 15.3 10.4299C16.7299 11.4581 17.131 7.53416 15.7344 6.44495C14.6447 5.50986 13.2555 4.9971 11.8197 5Z" fill="#979797"/>
	<path fill-rule="evenodd" clip-rule="evenodd" d="M9.63586 6.34592C8.85019 7.50003 6.23259 8.31351 5.80218 8.18664L5.80023 8.18176L5.85391 8.07781C6.30363 7.23397 6.94227 6.50548 7.72 5.94919C7.88104 5.83353 8.04793 5.72568 8.22019 5.62516C8.5857 5.41776 8.96146 5.40507 9.08492 5.40019C10.2502 5.42166 9.64172 6.33665 9.63537 6.34592" fill="#F2F1F1"/>
	<mask id="mask0_2885_9490" style="mask-type:alpha" maskUnits="userSpaceOnUse" x="5" y="9" width="4" height="8">
		<path d="M5 8.9999H9.00008V16.9996H5V8.9999Z" fill="white"/>
	</mask>
	<g mask="url(#mask0_2885_9490)">
		<path fill-rule="evenodd" clip-rule="evenodd" d="M8.97667 14.9944C9.03523 15.3736 8.9752 16.8722 8.89615 16.9986C8.82881 17.0025 8.68729 17.0113 8.27884 16.7849C7.4863 16.3383 6.79622 15.7306 6.25318 15.0008C5.85591 14.4662 5.54472 13.8728 5.33087 13.242C5.11073 12.5896 4.99896 11.9055 5.00001 11.2169C4.99879 10.4599 5.13401 9.7089 5.39919 8.9999H5.40016C5.86864 9.61428 6.41031 10.1701 6.87049 10.7908C7.30919 11.3813 7.91235 12.3441 8.03484 12.5501C8.79709 13.8271 8.9186 14.6152 8.97667 14.9944Z" fill="#F2F1F1"/>
	</g>
	<path fill-rule="evenodd" clip-rule="evenodd" d="M17.8001 11.2878C17.8001 12.1072 17.644 12.8904 17.3614 13.6087C16.6197 14.409 11.6168 12.4395 11.5675 12.418C10.8833 12.1174 8.80054 11.2019 8.61266 9.76429C8.34232 7.69618 12.5254 6.25464 14.3637 6.19999C14.5838 6.20243 15.2547 6.21024 15.6456 6.52939C16.3234 7.12282 16.8664 7.85444 17.238 8.6751C17.6096 9.49576 17.8013 10.3864 17.8001 11.2873V11.2878ZM13.4253 16.4034C13.7244 15.3445 16.34 14.2592 16.9173 14.2006C16.9886 14.1933 17.0188 14.2436 16.9876 14.3012C16.3854 15.3962 15.4939 16.298 14.4149 16.8827C13.8693 17.1472 13.2691 16.9544 13.4253 16.4034Z" fill="#F2F1F1"/>
</svg>

