<svg width="17" height="10" viewBox="0 0 17 10" fill="none" xmlns="http://www.w3.org/2000/svg">
<path d="M9.15999 9.24993L16.25 2.15993C16.3547 2.07029 16.4397 1.95997 16.4997 1.8359C16.5597 1.71184 16.5935 1.57671 16.5988 1.43899C16.6041 1.30127 16.5809 1.16394 16.5306 1.03561C16.4804 0.907286 16.4041 0.790739 16.3066 0.693284C16.2092 0.595829 16.0926 0.519571 15.9643 0.469296C15.836 0.419022 15.6987 0.395816 15.5609 0.401136C15.4232 0.406455 15.2881 0.440185 15.164 0.500208C15.04 0.560232 14.9296 0.645252 14.84 0.749934L8.45999 7.12993L2.07999 0.749934C1.98703 0.656206 1.87643 0.581811 1.75457 0.531042C1.63271 0.480274 1.50201 0.454136 1.36999 0.454136C1.23798 0.454136 1.10728 0.480274 0.985418 0.531042C0.863559 0.581811 0.752957 0.656206 0.659994 0.749934C0.473743 0.937297 0.369202 1.19075 0.369202 1.45493C0.369202 1.71912 0.473743 1.97257 0.659994 2.15993L7.74999 9.24993C7.93736 9.43618 8.19081 9.54073 8.45499 9.54073C8.71918 9.54073 8.97263 9.43618 9.15999 9.24993Z" fill="url(#paint0_linear)"/>
<defs>
<linearGradient id="paint0_linear" x1="4.20999" y1="5.70993" x2="12.71" y2="-2.79007" gradientUnits="userSpaceOnUse">
<stop offset="0.36" stop-color="#2041E0"/>
<stop offset="0.53" stop-color="#2549E3"/>
<stop offset="0.78" stop-color="#345EEA"/>
<stop offset="1" stop-color="#4476F2"/>
</linearGradient>
</defs>
</svg>
