<svg width="11" height="8" viewBox="0 0 11 8" fill="none" xmlns="http://www.w3.org/2000/svg">
<path d="M4.70057 7.71367L10.657 1.73253C10.7598 1.64426 10.8432 1.53564 10.9021 1.41348C10.961 1.29132 10.9941 1.15826 10.9993 1.02265C11.0045 0.887048 10.9817 0.751825 10.9324 0.62547C10.8831 0.499115 10.8082 0.384357 10.7126 0.288399C10.617 0.19244 10.5027 0.117353 10.3767 0.06785C10.2508 0.0183473 10.1161 -0.00450231 9.98097 0.000735484C9.84584 0.00597328 9.71325 0.0391851 9.59152 0.0982868C9.4698 0.157388 9.36155 0.241104 9.2736 0.344179L4.01375 5.62622L1.67857 3.28276C1.58736 3.19047 1.47884 3.11722 1.35928 3.06723C1.23971 3.01724 1.11147 2.99151 0.981944 2.99151C0.852418 2.99151 0.724174 3.01724 0.60461 3.06723C0.485046 3.11722 0.376528 3.19047 0.285315 3.28276C0.102572 3.46725 -6.49867e-07 3.71681 -6.9535e-07 3.97694C-7.40832e-07 4.23707 0.102572 4.48663 0.285315 4.67111L3.31712 7.71367C3.50095 7.89706 3.74963 8 4.00884 8C4.26805 8 4.51673 7.89706 4.70057 7.71367Z" fill="white"/>
</svg>
