<svg width="22" height="19" viewBox="0 0 22 19" fill="none" xmlns="http://www.w3.org/2000/svg">
<g clip-path="url(#clip0)">
<path d="M17 4.8999C16.7 4.8999 16.5 4.9999 16.3 5.1999C15.9 5.5999 15.9 6.1999 16.3 6.5999L18.2 8.4999H10C9.4 8.4999 9 8.8999 9 9.4999C9 10.0999 9.4 10.4999 10 10.4999H18.2L16.3 12.3999C15.9 12.7999 15.9 13.3999 16.3 13.7999C16.5 13.9999 16.8 14.0999 17 14.0999C17.3 14.0999 17.5 13.9999 17.7 13.7999L21.3 10.1999C21.7 9.7999 21.7 9.1999 21.3 8.7999L17.7 5.1999C17.5 4.9999 17.3 4.8999 17 4.8999Z" fill="url(#paint0_linear)"/>
<path d="M9.49999 18.9999C7.09999 18.9999 4.59999 18.0999 2.79999 16.1999C-0.900006 12.4999 -0.900006 6.4999 2.79999 2.7999C6.49999 -0.900098 12.5 -0.900098 16.2 2.7999C16.6 3.1999 16.6 3.7999 16.2 4.1999C15.8 4.5999 15.2 4.5999 14.8 4.1999C11.9 1.2999 7.09999 1.2999 4.19999 4.1999C1.29999 7.0999 1.29999 11.8999 4.19999 14.7999C7.09999 17.6999 11.9 17.6999 14.8 14.7999C15.2 14.3999 15.8 14.3999 16.2 14.7999C16.6 15.1999 16.6 15.7999 16.2 16.1999C14.4 18.0999 11.9 18.9999 9.49999 18.9999Z" fill="url(#paint1_linear)"/>
</g>
<defs>
<linearGradient id="paint0_linear" x1="9.65273" y1="11.1969" x2="16.0922" y2="4.60008" gradientUnits="userSpaceOnUse">
<stop offset="0.36" stop-color="#2041E0"/>
<stop offset="0.53" stop-color="#2549E3"/>
<stop offset="0.78" stop-color="#345EEA"/>
<stop offset="1" stop-color="#4476F2"/>
</linearGradient>
<linearGradient id="paint1_linear" x1="0.878461" y1="13.0125" x2="13.0155" y2="5.13008" gradientUnits="userSpaceOnUse">
<stop offset="0.36" stop-color="#2041E0"/>
<stop offset="0.53" stop-color="#2549E3"/>
<stop offset="0.78" stop-color="#345EEA"/>
<stop offset="1" stop-color="#4476F2"/>
</linearGradient>
<clipPath id="clip0">
<rect width="21.6" height="19" fill="white"/>
</clipPath>
</defs>
</svg>
