<svg xmlns="http://www.w3.org/2000/svg" xmlns:xlink="http://www.w3.org/1999/xlink" viewBox="0 0 13 13"><defs><style>.cls-1{fill:url(#linear-gradient);}</style><linearGradient id="linear-gradient" x1="1" y1="7" x2="11.99" y2="7" gradientUnits="userSpaceOnUse"><stop offset="0.36" stop-color="#2041e0"/><stop offset="0.53" stop-color="#2549e3"/><stop offset="0.78" stop-color="#345eea"/><stop offset="1" stop-color="#4476f2"/></linearGradient></defs><g id="artwork"><path class="cls-1" d="M12,2.45a.63.63,0,0,0-.07-.22h0a.45.45,0,0,0-.19-.15l-.05,0a.69.69,0,0,0-.2,0h0l-10,1A.5.5,0,0,0,1,3.37a.5.5,0,0,0,.18.53L5.05,6.79,6,11.6a.5.5,0,0,0,.41.39H6.5a.51.51,0,0,0,.44-.26l5-9a.08.08,0,0,1,0,0,.58.58,0,0,0,0-.18ZM9.55,3.2l-4,2.69-2.69-2ZM6.72,10.07,6.06,6.73l4-2.67Z"/></g></svg>