<svg width="21" height="21" viewBox="0 0 21 21" fill="none" xmlns="http://www.w3.org/2000/svg">
    <rect x="0.5" y="0.5" width="20" height="20" rx="10" stroke="white"/>
    <path d="M14.4828 9.98851C14.7684 9.98851 15 10.2201 15 10.5057C15 10.7914 14.7684 11.023 14.4828 11.023H10.9861V14.5081C10.9861 14.7798 10.7659 15 10.4942 15C10.2225 15 10.0023 14.7798 10.0023 14.5081V11.023H6.51724C6.23158 11.023 6 10.7914 6 10.5057C6 10.2201 6.23158 9.98851 6.51724 9.98851H10.0023V6.4919C10.0023 6.22023 10.2225 6 10.4942 6C10.7659 6 10.9861 6.22023 10.9861 6.4919V9.98851H14.4828Z" fill="white"/>
</svg>
