<svg xmlns="http://www.w3.org/2000/svg" width="254" height="163" viewBox="0 0 254 163" fill="none">
    <g clip-path="url(#clip0_11997_371831)">
        <rect x="74.7663" y="60.2708" width="146.019" height="101.148" rx="14.25" stroke="#2E3133" stroke-width="1.5"/>
        <rect x="43.3523" y="51.7901" width="161.561" height="81.81" rx="8" fill="#1C1E1F"/>
        <path d="M162.852 27.5414C162.852 35.4115 156.472 41.7914 148.602 41.7914L58.3887 41.7914C50.5186 41.7914 44.1387 35.4114 44.1387 27.5414L44.1387 1.61462L162.852 1.61463L162.852 27.5414Z" stroke="url(#paint0_linear_11997_371831)" stroke-width="1.5"/>
        <path d="M18.4347 52.5529C26.3048 52.5529 32.6847 58.9329 32.6847 66.8029L32.6847 118.613C32.6847 126.483 26.3047 132.863 18.4347 132.863L1.26345 132.863L1.26345 52.5529L18.4347 52.5529Z" stroke="url(#paint1_linear_11997_371831)" stroke-width="1.5"/>
        <rect x="60.4999" y="65.3726" width="128" height="24.1912" rx="4" fill="#383B3D"/>
        <rect x="60.4999" y="96.2836" width="128" height="24.1912" rx="4" fill="#383B3D"/>
        <ellipse cx="96.987" cy="41.7696" rx="3.06276" ry="3.08717" fill="#4A4E50"/>
        <ellipse cx="74.0163" cy="144.418" rx="6.12553" ry="6.17434" fill="#2E3133"/>
        <g filter="url(#filter0_d_11997_371831)">
            <ellipse cx="212.586" cy="60.2726" rx="3.06276" ry="3.08717" fill="#6BAEFF"/>
        </g>
    </g>
    <defs>
        <filter id="filter0_d_11997_371831" x="196.524" y="44.1854" width="32.1255" height="32.1743" filterUnits="userSpaceOnUse" color-interpolation-filters="sRGB">
            <feFlood flood-opacity="0" result="BackgroundImageFix"/>
            <feColorMatrix in="SourceAlpha" type="matrix" values="0 0 0 0 0 0 0 0 0 0 0 0 0 0 0 0 0 0 127 0" result="hardAlpha"/>
            <feMorphology radius="1" operator="dilate" in="SourceAlpha" result="effect1_dropShadow_11997_371831"/>
            <feOffset/>
            <feGaussianBlur stdDeviation="6"/>
            <feComposite in2="hardAlpha" operator="out"/>
            <feColorMatrix type="matrix" values="0 0 0 0 0.619608 0 0 0 0 0.792157 0 0 0 0 1 0 0 0 0.5 0"/>
            <feBlend mode="normal" in2="BackgroundImageFix" result="effect1_dropShadow_11997_371831"/>
            <feBlend mode="normal" in="SourceGraphic" in2="effect1_dropShadow_11997_371831" result="shape"/>
        </filter>
        <linearGradient id="paint0_linear_11997_371831" x1="103.063" y1="42.5414" x2="103.063" y2="0.864622" gradientUnits="userSpaceOnUse">
            <stop stop-color="#4B4F52"/>
            <stop offset="1" stop-color="#2E3133" stop-opacity="0"/>
        </linearGradient>
        <linearGradient id="paint1_linear_11997_371831" x1="33.4347" y1="93.0022" x2="0.513449" y2="93.0022" gradientUnits="userSpaceOnUse">
            <stop stop-color="#4B4F52"/>
            <stop offset="1" stop-color="#2E3133" stop-opacity="0"/>
        </linearGradient>
        <clipPath id="clip0_11997_371831">
            <rect width="253" height="161.275" fill="white" transform="translate(0.5 0.862549)"/>
        </clipPath>
    </defs>
</svg>