
<svg width="24" height="24" viewBox="0 0 24 24" fill="none" xmlns="http://www.w3.org/2000/svg">
    <rect width="24" height="24" rx="12" fill="#30363B"/>
    <g clip-path="url(#clip0_19778_12138)">
    <path d="M12.0006 21.8902V16.9275L5.86157 13.3375L12.0006 21.8902Z" fill="#F0CDC2"/>
    <path fill-rule="evenodd" clip-rule="evenodd" d="M5.7846 13.2673C5.81771 13.2309 5.87174 13.2227 5.9142 13.2475L12.0532 16.8375C12.0851 16.8562 12.1048 16.8904 12.1048 16.9274V21.8901C12.1048 21.9353 12.0756 21.9754 12.0325 21.9892C11.9894 22.0031 11.9424 21.9876 11.916 21.9508L5.77699 13.3982C5.74831 13.3582 5.75148 13.3037 5.7846 13.2673ZM6.23187 13.6746L11.8964 21.5663V16.9872L6.23187 13.6746Z" fill="#1616B4"/>
    <path d="M12.0209 21.8902V16.9275L18.1598 13.3375L12.0209 21.8902Z" fill="#C9B3F5"/>
    <path fill-rule="evenodd" clip-rule="evenodd" d="M18.2369 13.2673C18.27 13.3037 18.2732 13.3582 18.2445 13.3982L12.1055 21.9508C12.0792 21.9876 12.0321 22.0031 11.989 21.9892C11.9459 21.9754 11.9167 21.9353 11.9167 21.8901V16.9274C11.9167 16.8904 11.9364 16.8562 11.9683 16.8375L18.1073 13.2475C18.1497 13.2227 18.2038 13.2309 18.2369 13.2673ZM12.1251 16.9872V21.5663L17.7896 13.6746L12.1251 16.9872Z" fill="#1616B4"/>
    <path d="M12.0005 15.6939V9.36023L5.79114 12.1407L12.0005 15.6939Z" fill="#88AAF1"/>
    <path fill-rule="evenodd" clip-rule="evenodd" d="M12.0572 9.27285C12.0869 9.29205 12.1047 9.32496 12.1047 9.36027V15.6939C12.1047 15.7311 12.085 15.7654 12.0528 15.7841C12.0207 15.8027 11.9811 15.8028 11.9488 15.7844L5.73944 12.2312C5.70542 12.2117 5.6852 12.1748 5.68714 12.1356C5.68907 12.0965 5.71283 12.0617 5.74861 12.0457L11.958 9.2652C11.9902 9.25077 12.0276 9.25365 12.0572 9.27285ZM6.02073 12.1521L11.8964 15.5143V9.52105L6.02073 12.1521Z" fill="#1616B4"/>
    <path d="M12.0209 15.6939V9.36023L18.2303 12.1407L12.0209 15.6939Z" fill="#C9B3F5"/>
    <path fill-rule="evenodd" clip-rule="evenodd" d="M11.9643 9.27285C11.9939 9.25365 12.0313 9.25077 12.0635 9.2652L18.2729 12.0457C18.3087 12.0617 18.3324 12.0965 18.3344 12.1356C18.3363 12.1748 18.3161 12.2117 18.2821 12.2312L12.0727 15.7844C12.0404 15.8028 12.0008 15.8027 11.9687 15.7841C11.9365 15.7654 11.9167 15.7311 11.9167 15.6939V9.36027C11.9167 9.32496 11.9346 9.29205 11.9643 9.27285ZM12.1251 9.52105V15.5143L18.0008 12.1521L12.1251 9.52105Z" fill="#1616B4"/>
    <path d="M5.79114 12.1408L12.0005 2.10986V9.36026L5.79114 12.1408Z" fill="#F0CDC2"/>
    <path fill-rule="evenodd" clip-rule="evenodd" d="M12.0291 2.00972C12.0738 2.02246 12.1047 2.06336 12.1047 2.10991V9.36031C12.1047 9.40137 12.0806 9.4386 12.0431 9.45538L5.83375 12.2359C5.79199 12.2546 5.74291 12.2438 5.71278 12.2094C5.68265 12.175 5.67852 12.1249 5.70261 12.086L11.912 2.05509C11.9365 2.0155 11.9843 1.99698 12.0291 2.00972ZM6.05842 11.907L11.8964 9.29282V2.4761L6.05842 11.907Z" fill="#1616B4"/>
    <path d="M18.2303 12.1408L12.0209 2.10986V9.36026L18.2303 12.1408Z" fill="#B8FAF6"/>
    <path fill-rule="evenodd" clip-rule="evenodd" d="M11.9924 2.00972C12.0372 1.99698 12.085 2.0155 12.1095 2.05509L18.3189 12.086C18.343 12.1249 18.3388 12.175 18.3087 12.2094C18.2786 12.2438 18.2295 12.2546 18.1877 12.2359L11.9783 9.45538C11.9409 9.4386 11.9167 9.40137 11.9167 9.36031V2.10991C11.9167 2.06336 11.9476 2.02246 11.9924 2.00972ZM12.1251 2.47609V9.29282L17.9631 11.907L12.1251 2.47609Z" fill="#1616B4"/>
    </g>
    <defs>
    <clipPath id="clip0_19778_12138">
    <rect width="12.6374" height="20" fill="white" transform="translate(5.68127 2)"/>
    </clipPath>
    </defs>
    </svg>
    