<svg width="9" height="7" viewBox="0 0 9 7" fill="none" xmlns="http://www.w3.org/2000/svg">
<path d="M0.500097 3.90078L7.3001 3.90078L5.3001 5.90078C5.1001 6.10078 5.1001 6.40078 5.3001 6.60078C5.5001 6.70078 5.8001 6.70078 6.0001 6.60078L8.9001 3.70078C9.0001 3.50078 9.0001 3.20078 8.9001 3.00078L6.0001 0.200782C5.8001 0.000781814 5.5001 0.00078184 5.3001 0.200782C5.1001 0.400781 5.1001 0.700782 5.3001 0.900781L7.3001 2.90078L0.500097 2.90078C0.200097 2.90078 9.69622e-05 3.10078 9.69885e-05 3.40078C9.7006e-05 3.60078 0.200097 3.90078 0.500097 3.90078Z" fill="url(#paint0_linear)"/>
<defs>
<linearGradient id="paint0_linear" x1="9.0001" y1="3.37238" x2="-0.00100302" y2="3.37238" gradientUnits="userSpaceOnUse">
<stop offset="0.3645" stop-color="#2041E0"/>
<stop offset="0.5292" stop-color="#2549E3"/>
<stop offset="0.7806" stop-color="#345EEA"/>
<stop offset="1" stop-color="#4476F2"/>
</linearGradient>
</defs>
</svg>
