<svg width="14" height="11" viewBox="0 0 14 11" fill="none" xmlns="http://www.w3.org/2000/svg">
<path d="M4.79079 9.84954L12.8808 1.75955C12.9855 1.6699 13.0705 1.55958 13.1305 1.43552C13.1905 1.31145 13.2243 1.17632 13.2296 1.0386C13.2349 0.90088 13.2117 0.763548 13.1614 0.635223C13.1112 0.506898 13.0349 0.39035 12.9374 0.292896C12.84 0.195441 12.7234 0.119183 12.5951 0.0689079C12.4668 0.0186333 12.3295 -0.00457215 12.1917 0.000747323C12.054 0.00606679 11.9189 0.0397964 11.7948 0.0998197C11.6708 0.159843 11.5604 0.244864 11.4708 0.349545L4.09079 7.72954L1.71079 5.34954C1.61783 5.25581 1.50723 5.18142 1.38537 5.13065C1.26351 5.07988 1.1328 5.05374 1.00079 5.05374C0.868779 5.05374 0.738074 5.07988 0.616215 5.13065C0.494356 5.18142 0.383755 5.25581 0.290792 5.34954C0.104541 5.53691 -1.01242e-06 5.79036 -1.05861e-06 6.05454C-1.1048e-06 6.31873 0.10454 6.57218 0.290791 6.75954L3.38079 9.84954C3.56815 10.0358 3.82161 10.1403 4.08579 10.1403C4.34998 10.1403 4.60343 10.0358 4.79079 9.84954Z" fill="white"/>
</svg>
