<svg width="9" height="11" viewBox="0 0 9 11" fill="none" xmlns="http://www.w3.org/2000/svg">
<path d="M8 2.1V1.5C8 0.7 7.4 0 6.5 0H1.5C0.7 0 0 0.7 0 1.5C0 1.5 0 1.5 0 1.6V9.6C0 10.3 0.7 11 1.5 11H7.5C8.3 11 9 10.3 9 9.5V3.5C9 2.9 8.6 2.3 8 2.1ZM1.5 1H6.5C6.8 1 7 1.2 7 1.5V2H1.5C1.2 2 1 1.8 1 1.5C1 1.2 1.2 1 1.5 1ZM8 9.5C8 9.8 7.8 10 7.5 10H1.5C1.2 10 1 9.8 1 9.5V2.9C1.2 3 1.3 3 1.5 3H7.5C7.8 3 8 3.2 8 3.5V9.5Z" fill="url(#paint0_linear)"/>
<path d="M6.5 4H2.5C2.2 4 2 4.2 2 4.5C2 4.8 2.2 5 2.5 5H6.5C6.8 5 7 4.8 7 4.5C7 4.2 6.8 4 6.5 4Z" fill="url(#paint1_linear)"/>
<path d="M5.5 6H3.5C3.2 6 3 6.2 3 6.5C3 6.8 3.2 7 3.5 7H5.5C5.8 7 6 6.8 6 6.5C6 6.2 5.8 6 5.5 6Z" fill="url(#paint2_linear)"/>
<defs>
<linearGradient id="paint0_linear" x1="0" y1="5.5" x2="9.0059" y2="5.5" gradientUnits="userSpaceOnUse">
<stop offset="0.3645" stop-color="#2041E0"/>
<stop offset="0.5292" stop-color="#2549E3"/>
<stop offset="0.7806" stop-color="#345EEA"/>
<stop offset="1" stop-color="#4476F2"/>
</linearGradient>
<linearGradient id="paint1_linear" x1="2.0059" y1="4.4972" x2="7.0002" y2="4.4972" gradientUnits="userSpaceOnUse">
<stop offset="0.3645" stop-color="#2041E0"/>
<stop offset="0.5292" stop-color="#2549E3"/>
<stop offset="0.7806" stop-color="#345EEA"/>
<stop offset="1" stop-color="#4476F2"/>
</linearGradient>
<linearGradient id="paint2_linear" x1="3.0059" y1="6.5028" x2="6.0059" y2="6.5028" gradientUnits="userSpaceOnUse">
<stop offset="0.3645" stop-color="#2041E0"/>
<stop offset="0.5292" stop-color="#2549E3"/>
<stop offset="0.7806" stop-color="#345EEA"/>
<stop offset="1" stop-color="#4476F2"/>
</linearGradient>
</defs>
</svg>
