<svg width="17" height="10" viewBox="0 0 17 10" fill="none" xmlns="http://www.w3.org/2000/svg">
<path d="M9.56032 9.30853L16.6503 2.21853C16.755 2.12888 16.84 2.01856 16.9 1.8945C16.9601 1.77043 16.9938 1.6353 16.9991 1.49758C17.0044 1.35986 16.9812 1.22253 16.931 1.0942C16.8807 0.96588 16.8044 0.849332 16.707 0.751878C16.6095 0.654423 16.493 0.578165 16.3646 0.52789C16.2363 0.477616 16.099 0.45441 15.9613 0.45973C15.8236 0.465049 15.6884 0.498779 15.5644 0.558802C15.4403 0.618825 15.33 0.703846 15.2403 0.808528L8.86032 7.18853L2.48032 0.808528C2.38736 0.714799 2.27676 0.640405 2.1549 0.589636C2.03304 0.538868 1.90234 0.51273 1.77032 0.51273C1.63831 0.51273 1.50761 0.538868 1.38575 0.589636C1.26389 0.640405 1.15329 0.714799 1.06032 0.808528C0.874073 0.99589 0.769531 1.24934 0.769531 1.51353C0.769531 1.77771 0.874073 2.03117 1.06032 2.21853L8.15032 9.30853C8.33769 9.49478 8.59114 9.59932 8.85532 9.59932C9.11951 9.59932 9.37296 9.49478 9.56032 9.30853Z" fill="url(#paint0_linear)"/>
<defs>
<linearGradient id="paint0_linear" x1="4.61032" y1="5.76853" x2="13.1103" y2="-2.73147" gradientUnits="userSpaceOnUse">
<stop offset="0.36" stop-color="#2041E0"/>
<stop offset="0.53" stop-color="#2549E3"/>
<stop offset="0.78" stop-color="#345EEA"/>
<stop offset="1" stop-color="#4476F2"/>
</linearGradient>
</defs>
</svg>
