<svg width="18" height="18" viewBox="0 0 18 18" fill="none" xmlns="http://www.w3.org/2000/svg">
<rect width="18" height="18" rx="9" fill="#4476F2"/>
<g clip-path="url(#clip0_1748_1027)">
<path d="M9.84857 9.52549C9.15857 9.94902 8.235 10.1671 7.29964 10.1205C6.51321 10.0824 5.86821 9.8029 5.47821 9.34337C5.13535 8.93255 5.0025 8.39043 5.0925 7.76678C5.123 7.55953 5.18551 7.35812 5.27785 7.16961L5.29071 7.14314C5.61443 6.52723 6.09485 6.00524 6.6847 5.62853C7.27454 5.25182 7.95347 5.03339 8.65468 4.99471C9.35588 4.95604 10.0552 5.09847 10.6838 5.40798C11.3124 5.71749 11.8486 6.18342 12.2396 6.7599C12.6307 7.33639 12.8631 8.00357 12.914 8.69578C12.965 9.38798 12.8326 10.0814 12.53 10.7077C12.2275 11.334 11.7651 11.8717 11.1884 12.2677C10.6117 12.6638 9.94056 12.9047 9.24107 12.9667L9.28393 13.4527C10.0693 13.3835 10.8229 13.1134 11.4704 12.6689C12.118 12.2244 12.6372 11.6208 12.977 10.9177C13.3167 10.2145 13.4652 9.43603 13.4078 8.65891C13.3505 7.88178 13.0892 7.13283 12.6499 6.48583C12.2105 5.83883 11.6081 5.31611 10.9022 4.96916C10.1962 4.62222 9.41089 4.46301 8.6237 4.50723C7.8365 4.55145 7.07455 4.79757 6.41289 5.22134C5.75123 5.64512 5.2127 6.23193 4.85035 6.92396L4.83321 6.9589C4.71866 7.19284 4.64132 7.44284 4.60393 7.70008C4.49678 8.46031 4.66285 9.1369 5.09678 9.65784C5.57142 10.2275 6.34393 10.5663 7.27071 10.6108C8.39893 10.6669 9.52071 10.363 10.3168 9.80396L9.84857 9.52549Z" fill="white"/>
<path d="M10.7925 10.0781C10.3436 10.4635 9.3 11.1624 7.56857 11.2577C5.63036 11.3635 4.8225 10.7409 4.815 10.7346L4.65857 10.9252L4.81607 10.7378L4.5 11.1126C4.53429 11.1412 5.30893 11.7595 7.12821 11.7595C7.27714 11.7595 7.43357 11.7595 7.59643 11.7468C9.68893 11.6314 10.8386 10.7293 11.2393 10.3439L10.7925 10.0781Z" fill="white"/>
<path d="M11.6325 10.5821C11.367 10.927 11.0403 11.2212 10.6682 11.4504C9.35679 12.2868 7.68858 12.3948 6.52072 12.3366L6.49608 12.8247C6.69215 12.8342 6.88072 12.8385 7.06394 12.8385C10.3575 12.8385 11.6882 11.3561 12.06 10.8267L11.6314 10.5779" fill="white"/>
<path d="M11.5071 8.73454C11.7255 8.73454 11.9025 8.55961 11.9025 8.34383C11.9025 8.12805 11.7255 7.95312 11.5071 7.95312C11.2888 7.95312 11.1118 8.12805 11.1118 8.34383C11.1118 8.55961 11.2888 8.73454 11.5071 8.73454Z" fill="white"/>
</g>
<defs>
<clipPath id="clip0_1748_1027">
<rect width="9" height="9" fill="white" transform="translate(4.5 4.5)"/>
</clipPath>
</defs>
</svg>
