<svg width="6" height="11" viewBox="0 0 6 11" fill="none" xmlns="http://www.w3.org/2000/svg">
<path d="M2.11998 3.79035C2.11998 3.98369 2.18331 4.14702 2.30998 4.28035C2.44331 4.40702 2.60665 4.51369 2.79998 4.60035C2.99998 4.68035 3.26998 4.77035 3.60998 4.87035C4.08331 5.01035 4.46998 5.15035 4.76998 5.29035C5.07665 5.43035 5.33665 5.63702 5.54998 5.91035C5.76331 6.18369 5.86998 6.54368 5.86998 6.99035C5.86998 7.55702 5.67331 8.02369 5.27998 8.39035C4.88665 8.75035 4.36665 8.97035 3.71998 9.05035V10.4504H2.72998V9.06035C2.26331 9.00702 1.80998 8.88369 1.36998 8.69035C0.936647 8.49702 0.556647 8.25369 0.22998 7.96035L0.78998 6.82035C1.14331 7.14702 1.53998 7.40369 1.97998 7.59035C2.41998 7.77702 2.82998 7.87035 3.20998 7.87035C3.58331 7.87035 3.87665 7.80035 4.08998 7.66035C4.30331 7.51369 4.40998 7.31702 4.40998 7.07035C4.40998 6.87035 4.34331 6.70702 4.20998 6.58035C4.08331 6.44702 3.91998 6.34035 3.71998 6.26035C3.51998 6.18035 3.24665 6.09035 2.89998 5.99035C2.42665 5.85035 2.03998 5.71369 1.73998 5.58035C1.43998 5.44702 1.18331 5.24702 0.96998 4.98035C0.756647 4.70702 0.64998 4.35035 0.64998 3.91035C0.64998 3.37702 0.836647 2.93369 1.20998 2.58035C1.58331 2.22702 2.08998 2.00702 2.72998 1.92035V0.620351L3.71998 0.610352V1.91035C4.09998 1.95035 4.46998 2.03369 4.82998 2.16035C5.18998 2.28702 5.51331 2.44368 5.79998 2.63035L5.25998 3.80035C4.89998 3.58035 4.52998 3.41035 4.14998 3.29035C3.77665 3.17035 3.44665 3.11035 3.15998 3.11035C2.83998 3.11035 2.58665 3.17035 2.39998 3.29035C2.21331 3.41035 2.11998 3.57702 2.11998 3.79035Z" fill="url(#paint0_linear)"/>
<defs>
<linearGradient id="paint0_linear" x1="1.26893" y1="9.15561" x2="7.19273" y2="5.35282" gradientUnits="userSpaceOnUse">
<stop offset="0.407986" stop-color="#2041E0"/>
<stop offset="1" stop-color="#4476F2"/>
</linearGradient>
</defs>
</svg>
