<svg width="16" height="16" viewBox="0 0 16 16" fill="none" xmlns="http://www.w3.org/2000/svg">
<path fill-rule="evenodd" clip-rule="evenodd" d="M12.5 5.20001C13.6598 5.20001 14.6 4.25981 14.6 3.10001C14.6 1.94021 13.6598 1 12.5 1C11.3402 1 10.4 1.94021 10.4 3.10001C10.4 3.27261 10.4209 3.44035 10.4601 3.60085L5.59158 6.52198C5.21104 6.13803 4.68329 5.90023 4.10001 5.90023C2.94021 5.90023 2 6.84043 2 8.00024C2 9.16004 2.94021 10.1002 4.10001 10.1002C4.68344 10.1002 5.21129 9.86233 5.59185 9.47822L10.4601 12.3992C10.4209 12.5597 10.4 12.7274 10.4 12.9C10.4 14.0598 11.3402 15 12.5 15C13.6598 15 14.6 14.0598 14.6 12.9C14.6 11.7402 13.6598 10.8 12.5 10.8C11.8725 10.8 11.3093 11.0752 10.9245 11.5116L6.10676 8.62097C6.16738 8.42479 6.20001 8.21632 6.20001 8.00024C6.20001 7.78401 6.16734 7.57542 6.10665 7.37913L10.9245 4.48843C11.3093 4.92478 11.8725 5.20001 12.5 5.20001Z" fill="white"/>
</svg>
