<svg width="24" height="24" viewBox="0 0 24 24" fill="none" xmlns="http://www.w3.org/2000/svg">
<rect width="24" height="24" rx="12" fill="#30363B"/>
<path d="M12.8974 16.003L11.0172 17.8828C9.81092 19.0886 7.85936 19.0886 6.65364 17.8828C6.07031 17.3005 5.75 16.5254 5.75 15.7015C5.75 14.8775 6.07031 14.1025 6.65312 13.5196L9.18748 10.9857C10.414 9.75909 12.3718 9.80753 13.5505 10.9857C13.7864 11.2216 13.9724 11.4925 14.1177 11.781L13.288 12.6102C13.1942 12.2909 13.0276 11.9909 12.7859 11.7498C12.0317 10.9956 10.739 10.9633 9.9531 11.7493L9.95258 11.7503L7.4177 14.2842C6.63645 15.065 6.63645 16.3369 7.4177 17.1177C8.2078 17.9078 9.47915 17.8927 10.2521 17.1177L11.5151 15.8551C12.0323 16.003 12.4479 16.0296 12.8974 16.003ZM12.9812 7.1913L11.1198 9.05386C11.5609 9.02782 11.9817 9.05386 12.5015 9.20126L13.7479 7.95695C14.5281 7.17464 15.7999 7.17568 16.5812 7.95643C17.3713 8.74708 17.3551 10.0185 16.5812 10.7909L14.0651 13.3071L14.0635 13.3082C13.3145 14.0566 12.0396 14.1165 11.2307 13.3071C10.9843 13.0602 10.8218 12.7644 10.7328 12.4514L10.689 12.4868L9.89894 13.2759C10.0448 13.5655 10.2297 13.8358 10.4656 14.0717C11.6349 15.241 13.5927 15.3082 14.8291 14.0717L17.3458 11.5555C18.551 10.3492 18.552 8.39811 17.3453 7.19235C16.1385 5.98345 14.1854 5.98762 12.9812 7.1913Z" fill="white"/>
</svg>
