<svg width="7" height="12" viewBox="0 0 7 12" fill="none" xmlns="http://www.w3.org/2000/svg">
    <path d="M6.708 7.78627C6.708 8.43427 6.468 8.98627 5.988 9.44227C5.516 9.89027 4.828 10.1623 3.924 10.2583V11.6023H2.94V10.2703C2.348 10.2303 1.788 10.1223 1.26 9.94627C0.732 9.77027 0.312 9.54627 0 9.27427L0.54 8.06227C0.836 8.30227 1.196 8.50627 1.62 8.67427C2.044 8.83427 2.484 8.93427 2.94 8.97427V6.57427C2.372 6.43827 1.896 6.29027 1.512 6.13027C1.136 5.96227 0.82 5.72227 0.564 5.41027C0.308 5.09027 0.18 4.67027 0.18 4.15027C0.18 3.50227 0.416 2.95027 0.888 2.49427C1.36 2.03827 2.044 1.76627 2.94 1.67827V0.322266H3.924V1.65427C4.372 1.67827 4.808 1.75427 5.232 1.88227C5.664 2.01027 6.04 2.17827 6.36 2.38627L5.868 3.59827C5.26 3.24627 4.612 3.03027 3.924 2.95027V5.37427C4.5 5.51027 4.976 5.65827 5.352 5.81827C5.736 5.97827 6.056 6.21827 6.312 6.53827C6.576 6.85027 6.708 7.26627 6.708 7.78627ZM1.728 4.07827C1.728 4.34227 1.832 4.55427 2.04 4.71427C2.248 4.87427 2.548 5.01027 2.94 5.12227V2.98627C2.532 3.05027 2.228 3.17827 2.028 3.37027C1.828 3.56227 1.728 3.79827 1.728 4.07827ZM3.924 8.95027C4.348 8.88627 4.66 8.76227 4.86 8.57827C5.068 8.39427 5.172 8.16627 5.172 7.89427C5.172 7.62227 5.064 7.40627 4.848 7.24627C4.632 7.07827 4.324 6.93827 3.924 6.82627V8.95027Z" fill="url(#paint0_linear)"/>
    <defs>
        <linearGradient id="paint0_linear" x1="1.23568" y1="10.1181" x2="8.12744" y2="5.52785" gradientUnits="userSpaceOnUse">
            <stop offset="0.407986" stop-color="#2041E0"/>
            <stop offset="1" stop-color="#4476F2"/>
        </linearGradient>
    </defs>
</svg>
