
<svg width="76" height="128" viewBox="0 0 76 128" fill="none" xmlns="http://www.w3.org/2000/svg">
    <g clip-path="url(#clip0_22282_5800)">
    <path d="M38.3325 97.4725V73.6519L8.86536 56.4199L38.3325 97.4725Z" fill="#F0CDC2" stroke="#1616B4" stroke-linejoin="round"/>
    <path d="M38.4302 97.4725V73.6519L67.8971 56.4199L38.4302 97.4725Z" fill="#C9B3F5" stroke="#1616B4" stroke-linejoin="round"/>
    <path d="M38.3326 67.731V37.3294L8.52747 50.6757L38.3326 67.731Z" fill="#88AAF1" stroke="#1616B4" stroke-linejoin="round"/>
    <path d="M38.4301 67.731V37.3294L68.2353 50.6757L38.4301 67.731Z" fill="#C9B3F5" stroke="#1616B4" stroke-linejoin="round"/>
    <path d="M8.52747 50.6757L38.3325 2.52747V37.3294L8.52747 50.6757Z" fill="#F0CDC2" stroke="#1616B4" stroke-linejoin="round"/>
    <path d="M68.2352 50.6757L38.4302 2.52747V37.3294L68.2352 50.6757Z" fill="#B8FAF6" stroke="#1616B4" stroke-linejoin="round"/>
    </g>
    <path d="M22.9308 117.312H28.3228V119.328H22.9308V117.312ZM23.1228 121.92H29.2188V124H20.5468V112.8H29.0108V114.88H23.1228V121.92ZM34.4849 124L29.6529 112.8H32.4529L36.6769 122.72H35.0289L39.3169 112.8H41.8929L37.0449 124H34.4849ZM42.828 124V112.8H44.972L49.74 120.704H48.604L53.292 112.8H55.42L55.452 124H53.02L53.004 116.528H53.452L49.708 122.816H48.54L44.716 116.528H45.26V124H42.828Z" fill="white"/>
    <defs>
    <clipPath id="clip0_22282_5800">
    <rect width="60.6593" height="96" fill="white" transform="translate(8 2)"/>
    </clipPath>
    </defs>
    </svg>
    