<svg width="13" height="13" viewBox="0 0 13 13" fill="none" xmlns="http://www.w3.org/2000/svg">
    <path d="M6.48999 2C7.38086 1.99802 8.25226 2.26051 8.99382 2.75422C9.73537 3.24792 10.3137 3.95063 10.6555 4.7733C10.9974 5.59597 11.0873 6.5016 10.914 7.37545C10.7407 8.24929 10.3119 9.05203 9.68196 9.68197C9.05202 10.3119 8.24928 10.7407 7.37544 10.914C6.50159 11.0873 5.59597 10.9974 4.77329 10.6555C3.95062 10.3137 3.24792 9.73537 2.75421 8.99382C2.26051 8.25227 1.99802 7.38086 1.99999 6.49C2.00263 5.29999 2.47654 4.15947 3.318 3.31801C4.15947 2.47654 5.29998 2.00264 6.48999 2ZM6.48999 1C5.4022 1.00198 4.33942 1.32648 3.43605 1.93248C2.53268 2.53847 1.8293 3.39873 1.41484 4.40448C1.00039 5.41023 0.893485 6.51629 1.10764 7.5828C1.3218 8.6493 1.84741 9.62835 2.61799 10.3961C3.38858 11.1639 4.36953 11.686 5.43681 11.8963C6.50409 12.1065 7.60976 11.9956 8.61399 11.5775C9.61823 11.1594 10.4759 10.4529 11.0786 9.54731C11.6813 8.64175 12.002 7.57779 12 6.49C11.9947 5.03212 11.4118 3.63577 10.3791 2.60676C9.34635 1.57776 7.94788 0.99999 6.48999 1Z" fill="url(#paint0_linear)"/>
    <path d="M6.98999 5.49023C6.98999 5.21409 6.76613 4.99023 6.48999 4.99023C6.21385 4.99023 5.98999 5.21409 5.98999 5.49023V9.49023C5.98999 9.76638 6.21385 9.99023 6.48999 9.99023C6.76613 9.99023 6.98999 9.76638 6.98999 9.49023V5.49023Z" fill="url(#paint1_linear)"/>
    <path d="M6.98999 3.49023C6.98999 3.21409 6.76613 2.99023 6.48999 2.99023C6.21385 2.99023 5.98999 3.21409 5.98999 3.49023C5.98999 3.76638 6.21385 3.99023 6.48999 3.99023C6.76613 3.99023 6.98999 3.76638 6.98999 3.49023Z" fill="url(#paint2_linear)"/>
    <defs>
        <linearGradient id="paint0_linear" x1="3.02632" y1="10.5526" x2="10.2632" y2="2.44736" gradientUnits="userSpaceOnUse">
            <stop offset="0.407986" stop-color="#2041E0"/>
            <stop offset="1" stop-color="#4476F2"/>
        </linearGradient>
        <linearGradient id="paint1_linear" x1="6.1742" y1="9.33234" x2="7.5865" y2="9.01599" gradientUnits="userSpaceOnUse">
            <stop offset="0.407986" stop-color="#2041E0"/>
            <stop offset="1" stop-color="#4476F2"/>
        </linearGradient>
        <linearGradient id="paint2_linear" x1="6.1742" y1="3.85866" x2="6.8321" y2="3.12181" gradientUnits="userSpaceOnUse">
            <stop offset="0.407986" stop-color="#2041E0"/>
            <stop offset="1" stop-color="#4476F2"/>
        </linearGradient>
    </defs>
</svg>
