<svg width="16" height="21" viewBox="0 0 16 21" fill="none" xmlns="http://www.w3.org/2000/svg">
<path d="M13.99 11.05V10.49C13.99 9.12 12.87 8 11.5 8H2.49C1.12 8.01 0 9.12 0 10.49C0 10.66 0.02 10.83 0.05 11H0V18.51C0 19.88 1.19 21 2.65 21H13.34C14.8 21 15.99 19.88 15.99 18.51V13.46C16 12.29 15.14 11.32 13.99 11.05ZM2.49 10.01H11.5C11.77 10.01 11.99 10.23 11.99 10.5V10.97H2.42C2.19 10.94 2 10.74 2 10.49C2 10.22 2.22 10.01 2.49 10.01ZM13.35 19H2.65C2.3 19 2 18.78 2 18.51V12.93C2.1 12.95 2.21 12.95 2.31 12.96V12.97H2.36C2.4 12.97 2.44 12.98 2.49 12.98V12.97H13.35C13.7 12.97 14 13.2 14 13.46V14.84H13.25C12.7 14.84 12.25 15.29 12.25 15.84C12.25 16.39 12.7 16.84 13.25 16.84H14V18.51C14 18.78 13.7 19 13.35 19Z" fill="white"/>
<path d="M7.29005 6.7C7.68005 7.09 8.31005 7.09 8.70005 6.7L10.74 4.66C11.13 4.27 11.13 3.64 10.74 3.25C10.35 2.86 9.72005 2.86 9.33005 3.25L9.00005 3.58V1C9.00005 0.45 8.55005 0 8.00005 0C7.45005 0 7.00005 0.45 7.00005 1V3.58L6.69005 3.26C6.30005 2.87 5.67005 2.87 5.28005 3.26C4.89005 3.65 4.89005 4.28 5.28005 4.67L7.29005 6.7Z" fill="white"/>
</svg>
