<svg width="19" height="15" viewBox="0 0 19 15" fill="none" xmlns="http://www.w3.org/2000/svg">
<rect x="0.5" y="1.5" width="13" height="13" rx="1.5" stroke="#979797"/>
<path d="M7.79079 11.8495L17.8808 1.75955C17.9855 1.6699 18.0705 1.55958 18.1305 1.43552C18.1905 1.31145 18.2243 1.17632 18.2296 1.0386C18.2349 0.900881 18.2117 0.763548 18.1614 0.635223C18.1112 0.506898 18.0349 0.390351 17.9374 0.292896C17.84 0.195441 17.7234 0.119183 17.5951 0.0689085C17.4668 0.0186339 17.3295 -0.00457162 17.1917 0.000747847C17.054 0.00606732 16.9189 0.039797 16.7948 0.0998202C16.6708 0.159844 16.5604 0.244864 16.4708 0.349546L7.09079 9.72954L3.71079 6.34954C3.61783 6.25581 3.50723 6.18142 3.38537 6.13065C3.26351 6.07988 3.1328 6.05374 3.00079 6.05374C2.86878 6.05374 2.73807 6.07988 2.61621 6.13065C2.49436 6.18142 2.38375 6.25581 2.29079 6.34954C2.10454 6.53691 2 6.79036 2 7.05454C2 7.31873 2.10454 7.57218 2.29079 7.75954L6.38079 11.8495C6.56815 12.0358 6.8216 12.1403 7.08579 12.1403C7.34998 12.1403 7.60343 12.0358 7.79079 11.8495Z" fill="url(#paint0_linear)"/>
<defs>
<linearGradient id="paint0_linear" x1="2.84079" y1="8.30954" x2="11.3408" y2="-0.190454" gradientUnits="userSpaceOnUse">
<stop offset="0.36" stop-color="#2041E0"/>
<stop offset="0.53" stop-color="#2549E3"/>
<stop offset="0.78" stop-color="#345EEA"/>
<stop offset="1" stop-color="#4476F2"/>
</linearGradient>
</defs>
</svg>
