<svg xmlns="http://www.w3.org/2000/svg" xmlns:xlink="http://www.w3.org/1999/xlink" viewBox="0 0 24 24"><defs><style>.cls-1{fill:url(#linear-gradient);}.cls-2{fill:url(#linear-gradient-2);}.cls-3{fill:url(#linear-gradient-3);}.cls-4{fill:url(#linear-gradient-4);}.cls-5{fill:url(#linear-gradient-5);}.cls-6{fill:url(#linear-gradient-6);}.cls-7{fill:url(#linear-gradient-7);}.cls-8{fill:url(#linear-gradient-8);}.cls-9{fill:url(#linear-gradient-9);}</style><linearGradient id="linear-gradient" x1="4.24" y1="15.65" x2="11.53" y2="8.35" gradientUnits="userSpaceOnUse"><stop offset="0.36" stop-color="#2041e0"/><stop offset="0.53" stop-color="#2549e3"/><stop offset="0.78" stop-color="#345eea"/><stop offset="1" stop-color="#4476f2"/></linearGradient><linearGradient id="linear-gradient-2" x1="19.97" y1="13.15" x2="22.26" y2="10.85" xlink:href="#linear-gradient"/><linearGradient id="linear-gradient-3" x1="14.72" y1="20.9" x2="20.51" y2="15.1" xlink:href="#linear-gradient"/><linearGradient id="linear-gradient-4" x1="2.49" y1="19.9" x2="6.28" y2="16.1" xlink:href="#linear-gradient"/><linearGradient id="linear-gradient-5" x1="1.74" y1="7.15" x2="4.03" y2="4.85" xlink:href="#linear-gradient"/><linearGradient id="linear-gradient-6" x1="12.47" y1="9.65" x2="19.76" y2="2.35" xlink:href="#linear-gradient"/><linearGradient id="linear-gradient-7" x1="5.59" y1="7.41" x2="8.41" y2="4.59" xlink:href="#linear-gradient"/><linearGradient id="linear-gradient-8" x1="15.59" y1="13.41" x2="18.41" y2="10.59" xlink:href="#linear-gradient"/><linearGradient id="linear-gradient-9" x1="8.59" y1="19.41" x2="11.41" y2="16.59" xlink:href="#linear-gradient"/></defs><g id="artwork"><path class="cls-1" d="M14.18,11H2a1,1,0,0,0,0,2H14.18a2.87,2.87,0,0,1,0-2Z"/><path class="cls-2" d="M22,11H19.82a2.87,2.87,0,0,1,0,2H22a1,1,0,0,0,0-2Z"/><path class="cls-3" d="M22,17H12.82a2.87,2.87,0,0,1,0,2H22a1,1,0,0,0,0-2Z"/><path class="cls-4" d="M7.18,17H2a1,1,0,0,0,0,2H7.18a2.87,2.87,0,0,1,0-2Z"/><path class="cls-5" d="M4.18,5H2A1,1,0,0,0,2,7H4.18a2.87,2.87,0,0,1,0-2Z"/><path class="cls-6" d="M22,5H9.82a2.87,2.87,0,0,1,0,2H22a1,1,0,0,0,0-2Z"/><circle class="cls-7" cx="7" cy="6" r="2"/><circle class="cls-8" cx="17" cy="12" r="2"/><circle class="cls-9" cx="10" cy="18" r="2"/></g></svg>