<svg width="9" height="11" viewBox="0 0 9 11" fill="none" xmlns="http://www.w3.org/2000/svg">
    <path d="M1 4V10C1 10.55 1.45 11 2 11H7C7.55 11 8 10.55 8 10V4H7V10H2V4H1Z" fill="url(#paint0_linear)"/>
    <path d="M8.5 2H7V1C7 0.45 6.55 0 6 0H3C2.45 0 2 0.45 2 1V2H0.5C0.23 2 0 2.22 0 2.5C0 2.77 0.23 3 0.5 3H3H6H8.5C8.78 3 9 2.77 9 2.5C9 2.22 8.78 2 8.5 2ZM3 2V1H6V2H3Z" fill="url(#paint1_linear)"/>
    <path d="M3.5 9C3.22 9 3 8.78 3 8.5V4.5C3 4.22 3.22 4 3.5 4C3.78 4 4 4.22 4 4.5V8.5C4 8.78 3.78 9 3.5 9Z" fill="url(#paint2_linear)"/>
    <path d="M5.5 9C5.22 9 5 8.78 5 8.5V4.5C5 4.22 5.22 4 5.5 4C5.78 4 6 4.22 6 4.5V8.5C6 8.78 5.78 9 5.5 9Z" fill="url(#paint3_linear)"/>
    <defs>
        <linearGradient id="paint0_linear" x1="1.00085" y1="7.49841" x2="8.00172" y2="7.49841" gradientUnits="userSpaceOnUse">
            <stop offset="0.3645" stop-color="#2041E0"/>
            <stop offset="0.5292" stop-color="#2549E3"/>
            <stop offset="0.7806" stop-color="#345EEA"/>
            <stop offset="1" stop-color="#4476F2"/>
        </linearGradient>
        <linearGradient id="paint1_linear" x1="0.00108974" y1="1.49932" x2="9.00221" y2="1.49932" gradientUnits="userSpaceOnUse">
            <stop offset="0.3645" stop-color="#2041E0"/>
            <stop offset="0.5292" stop-color="#2549E3"/>
            <stop offset="0.7806" stop-color="#345EEA"/>
            <stop offset="1" stop-color="#4476F2"/>
        </linearGradient>
        <linearGradient id="paint2_linear" x1="3.00012" y1="6.49886" x2="4.00025" y2="6.49886" gradientUnits="userSpaceOnUse">
            <stop offset="0.3645" stop-color="#2041E0"/>
            <stop offset="0.5292" stop-color="#2549E3"/>
            <stop offset="0.7806" stop-color="#345EEA"/>
            <stop offset="1" stop-color="#4476F2"/>
        </linearGradient>
        <linearGradient id="paint3_linear" x1="5.00012" y1="6.49886" x2="6.00025" y2="6.49886" gradientUnits="userSpaceOnUse">
            <stop offset="0.3645" stop-color="#2041E0"/>
            <stop offset="0.5292" stop-color="#2549E3"/>
            <stop offset="0.7806" stop-color="#345EEA"/>
            <stop offset="1" stop-color="#4476F2"/>
        </linearGradient>
    </defs>
</svg>
