<svg width="7" height="9" viewBox="0 0 7 9" fill="none" xmlns="http://www.w3.org/2000/svg">
<path d="M4.04995 8.50038L4.04995 1.70039L6.04995 3.70039C6.24995 3.90039 6.54995 3.90039 6.74995 3.70039C6.84995 3.50039 6.84995 3.20039 6.74995 3.00039L3.84995 0.10039C3.64995 0.000390514 3.34995 0.000390501 3.14995 0.10039L0.349952 3.00039C0.149951 3.20039 0.149951 3.50039 0.349952 3.70039C0.549951 3.90039 0.849951 3.90039 1.04995 3.70039L3.04995 1.70039L3.04995 8.50038C3.04995 8.80038 3.24995 9.00038 3.54995 9.00038C3.74995 9.00038 4.04995 8.80038 4.04995 8.50038Z" fill="url(#paint0_linear)"/>
<defs>
<linearGradient id="paint0_linear" x1="3.52155" y1="0.000390505" x2="3.52155" y2="9.00148" gradientUnits="userSpaceOnUse">
<stop offset="0.3645" stop-color="#2041E0"/>
<stop offset="0.5292" stop-color="#2549E3"/>
<stop offset="0.7806" stop-color="#345EEA"/>
<stop offset="1" stop-color="#4476F2"/>
</linearGradient>
</defs>
</svg>
