<svg width="22" height="22" viewBox="0 0 22 22" fill="none" xmlns="http://www.w3.org/2000/svg">
<path d="M11.9005 10.0029L11.9005 1.51762C11.9005 0.966078 11.455 0.520601 10.9035 0.520601C10.3519 0.520601 9.90646 0.966078 9.90646 1.51762L9.90646 10.0029L1.42118 10.0029C0.869633 10.0029 0.424156 10.4484 0.424155 10.9999C0.424156 11.5515 0.869633 11.9969 1.42118 11.9969L9.90646 11.9969L9.90646 20.4822C9.90646 21.0338 10.3519 21.4792 10.9035 21.4792C11.455 21.4792 11.9005 21.0338 11.9005 20.4822L11.9005 11.9969L20.3858 11.9969C20.9373 11.9969 21.3828 11.5515 21.3828 10.9999C21.3828 10.4484 20.9373 10.0029 20.3858 10.0029L11.9005 10.0029Z" fill="url(#paint0_linear)"/>
<defs>
<linearGradient id="paint0_linear" x1="10.8994" y1="21.4852" x2="10.8994" y2="0.514662" gradientUnits="userSpaceOnUse">
<stop offset="0.3645" stop-color="#2041E0"/>
<stop offset="0.5292" stop-color="#2549E3"/>
<stop offset="0.7806" stop-color="#345EEA"/>
<stop offset="1" stop-color="#4476F2"/>
</linearGradient>
</defs>
</svg>
