<svg width="21" height="21" viewBox="0 0 21 21" fill="none" xmlns="http://www.w3.org/2000/svg">
    <rect x="0.5" y="0.5" width="20" height="20" rx="10" stroke="white"/>
    <path d="M13.4986 7.93208H7.5L8.68524 6.81887C8.88579 6.60755 8.88579 6.29057 8.68524 6.07925C8.48468 5.97358 8.18384 5.97358 7.98329 6.07925L6.07521 8.1434C5.97493 8.35472 5.97493 8.6717 6.07521 8.88302L7.98329 10.8415C8.18384 11.0528 8.48468 11.0528 8.68524 10.8415C8.88579 10.6302 8.88579 10.3132 8.68524 10.1019L7.5 8.98868H13.4986C13.7994 8.98868 14 8.77736 14 8.46038C14 8.24906 13.7994 7.93208 13.4986 7.93208Z" fill="white"/>
    <path d="M7.50139 13.0679L13.5 13.0679L12.3148 14.1811C12.1142 14.3925 12.1142 14.7094 12.3148 14.9208C12.5153 15.0264 12.8162 15.0264 13.0167 14.9208L14.9248 12.8566C15.0251 12.6453 15.0251 12.3283 14.9248 12.117L13.0167 10.1585C12.8162 9.94717 12.5153 9.94717 12.3148 10.1585C12.1142 10.3698 12.1142 10.6868 12.3148 10.8981L13.5 12.0113L7.50139 12.0113C7.20056 12.0113 7 12.2226 7 12.5396C7 12.7509 7.20056 13.0679 7.50139 13.0679Z" fill="white"/>
</svg>
