<svg width="24" height="24" viewBox="0 0 24 24" fill="none" xmlns="http://www.w3.org/2000/svg">
<circle cx="12" cy="12" r="12" fill="white"/>
<g clip-path="url(#clip0_10150_71517)">
<path d="M15.114 8.76907C15.114 7.25561 13.7837 6 12.1643 6C10.5446 6 9.21405 7.2562 9.21405 8.76878V9.65415H8V16.02L12.1634 17.933L16.3292 16.0206V9.68224H15.1151L15.1142 8.76878L15.114 8.76907ZM10.7179 8.76907C10.7179 8.05551 11.3544 7.48449 12.1643 7.48449C12.9741 7.48449 13.6101 8.05551 13.6101 8.76907V9.65415H10.7181L10.7179 8.76907ZM14.6515 14.9927L12.1631 16.1353L9.67561 14.9936V11.1673H14.6512L14.6515 14.9927Z" fill="black"/>
</g>
<defs>
<clipPath id="clip0_10150_71517">
<rect width="8.4878" height="12" fill="white" transform="translate(8 6)"/>
</clipPath>
</defs>
</svg>
