<svg width="15" height="15" viewBox="0 0 15 15" fill="none" xmlns="http://www.w3.org/2000/svg">
<g clip-path="url(#clip0)">
<path d="M1.48393 6.29725C1.12297 6.29725 0.882324 6.05661 0.882324 5.69565V2.5673C0.882324 1.60474 1.60425 0.882812 2.56682 0.882812H5.69516C6.05612 0.882812 6.29676 1.12345 6.29676 1.48442C6.29676 1.84538 6.05612 2.08602 5.69516 2.08602H2.56682C2.32617 2.08602 2.08553 2.32666 2.08553 2.5673V5.69565C2.08553 6.05661 1.84489 6.29725 1.48393 6.29725Z" fill="white"/>
<path d="M5.69516 14.1176H2.56682C1.60425 14.1176 0.882324 13.3956 0.882324 12.4331V9.30473C0.882324 8.94377 1.12297 8.70312 1.48393 8.70312C1.84489 8.70312 2.08553 8.94377 2.08553 9.30473V12.4331C2.08553 12.6737 2.32617 12.9144 2.56682 12.9144H5.69516C6.05612 12.9144 6.29676 13.155 6.29676 13.516C6.29676 13.8769 6.05612 14.1176 5.69516 14.1176Z" fill="white"/>
<path d="M12.4331 14.1176H9.30473C8.94377 14.1176 8.70312 13.8769 8.70312 13.516C8.70312 13.155 8.94377 12.9144 9.30473 12.9144H12.4331C12.6737 12.9144 12.9144 12.6737 12.9144 12.4331V9.30473C12.9144 8.94377 13.155 8.70312 13.516 8.70312C13.8769 8.70312 14.1176 8.94377 14.1176 9.30473V12.4331C14.1176 13.3956 13.3956 14.1176 12.4331 14.1176Z" fill="white"/>
<path d="M13.516 6.29725C13.155 6.29725 12.9144 6.05661 12.9144 5.69565V2.5673C12.9144 2.32666 12.6737 2.08602 12.4331 2.08602H9.30473C8.94377 2.08602 8.70312 1.84538 8.70312 1.48442C8.70312 1.12345 8.94377 0.882812 9.30473 0.882812H12.4331C13.3956 0.882812 14.1176 1.60474 14.1176 2.5673V5.69565C14.1176 6.05661 13.8769 6.29725 13.516 6.29725Z" fill="white"/>
<path d="M9.90663 10.5082H5.09379C4.73283 10.5082 4.49219 10.2676 4.49219 9.90663V5.09379C4.49219 4.73283 4.73283 4.49219 5.09379 4.49219H9.90663C10.2676 4.49219 10.5082 4.73283 10.5082 5.09379V9.90663C10.5082 10.2676 10.2676 10.5082 9.90663 10.5082ZM5.6954 9.30502H9.30502V5.6954H5.6954V9.30502Z" fill="white"/>
</g>
<defs>
<clipPath id="clip0">
<rect width="13.2353" height="13.2353" fill="white" transform="translate(0.882324 0.882812)"/>
</clipPath>
</defs>
</svg>
