<svg width="11" height="9" viewBox="0 0 11 9" fill="none" xmlns="http://www.w3.org/2000/svg">
    <g clip-path="url(#clip0)">
        <path d="M10 2.4V1.5C10 0.7 9.3 0 8.5 0H1.5C0.7 0 0 0.7 0 1.5V7.5C0 8.3 0.7 9 1.5 9H9C9.8 9 10.5 8.3 10.5 7.5V3.5C10.5 3.1 10.3 2.7 10 2.4ZM1.5 1H8.5C8.8 1 9 1.2 9 1.5V2H1.5C1.2 2 1 1.8 1 1.5C1 1.2 1.2 1 1.5 1ZM9 8H1.5C1.2 8 1 7.8 1 7.5V2.9C1.2 3 1.3 3 1.5 3H9C9.3 3 9.5 3.2 9.5 3.5V4H8.5C7.7 4 7 4.7 7 5.5C7 6.3 7.7 7 8.5 7H9.5V7.5C9.5 7.8 9.3 8 9 8ZM9.5 5V6H8.5C8.2 6 8 5.8 8 5.5C8 5.2 8.2 5 8.5 5H9.5Z" fill="url(#paint0_linear)"/>
    </g>
    <defs>
        <linearGradient id="paint0_linear" x1="1.93421" y1="7.81579" x2="7.68633" y2="0.299688" gradientUnits="userSpaceOnUse">
            <stop offset="0.407986" stop-color="#2041E0"/>
            <stop offset="1" stop-color="#4476F2"/>
        </linearGradient>
        <clipPath id="clip0">
            <rect width="10.5" height="9" fill="white"/>
        </clipPath>
    </defs>
</svg>
