<svg width="24" height="24" viewBox="0 0 24 24" fill="none" xmlns="http://www.w3.org/2000/svg">
    <g clip-path="url(#clip0_19778_12160)">
    <path fill-rule="evenodd" clip-rule="evenodd" d="M12 0.0230713C18.6147 0.0230713 23.977 5.38532 23.977 12C23.977 18.6147 18.6147 23.977 12 23.977C5.38532 23.977 0.0230713 18.6147 0.0230713 12C0.0230713 5.38532 5.38532 0.0230713 12 0.0230713Z" fill="#171717"/>
    <path fill-rule="evenodd" clip-rule="evenodd" d="M11.9771 5.09021C15.7932 5.09021 18.8868 8.18383 18.8868 12C18.8868 15.8162 15.7932 18.9098 11.9771 18.9098C8.16089 18.9098 5.06726 15.8162 5.06726 12C5.06726 8.18383 8.16089 5.09021 11.9771 5.09021Z" fill="black"/>
    <path opacity="0.67" fill-rule="evenodd" clip-rule="evenodd" d="M12.1881 2.07164C12.093 1.98408 12.0439 1.98242 12.0356 1.98242C12.0274 1.98242 11.9783 1.98408 11.8831 2.07164C11.7855 2.16152 11.6687 2.31659 11.543 2.55586C11.2919 3.03345 11.0516 3.75532 10.8445 4.68679C10.6115 5.73425 10.4275 7.01454 10.3114 8.44775C10.8722 8.71908 11.4489 9.01408 12.0355 9.33083C12.6222 9.014 13.199 8.719 13.7599 8.44759C13.6438 7.01446 13.4597 5.73421 13.2268 4.68679C13.0197 3.75532 12.7794 3.03345 12.5283 2.55586C12.4025 2.31659 12.2858 2.16151 12.1881 2.07164ZM11.5447 9.59967C11.1139 9.37079 10.6895 9.15425 10.2739 8.95079C10.2424 9.41217 10.2178 9.88779 10.2008 10.3751C10.4206 10.2435 10.6436 10.1123 10.8696 9.98192C11.0956 9.85154 11.3208 9.72408 11.5447 9.59967ZM9.85896 8.23234C10.1955 4.30229 11.0432 1.51367 12.0356 1.51367C13.0281 1.51367 13.8757 4.30221 14.2123 8.23217C17.7861 6.55854 20.6263 5.89796 21.1225 6.75692C21.6188 7.61588 19.6261 9.74375 16.3889 12C19.6261 14.2563 21.6188 16.3842 21.1225 17.2431C20.6263 18.1021 17.7861 17.4415 14.2123 15.7678C13.8757 19.6978 13.0281 22.4863 12.0356 22.4863C11.0432 22.4863 10.1955 19.6977 9.85896 15.7677C6.28504 17.4414 3.44466 18.1021 2.94841 17.2431C2.45218 16.3842 4.44483 14.2563 7.68208 12C4.44483 9.74375 2.45218 7.61588 2.94841 6.75692C3.44466 5.89792 6.28504 6.55859 9.85896 8.23234ZM8.09512 11.716C6.91117 10.8989 5.89362 10.0994 5.10233 9.37404C4.39866 8.729 3.89326 8.16008 3.60493 7.704C3.46047 7.47546 3.38448 7.29692 3.35544 7.1675C3.32716 7.0415 3.35028 6.99833 3.35429 6.99138C3.35834 6.98438 3.38427 6.94271 3.50777 6.90413C3.63455 6.86454 3.82738 6.841 4.09767 6.85179C4.63716 6.87329 5.38292 7.02625 6.29371 7.31271C7.31787 7.63488 8.51937 8.11575 9.81942 8.73183C9.77417 9.35279 9.74146 9.99929 9.72267 10.6653C9.15475 11.0147 8.61075 11.3663 8.09512 11.716ZM8.09512 12.284C6.91117 13.1011 5.89362 13.9006 5.10233 14.626C4.39866 15.271 3.89326 15.8399 3.60493 16.296C3.46047 16.5245 3.38448 16.7031 3.35544 16.8325C3.32716 16.9585 3.35028 17.0017 3.35429 17.0086C3.35832 17.0156 3.38423 17.0573 3.50777 17.0959C3.63455 17.1355 3.82738 17.159 4.09767 17.1482C4.63716 17.1268 5.38292 16.9738 6.29371 16.6873C7.31787 16.3651 8.51937 15.8843 9.81942 15.2682C9.77417 14.6472 9.74146 14.0007 9.72267 13.3347C9.15475 12.9853 8.61075 12.6337 8.09512 12.284ZM9.71021 12.7755C9.29637 12.5171 8.89646 12.258 8.51229 12C8.89646 11.742 9.29637 11.4829 9.71021 11.2245C9.70604 11.4805 9.70396 11.7392 9.70396 12C9.70396 12.2608 9.70604 12.5195 9.71021 12.7755ZM10.1848 13.0678C10.1768 12.717 10.1727 12.3608 10.1727 12C10.1727 11.6393 10.1768 11.283 10.1848 10.9322C10.4847 10.7499 10.7913 10.5683 11.1039 10.388C11.4166 10.2075 11.7274 10.0329 12.0355 9.86434C12.3436 10.0329 12.6544 10.2075 12.9671 10.388C13.2798 10.5683 13.5865 10.75 13.8865 10.9324C13.8945 11.2832 13.8986 11.6393 13.8986 12C13.8986 12.3607 13.8945 12.7169 13.8865 13.0676C13.5865 13.25 13.2798 13.4317 12.9671 13.612C12.6544 13.7925 12.3436 13.9671 12.0355 14.1357C11.7274 13.9671 11.4166 13.7925 11.1039 13.612C10.7913 13.4317 10.4847 13.2501 10.1848 13.0678ZM10.2008 13.6249C10.2178 14.1123 10.2424 14.5878 10.2739 15.0492C10.6895 14.8458 11.1139 14.6293 11.5447 14.4003C11.3208 14.2759 11.0956 14.1485 10.8696 14.0181C10.6436 13.8877 10.4206 13.7565 10.2008 13.6249ZM12.0355 14.6692C11.4489 14.986 10.8722 15.2809 10.3114 15.5523C10.4275 16.9855 10.6115 18.2658 10.8445 19.3132C11.0516 20.2447 11.2919 20.9666 11.543 21.4442C11.6687 21.6834 11.7855 21.8385 11.8831 21.9284C11.9783 22.0159 12.0274 22.0176 12.0356 22.0176C12.0439 22.0176 12.093 22.0159 12.1881 21.9284C12.2858 21.8385 12.4025 21.6834 12.5283 21.4442C12.7794 20.9666 13.0197 20.2447 13.2268 19.3132C13.4597 18.2658 13.6438 16.9855 13.7599 15.5524C13.199 15.281 12.6222 14.986 12.0355 14.6692ZM14.2518 15.2683C15.5518 15.8843 16.7532 16.3652 17.7773 16.6873C18.688 16.9738 19.4338 17.1268 19.9733 17.1482C20.2436 17.159 20.4364 17.1355 20.5632 17.0959C20.6868 17.0573 20.7126 17.0156 20.7167 17.0086C20.7207 17.0017 20.7438 16.9586 20.7155 16.8325C20.6865 16.7031 20.6105 16.5245 20.466 16.296C20.1777 15.8399 19.6723 15.271 18.9687 14.626C18.1773 13.9006 17.1598 13.1011 15.9758 12.284C15.4603 12.6336 14.9164 12.9852 14.3486 13.3345C14.3298 14.0006 14.2971 14.6473 14.2518 15.2683ZM15.9758 11.716C17.1598 10.8989 18.1773 10.0994 18.9687 9.37404C19.6723 8.729 20.1777 8.16008 20.466 7.704C20.6105 7.47546 20.6865 7.29692 20.7155 7.1675C20.7438 7.04142 20.7207 6.99829 20.7167 6.99138C20.7126 6.98442 20.6868 6.94271 20.5632 6.90413C20.4364 6.86454 20.2436 6.841 19.9733 6.85179C19.4338 6.87329 18.688 7.02625 17.7773 7.31271C16.7532 7.63488 15.5518 8.11567 14.2518 8.73171C14.2971 9.35275 14.3298 9.99938 14.3486 10.6655C14.9164 11.0148 15.4603 11.3664 15.9758 11.716ZM14.361 11.2247C14.7748 11.483 15.1746 11.7421 15.5587 12C15.1746 12.2579 14.7748 12.517 14.361 12.7753C14.3652 12.5193 14.3673 12.2608 14.3673 12C14.3673 11.7393 14.3652 11.4807 14.361 11.2247ZM13.8705 10.3753C13.8535 9.88783 13.8289 9.41217 13.7974 8.95067C13.3817 9.15413 12.9572 9.37071 12.5263 9.59967C12.7502 9.72408 12.9753 9.85154 13.2013 9.98192C13.4275 10.1124 13.6506 10.2436 13.8705 10.3753ZM13.7974 15.0494C13.3817 14.8459 12.9572 14.6293 12.5263 14.4003C12.7502 14.2759 12.9753 14.1485 13.2013 14.0181C13.4275 13.8876 13.6506 13.7564 13.8705 13.6248C13.8535 14.1122 13.8289 14.5879 13.7974 15.0494Z" fill="white"/>
    <path fill-rule="evenodd" clip-rule="evenodd" d="M5.33308 9.06335C5.74033 9.06335 6.07049 9.39365 6.07049 9.8011C6.07049 10.2086 5.74033 10.5389 5.33308 10.5389C4.92583 10.5389 4.5957 10.2086 4.5957 9.8011C4.5957 9.39365 4.92583 9.06335 5.33308 9.06335Z" fill="white"/>
    <path fill-rule="evenodd" clip-rule="evenodd" d="M17.0529 6.53699C17.4603 6.53699 17.7906 6.86728 17.7906 7.27474C17.7906 7.6822 17.4603 8.01249 17.0529 8.01249C16.6454 8.01249 16.3151 7.6822 16.3151 7.27474C16.3151 6.86728 16.6454 6.53699 17.0529 6.53699Z" fill="white"/>
    <path fill-rule="evenodd" clip-rule="evenodd" d="M10.5497 18.1166C10.9571 18.1166 11.2874 18.4467 11.2874 18.854C11.2874 19.2612 10.9571 19.5914 10.5497 19.5914C10.1422 19.5914 9.81189 19.2612 9.81189 18.854C9.81189 18.4467 10.1422 18.1166 10.5497 18.1166Z" fill="white"/>
    <path fill-rule="evenodd" clip-rule="evenodd" d="M11.9946 10.7455C12.6844 10.7455 13.2436 11.3047 13.2436 11.9946C13.2436 12.6844 12.6844 13.2436 11.9946 13.2436C11.3047 13.2436 10.7455 12.6844 10.7455 11.9946C10.7455 11.3047 11.3047 10.7455 11.9946 10.7455Z" fill="white"/>
    </g>
    <defs>
    <clipPath id="clip0_19778_12160">
    <rect width="24" height="24" fill="white"/>
    </clipPath>
    </defs>
    </svg>
    