<svg width="11" height="11" viewBox="0 0 11 11" fill="none" xmlns="http://www.w3.org/2000/svg">
<path d="M5.91 1L6.09 1.88C6.66 1.97 7.2 2.19 7.65 2.52L8.39 2.03L8.97 2.61L8.48 3.35C8.81 3.8 9.03 4.34 9.12 4.92L10 5.09V5.91L9.12 6.08C9.03 6.66 8.81 7.2 8.48 7.65L8.97 8.39L8.39 8.97L7.65 8.48C7.2 8.81 6.66 9.03 6.08 9.12L5.91 10H5.09L4.92 9.12C4.34 9.03 3.8 8.81 3.35 8.48L2.61 8.97L2.03 8.39L2.52 7.65C2.19 7.2 1.97 6.66 1.88 6.08L1 5.91V5.09L1.88 4.91C1.97 4.34 2.19 3.8 2.52 3.35L2.03 2.61L2.61 2.03L3.35 2.52C3.8 2.19 4.34 1.97 4.92 1.88L5.09 1H5.91ZM5.91 0H5.09C4.61 0 4.2 0.34 4.11 0.8L4.06 1.06C3.82 1.13 3.59 1.23 3.37 1.34L3.16 1.2C2.99 1.08 2.8 1.03 2.61 1.03C2.35 1.03 2.1 1.13 1.9 1.32L1.32 1.9C0.98 2.24 0.93 2.77 1.2 3.16L1.34 3.37C1.23 3.59 1.13 3.82 1.06 4.06L0.8 4.11C0.34 4.2 0 4.61 0 5.09V5.91C0 6.39 0.34 6.8 0.8 6.89L1.05 6.94C1.13 7.18 1.22 7.41 1.33 7.63L1.2 7.84C0.93 8.23 0.98 8.76 1.32 9.1L1.9 9.68C2.09 9.87 2.35 9.97 2.61 9.97C2.8 9.97 3 9.91 3.16 9.8L3.37 9.66C3.59 9.77 3.82 9.87 4.06 9.94L4.11 10.19C4.2 10.66 4.61 11 5.09 11H5.91C6.39 11 6.8 10.66 6.89 10.2L6.94 9.95C7.18 9.87 7.41 9.78 7.63 9.67L7.84 9.8C8.01 9.92 8.2 9.97 8.39 9.97C8.65 9.97 8.9 9.87 9.1 9.68L9.68 9.1C10.02 8.76 10.07 8.23 9.8 7.84L9.66 7.63C9.77 7.41 9.87 7.18 9.94 6.94L10.19 6.89C10.66 6.8 11 6.39 11 5.91V5.09C11 4.61 10.66 4.2 10.2 4.11L9.94 4.06C9.87 3.82 9.77 3.59 9.66 3.37L9.8 3.16C10.06 2.76 10.01 2.24 9.68 1.9L9.1 1.32C8.91 1.13 8.65 1.03 8.39 1.03C8.2 1.03 8 1.09 7.84 1.2L7.63 1.34C7.41 1.23 7.18 1.13 6.94 1.06L6.89 0.8C6.8 0.34 6.39 0 5.91 0Z" fill="url(#paint0_linear)"/>
<path d="M5.5 4C6.33 4 7 4.67 7 5.5C7 6.33 6.33 7 5.5 7C4.67 7 4 6.33 4 5.5C4 4.67 4.67 4 5.5 4ZM5.5 3C4.12 3 3 4.12 3 5.5C3 6.88 4.12 8 5.5 8C6.88 8 8 6.88 8 5.5C8 4.12 6.88 3 5.5 3Z" fill="url(#paint1_linear)"/>
<defs>
<linearGradient id="paint0_linear" x1="0" y1="5.5" x2="11" y2="5.5" gradientUnits="userSpaceOnUse">
<stop offset="0.3645" stop-color="#2041E0"/>
<stop offset="0.5292" stop-color="#2549E3"/>
<stop offset="0.7806" stop-color="#345EEA"/>
<stop offset="1" stop-color="#4476F2"/>
</linearGradient>
<linearGradient id="paint1_linear" x1="3" y1="5.5" x2="8" y2="5.5" gradientUnits="userSpaceOnUse">
<stop offset="0.3645" stop-color="#2041E0"/>
<stop offset="0.5292" stop-color="#2549E3"/>
<stop offset="0.7806" stop-color="#345EEA"/>
<stop offset="1" stop-color="#4476F2"/>
</linearGradient>
</defs>
</svg>
