<svg width="26" height="43" viewBox="0 0 26 43" fill="none" xmlns="http://www.w3.org/2000/svg">
<mask id="mask0" mask-type="alpha" maskUnits="userSpaceOnUse" x="5" y="23" width="15" height="8">
<path fill-rule="evenodd" clip-rule="evenodd" d="M11.2108 23.9632L10.6369 24.5328L5.26053 29.8707C5.11856 30.0117 5.11856 30.2397 5.26053 30.3806C5.33151 30.4514 5.42454 30.4865 5.51733 30.4865C5.61036 30.4865 5.70339 30.4514 5.77438 30.3806L11.1508 25.0429L11.7245 24.4733C12.1775 24.0233 12.9152 24.0231 13.3692 24.4733L13.9429 25.0429L19.319 30.3804C19.3903 30.4511 19.4831 30.4862 19.5758 30.4862C19.6691 30.4862 19.7619 30.4511 19.8329 30.3804C19.9749 30.2395 19.9749 30.0114 19.8329 29.8705L14.4567 24.5328L13.8828 23.9632C13.5143 23.5973 13.0303 23.4146 12.5465 23.4146C12.0627 23.4146 11.5789 23.5973 11.2108 23.9632Z" fill="white"/>
</mask>
<g mask="url(#mask0)">
<path fill-rule="evenodd" clip-rule="evenodd" d="M11.2108 23.9632L10.6369 24.5328L5.26053 29.8707C5.11856 30.0117 5.11856 30.2397 5.26053 30.3806C5.33151 30.4514 5.42454 30.4865 5.51733 30.4865C5.61036 30.4865 5.70339 30.4514 5.77438 30.3806L11.1508 25.0429L11.7245 24.4733C12.1775 24.0233 12.9152 24.0231 13.3692 24.4733L13.9429 25.0429L19.319 30.3804C19.3903 30.4511 19.4831 30.4862 19.5758 30.4862C19.6691 30.4862 19.7619 30.4511 19.8329 30.3804C19.9749 30.2395 19.9749 30.0114 19.8329 29.8705L14.4567 24.5328L13.8828 23.9632C13.5143 23.5973 13.0303 23.4146 12.5465 23.4146C12.0627 23.4146 11.5789 23.5973 11.2108 23.9632Z" fill="#979797"/>
</g>
<mask id="mask1" mask-type="alpha" maskUnits="userSpaceOnUse" x="0" y="13" width="10" height="21">
<path fill-rule="evenodd" clip-rule="evenodd" d="M0.10722 13.8025C0.0368797 13.8727 0.00122118 13.9643 0 14.0561V14.0654C0.00122118 14.1575 0.0368797 14.2491 0.10722 14.3192L6.84424 21.0391C6.84571 21.0403 6.84718 21.0403 6.8484 21.0418C7.14563 21.3402 7.30952 21.7356 7.30952 22.1566C7.30952 22.5349 7.17372 22.8996 6.92729 23.1859L1.9026 28.1978C1.9026 28.198 1.90212 28.198 1.90187 28.1983C0.761774 29.324 0.110639 30.8076 0.0500685 32.3975C0.0471377 32.4167 0.0442068 32.4362 0.0442068 32.4567V32.6406C0.0442068 32.8423 0.20809 33.006 0.410318 33.006C0.61279 33.006 0.776917 32.8423 0.776917 32.6406C0.776917 31.1555 1.35942 29.7623 2.41745 28.7179C2.4177 28.7176 2.41794 28.7169 2.41843 28.7164C2.41868 28.7164 2.41892 28.7164 2.41892 28.7164L9.77362 21.3804C9.91674 21.2377 9.91674 21.0065 9.77362 20.8637C9.6305 20.721 9.39847 20.721 9.25535 20.8637L8.03832 22.0776C8.01853 21.4898 7.78236 20.9395 7.363 20.5214C7.36178 20.52 7.35958 20.5195 7.35812 20.5183L0.62549 13.8025C0.553929 13.7311 0.460142 13.6953 0.366355 13.6953C0.272568 13.6953 0.178781 13.7311 0.10722 13.8025Z" fill="white"/>
</mask>
<g mask="url(#mask1)">
<path fill-rule="evenodd" clip-rule="evenodd" d="M0.10722 13.8025C0.0368797 13.8727 0.00122118 13.9643 0 14.0561V14.0654C0.00122118 14.1575 0.0368797 14.2491 0.10722 14.3192L6.84424 21.0391C6.84571 21.0403 6.84718 21.0403 6.8484 21.0418C7.14563 21.3402 7.30952 21.7356 7.30952 22.1566C7.30952 22.5349 7.17372 22.8996 6.92729 23.1859L1.9026 28.1978C1.9026 28.198 1.90212 28.198 1.90187 28.1983C0.761774 29.324 0.110639 30.8076 0.0500685 32.3975C0.0471377 32.4167 0.0442068 32.4362 0.0442068 32.4567V32.6406C0.0442068 32.8423 0.20809 33.006 0.410318 33.006C0.61279 33.006 0.776917 32.8423 0.776917 32.6406C0.776917 31.1555 1.35942 29.7623 2.41745 28.7179C2.4177 28.7176 2.41794 28.7169 2.41843 28.7164C2.41868 28.7164 2.41892 28.7164 2.41892 28.7164L9.77362 21.3804C9.91674 21.2377 9.91674 21.0065 9.77362 20.8637C9.6305 20.721 9.39847 20.721 9.25535 20.8637L8.03832 22.0776C8.01853 21.4898 7.78236 20.9395 7.363 20.5214C7.36178 20.52 7.35958 20.5195 7.35812 20.5183L0.62549 13.8025C0.553929 13.7311 0.460142 13.6953 0.366355 13.6953C0.272568 13.6953 0.178781 13.7311 0.10722 13.8025Z" fill="#979797"/>
</g>
<mask id="mask2" mask-type="alpha" maskUnits="userSpaceOnUse" x="1" y="0" width="23" height="19">
<path fill-rule="evenodd" clip-rule="evenodd" d="M12.5554 0C9.08597 0 6.66276 2.84953 6.66276 6.92959L6.66252 7.22086C6.65814 8.55318 6.654 10.1777 7.22689 11.2789C6.68029 11.6395 6.33422 12.2584 6.33422 12.9255C6.33422 14.0143 7.22397 14.9 8.31717 14.9C8.40941 14.9 8.48437 14.9746 8.48437 15.0662V15.5198C8.47171 15.5988 8.43545 15.6711 8.37826 15.728C8.26874 15.8371 8.10861 15.8649 7.97257 15.8131L7.37437 15.2172L3.39702 11.258C3.39678 11.2578 3.39678 11.2578 3.39653 11.2576C3.39605 11.2573 3.39605 11.2571 3.3958 11.2568C2.34129 10.2175 1.76086 8.83161 1.76086 7.35463C1.76086 7.15398 1.59732 6.99114 1.39557 6.99114C1.19406 6.99114 1.03076 7.15398 1.03076 7.35463V7.53783C1.03076 7.55794 1.03344 7.57733 1.0366 7.59647C1.09696 9.17741 1.74553 10.6525 2.88084 11.772V11.7723L2.88206 11.7735L6.85819 15.7314L7.24222 16.1138C7.26023 16.1603 7.28627 16.2044 7.32399 16.2422C7.38702 16.3047 7.45711 16.3556 7.52988 16.4005L9.94141 18.8014C10.0127 18.8724 10.1059 18.9078 10.1996 18.9078C10.2928 18.9078 10.3863 18.8724 10.4576 18.8014C10.6002 18.6594 10.6002 18.4295 10.4576 18.2875L8.60556 16.4434C8.70924 16.392 8.80829 16.328 8.89468 16.2422C9.04947 16.0876 9.14997 15.8952 9.19378 15.6837C9.20595 15.6471 9.21447 15.6083 9.21447 15.5676V15.0662C9.21447 14.5988 8.85063 14.2183 8.39067 14.1805C8.36706 14.1757 8.34248 14.173 8.31717 14.173C7.6265 14.173 7.06456 13.6135 7.06456 12.9255C7.06456 12.4122 7.38921 11.9441 7.8723 11.7609C7.97889 11.7206 8.06018 11.6329 8.0923 11.5244C8.12467 11.4155 8.10398 11.2983 8.03681 11.2064C7.38337 10.3178 7.38873 8.52895 7.39238 7.22305L7.39286 6.92959C7.39286 3.94218 9.00858 0.726982 12.5554 0.726982C16.1025 0.726982 17.7177 3.94218 17.7177 6.92959L17.7184 7.23831C17.7223 8.53525 17.7282 10.3115 17.0823 11.1943C17.0146 11.2871 16.9947 11.4063 17.029 11.5159C17.0628 11.6254 17.1473 11.7126 17.2556 11.7509C17.7552 11.9273 18.0908 12.3992 18.0908 12.9255C18.0908 13.6135 17.5289 14.173 16.8379 14.173C16.8126 14.173 16.7881 14.1757 16.7642 14.1805C16.3045 14.2183 15.9409 14.5988 15.9409 15.0662V15.5676C15.9409 15.6076 15.9492 15.6449 15.9608 15.6807C16.0042 15.8933 16.1049 16.0866 16.2607 16.2422C16.3468 16.328 16.4456 16.392 16.5491 16.4434L14.6973 18.2875C14.5547 18.4295 14.5547 18.6594 14.6973 18.8014C14.7686 18.8724 14.862 18.9078 14.9553 18.9078C15.0487 18.9078 15.1422 18.8724 15.2135 18.8014L17.625 16.4005C17.698 16.3559 17.7681 16.3047 17.8311 16.2422C17.8688 16.2044 17.8949 16.1603 17.9129 16.1138L18.2967 15.7316L22.047 11.9974V11.9971C23.182 10.8773 23.8309 9.40278 23.8915 7.82159C23.8944 7.80245 23.8973 7.78306 23.8973 7.76295V7.57975C23.8973 7.3791 23.7337 7.21626 23.5322 7.21626C23.3307 7.21626 23.1669 7.3791 23.1669 7.57975C23.1669 9.05674 22.5863 10.4426 21.532 11.4819C21.5318 11.4822 21.5318 11.4827 21.5313 11.4829C21.5313 11.4829 21.531 11.4832 21.5308 11.4834L17.7805 15.2177L17.1826 15.8131C17.0468 15.8649 16.8864 15.8368 16.7771 15.7282C16.7199 15.6713 16.6839 15.5991 16.671 15.5206V15.0662C16.671 14.9746 16.7459 14.9 16.8379 14.9C17.9314 14.9 18.8211 14.0143 18.8211 12.9255C18.8211 12.2404 18.4624 11.6143 17.8963 11.2576C18.4578 10.1634 18.4529 8.55536 18.4485 7.23589L18.4478 6.92959C18.4478 2.84953 16.0249 0 12.5554 0Z" fill="white"/>
</mask>
<g mask="url(#mask2)">
<path fill-rule="evenodd" clip-rule="evenodd" d="M12.5554 0C9.08597 0 6.66276 2.84953 6.66276 6.92959L6.66252 7.22086C6.65814 8.55318 6.654 10.1777 7.22689 11.2789C6.68029 11.6395 6.33422 12.2584 6.33422 12.9255C6.33422 14.0143 7.22397 14.9 8.31717 14.9C8.40941 14.9 8.48437 14.9746 8.48437 15.0662V15.5198C8.47171 15.5988 8.43545 15.6711 8.37826 15.728C8.26874 15.8371 8.10861 15.8649 7.97257 15.8131L7.37437 15.2172L3.39702 11.258C3.39678 11.2578 3.39678 11.2578 3.39653 11.2576C3.39605 11.2573 3.39605 11.2571 3.3958 11.2568C2.34129 10.2175 1.76086 8.83161 1.76086 7.35463C1.76086 7.15398 1.59732 6.99114 1.39557 6.99114C1.19406 6.99114 1.03076 7.15398 1.03076 7.35463V7.53783C1.03076 7.55794 1.03344 7.57733 1.0366 7.59647C1.09696 9.17741 1.74553 10.6525 2.88084 11.772V11.7723L2.88206 11.7735L6.85819 15.7314L7.24222 16.1138C7.26023 16.1603 7.28627 16.2044 7.32399 16.2422C7.38702 16.3047 7.45711 16.3556 7.52988 16.4005L9.94141 18.8014C10.0127 18.8724 10.1059 18.9078 10.1996 18.9078C10.2928 18.9078 10.3863 18.8724 10.4576 18.8014C10.6002 18.6594 10.6002 18.4295 10.4576 18.2875L8.60556 16.4434C8.70924 16.392 8.80829 16.328 8.89468 16.2422C9.04947 16.0876 9.14997 15.8952 9.19378 15.6837C9.20595 15.6471 9.21447 15.6083 9.21447 15.5676V15.0662C9.21447 14.5988 8.85063 14.2183 8.39067 14.1805C8.36706 14.1757 8.34248 14.173 8.31717 14.173C7.6265 14.173 7.06456 13.6135 7.06456 12.9255C7.06456 12.4122 7.38921 11.9441 7.8723 11.7609C7.97889 11.7206 8.06018 11.6329 8.0923 11.5244C8.12467 11.4155 8.10398 11.2983 8.03681 11.2064C7.38337 10.3178 7.38873 8.52895 7.39238 7.22305L7.39286 6.92959C7.39286 3.94218 9.00858 0.726982 12.5554 0.726982C16.1025 0.726982 17.7177 3.94218 17.7177 6.92959L17.7184 7.23831C17.7223 8.53525 17.7282 10.3115 17.0823 11.1943C17.0146 11.2871 16.9947 11.4063 17.029 11.5159C17.0628 11.6254 17.1473 11.7126 17.2556 11.7509C17.7552 11.9273 18.0908 12.3992 18.0908 12.9255C18.0908 13.6135 17.5289 14.173 16.8379 14.173C16.8126 14.173 16.7881 14.1757 16.7642 14.1805C16.3045 14.2183 15.9409 14.5988 15.9409 15.0662V15.5676C15.9409 15.6076 15.9492 15.6449 15.9608 15.6807C16.0042 15.8933 16.1049 16.0866 16.2607 16.2422C16.3468 16.328 16.4456 16.392 16.5491 16.4434L14.6973 18.2875C14.5547 18.4295 14.5547 18.6594 14.6973 18.8014C14.7686 18.8724 14.862 18.9078 14.9553 18.9078C15.0487 18.9078 15.1422 18.8724 15.2135 18.8014L17.625 16.4005C17.698 16.3559 17.7681 16.3047 17.8311 16.2422C17.8688 16.2044 17.8949 16.1603 17.9129 16.1138L18.2967 15.7316L22.047 11.9974V11.9971C23.182 10.8773 23.8309 9.40278 23.8915 7.82159C23.8944 7.80245 23.8973 7.78306 23.8973 7.76295V7.57975C23.8973 7.3791 23.7337 7.21626 23.5322 7.21626C23.3307 7.21626 23.1669 7.3791 23.1669 7.57975C23.1669 9.05674 22.5863 10.4426 21.532 11.4819C21.5318 11.4822 21.5318 11.4827 21.5313 11.4829C21.5313 11.4829 21.531 11.4832 21.5308 11.4834L17.7805 15.2177L17.1826 15.8131C17.0468 15.8649 16.8864 15.8368 16.7771 15.7282C16.7199 15.6713 16.6839 15.5991 16.671 15.5206V15.0662C16.671 14.9746 16.7459 14.9 16.8379 14.9C17.9314 14.9 18.8211 14.0143 18.8211 12.9255C18.8211 12.2404 18.4624 11.6143 17.8963 11.2576C18.4578 10.1634 18.4529 8.55536 18.4485 7.23589L18.4478 6.92959C18.4478 2.84953 16.0249 0 12.5554 0Z" fill="#979797"/>
</g>
<mask id="mask3" mask-type="alpha" maskUnits="userSpaceOnUse" x="8" y="12" width="3" height="2">
<path fill-rule="evenodd" clip-rule="evenodd" d="M8.25586 12.8361C8.21904 12.9614 8.29513 13.0917 8.42545 13.1271L10.5477 13.7015C10.5701 13.7076 10.5924 13.7105 10.6145 13.7105C10.7215 13.7105 10.8199 13.6424 10.8506 13.5387C10.8874 13.4136 10.8113 13.2835 10.681 13.2479L8.55897 12.6733C8.53688 12.6674 8.51479 12.6646 8.4927 12.6646C8.38594 12.6646 8.28654 12.7319 8.25586 12.8361Z" fill="white"/>
</mask>
<g mask="url(#mask3)">
<path fill-rule="evenodd" clip-rule="evenodd" d="M8.25586 12.8361C8.21904 12.9614 8.29513 13.0917 8.42545 13.1271L10.5477 13.7015C10.5701 13.7076 10.5924 13.7105 10.6145 13.7105C10.7215 13.7105 10.8199 13.6424 10.8506 13.5387C10.8874 13.4136 10.8113 13.2835 10.681 13.2479L8.55897 12.6733C8.53688 12.6674 8.51479 12.6646 8.4927 12.6646C8.38594 12.6646 8.28654 12.7319 8.25586 12.8361Z" fill="#979797"/>
</g>
<mask id="mask4" mask-type="alpha" maskUnits="userSpaceOnUse" x="14" y="12" width="3" height="2">
<path fill-rule="evenodd" clip-rule="evenodd" d="M16.4382 12.6733L14.3162 13.2479C14.1856 13.2835 14.1096 13.4136 14.1461 13.5387C14.1771 13.6424 14.2752 13.7105 14.3822 13.7105C14.4043 13.7105 14.4269 13.7076 14.4492 13.7015L16.5715 13.1271C16.7016 13.0917 16.7777 12.9614 16.7411 12.8361C16.7102 12.7324 16.6115 12.6646 16.5045 12.6646C16.4827 12.6646 16.4603 12.6674 16.4382 12.6733Z" fill="white"/>
</mask>
<g mask="url(#mask4)">
<path fill-rule="evenodd" clip-rule="evenodd" d="M16.4382 12.6733L14.3162 13.2479C14.1856 13.2835 14.1096 13.4136 14.1461 13.5387C14.1771 13.6424 14.2752 13.7105 14.3822 13.7105C14.4043 13.7105 14.4269 13.7076 14.4492 13.7015L16.5715 13.1271C16.7016 13.0917 16.7777 12.9614 16.7411 12.8361C16.7102 12.7324 16.6115 12.6646 16.5045 12.6646C16.4827 12.6646 16.4603 12.6674 16.4382 12.6733Z" fill="#979797"/>
</g>
<mask id="mask5" mask-type="alpha" maskUnits="userSpaceOnUse" x="1" y="5" width="1" height="2">
<path fill-rule="evenodd" clip-rule="evenodd" d="M1.14415 5.8514C1.12611 5.86944 1.11065 5.89006 1.09493 5.91093C1.0823 5.93155 1.06942 5.95474 1.06169 5.97793C1.05138 6.00113 1.04339 6.02432 1.03849 6.04983C1.03334 6.0756 1.03076 6.10137 1.03076 6.12457C1.03076 6.22765 1.07199 6.32816 1.14415 6.39799C1.21605 6.46989 1.31681 6.51138 1.41706 6.51138C1.5204 6.51138 1.61833 6.46989 1.69049 6.39799C1.76239 6.32584 1.80388 6.22765 1.80388 6.12457C1.80388 6.10137 1.8013 6.0756 1.79589 6.04983C1.79099 6.02432 1.783 6.00113 1.77579 5.97793C1.76522 5.95474 1.75234 5.93155 1.73919 5.91093C1.72399 5.89006 1.70853 5.86944 1.69049 5.8514C1.61962 5.77924 1.51834 5.74316 1.41732 5.74316C1.31604 5.74316 1.21502 5.77924 1.14415 5.8514Z" fill="white"/>
</mask>
<g mask="url(#mask5)">
<path fill-rule="evenodd" clip-rule="evenodd" d="M1.14415 5.8514C1.12611 5.86944 1.11065 5.89006 1.09493 5.91093C1.0823 5.93155 1.06942 5.95474 1.06169 5.97793C1.05138 6.00113 1.04339 6.02432 1.03849 6.04983C1.03334 6.0756 1.03076 6.10137 1.03076 6.12457C1.03076 6.22765 1.07199 6.32816 1.14415 6.39799C1.21605 6.46989 1.31681 6.51138 1.41706 6.51138C1.5204 6.51138 1.61833 6.46989 1.69049 6.39799C1.76239 6.32584 1.80388 6.22765 1.80388 6.12457C1.80388 6.10137 1.8013 6.0756 1.79589 6.04983C1.79099 6.02432 1.783 6.00113 1.77579 5.97793C1.76522 5.95474 1.75234 5.93155 1.73919 5.91093C1.72399 5.89006 1.70853 5.86944 1.69049 5.8514C1.61962 5.77924 1.51834 5.74316 1.41732 5.74316C1.31604 5.74316 1.21502 5.77924 1.14415 5.8514Z" fill="#979797"/>
</g>
<mask id="mask6" mask-type="alpha" maskUnits="userSpaceOnUse" x="23" y="6" width="1" height="1">
<path fill-rule="evenodd" clip-rule="evenodd" d="M23.432 6.04507C23.4062 6.05023 23.383 6.05821 23.357 6.06826C23.3363 6.076 23.3134 6.08888 23.2928 6.10202C23.2722 6.11723 23.2516 6.13269 23.2335 6.15099C23.2155 6.16877 23.2 6.18939 23.1846 6.21C23.1717 6.23062 23.1588 6.25381 23.1485 6.27701C23.1405 6.3002 23.133 6.32339 23.1279 6.34916C23.1225 6.37519 23.1199 6.39813 23.1199 6.42416C23.1199 6.52698 23.1614 6.62491 23.2335 6.69707C23.2516 6.71511 23.2722 6.73083 23.2928 6.74603C23.3134 6.75892 23.3363 6.77206 23.357 6.78211C23.383 6.79268 23.4062 6.79783 23.432 6.80298C23.4551 6.80788 23.4809 6.81046 23.5067 6.81046C23.6072 6.81046 23.7077 6.76922 23.7799 6.69707C23.852 6.62491 23.8932 6.52698 23.8932 6.42416C23.8932 6.39813 23.8907 6.37519 23.8855 6.34916C23.8801 6.32339 23.8726 6.3002 23.8621 6.27701C23.8548 6.25381 23.8414 6.23062 23.8288 6.21C23.8134 6.18939 23.7976 6.16877 23.7799 6.15099C23.7618 6.13269 23.7412 6.11723 23.7203 6.10202C23.6997 6.08888 23.6765 6.076 23.6536 6.06826C23.6304 6.05821 23.6072 6.05023 23.5812 6.04507C23.5569 6.03992 23.5317 6.0376 23.5067 6.0376C23.4814 6.0376 23.4564 6.03992 23.432 6.04507Z" fill="white"/>
</mask>
<g mask="url(#mask6)">
<path fill-rule="evenodd" clip-rule="evenodd" d="M23.432 6.04507C23.4062 6.05023 23.383 6.05821 23.357 6.06826C23.3363 6.076 23.3134 6.08888 23.2928 6.10202C23.2722 6.11723 23.2516 6.13269 23.2335 6.15099C23.2155 6.16877 23.2 6.18939 23.1846 6.21C23.1717 6.23062 23.1588 6.25381 23.1485 6.27701C23.1405 6.3002 23.133 6.32339 23.1279 6.34916C23.1225 6.37519 23.1199 6.39813 23.1199 6.42416C23.1199 6.52698 23.1614 6.62491 23.2335 6.69707C23.2516 6.71511 23.2722 6.73083 23.2928 6.74603C23.3134 6.75892 23.3363 6.77206 23.357 6.78211C23.383 6.79268 23.4062 6.79783 23.432 6.80298C23.4551 6.80788 23.4809 6.81046 23.5067 6.81046C23.6072 6.81046 23.7077 6.76922 23.7799 6.69707C23.852 6.62491 23.8932 6.52698 23.8932 6.42416C23.8932 6.39813 23.8907 6.37519 23.8855 6.34916C23.8801 6.32339 23.8726 6.3002 23.8621 6.27701C23.8548 6.25381 23.8414 6.23062 23.8288 6.21C23.8134 6.18939 23.7976 6.16877 23.7799 6.15099C23.7618 6.13269 23.7412 6.11723 23.7203 6.10202C23.6997 6.08888 23.6765 6.076 23.6536 6.06826C23.6304 6.05821 23.6072 6.05023 23.5812 6.04507C23.5569 6.03992 23.5317 6.0376 23.5067 6.0376C23.4814 6.0376 23.4564 6.03992 23.432 6.04507Z" fill="#979797"/>
</g>
<mask id="mask7" mask-type="alpha" maskUnits="userSpaceOnUse" x="1" y="4" width="1" height="2">
<path fill-rule="evenodd" clip-rule="evenodd" d="M1.14415 4.37874C1.12611 4.39678 1.11065 4.4174 1.09493 4.43776C1.0823 4.45838 1.06942 4.48157 1.06169 4.50476C1.05138 4.52796 1.04339 4.55115 1.03849 4.57692C1.03334 4.60269 1.03076 4.62588 1.03076 4.65165C1.03076 4.75474 1.07199 4.85266 1.14415 4.92482C1.21605 4.99724 1.31681 5.03821 1.41706 5.03821C1.51783 5.03821 1.61833 4.99724 1.69049 4.92482C1.76239 4.85266 1.80388 4.75474 1.80388 4.65165C1.80388 4.62588 1.8013 4.60269 1.79589 4.57692C1.79099 4.55115 1.783 4.52796 1.77579 4.50476C1.76522 4.48157 1.75234 4.45838 1.73919 4.43776C1.72399 4.4174 1.70853 4.39678 1.69049 4.37874C1.61962 4.30659 1.51911 4.27051 1.41835 4.27051C1.31733 4.27051 1.21631 4.30659 1.14415 4.37874Z" fill="white"/>
</mask>
<g mask="url(#mask7)">
<path fill-rule="evenodd" clip-rule="evenodd" d="M1.14415 4.37874C1.12611 4.39678 1.11065 4.4174 1.09493 4.43776C1.0823 4.45838 1.06942 4.48157 1.06169 4.50476C1.05138 4.52796 1.04339 4.55115 1.03849 4.57692C1.03334 4.60269 1.03076 4.62588 1.03076 4.65165C1.03076 4.75474 1.07199 4.85266 1.14415 4.92482C1.21605 4.99724 1.31681 5.03821 1.41706 5.03821C1.51783 5.03821 1.61833 4.99724 1.69049 4.92482C1.76239 4.85266 1.80388 4.75474 1.80388 4.65165C1.80388 4.62588 1.8013 4.60269 1.79589 4.57692C1.79099 4.55115 1.783 4.52796 1.77579 4.50476C1.76522 4.48157 1.75234 4.45838 1.73919 4.43776C1.72399 4.4174 1.70853 4.39678 1.69049 4.37874C1.61962 4.30659 1.51911 4.27051 1.41835 4.27051C1.31733 4.27051 1.21631 4.30659 1.14415 4.37874Z" fill="#979797"/>
</g>
<mask id="mask8" mask-type="alpha" maskUnits="userSpaceOnUse" x="23" y="4" width="1" height="2">
<path fill-rule="evenodd" clip-rule="evenodd" d="M23.432 4.57241C23.4062 4.57783 23.383 4.5853 23.357 4.59587C23.3363 4.6036 23.3134 4.61648 23.2928 4.62937C23.2722 4.64483 23.2516 4.66003 23.2335 4.67807C23.2155 4.69637 23.2 4.71699 23.1846 4.7376C23.1717 4.75822 23.1588 4.78116 23.1485 4.80461C23.1405 4.8278 23.133 4.85074 23.1279 4.87677C23.1225 4.90254 23.1199 4.92573 23.1199 4.9515C23.1199 4.97727 23.1225 5.00278 23.1279 5.02598C23.133 5.05175 23.1405 5.07494 23.1485 5.10071C23.1588 5.1239 23.1717 5.14452 23.1846 5.16514C23.2 5.18833 23.2155 5.20663 23.2335 5.22467C23.3057 5.29683 23.4036 5.33806 23.5067 5.33806C23.6072 5.33806 23.7077 5.29683 23.7799 5.22467C23.7976 5.20663 23.8134 5.18833 23.8288 5.16514C23.8414 5.14452 23.8548 5.1239 23.8621 5.10071C23.8726 5.07494 23.8801 5.05175 23.8855 5.02598C23.8907 5.00278 23.8932 4.97727 23.8932 4.9515C23.8932 4.92573 23.8907 4.90254 23.8855 4.87677C23.8801 4.85074 23.8726 4.8278 23.8621 4.80461C23.8548 4.78116 23.8414 4.75822 23.8288 4.7376C23.8134 4.71699 23.7976 4.69637 23.7799 4.67807C23.7074 4.60566 23.6067 4.56494 23.5057 4.56494C23.4809 4.56494 23.4562 4.56752 23.432 4.57241Z" fill="white"/>
</mask>
<g mask="url(#mask8)">
<path fill-rule="evenodd" clip-rule="evenodd" d="M23.432 4.57241C23.4062 4.57783 23.383 4.5853 23.357 4.59587C23.3363 4.6036 23.3134 4.61648 23.2928 4.62937C23.2722 4.64483 23.2516 4.66003 23.2335 4.67807C23.2155 4.69637 23.2 4.71699 23.1846 4.7376C23.1717 4.75822 23.1588 4.78116 23.1485 4.80461C23.1405 4.8278 23.133 4.85074 23.1279 4.87677C23.1225 4.90254 23.1199 4.92573 23.1199 4.9515C23.1199 4.97727 23.1225 5.00278 23.1279 5.02598C23.133 5.05175 23.1405 5.07494 23.1485 5.10071C23.1588 5.1239 23.1717 5.14452 23.1846 5.16514C23.2 5.18833 23.2155 5.20663 23.2335 5.22467C23.3057 5.29683 23.4036 5.33806 23.5067 5.33806C23.6072 5.33806 23.7077 5.29683 23.7799 5.22467C23.7976 5.20663 23.8134 5.18833 23.8288 5.16514C23.8414 5.14452 23.8548 5.1239 23.8621 5.10071C23.8726 5.07494 23.8801 5.05175 23.8855 5.02598C23.8907 5.00278 23.8932 4.97727 23.8932 4.9515C23.8932 4.92573 23.8907 4.90254 23.8855 4.87677C23.8801 4.85074 23.8726 4.8278 23.8621 4.80461C23.8548 4.78116 23.8414 4.75822 23.8288 4.7376C23.8134 4.71699 23.7976 4.69637 23.7799 4.67807C23.7074 4.60566 23.6067 4.56494 23.5057 4.56494C23.4809 4.56494 23.4562 4.56752 23.432 4.57241Z" fill="#979797"/>
</g>
<mask id="mask9" mask-type="alpha" maskUnits="userSpaceOnUse" x="15" y="13" width="11" height="20">
<path fill-rule="evenodd" clip-rule="evenodd" d="M24.3594 13.8022L17.7787 20.411C17.7589 20.4263 17.74 20.4436 17.7231 20.4635C17.3783 20.8639 17.1838 21.3718 17.1671 21.9L16.0816 20.8095C15.9398 20.6671 15.71 20.6671 15.5685 20.8095C15.4267 20.9519 15.4267 21.1827 15.5685 21.3251L22.9219 28.7105C22.9221 28.7107 22.9221 28.7107 22.9224 28.7107C22.9226 28.7112 22.9226 28.7117 22.9231 28.7119C23.9714 29.7538 24.5484 31.1434 24.5484 32.6244C24.5484 32.8256 24.7112 32.9891 24.9113 32.9891C25.1116 32.9891 25.2744 32.8256 25.2744 32.6244V32.4407C25.2744 32.4208 25.2715 32.4013 25.2686 32.3819C25.2083 30.7962 24.5631 29.3165 23.4338 28.1939C23.4336 28.1937 23.4333 28.1937 23.4331 28.1932L18.3494 23.0877C18.0528 22.7896 17.8895 22.3935 17.8895 21.9722C17.8895 21.6024 18.0209 21.2454 18.2565 20.9623C18.2565 20.9621 18.2568 20.9621 18.2568 20.9621L24.8725 14.3176C25.0143 14.1752 25.0143 13.9446 24.8725 13.8022C24.8017 13.731 24.709 13.6953 24.6161 13.6953C24.5232 13.6953 24.4303 13.731 24.3594 13.8022Z" fill="white"/>
</mask>
<g mask="url(#mask9)">
<path fill-rule="evenodd" clip-rule="evenodd" d="M24.3594 13.8022L17.7787 20.411C17.7589 20.4263 17.74 20.4436 17.7231 20.4635C17.3783 20.8639 17.1838 21.3718 17.1671 21.9L16.0816 20.8095C15.9398 20.6671 15.71 20.6671 15.5685 20.8095C15.4267 20.9519 15.4267 21.1827 15.5685 21.3251L22.9219 28.7105C22.9221 28.7107 22.9221 28.7107 22.9224 28.7107C22.9226 28.7112 22.9226 28.7117 22.9231 28.7119C23.9714 29.7538 24.5484 31.1434 24.5484 32.6244C24.5484 32.8256 24.7112 32.9891 24.9113 32.9891C25.1116 32.9891 25.2744 32.8256 25.2744 32.6244V32.4407C25.2744 32.4208 25.2715 32.4013 25.2686 32.3819C25.2083 30.7962 24.5631 29.3165 23.4338 28.1939C23.4336 28.1937 23.4333 28.1937 23.4331 28.1932L18.3494 23.0877C18.0528 22.7896 17.8895 22.3935 17.8895 21.9722C17.8895 21.6024 18.0209 21.2454 18.2565 20.9623C18.2565 20.9621 18.2568 20.9621 18.2568 20.9621L24.8725 14.3176C25.0143 14.1752 25.0143 13.9446 24.8725 13.8022C24.8017 13.731 24.709 13.6953 24.6161 13.6953C24.5232 13.6953 24.4303 13.731 24.3594 13.8022Z" fill="#979797"/>
</g>
<mask id="mask10" mask-type="alpha" maskUnits="userSpaceOnUse" x="24" y="33" width="2" height="2">
<path fill-rule="evenodd" clip-rule="evenodd" d="M24.7574 33.5816C24.7316 33.5862 24.7084 33.5936 24.685 33.6034C24.662 33.6108 24.6388 33.6231 24.6182 33.6353C24.5976 33.6503 24.577 33.6648 24.559 33.682C24.5409 33.6991 24.5255 33.7188 24.51 33.7387C24.4971 33.758 24.4845 33.7804 24.4765 33.8025C24.4659 33.8246 24.4585 33.8466 24.4533 33.8709C24.4479 33.8933 24.4453 33.9176 24.4453 33.9421C24.4453 34.0405 24.4868 34.1338 24.559 34.2025C24.595 34.2366 24.6363 34.2639 24.685 34.2835C24.7316 34.3007 24.7806 34.3103 24.8321 34.3103C24.9352 34.3103 25.0331 34.2735 25.1053 34.2025C25.1775 34.1338 25.2187 34.0405 25.2187 33.9421C25.2187 33.8466 25.1775 33.7509 25.1053 33.682C25.0342 33.6125 24.9331 33.5752 24.8301 33.5752C24.8058 33.5752 24.7814 33.5772 24.7574 33.5816Z" fill="white"/>
</mask>
<g mask="url(#mask10)">
<path fill-rule="evenodd" clip-rule="evenodd" d="M24.7574 33.5816C24.7316 33.5862 24.7084 33.5936 24.685 33.6034C24.662 33.6108 24.6388 33.6231 24.6182 33.6353C24.5976 33.6503 24.577 33.6648 24.559 33.682C24.5409 33.6991 24.5255 33.7188 24.51 33.7387C24.4971 33.758 24.4845 33.7804 24.4765 33.8025C24.4659 33.8246 24.4585 33.8466 24.4533 33.8709C24.4479 33.8933 24.4453 33.9176 24.4453 33.9421C24.4453 34.0405 24.4868 34.1338 24.559 34.2025C24.595 34.2366 24.6363 34.2639 24.685 34.2835C24.7316 34.3007 24.7806 34.3103 24.8321 34.3103C24.9352 34.3103 25.0331 34.2735 25.1053 34.2025C25.1775 34.1338 25.2187 34.0405 25.2187 33.9421C25.2187 33.8466 25.1775 33.7509 25.1053 33.682C25.0342 33.6125 24.9331 33.5752 24.8301 33.5752C24.8058 33.5752 24.7814 33.5772 24.7574 33.5816Z" fill="#979797"/>
</g>
<mask id="mask11" mask-type="alpha" maskUnits="userSpaceOnUse" x="0" y="33" width="1" height="2">
<path fill-rule="evenodd" clip-rule="evenodd" d="M0.11339 33.5416C0.0950934 33.5594 0.077054 33.5774 0.0644264 33.5983C0.0512834 33.6212 0.0386558 33.6421 0.0283476 33.6653C0.0180394 33.6885 0.0126276 33.714 0.00773117 33.7372C0.00231935 33.763 0 33.789 0 33.8145C0 33.8663 0.0100505 33.915 0.0283476 33.9617C0.0489641 34.0081 0.077054 34.0516 0.11339 34.0879C0.149469 34.124 0.190444 34.1524 0.236831 34.1702C0.283476 34.1908 0.33476 34.2011 0.386558 34.2011C0.489641 34.2011 0.584992 34.1598 0.659726 34.0879C0.695805 34.0516 0.724153 34.0081 0.742192 33.9617C0.762809 33.915 0.772859 33.8663 0.772859 33.8145C0.772859 33.789 0.770282 33.763 0.765386 33.7372C0.760232 33.714 0.752243 33.6885 0.742192 33.6653C0.731626 33.6421 0.721576 33.6212 0.706113 33.5983C0.693228 33.5774 0.677508 33.5594 0.659726 33.5416C0.641687 33.5236 0.621071 33.5055 0.600454 33.4924C0.579838 33.4798 0.556644 33.4669 0.533451 33.4566C0.510515 33.4463 0.484487 33.4409 0.461293 33.4357C0.436038 33.4308 0.410783 33.4282 0.385785 33.4282C0.284249 33.4282 0.185548 33.4692 0.11339 33.5416Z" fill="white"/>
</mask>
<g mask="url(#mask11)">
<path fill-rule="evenodd" clip-rule="evenodd" d="M0.11339 33.5416C0.0950934 33.5594 0.077054 33.5774 0.0644264 33.5983C0.0512834 33.6212 0.0386558 33.6421 0.0283476 33.6653C0.0180394 33.6885 0.0126276 33.714 0.00773117 33.7372C0.00231935 33.763 0 33.789 0 33.8145C0 33.8663 0.0100505 33.915 0.0283476 33.9617C0.0489641 34.0081 0.077054 34.0516 0.11339 34.0879C0.149469 34.124 0.190444 34.1524 0.236831 34.1702C0.283476 34.1908 0.33476 34.2011 0.386558 34.2011C0.489641 34.2011 0.584992 34.1598 0.659726 34.0879C0.695805 34.0516 0.724153 34.0081 0.742192 33.9617C0.762809 33.915 0.772859 33.8663 0.772859 33.8145C0.772859 33.789 0.770282 33.763 0.765386 33.7372C0.760232 33.714 0.752243 33.6885 0.742192 33.6653C0.731626 33.6421 0.721576 33.6212 0.706113 33.5983C0.693228 33.5774 0.677508 33.5594 0.659726 33.5416C0.641687 33.5236 0.621071 33.5055 0.600454 33.4924C0.579838 33.4798 0.556644 33.4669 0.533451 33.4566C0.510515 33.4463 0.484487 33.4409 0.461293 33.4357C0.436038 33.4308 0.410783 33.4282 0.385785 33.4282C0.284249 33.4282 0.185548 33.4692 0.11339 33.5416Z" fill="#979797"/>
</g>
<mask id="mask12" mask-type="alpha" maskUnits="userSpaceOnUse" x="24" y="35" width="2" height="1">
<path fill-rule="evenodd" clip-rule="evenodd" d="M24.559 35.1556C24.4868 35.2243 24.4453 35.3178 24.4453 35.4158C24.4453 35.5139 24.4868 35.6072 24.559 35.6762C24.595 35.7103 24.6363 35.7373 24.685 35.7569C24.7316 35.7743 24.7806 35.7839 24.8321 35.7839C24.9352 35.7839 25.0331 35.7473 25.1053 35.6762C25.1775 35.6072 25.2187 35.5139 25.2187 35.4158C25.2187 35.32 25.1775 35.2243 25.1053 35.1556C25.0873 35.1384 25.069 35.1239 25.0458 35.109C25.0252 35.0967 25.0045 35.0847 24.979 35.0771C24.9558 35.0672 24.9326 35.0601 24.9066 35.055C24.8824 35.0503 24.8579 35.0479 24.8332 35.0479C24.7324 35.0479 24.6314 35.0869 24.559 35.1556Z" fill="white"/>
</mask>
<g mask="url(#mask12)">
<path fill-rule="evenodd" clip-rule="evenodd" d="M24.559 35.1556C24.4868 35.2243 24.4453 35.3178 24.4453 35.4158C24.4453 35.5139 24.4868 35.6072 24.559 35.6762C24.595 35.7103 24.6363 35.7373 24.685 35.7569C24.7316 35.7743 24.7806 35.7839 24.8321 35.7839C24.9352 35.7839 25.0331 35.7473 25.1053 35.6762C25.1775 35.6072 25.2187 35.5139 25.2187 35.4158C25.2187 35.32 25.1775 35.2243 25.1053 35.1556C25.0873 35.1384 25.069 35.1239 25.0458 35.109C25.0252 35.0967 25.0045 35.0847 24.979 35.0771C24.9558 35.0672 24.9326 35.0601 24.9066 35.055C24.8824 35.0503 24.8579 35.0479 24.8332 35.0479C24.7324 35.0479 24.6314 35.0869 24.559 35.1556Z" fill="#979797"/>
</g>
<mask id="mask13" mask-type="alpha" maskUnits="userSpaceOnUse" x="0" y="34" width="1" height="2">
<path fill-rule="evenodd" clip-rule="evenodd" d="M0.11339 35.0143C0.0950934 35.0323 0.077054 35.0503 0.0644264 35.071C0.0512834 35.0942 0.0386558 35.1148 0.0283476 35.1377C0.0180394 35.1609 0.0126276 35.1869 0.00773117 35.2101C0.00231935 35.2356 0 35.2617 0 35.2872C0 35.3387 0.0100505 35.3877 0.0283476 35.4343C0.0489641 35.4805 0.077054 35.5243 0.11339 35.5606C0.149469 35.5964 0.190444 35.625 0.236831 35.6428C0.283476 35.6634 0.33476 35.674 0.386558 35.674C0.489641 35.674 0.584992 35.6328 0.659726 35.5606C0.695805 35.5243 0.724153 35.4805 0.742192 35.4343C0.762809 35.3877 0.772859 35.3387 0.772859 35.2872C0.772859 35.2617 0.770282 35.2356 0.765386 35.2101C0.760232 35.1869 0.752243 35.1609 0.742192 35.1377C0.731626 35.1148 0.721576 35.0942 0.706113 35.071C0.693228 35.0503 0.677508 35.0323 0.659726 35.0143C0.641687 34.996 0.621071 34.9779 0.600454 34.965C0.579838 34.9524 0.556644 34.9395 0.533451 34.9292C0.510515 34.9187 0.484487 34.9138 0.461293 34.9086C0.436038 34.9035 0.410783 34.9009 0.385785 34.9009C0.284249 34.9009 0.185548 34.9419 0.11339 35.0143Z" fill="white"/>
</mask>
<g mask="url(#mask13)">
<path fill-rule="evenodd" clip-rule="evenodd" d="M0.11339 35.0143C0.0950934 35.0323 0.077054 35.0503 0.0644264 35.071C0.0512834 35.0942 0.0386558 35.1148 0.0283476 35.1377C0.0180394 35.1609 0.0126276 35.1869 0.00773117 35.2101C0.00231935 35.2356 0 35.2617 0 35.2872C0 35.3387 0.0100505 35.3877 0.0283476 35.4343C0.0489641 35.4805 0.077054 35.5243 0.11339 35.5606C0.149469 35.5964 0.190444 35.625 0.236831 35.6428C0.283476 35.6634 0.33476 35.674 0.386558 35.674C0.489641 35.674 0.584992 35.6328 0.659726 35.5606C0.695805 35.5243 0.724153 35.4805 0.742192 35.4343C0.762809 35.3877 0.772859 35.3387 0.772859 35.2872C0.772859 35.2617 0.770282 35.2356 0.765386 35.2101C0.760232 35.1869 0.752243 35.1609 0.742192 35.1377C0.731626 35.1148 0.721576 35.0942 0.706113 35.071C0.693228 35.0503 0.677508 35.0323 0.659726 35.0143C0.641687 34.996 0.621071 34.9779 0.600454 34.965C0.579838 34.9524 0.556644 34.9395 0.533451 34.9292C0.510515 34.9187 0.484487 34.9138 0.461293 34.9086C0.436038 34.9035 0.410783 34.9009 0.385785 34.9009C0.284249 34.9009 0.185548 34.9419 0.11339 35.0143Z" fill="#979797"/>
</g>
<mask id="mask14" mask-type="alpha" maskUnits="userSpaceOnUse" x="3" y="14" width="5" height="5">
<path fill-rule="evenodd" clip-rule="evenodd" d="M3.75361 14.798C3.65765 14.8942 3.65765 15.0493 3.75361 15.1453L7.53035 18.9215C7.57821 18.9696 7.64104 18.9937 7.70363 18.9937C7.7667 18.9937 7.82929 18.9696 7.8774 18.9215C7.97311 18.8258 7.97311 18.6704 7.8774 18.5747L4.10066 14.798C4.05255 14.7501 3.98972 14.7261 3.92714 14.7261C3.8643 14.7261 3.80147 14.7501 3.75361 14.798Z" fill="white"/>
</mask>
<g mask="url(#mask14)">
<path fill-rule="evenodd" clip-rule="evenodd" d="M3.75361 14.798C3.65765 14.8942 3.65765 15.0493 3.75361 15.1453L7.53035 18.9215C7.57821 18.9696 7.64104 18.9937 7.70363 18.9937C7.7667 18.9937 7.82929 18.9696 7.8774 18.9215C7.97311 18.8258 7.97311 18.6704 7.8774 18.5747L4.10066 14.798C4.05255 14.7501 3.98972 14.7261 3.92714 14.7261C3.8643 14.7261 3.80147 14.7501 3.75361 14.798Z" fill="#979797"/>
</g>
<mask id="mask15" mask-type="alpha" maskUnits="userSpaceOnUse" x="17" y="14" width="5" height="5">
<path fill-rule="evenodd" clip-rule="evenodd" d="M21.0998 14.6505L17.3015 18.4491C17.2055 18.5448 17.2055 18.7002 17.3015 18.7959C17.3493 18.844 17.4122 18.8681 17.475 18.8681C17.5378 18.8681 17.6004 18.844 17.6485 18.7959L21.4468 14.9976C21.5431 14.9016 21.5431 14.7465 21.4468 14.6505C21.399 14.6027 21.3362 14.5786 21.2733 14.5786C21.2105 14.5786 21.1477 14.6027 21.0998 14.6505Z" fill="white"/>
</mask>
<g mask="url(#mask15)">
<path fill-rule="evenodd" clip-rule="evenodd" d="M21.0998 14.6505L17.3015 18.4491C17.2055 18.5448 17.2055 18.7002 17.3015 18.7959C17.3493 18.844 17.4122 18.8681 17.475 18.8681C17.5378 18.8681 17.6004 18.844 17.6485 18.7959L21.4468 14.9976C21.5431 14.9016 21.5431 14.7465 21.4468 14.6505C21.399 14.6027 21.3362 14.5786 21.2733 14.5786C21.2105 14.5786 21.1477 14.6027 21.0998 14.6505Z" fill="#979797"/>
</g>
<mask id="mask16" mask-type="alpha" maskUnits="userSpaceOnUse" x="6" y="23" width="4" height="4">
<path fill-rule="evenodd" clip-rule="evenodd" d="M9.38171 23.1898L6.84351 25.7275C6.75073 25.8206 6.75073 25.9711 6.84351 26.0639C6.89013 26.1103 6.95079 26.1336 7.01169 26.1336C7.07259 26.1336 7.13348 26.1103 7.17987 26.0639L9.71807 23.5262C9.81085 23.4332 9.81085 23.2826 9.71807 23.1898C9.67145 23.1432 9.61055 23.1201 9.54989 23.1201C9.48899 23.1201 9.4281 23.1432 9.38171 23.1898Z" fill="white"/>
</mask>
<g mask="url(#mask16)">
<path fill-rule="evenodd" clip-rule="evenodd" d="M9.38171 23.1898L6.84351 25.7275C6.75073 25.8206 6.75073 25.9711 6.84351 26.0639C6.89013 26.1103 6.95079 26.1336 7.01169 26.1336C7.07259 26.1336 7.13348 26.1103 7.17987 26.0639L9.71807 23.5262C9.81085 23.4332 9.81085 23.2826 9.71807 23.1898C9.67145 23.1432 9.61055 23.1201 9.54989 23.1201C9.48899 23.1201 9.4281 23.1432 9.38171 23.1898Z" fill="#979797"/>
</g>
<mask id="mask17" mask-type="alpha" maskUnits="userSpaceOnUse" x="15" y="23" width="4" height="4">
<path fill-rule="evenodd" clip-rule="evenodd" d="M15.3848 23.1898C15.292 23.2826 15.292 23.4332 15.3848 23.5262L17.923 26.0639C17.9694 26.1103 18.0303 26.1336 18.0909 26.1336C18.152 26.1336 18.2127 26.1103 18.2593 26.0639C18.3521 25.9711 18.3521 25.8206 18.2593 25.7275L15.7211 23.1898C15.6747 23.1432 15.6138 23.1201 15.5529 23.1201C15.4921 23.1201 15.4312 23.1432 15.3848 23.1898Z" fill="white"/>
</mask>
<g mask="url(#mask17)">
<path fill-rule="evenodd" clip-rule="evenodd" d="M15.3848 23.1898C15.292 23.2826 15.292 23.4332 15.3848 23.5262L17.923 26.0639C17.9694 26.1103 18.0303 26.1336 18.0909 26.1336C18.152 26.1336 18.2127 26.1103 18.2593 26.0639C18.3521 25.9711 18.3521 25.8206 18.2593 25.7275L15.7211 23.1898C15.6747 23.1432 15.6138 23.1201 15.5529 23.1201C15.4921 23.1201 15.4312 23.1432 15.3848 23.1898Z" fill="#979797"/>
</g>
<path d="M4.52996 42.9999L3.6838 41.7832L2.85266 42.9999H1.92139L3.21816 41.2175L1.98648 39.4951H2.90774L3.71384 40.6317L4.50492 39.4951H5.38112L4.15945 41.1874L5.46624 42.9999H4.52996Z" fill="#979797"/>
<path d="M7.16059 39.4951H8.75277C9.13329 39.4951 9.46875 39.5686 9.75914 39.7154C10.0529 39.8589 10.2799 40.0626 10.4401 40.3263C10.6036 40.5899 10.6854 40.897 10.6854 41.2475C10.6854 41.598 10.6036 41.9051 10.4401 42.1688C10.2799 42.4325 10.0529 42.6378 9.75914 42.7846C9.46875 42.9281 9.13329 42.9999 8.75277 42.9999H7.16059V39.4951ZM8.71271 42.334C9.06319 42.334 9.34191 42.2372 9.54886 42.0436C9.75914 41.8467 9.86429 41.5813 9.86429 41.2475C9.86429 40.9137 9.75914 40.65 9.54886 40.4564C9.34191 40.2595 9.06319 40.161 8.71271 40.161H7.9717V42.334H8.71271Z" fill="#979797"/>
<path d="M15.3877 42.349V42.9999H12.674V39.4951H15.3226V40.146H13.4801V40.907H15.1073V41.5379H13.4801V42.349H15.3877Z" fill="#979797"/>
<path d="M18.2211 40.146V41.0723H19.8433V41.7232H18.2211V42.9999H17.41V39.4951H20.0586V40.146H18.2211Z" fill="#979797"/>
<path d="M21.9846 39.4951H22.7957V42.9999H21.9846V39.4951Z" fill="#979797"/>
</svg>
