<svg width="10" height="11" viewBox="0 0 10 11" fill="none" xmlns="http://www.w3.org/2000/svg">
<g clip-path="url(#clip0)">
<path d="M9.85 9.15L9.84 9.13L6.32 5.61C6.31 5.6 6.3 5.6 6.29 5.59C6.73 5.01 7 4.29 7 3.5C7 1.57 5.43 0 3.5 0C1.57 0 0 1.57 0 3.5C0 5.43 1.57 7 3.5 7C4.29 7 5.01 6.73 5.59 6.29C5.6 6.3 5.6 6.31 5.61 6.32L7.79 8.5L7.15 9.14C6.96 9.33 6.96 9.65 7.15 9.85C7.25 9.95 7.38 10 7.5 10C7.62 10 7.76 9.95 7.85 9.85L8.5 9.2L8.77 9.47L8.11 10.13C7.92 10.32 7.92 10.64 8.11 10.84C8.21 10.94 8.34 10.99 8.46 10.99C8.58 10.99 8.72 10.94 8.81 10.84L9.72 9.93C9.76 9.91 9.81 9.88 9.85 9.85C10.05 9.66 10.05 9.34 9.85 9.15ZM3.5 6C2.12 6 1 4.88 1 3.5C1 2.12 2.12 1 3.5 1C4.88 1 6 2.12 6 3.5C6 4.88 4.88 6 3.5 6Z" fill="url(#paint0_linear)"/>
</g>
<defs>
<linearGradient id="paint0_linear" x1="0" y1="5.4972" x2="10" y2="5.4972" gradientUnits="userSpaceOnUse">
<stop offset="0.3645" stop-color="#2041E0"/>
<stop offset="0.5292" stop-color="#2549E3"/>
<stop offset="0.7806" stop-color="#345EEA"/>
<stop offset="1" stop-color="#4476F2"/>
</linearGradient>
<clipPath id="clip0">
<rect width="10" height="10.99" fill="white"/>
</clipPath>
</defs>
</svg>
