<svg width="21" height="21" viewBox="0 0 21 21" fill="none" xmlns="http://www.w3.org/2000/svg">
    <rect x="0.5" y="0.5" width="20" height="20" rx="10" stroke="white"/>
    <path d="M16 6.4C16 6.3 16 6.2 15.9 6.2C15.9 6.1 15.8 6.1 15.7 6H15.6C15.5 6 15.5 6 15.4 6L5.4 7C5.3 7 5.1 7.1 5 7.3C5 7.5 5 7.7 5.2 7.8L9.1 10.7L10 15.5C10 15.7 10.2 15.9 10.4 15.9H10.5C10.7 15.9 10.9 15.8 10.9 15.6L15.9 6.6C15.9 6.5 15.9 6.5 15.9 6.4H16ZM13.6 7.1L9.6 9.8L6.9 7.8L13.6 7.1ZM10.7 14L10.1 10.7L14.1 8L10.7 14Z" fill="white"/>
</svg>
