<svg width="8" height="7" viewBox="0 0 8 7" fill="none" xmlns="http://www.w3.org/2000/svg">
<path fill-rule="evenodd" clip-rule="evenodd" d="M0.977271 1.58987C0.977089 1.58985 0.978057 1.58828 0.98072 1.5852C0.978785 1.58835 0.977453 1.58989 0.977271 1.58987ZM1.09433 1.5C1.21368 1.42814 1.40126 1.34829 1.66249 1.27366C2.23979 1.10871 3.06639 1 4 1C4.93361 1 5.76021 1.10871 6.33751 1.27366C6.59874 1.34829 6.78632 1.42814 6.90567 1.5C6.78632 1.57186 6.59874 1.65171 6.33751 1.72634C5.76021 1.89129 4.93361 2 4 2C3.06639 2 2.23979 1.89129 1.66249 1.72634C1.40126 1.65171 1.21368 1.57186 1.09433 1.5ZM7.02273 1.58987C7.02255 1.58989 7.02122 1.58835 7.01928 1.5852C7.02194 1.58828 7.02291 1.58985 7.02273 1.58987ZM7.01928 1.4148C7.02122 1.41165 7.02255 1.41011 7.02273 1.41013C7.02291 1.41015 7.02194 1.41172 7.01928 1.4148ZM0.98072 1.4148C0.978057 1.41172 0.977089 1.41015 0.977271 1.41013C0.977453 1.41011 0.978785 1.41165 0.98072 1.4148ZM1.38777 0.312131C2.07721 0.115147 3.00061 0 4 0C4.99939 0 5.92279 0.115147 6.61223 0.312131C6.95355 0.409651 7.26612 0.535175 7.50483 0.696427C7.7261 0.845892 8 1.10818 8 1.5V3V5C8 5.37619 7.81999 5.69275 7.58083 5.93509C7.34379 6.17527 7.02558 6.36863 6.67183 6.52023C5.96257 6.8242 5.01759 7 4 7C2.98241 7 2.03743 6.8242 1.32817 6.52023C0.974425 6.36863 0.656213 6.17527 0.419174 5.93509C0.180013 5.69275 0 5.37619 0 5V3V1.5C0 1.10818 0.273904 0.845892 0.495167 0.696427C0.733881 0.535175 1.04645 0.409651 1.38777 0.312131ZM1 4.36116V5C1 5.03802 1.01586 5.11607 1.13092 5.23265C1.2481 5.35138 1.44245 5.48124 1.72209 5.60109C2.27957 5.84001 3.08459 6 4 6C4.91541 6 5.72043 5.84001 6.27791 5.60109C6.55755 5.48124 6.7519 5.35138 6.86908 5.23265C6.98414 5.11607 7 5.03802 7 5V4.36116C6.89528 4.4186 6.78539 4.47157 6.67183 4.52023C5.96257 4.8242 5.01759 5 4 5C2.98241 5 2.03743 4.8242 1.32817 4.52023C1.21461 4.47157 1.10472 4.4186 1 4.36116ZM1 3V2.5589C1.12293 2.60657 1.25311 2.6494 1.38777 2.68787C2.07721 2.88485 3.00061 3 4 3C4.99939 3 5.92279 2.88485 6.61223 2.68787C6.74689 2.6494 6.87707 2.60657 7 2.5589V3C7 3.03802 6.98414 3.11607 6.86908 3.23265C6.7519 3.35138 6.55755 3.48124 6.27791 3.60109C5.72043 3.84001 4.91541 4 4 4C3.08459 4 2.27957 3.84001 1.72209 3.60109C1.44245 3.48124 1.2481 3.35138 1.13092 3.23265C1.01586 3.11607 1 3.03802 1 3Z" fill="url(#paint0_linear)"/>
<defs>
<linearGradient id="paint0_linear" x1="1.47368" y1="6.07895" x2="5.97083" y2="0.322604" gradientUnits="userSpaceOnUse">
<stop offset="0.407986" stop-color="#2041E0"/>
<stop offset="1" stop-color="#4476F2"/>
</linearGradient>
</defs>
</svg>
