
<svg width="96" height="128" viewBox="0 0 96 128" fill="none" xmlns="http://www.w3.org/2000/svg">
<g clip-path="url(#clip0_15247_2384)">
<path fill-rule="evenodd" clip-rule="evenodd" d="M48 0.0921631C74.4588 0.0921631 95.9078 21.5412 95.9078 48C95.9078 74.4588 74.4588 95.9078 48 95.9078C21.5412 95.9078 0.0921631 74.4588 0.0921631 48C0.0921631 21.5412 21.5412 0.0921631 48 0.0921631Z" fill="#171717"/>
<path fill-rule="evenodd" clip-rule="evenodd" d="M47.908 20.3608C63.1726 20.3608 75.5471 32.7353 75.5471 48C75.5471 63.2647 63.1726 75.6392 47.908 75.6392C32.6433 75.6392 20.2688 63.2647 20.2688 48C20.2688 32.7353 32.6433 20.3608 47.908 20.3608Z" fill="black"/>
<path opacity="0.67" fill-rule="evenodd" clip-rule="evenodd" d="M48.7524 8.28655C48.3719 7.93632 48.1754 7.92969 48.1424 7.92969C48.1094 7.92969 47.913 7.93632 47.5324 8.28655C47.1417 8.64607 46.6747 9.26635 46.1717 10.2235C45.1674 12.1338 44.2062 15.0213 43.3777 18.7472C42.446 22.937 41.7099 28.0582 41.2454 33.791C43.4885 34.8763 45.7954 36.0563 48.1419 37.3233C50.4887 36.056 52.7957 34.876 55.0394 33.7903C54.5749 28.0578 53.8387 22.9368 52.907 18.7472C52.0787 15.0213 51.1174 12.1338 50.1132 10.2235C49.61 9.26635 49.143 8.64605 48.7524 8.28655ZM46.1785 38.3987C44.4554 37.4832 42.7577 36.617 41.0954 35.8032C40.9694 37.6487 40.8712 39.5512 40.803 41.5003C41.6822 40.9738 42.5744 40.4493 43.4784 39.9277C44.3824 39.4062 45.2829 38.8963 46.1785 38.3987ZM39.4357 32.9293C40.7819 17.2092 44.1725 6.05469 48.1424 6.05469C52.1122 6.05469 55.5027 17.2088 56.849 32.9287C71.1442 26.2342 82.5051 23.5918 84.4901 27.0277C86.4751 30.4635 78.5044 38.975 65.5554 48C78.5044 57.025 86.4751 65.5367 84.4901 68.9725C82.5051 72.4083 71.1442 69.7658 56.849 63.0713C55.5027 78.7912 52.1122 89.9453 48.1424 89.9453C44.1725 89.9453 40.7819 78.7908 39.4357 63.0708C25.14 69.7657 13.7785 72.4083 11.7935 68.9725C9.80858 65.5367 17.7792 57.025 30.7282 48C17.7792 38.975 9.80858 30.4635 11.7935 27.0277C13.7785 23.5917 25.14 26.2343 39.4357 32.9293ZM32.3804 46.8642C27.6445 43.5955 23.5744 40.3975 20.4092 37.4962C17.5945 34.916 15.5729 32.6403 14.4196 30.816C13.8418 29.9018 13.5378 29.1877 13.4216 28.67C13.3085 28.166 13.401 27.9933 13.4171 27.9655C13.4332 27.9375 13.537 27.7708 14.031 27.6165C14.5381 27.4582 15.3094 27.364 16.3906 27.4072C18.5485 27.4932 21.5315 28.105 25.1747 29.2508C29.2714 30.5395 34.0774 32.463 39.2775 34.9273C39.0965 37.4112 38.9657 39.9972 38.8905 42.6612C36.6189 44.0587 34.4429 45.4652 32.3804 46.8642ZM32.3804 49.136C27.6445 52.4045 23.5744 55.6025 20.4092 58.504C17.5945 61.084 15.5729 63.3597 14.4196 65.1842C13.8418 66.0982 13.5378 66.8125 13.4216 67.33C13.3085 67.8342 13.401 68.0067 13.4171 68.0345C13.4332 68.0623 13.5368 68.2292 14.031 68.3835C14.5381 68.542 15.3094 68.636 16.3906 68.5928C18.5485 68.507 21.5315 67.895 25.1747 66.7492C29.2714 65.4605 34.0774 63.537 39.2775 61.0727C39.0965 58.5888 38.9657 56.0028 38.8905 53.3388C36.6189 51.9413 34.4429 50.5348 32.3804 49.136ZM38.8407 51.1022C37.1854 50.0683 35.5857 49.032 34.049 48C35.5857 46.968 37.1854 45.9317 38.8407 44.898C38.824 45.9222 38.8157 46.9567 38.8157 48C38.8157 49.0433 38.824 50.0778 38.8407 51.1022ZM40.7389 52.2713C40.707 50.868 40.6907 49.443 40.6907 48C40.6907 46.557 40.707 45.1322 40.7389 43.7287C41.9389 42.9997 43.1652 42.2732 44.4154 41.5518C45.6662 40.8302 46.9094 40.1317 48.1419 39.4573C49.3742 40.1317 50.6174 40.8302 51.8682 41.5518C53.1189 42.2733 54.3457 43.0002 55.5459 43.7295C55.5779 45.1327 55.5942 46.5573 55.5942 48C55.5942 49.4428 55.5779 50.8675 55.5459 52.2705C54.3457 53 53.1189 53.7267 51.8682 54.4482C50.6174 55.17 49.3742 55.8683 48.1419 56.5427C46.9094 55.8683 45.6662 55.17 44.4154 54.4482C43.1652 53.7268 41.9389 53.0005 40.7389 52.2713ZM40.803 54.4997C40.8712 56.449 40.9694 58.3513 41.0954 60.1968C42.7577 59.3832 44.4554 58.517 46.1785 57.6013C45.2829 57.1037 44.3824 56.5938 43.4784 56.0723C42.5744 55.5507 41.6822 55.0262 40.803 54.4997ZM48.1419 58.6767C45.7954 59.9438 43.4885 61.1237 41.2454 62.2092C41.7099 67.9418 42.446 73.063 43.3777 77.2528C44.2062 80.9788 45.1674 83.8663 46.1717 85.7767C46.6747 86.7337 47.1417 87.354 47.5324 87.7135C47.913 88.0637 48.1094 88.0703 48.1424 88.0703C48.1754 88.0703 48.3719 88.0637 48.7524 87.7135C49.143 87.354 49.61 86.7337 50.1132 85.7767C51.1174 83.8663 52.0787 80.9788 52.907 77.2528C53.8387 73.0632 54.5749 67.9422 55.0394 62.2097C52.7957 61.1242 50.4887 59.944 48.1419 58.6767ZM57.0072 61.0732C62.2069 63.5373 67.0126 65.4607 71.1089 66.7492C74.7521 67.895 77.7351 68.507 79.8931 68.5928C80.9742 68.636 81.7456 68.542 82.2526 68.3835C82.7469 68.2292 82.8504 68.0623 82.8666 68.0345C82.8826 68.0068 82.9751 67.8343 82.8619 67.33C82.7457 66.8125 82.4419 66.0982 81.8641 65.1842C80.7107 63.3597 78.6891 61.084 75.8746 58.504C72.7092 55.6025 68.6391 52.4045 63.9032 49.136C61.8411 50.5345 59.6654 51.9408 57.3944 53.3382C57.319 56.0025 57.1882 58.589 57.0072 61.0732ZM63.9032 46.8642C68.6391 43.5955 72.7092 40.3975 75.8746 37.4962C78.6891 34.916 80.7107 32.6403 81.8641 30.816C82.4419 29.9018 82.7457 29.1877 82.8619 28.67C82.9751 28.1657 82.8826 27.9932 82.8666 27.9655C82.8504 27.9377 82.7469 27.7708 82.2526 27.6165C81.7456 27.4582 80.9742 27.364 79.8931 27.4072C77.7351 27.4932 74.7521 28.105 71.1089 29.2508C67.0126 30.5395 62.2069 32.4627 57.0072 34.9268C57.1882 37.411 57.319 39.9975 57.3944 42.662C59.6654 44.0592 61.8411 45.4655 63.9032 46.8642ZM57.444 44.8987C59.099 45.9322 60.6984 46.9683 62.2346 48C60.6984 49.0317 59.099 50.0678 57.444 51.1013C57.4607 50.0773 57.4692 49.0432 57.4692 48C57.4692 46.957 57.4607 45.9227 57.444 44.8987ZM55.4817 41.501C55.4137 39.5513 55.3154 37.6487 55.1894 35.8027C53.5267 36.6165 51.8287 37.4828 50.105 38.3987C51.0007 38.8963 51.9012 39.4062 52.8052 39.9277C53.7097 40.4497 54.6022 40.9743 55.4817 41.501ZM55.1894 60.1975C53.5267 59.3835 51.8287 58.5172 50.105 57.6013C51.0007 57.1037 51.9012 56.5938 52.8052 56.0723C53.7097 55.5505 54.6022 55.0257 55.4817 54.499C55.4137 56.4487 55.3154 58.3515 55.1894 60.1975Z" fill="white"/>
<path fill-rule="evenodd" clip-rule="evenodd" d="M21.3326 36.2535C22.9616 36.2535 24.2822 37.5746 24.2822 39.2045C24.2822 40.8343 22.9616 42.1555 21.3326 42.1555C19.7036 42.1555 18.3831 40.8343 18.3831 39.2045C18.3831 37.5746 19.7036 36.2535 21.3326 36.2535Z" fill="white"/>
<path fill-rule="evenodd" clip-rule="evenodd" d="M68.2113 26.1478C69.841 26.1478 71.1623 27.469 71.1623 29.0988C71.1623 30.7287 69.841 32.0498 68.2113 32.0498C66.5815 32.0498 65.2601 30.7287 65.2601 29.0988C65.2601 27.469 66.5815 26.1478 68.2113 26.1478Z" fill="white"/>
<path fill-rule="evenodd" clip-rule="evenodd" d="M42.1988 72.4664C43.8287 72.4664 45.1498 73.787 45.1498 75.416C45.1498 77.045 43.8287 78.3657 42.1988 78.3657C40.569 78.3657 39.2477 77.045 39.2477 75.416C39.2477 73.787 40.569 72.4664 42.1988 72.4664Z" fill="white"/>
<path fill-rule="evenodd" clip-rule="evenodd" d="M47.9781 42.9818C50.7375 42.9818 52.9743 45.2188 52.9743 47.9781C52.9743 50.7375 50.7375 52.9743 47.9781 52.9743C45.2188 52.9743 42.9818 50.7375 42.9818 47.9781C42.9818 45.2188 45.2188 42.9818 47.9781 42.9818Z" fill="white"/>
<path fill-rule="evenodd" clip-rule="evenodd" d="M10.6667 122.047L9.35008 120.713C8.84998 121.18 8.3445 121.55 7.83315 121.822C7.32227 122.094 6.71108 122.23 6.00005 122.23C5.44442 122.23 4.9306 122.122 4.45838 121.905C3.98617 121.688 3.57782 121.391 3.23333 121.013C2.88883 120.636 2.62237 120.194 2.43325 119.688C2.24437 119.183 2.15015 118.641 2.15015 118.064C2.15015 117.486 2.24437 116.947 2.43325 116.447C2.62237 115.947 2.88883 115.511 3.23333 115.139C3.57782 114.766 3.98617 114.472 4.45838 114.255C4.9306 114.039 5.44442 113.93 6.00005 113.93C6.66655 113.93 7.2611 114.064 7.78323 114.33C8.30558 114.597 8.80006 114.947 9.26643 115.38L10.5832 113.864C10.3055 113.597 10.0112 113.353 9.69998 113.13C9.38898 112.908 9.05011 112.716 8.68336 112.556C8.31662 112.394 7.91388 112.269 7.47495 112.181C7.036 112.092 6.54985 112.047 6.0167 112.047C5.1278 112.047 4.31672 112.206 3.58343 112.522C2.84993 112.839 2.21672 113.272 1.68333 113.822C1.14996 114.372 0.736206 115.014 0.441633 115.747C0.147061 116.48 0 117.264 0 118.097C0 118.941 0.149984 119.73 0.449953 120.464C0.749923 121.197 1.1639 121.833 1.69165 122.372C2.21942 122.91 2.84432 123.335 3.56657 123.646C4.28883 123.958 5.07788 124.113 5.93327 124.113C6.4779 124.113 6.97506 124.066 7.42501 123.971C7.87498 123.877 8.28895 123.738 8.66671 123.555C9.0445 123.371 9.3973 123.155 9.72516 122.905C10.0528 122.655 10.3667 122.369 10.6667 122.047Z" fill="white"/>
<path fill-rule="evenodd" clip-rule="evenodd" d="M37.1125 115.351C37.1125 114.963 37.2783 114.633 37.61 114.361C37.9413 114.09 38.4057 113.954 39.0023 113.954C39.5328 113.954 40.0577 114.056 40.577 114.261C41.0965 114.467 41.6213 114.763 42.1517 115.151L43.2457 113.605C42.6492 113.128 42.011 112.765 41.3313 112.516C40.6515 112.266 39.8863 112.142 39.0355 112.142C38.4608 112.142 37.9305 112.222 37.4468 112.383C36.9607 112.543 36.5465 112.773 36.201 113.073C35.8557 113.372 35.5848 113.729 35.386 114.145C35.19 114.561 35.0903 115.024 35.0903 115.533C35.0903 116.077 35.176 116.537 35.3473 116.914C35.5187 117.29 35.77 117.612 36.0962 117.878C36.422 118.144 36.8282 118.366 37.3087 118.543C37.7922 118.721 38.3422 118.881 38.9637 119.025C39.5053 119.158 39.9443 119.286 40.2842 119.408C40.6213 119.53 40.8865 119.66 41.0827 119.798C41.2758 119.937 41.4087 120.089 41.4805 120.256C41.5523 120.422 41.588 120.61 41.588 120.821C41.588 121.276 41.4032 121.636 41.033 121.902C40.6627 122.168 40.1625 122.301 39.5328 122.301C38.8035 122.301 38.1513 122.171 37.5768 121.91C37.0022 121.65 36.4332 121.276 35.8693 120.788L34.6428 122.251C35.3392 122.883 36.0962 123.351 36.9138 123.656C37.7317 123.961 38.588 124.113 39.483 124.113C40.0908 124.113 40.649 124.036 41.1573 123.881C41.6628 123.725 42.0993 123.498 42.4585 123.199C42.8203 122.899 43.1022 122.534 43.3065 122.102C43.5082 121.669 43.6105 121.176 43.6105 120.622C43.6105 120.134 43.5303 119.71 43.37 119.349C43.2097 118.989 42.9722 118.673 42.6628 118.402C42.3533 118.13 41.9612 117.9 41.4915 117.712C41.022 117.523 40.4803 117.351 39.8725 117.196C39.3172 117.063 38.8615 116.936 38.4997 116.814C38.1405 116.692 37.8587 116.559 37.6513 116.415C37.4468 116.271 37.3062 116.116 37.2287 115.949C37.1515 115.783 37.1125 115.583 37.1125 115.351Z" fill="white"/>
<path fill-rule="evenodd" clip-rule="evenodd" d="M59.8039 115.515V123.83H61.8291V112.236H59.6542L56.1181 117.718L52.5821 112.236H50.4072V123.83H52.4326V115.548L56.0681 120.981H56.1347L59.8039 115.515Z" fill="white"/>
<path fill-rule="evenodd" clip-rule="evenodd" d="M78.8452 118.097C78.8452 118.664 78.7482 119.2 78.5542 119.705C78.3602 120.211 78.0914 120.649 77.7472 121.022C77.4037 121.394 76.9904 121.688 76.508 121.905C76.0255 122.122 75.496 122.23 74.9195 122.23C74.3427 122.23 73.8102 122.119 73.3224 121.897C72.8344 121.674 72.4155 121.374 72.0664 120.997C71.717 120.619 71.4454 120.177 71.2512 119.672C71.0572 119.166 70.96 118.63 70.96 118.064C70.96 117.497 71.0572 116.961 71.2512 116.455C71.4454 115.95 71.7142 115.511 72.058 115.139C72.4019 114.766 72.815 114.472 73.2974 114.255C73.7797 114.039 74.3094 113.93 74.886 113.93C75.4629 113.93 75.9952 114.042 76.4832 114.264C76.9709 114.486 77.3897 114.786 77.7389 115.164C78.0884 115.541 78.3602 115.983 78.5542 116.489C78.7482 116.994 78.8452 117.53 78.8452 118.097ZM80.9912 118.064C80.9912 117.241 80.8414 116.464 80.542 115.73C80.2429 114.997 79.8267 114.358 79.2945 113.814C78.7622 113.269 78.1245 112.839 77.3812 112.522C76.6382 112.206 75.8177 112.047 74.9195 112.047C74.021 112.047 73.2005 112.208 72.4574 112.531C71.7142 112.853 71.0709 113.289 70.5275 113.839C69.984 114.389 69.5629 115.03 69.2632 115.764C68.9639 116.497 68.8142 117.275 68.8142 118.097C68.8142 118.919 68.9639 119.697 69.2632 120.43C69.5629 121.163 69.9785 121.802 70.511 122.347C71.043 122.891 71.681 123.322 72.4242 123.638C73.167 123.955 73.9875 124.113 74.886 124.113C75.7842 124.113 76.605 123.952 77.348 123.63C78.0914 123.308 78.7344 122.872 79.278 122.321C79.8214 121.772 80.2429 121.13 80.542 120.397C80.8414 119.663 80.9912 118.886 80.9912 118.064Z" fill="white"/>
<path fill-rule="evenodd" clip-rule="evenodd" d="M89.5021 115.351C89.5021 114.963 89.668 114.633 89.9993 114.361C90.331 114.09 90.7951 113.954 91.392 113.954C91.9221 113.954 92.4473 114.056 92.9666 114.261C93.486 114.467 94.011 114.763 94.5415 115.151L95.6353 113.605C95.0386 113.128 94.4003 112.765 93.7208 112.516C93.0413 112.266 92.276 112.142 91.4251 112.142C90.8505 112.142 90.32 112.222 89.8365 112.383C89.3503 112.543 88.9361 112.773 88.5906 113.073C88.2453 113.372 87.9748 113.729 87.7755 114.145C87.5795 114.561 87.48 115.024 87.48 115.533C87.48 116.077 87.5656 116.537 87.737 116.914C87.9083 117.29 88.1596 117.612 88.4855 117.878C88.8116 118.144 89.2176 118.366 89.6985 118.543C90.1818 118.721 90.7318 118.881 91.3533 119.025C91.8946 119.158 92.334 119.286 92.6738 119.408C93.0106 119.53 93.2761 119.66 93.4723 119.798C93.6655 119.937 93.7983 120.089 93.8701 120.256C93.942 120.422 93.978 120.61 93.978 120.821C93.978 121.276 93.7925 121.636 93.4226 121.902C93.0523 122.168 92.5521 122.301 91.9221 122.301C91.193 122.301 90.5408 122.171 89.9665 121.91C89.392 121.65 88.8228 121.276 88.259 120.788L87.0325 122.251C87.7285 122.883 88.4855 123.351 89.3033 123.656C90.121 123.961 90.9773 124.113 91.8726 124.113C92.4805 124.113 93.0385 124.036 93.547 123.881C94.0525 123.725 94.489 123.498 94.8481 123.199C95.21 122.899 95.4918 122.534 95.6961 122.102C95.8976 121.669 96.0001 121.176 96.0001 120.622C96.0001 120.134 95.9198 119.71 95.7596 119.349C95.5993 118.989 95.3618 118.673 95.0523 118.402C94.743 118.13 94.3508 117.9 93.8811 117.712C93.4115 117.523 92.8698 117.351 92.2621 117.196C91.7068 117.063 91.2511 116.936 90.8891 116.814C90.53 116.692 90.2483 116.559 90.041 116.415C89.8365 116.271 89.6956 116.116 89.6183 115.949C89.5411 115.783 89.5021 115.583 89.5021 115.351Z" fill="white"/>
<path fill-rule="evenodd" clip-rule="evenodd" d="M24.5598 114.557L19.0105 120.099C18.9388 119.96 18.8743 119.816 18.8165 119.666C18.6227 119.162 18.5257 118.628 18.5257 118.064C18.5257 117.499 18.6227 116.965 18.8165 116.462C19.0105 115.958 19.2792 115.521 19.6228 115.15C19.9665 114.779 20.3793 114.486 20.8615 114.27C21.3437 114.054 21.8728 113.946 22.4492 113.946C23.0257 113.946 23.5577 114.057 24.0452 114.278C24.2263 114.361 24.398 114.453 24.5598 114.557ZM24.0702 121.891C23.588 122.107 23.0588 122.214 22.4825 122.214C21.906 122.214 21.374 122.104 20.8863 121.882C20.7053 121.8 20.5337 121.707 20.372 121.603L25.9212 116.062C25.9928 116.2 26.0573 116.345 26.1153 116.495C26.309 116.998 26.406 117.532 26.406 118.097C26.406 118.661 26.309 119.195 26.1153 119.699C25.9212 120.203 25.6525 120.64 25.3088 121.011C24.9652 121.381 24.5525 121.675 24.0702 121.891ZM24.9098 123.609C25.6525 123.288 26.2953 122.854 26.8385 122.305C27.3815 121.758 27.8025 121.119 28.1017 120.388C28.4012 119.658 28.5508 118.883 28.5508 118.064C28.5508 117.245 28.4012 116.47 28.1017 115.739C27.9243 115.306 27.7058 114.906 27.4465 114.539L31.056 110.934L29.6217 109.502L26.0013 113.117C25.6763 112.896 25.3235 112.705 24.943 112.543C24.2003 112.228 23.3802 112.07 22.4825 112.07C21.5847 112.07 20.7645 112.231 20.0218 112.552C19.2792 112.873 18.6363 113.307 18.0932 113.855C17.5502 114.403 17.129 115.042 16.8297 115.772C16.5305 116.503 16.3808 117.278 16.3808 118.097C16.3808 118.916 16.5305 119.691 16.8297 120.421C17.0073 120.855 17.2258 121.255 17.4852 121.622L13.876 125.226L15.3102 126.658L18.9303 123.043C19.2553 123.264 19.6082 123.456 19.9887 123.617C20.7313 123.933 21.5515 124.09 22.4492 124.09C23.347 124.09 24.1672 123.93 24.9098 123.609Z" fill="white"/>
</g>
<defs>
<clipPath id="clip0_15247_2384">
<rect width="96" height="128" fill="white"/>
</clipPath>
</defs>
</svg>
