<svg width="12" height="12" viewBox="0 0 12 12" fill="none" xmlns="http://www.w3.org/2000/svg">
    <circle cx="6.01575" cy="5.90726" r="5.09119" fill="white"/>
    <path fill-rule="evenodd" clip-rule="evenodd" d="M5.99999 12C9.3137 12 12 9.31371 12 6C12 2.68629 9.3137 0 5.99999 0C2.68629 0 0 2.68629 0 6C0 9.31371 2.68629 12 5.99999 12ZM4.18707 8.71827H2.77952C2.4458 8.71827 2.27894 8.71827 2.179 8.65363C2.071 8.5838 2.00286 8.4666 1.99565 8.33827C1.98895 8.21952 2.0716 8.07472 2.23689 7.78516L2.23696 7.78505L5.3187 2.38618C5.48642 2.09232 5.57029 1.94539 5.67701 1.8907C5.79228 1.83161 5.92899 1.83151 6.04436 1.89044C6.15115 1.94496 6.23523 2.09178 6.40337 2.38538L7.11414 3.62634L7.11416 3.62637C7.23644 3.83985 7.29757 3.94661 7.32446 4.05923C7.35373 4.18184 7.35379 4.30958 7.32463 4.43219C7.29785 4.54485 7.23679 4.65168 7.11468 4.86529L5.27183 8.08913C5.14796 8.30587 5.08601 8.41424 5.00114 8.49524C4.90875 8.58341 4.79673 8.6484 4.67428 8.68483C4.56177 8.71827 4.43688 8.71827 4.18707 8.71827ZM9.20876 8.71827H7.57687C7.24013 8.71827 7.07174 8.71827 6.97149 8.65308C6.86318 8.58263 6.79524 8.46456 6.78884 8.33562C6.7829 8.21629 6.86765 8.07088 7.03713 7.78014L7.85172 6.38257C8.01907 6.0955 8.10276 5.95196 8.20868 5.89819C8.32317 5.84009 8.45855 5.83999 8.57313 5.89792C8.67916 5.95152 8.76302 6.09494 8.93074 6.38174L8.93077 6.38183L9.74807 7.77936C9.91821 8.07029 10.0033 8.21577 9.99746 8.3352C9.99117 8.46425 9.92327 8.58245 9.8149 8.653C9.71465 8.71827 9.54602 8.71827 9.20876 8.71827Z" fill="#E84143"/>
</svg>
