<svg width="12" height="12" viewBox="0 0 12 12" fill="none" xmlns="http://www.w3.org/2000/svg">
    <circle cx="6" cy="6" r="6" fill="#333333"/>
    <rect width="12" height="12" rx="6" fill="#F7931A"/>
    <path d="M4.09204 2.80876C4.31238 2.86886 4.53273 2.90892 4.75307 2.96901C4.97342 3.02911 5.19376 3.06917 5.4141 3.12926C5.4742 3.1493 5.49423 3.12926 5.51426 3.06917C5.59439 2.72864 5.67451 2.40814 5.75464 2.06761C5.77467 2.00751 5.7947 1.98748 5.85479 2.00751C6.05511 2.06761 6.23539 2.10767 6.4357 2.14773C6.49579 2.16776 6.49579 2.18779 6.47576 2.22786C6.39564 2.54836 6.31551 2.88889 6.23539 3.20939C6.23539 3.22942 6.23539 3.24945 6.21536 3.28951C6.37561 3.32958 6.55589 3.36964 6.71614 3.4097C6.73617 3.4097 6.7562 3.36964 6.77623 3.34961C6.83633 3.0892 6.89642 2.84883 6.97654 2.58842C6.99658 2.50829 7.01661 2.42817 7.03664 2.34804C7.03664 2.30798 7.05667 2.28795 7.09673 2.30798C7.29705 2.36808 7.49736 2.40814 7.7177 2.46823C7.73773 2.46823 7.73773 2.48826 7.75777 2.48826C7.69767 2.74867 7.63758 2.98905 7.57748 3.22942C7.55745 3.32958 7.53742 3.42973 7.49736 3.52989C7.47733 3.58998 7.49736 3.61002 7.55745 3.63005C7.7778 3.7302 7.99814 3.83036 8.21849 3.93052C8.4188 4.0507 8.59908 4.21095 8.7393 4.41127C8.91958 4.71174 8.93961 5.03224 8.85949 5.35274C8.79939 5.57308 8.71927 5.7734 8.55902 5.93365C8.43883 6.05383 8.27858 6.13396 8.11833 6.19405C8.0983 6.19405 8.07827 6.21408 8.0382 6.21408C8.11833 6.27418 8.19845 6.31424 8.27858 6.37433C8.51895 6.55462 8.6792 6.77496 8.75933 7.0554C8.79939 7.27574 8.77936 7.51612 8.71927 7.73646C8.63914 8.0169 8.53899 8.25728 8.3587 8.47762C8.13836 8.73803 7.85792 8.87825 7.53742 8.91831C7.11676 8.9784 6.71614 8.93834 6.31551 8.87825C6.25542 8.85822 6.21536 8.87825 6.19532 8.93834C6.1152 9.25884 6.03507 9.59937 5.95495 9.91987C5.93492 10 5.93492 10.02 5.83476 9.97997C5.65448 9.93991 5.45417 9.87981 5.27388 9.83975C5.21379 9.81972 5.21379 9.79969 5.23382 9.75962C5.31395 9.41909 5.39407 9.07856 5.49423 8.75806C5.49423 8.718 5.51426 8.69797 5.4742 8.67793C5.31395 8.63787 5.1537 8.59781 4.97342 8.55775C4.93335 8.73803 4.87326 8.91831 4.8332 9.09859C4.79313 9.27887 4.73304 9.45916 4.69298 9.63944C4.67295 9.6795 4.67295 9.69953 4.61285 9.6795C4.41254 9.6194 4.21223 9.57934 4.01191 9.53928C3.95182 9.51925 3.95182 9.49922 3.97185 9.45915C4.05198 9.11862 4.1321 8.77809 4.23226 8.45759C4.23226 8.43756 4.25229 8.41753 4.25229 8.37746C3.79157 8.25728 3.33085 8.13709 2.8501 8.0169C2.89016 7.93678 2.91019 7.87668 2.95025 7.79656C3.03038 7.61628 3.1105 7.43599 3.1706 7.27574C3.19063 7.21565 3.21066 7.21565 3.27075 7.21565C3.41097 7.25571 3.57122 7.29577 3.71144 7.31581C3.87169 7.35587 3.99188 7.27574 4.01191 7.13552C4.27232 6.11393 4.53273 5.09233 4.7731 4.0507C4.81316 3.89045 4.71301 3.71017 4.53273 3.65008C4.35244 3.58998 4.17216 3.54992 4.01191 3.50986C3.97185 3.50986 3.95182 3.48983 3.97185 3.44977C4.03194 3.22942 4.09204 2.98905 4.15213 2.7687C4.07201 2.82879 4.07201 2.82879 4.09204 2.80876ZM5.11363 7.75649C5.13367 7.75649 5.1537 7.77653 5.1537 7.77653C5.4742 7.85665 5.81473 7.95681 6.15526 7.97684C6.39564 7.99687 6.61598 7.99687 6.83633 7.91674C7.21692 7.79656 7.37717 7.29577 7.15683 6.97527C7.05667 6.81502 6.89642 6.71487 6.73617 6.61471C6.37561 6.4144 5.95495 6.33427 5.55432 6.25415C5.49423 6.23412 5.49423 6.25415 5.4742 6.31424C5.43413 6.51455 5.37404 6.69484 5.33398 6.89515C5.25385 7.17559 5.19376 7.45602 5.11363 7.75649ZM6.79626 5.7133C6.83633 5.7133 6.93648 5.69327 7.01661 5.67324C7.3972 5.59311 7.59752 5.15243 7.3972 4.81189C7.29705 4.63161 7.11676 4.51142 6.93648 4.4313C6.65604 4.31111 6.37561 4.25102 6.07514 4.17089C6.01504 4.15086 5.99501 4.17089 5.97498 4.23099C5.87482 4.65164 5.77467 5.05227 5.65448 5.47293C5.63445 5.51299 5.65448 5.53302 5.69454 5.55305C5.77467 5.57308 5.83476 5.59311 5.91489 5.61315C6.21536 5.65321 6.47576 5.7133 6.79626 5.7133Z" fill="white"/>
</svg>
