<svg width="12" height="12" viewBox="0 0 12 12" fill="none" xmlns="http://www.w3.org/2000/svg">
    <path d="M6 12C9.31371 12 12 9.31371 12 6C12 2.68629 9.31371 0 6 0C2.68629 0 0 2.68629 0 6C0 9.31371 2.68629 12 6 12Z" fill="#0AC18E"/>
    <path d="M2.88161 4.23195C3.08835 4.17754 3.28572 4.10689 3.49246 4.05248C3.6992 3.99807 3.89657 3.92742 4.10331 3.87301C4.1614 3.86112 4.16827 3.83551 4.15638 3.77742C4.06196 3.46387 3.97691 3.16657 3.88248 2.85302C3.8706 2.79493 3.87746 2.76932 3.93555 2.75743C4.12605 2.7124 4.29095 2.6605 4.47208 2.59922C4.53016 2.58734 4.53954 2.60357 4.54205 2.64542C4.6271 2.94273 4.72152 3.25628 4.80657 3.55359C4.81595 3.56982 4.82532 3.58606 4.82783 3.62791C4.97649 3.58539 5.14138 3.53349 5.29003 3.49096C5.30627 3.48159 5.30376 3.43974 5.31062 3.41413C5.23746 3.17491 5.17367 2.95193 5.11675 2.70333L5.05297 2.48035C5.03422 2.44788 5.04108 2.42226 5.08293 2.41975C5.27343 2.37472 5.45456 2.31344 5.66131 2.25903C5.67754 2.24966 5.68692 2.26589 5.70316 2.25652C5.77632 2.49574 5.8401 2.71872 5.90389 2.9417C5.93453 3.03226 5.96516 3.12283 5.97956 3.22277C5.99145 3.28086 6.01706 3.28772 6.07515 3.27583L6.75163 3.21003C6.97026 3.21371 7.1914 3.25923 7.39882 3.35599C7.68558 3.51518 7.85182 3.76562 7.93687 4.06292C7.99128 4.26967 8.02008 4.46955 7.96518 4.67445C7.924 4.82813 7.83159 4.96808 7.72982 5.09179C7.71358 5.10117 7.70671 5.12678 7.67424 5.14553C7.76732 5.15675 7.85102 5.15172 7.94409 5.16294C8.22332 5.19658 8.45635 5.30019 8.65256 5.49003C8.78816 5.64989 8.88442 5.85413 8.93883 6.06087C9.00513 6.3257 9.03644 6.56743 8.99342 6.83042C8.93668 7.14464 8.77497 7.38956 8.53391 7.57203C8.22104 7.81762 7.87753 7.97265 7.52465 8.11143C7.46656 8.12332 7.44346 8.15831 7.45535 8.2164C7.54039 8.5137 7.63482 8.82725 7.71986 9.12456C7.74113 9.19888 7.7505 9.21512 7.65056 9.22952C7.48567 9.28142 7.29517 9.32646 7.13027 9.37836C7.07218 9.39024 7.06281 9.374 7.0603 9.33215C6.96587 9.01861 6.87145 8.70506 6.80264 8.39838C6.78389 8.3659 6.79075 8.34029 6.7489 8.3428C6.60025 8.38533 6.4516 8.42785 6.2867 8.47975C6.3386 8.64464 6.37426 8.81891 6.42616 8.9838C6.47806 9.14869 6.51372 9.32296 6.56562 9.48785C6.56813 9.5297 6.57751 9.54594 6.51942 9.55783C6.32892 9.60286 6.14779 9.66414 5.96666 9.72541C5.90857 9.7373 5.89919 9.72106 5.89668 9.67921C5.80226 9.36566 5.70783 9.05212 5.63902 8.74543C5.62965 8.7292 5.63651 8.70358 5.61776 8.67111C5.18804 8.78931 4.75831 8.9075 4.31235 9.03507C4.30733 8.95137 4.29544 8.89328 4.29042 8.80958C4.271 8.62594 4.25157 8.4423 4.22529 8.28427C4.2134 8.22618 4.22964 8.21681 4.27835 8.18868C4.41077 8.15553 4.55942 8.11301 4.68246 8.06362C4.83112 8.0211 4.89104 7.89989 4.84166 7.77685C4.57462 6.82684 4.30759 5.87683 4.01495 4.91996C3.97243 4.7713 3.80686 4.67203 3.63259 4.7077C3.45833 4.74336 3.29343 4.79526 3.14478 4.83778C3.11231 4.85653 3.08669 4.84967 3.08418 4.80782C3.02977 4.60107 2.96598 4.37809 2.91157 4.17135C2.87475 4.25756 2.87475 4.25756 2.88161 4.23195ZM6.02537 7.76461C6.04161 7.75523 6.06722 7.76209 6.06722 7.76209C6.36453 7.67705 6.68745 7.59886 6.97287 7.45572C7.1771 7.35946 7.35572 7.25634 7.49684 7.08826C7.74911 6.81271 7.64464 6.33176 7.31602 6.17507C7.15983 6.09205 6.98305 6.08586 6.80627 6.07967C6.42024 6.08604 6.04174 6.21796 5.67948 6.34051C5.62139 6.3524 5.63077 6.36863 5.64265 6.42672C5.70393 6.60785 5.73959 6.78212 5.80086 6.96325C5.86716 7.22808 5.9497 7.48354 6.02537 7.76461ZM6.43311 5.32083C6.46559 5.30208 6.5374 5.23897 6.59298 5.18523C6.864 4.94215 6.82013 4.49117 6.49837 4.30887C6.33281 4.20961 6.13042 4.19655 5.94678 4.21598C5.66319 4.2498 5.40774 4.33234 5.12667 4.40801C5.06858 4.4199 5.06172 4.44551 5.0736 4.5036C5.18929 4.89147 5.2956 5.2631 5.39504 5.66035C5.39756 5.7022 5.42317 5.70907 5.46502 5.70655C5.53935 5.68529 5.59744 5.6734 5.67176 5.65214C5.93408 5.54399 6.1733 5.47083 6.43311 5.32083Z" fill="white"/>
</svg>
