<svg width="12" height="12" viewBox="0 0 12 12" fill="none" xmlns="http://www.w3.org/2000/svg">
    <circle cx="6" cy="6" r="6" fill="#333333"/>
    <rect width="12" height="12" rx="6" fill="black"/>
    <path d="M6.93391 8.64368V9.54023L6.1523 10L5.39368 9.54023V8.64368L6.1523 9.10345L6.93391 8.64368ZM2.75 5.54023L3.50862 6V7.54023L4.81897 8.32184V9.21839L2.75 8V5.54023ZM9.5546 5.54023V8L7.46264 9.21839V8.32184L8.77299 7.54023V6L9.5546 5.54023ZM7.46264 4.32184L8.24425 4.78161V5.67816L6.93391 6.45977V8.02299L6.17529 8.48276L5.41667 8.02299V6.45977L4.06034 5.67816V4.78161L4.84195 4.32184L6.1523 5.10345L7.46264 4.32184ZM4.06034 6.32184L4.81897 6.78161V7.67816L4.06034 7.21839V6.32184ZM8.24425 6.32184V7.21839L7.48563 7.67816V6.78161L8.24425 6.32184ZM3.50862 3.54023L4.29023 4L3.50862 4.45977V5.35632L2.75 4.89655V4L3.50862 3.54023ZM8.79598 3.54023L9.57759 4V4.89655L8.79598 5.35632V4.45977L8.03736 4L8.79598 3.54023ZM6.1523 3.54023L6.93391 4L6.1523 4.45977L5.39368 4L6.1523 3.54023ZM6.1523 2L8.24425 3.21839L7.48563 3.67816L6.17529 2.89655L4.84195 3.67816L4.08333 3.21839L6.1523 2Z" fill="#F3BA2F"/>
</svg>
