<?xml version="1.0" encoding="utf-8"?>
<!-- Generator: Adobe Illustrator 28.0.0, SVG Export Plug-In . SVG Version: 6.00 Build 0)  -->
<svg version="1.1" id="Layer_1" xmlns="http://www.w3.org/2000/svg" xmlns:xlink="http://www.w3.org/1999/xlink" x="0px" y="0px"
	 viewBox="0 0 54.8 63.9" style="enable-background:new 0 0 54.8 63.9;" xml:space="preserve">
<style type="text/css">
	.st0{fill:#002D74;}
	.st1{clip-path:url(#SVGID_00000140007311590343332730000003620156933974763192_);}
	.st2{fill:url(#SVGID_00000057118449632824917700000010691488815293921971_);}
	.st3{clip-path:url(#SVGID_00000057112981827528850580000000855141871476198326_);}
	.st4{fill:url(#SVGID_00000075159388735391976640000006961267667970621874_);}
</style>
<g>
	<g id="Logo">
		<g id="Cronos_inline_color">
			<path class="st0" d="M9.2,42.5V21.4l18.2-10.6l18.2,10.6v21.1L27.4,53C27.4,53,9.2,42.5,9.2,42.5z M27.4,1.9l-25.8,15v30l25.8,15
				l25.8-15v-30L27.4,1.9z"/>
			<g>
				<g>
					<defs>
						<polygon id="SVGID_1_" points="27.4,61.9 53.2,46.9 53.2,16.9 27.4,1.9 27.4,10.8 45.6,21.4 45.6,42.5 27.4,53.1 						"/>
					</defs>
					<clipPath id="SVGID_00000021107126686107101050000012694472098440355987_">
						<use xlink:href="#SVGID_1_"  style="overflow:visible;"/>
					</clipPath>
					<g style="clip-path:url(#SVGID_00000021107126686107101050000012694472098440355987_);">
						<g>
							
								<linearGradient id="SVGID_00000165939824626735599310000013205771734651197850_" gradientUnits="userSpaceOnUse" x1="-1397.5177" y1="-30.9809" x2="-1396.5077" y2="-30.9809" gradientTransform="matrix(1.826561e-15 -29.83 29.83 1.826561e-15 964.4844 -41628.3164)">
								<stop  offset="0" style="stop-color:#002D74"/>
								<stop  offset="1" style="stop-color:#002D74"/>
							</linearGradient>
							
								<rect x="27.4" y="1.9" style="fill:url(#SVGID_00000165939824626735599310000013205771734651197850_);" width="25.8" height="60"/>
						</g>
					</g>
				</g>
			</g>
			<g>
				<g>
					<defs>
						<polygon id="SVGID_00000093889918194313612920000009171799768379971717_" points="27.4,53.1 9.2,42.5 9.2,21.4 27.4,10.8 
							27.4,1.9 1.6,16.9 1.6,46.9 27.4,61.9 						"/>
					</defs>
					<clipPath id="SVGID_00000122711592816898736920000005611841756261775550_">
						<use xlink:href="#SVGID_00000093889918194313612920000009171799768379971717_"  style="overflow:visible;"/>
					</clipPath>
					<g style="clip-path:url(#SVGID_00000122711592816898736920000005611841756261775550_);">
						<g>
							
								<linearGradient id="SVGID_00000145030705371206986790000000044665567491955847_" gradientUnits="userSpaceOnUse" x1="-1403.015" y1="-124.9792" x2="-1402.015" y2="-124.9792" gradientTransform="matrix(1.826561e-15 29.83 -29.83 1.826561e-15 -3713.6365 41856.4961)">
								<stop  offset="0" style="stop-color:#002D74"/>
								<stop  offset="1" style="stop-color:#002D74"/>
							</linearGradient>
							
								<rect x="1.6" y="1.9" style="fill:url(#SVGID_00000145030705371206986790000000044665567491955847_);" width="25.8" height="60"/>
						</g>
					</g>
				</g>
			</g>
			<polygon class="st0" points="39.5,38.9 27.4,45.9 15.3,38.9 15.3,24.9 27.4,17.9 39.5,24.9 34.4,27.9 27.4,23.8 20.4,27.9 
				20.4,36 27.4,40.1 34.4,36 			"/>
		</g>
		<path class="st0" d="M39.5,38.9l-12.1,7l-12.1-7V25l12.1-7l12.1,7V38.9z"/>
	</g>
</g>
</svg>
