<svg width="12" height="12" viewBox="0 0 12 12" fill="none" xmlns="http://www.w3.org/2000/svg">
    <circle cx="6" cy="6" r="6" fill="#333333"/>
    <path d="M6 12C9.31371 12 12 9.31371 12 6C12 2.68629 9.31371 0 6 0C2.68629 0 0 2.68629 0 6C0 9.31371 2.68629 12 6 12Z" fill="#988430"/>
    <path d="M6 11.8078C9.20756 11.8078 11.8078 9.20756 11.8078 6C11.8078 2.79244 9.20756 0.192192 6 0.192192C2.79244 0.192192 0.192192 2.79244 0.192192 6C0.192192 9.20756 2.79244 11.8078 6 11.8078Z" fill="#7A6A2A"/>
    <path d="M6 11.6854C9.13998 11.6854 11.6854 9.13998 11.6854 6C11.6854 2.86002 9.13998 0.31456 6 0.31456C2.86002 0.31456 0.31456 2.86002 0.31456 6C0.31456 9.13998 2.86002 11.6854 6 11.6854Z" fill="#BA9F33"/>
    <path fill-rule="evenodd" clip-rule="evenodd" d="M2.6233 5.35923C2.58931 5.32819 2.55341 5.29709 2.52038 5.26605C2.48736 5.23501 2.45344 5.2039 2.41946 5.17286L2.31846 5.07686C2.30195 5.06035 2.28448 5.04582 2.26797 5.02925C2.25146 5.01472 2.23206 4.99821 2.21555 4.98362C2.08154 4.85645 1.94675 4.72928 1.81459 4.60205C1.95149 4.7273 2.0855 4.85165 2.2224 4.97875L2.26995 5.02637C2.28646 5.04282 2.30394 5.05741 2.32045 5.07392L2.42138 5.1671C2.45536 5.19814 2.48838 5.22925 2.52237 5.2631C2.55635 5.29696 2.58938 5.32813 2.62336 5.3591L2.6233 5.35923ZM0.844672 5.34003C0.844672 5.34003 1.33203 5.39046 1.56992 5.42445C1.79027 5.45555 2.47962 5.56134 2.47962 5.56134L0.844672 5.34003ZM0.844672 5.34003C0.981568 5.35168 1.11846 5.36621 1.25536 5.3808C1.32525 5.38758 1.39226 5.39533 1.45926 5.40211L1.56211 5.41382C1.5961 5.41862 1.62912 5.42349 1.6631 5.42835L2.07091 5.49338L2.27475 5.52736C2.34176 5.53901 2.40877 5.55168 2.47866 5.56333C2.41165 5.55654 2.34176 5.54682 2.27475 5.53709L2.07091 5.50797L1.6631 5.44781C1.62912 5.44294 1.5961 5.4361 1.56211 5.4313L1.4592 5.41946C1.39219 5.41267 1.3223 5.40294 1.2553 5.39514C1.1184 5.37869 0.981504 5.36115 0.844608 5.33984L0.844672 5.34003ZM2.4311 5.68832C2.4311 5.68832 1.91072 5.82042 1.73498 5.87091C1.56218 5.91846 1.03885 6.0777 1.03885 6.0777L2.43104 5.68838L2.4311 5.68832Z" fill="#CFB66C"/>
    <path fill-rule="evenodd" clip-rule="evenodd" d="M2.43104 5.68832C2.31552 5.7223 2.20064 5.75533 2.08346 5.78643L1.73587 5.87962C1.62035 5.9136 1.50547 5.94662 1.39027 5.98061L1.21747 6.02816C1.16019 6.04467 1.10195 6.0592 1.04275 6.07578C1.09997 6.05658 1.15827 6.03693 1.21555 6.02042L1.38835 5.96512C1.50387 5.92915 1.61875 5.89517 1.73395 5.85926C1.85139 5.83014 1.96698 5.79904 2.08442 5.77088C2.19603 5.74272 2.31354 5.71462 2.43104 5.68838V5.68832ZM1.11168 6.39808C1.1689 6.3767 1.82912 6.06899 1.98253 5.99712C2.05933 5.96115 2.28256 5.88192 2.28256 5.88192L1.11168 6.39808Z" fill="#CFB66C"/>
    <path fill-rule="evenodd" clip-rule="evenodd" d="M1.11168 6.39808C1.16211 6.37888 1.20973 6.35539 1.25824 6.33306L1.40192 6.26605L1.6903 6.12723C1.7863 6.0816 1.87962 6.03123 1.97862 5.98835C2.02912 5.96704 2.07962 5.94957 2.13005 5.93306L2.20685 5.9088C2.23302 5.90202 2.25734 5.89421 2.28365 5.88742C2.18765 5.93306 2.08659 5.9719 1.99046 6.01651C1.89446 6.06413 1.79629 6.10298 1.69722 6.14566L1.40403 6.27475C1.3056 6.31462 1.2096 6.35731 1.11162 6.39808H1.11168ZM1.17568 6.66688C1.17568 6.66688 1.7737 6.31642 1.97952 6.20378C2.0873 6.14362 2.43584 5.97075 2.43584 5.97075L1.17568 6.66688Z" fill="#CFB66C"/>
    <path fill-rule="evenodd" clip-rule="evenodd" d="M1.17574 6.66701C1.27667 6.60486 1.37958 6.54176 1.4825 6.4777L1.6361 6.38445C1.68851 6.35341 1.73901 6.32429 1.79245 6.29325C1.84486 6.26214 1.89536 6.2311 1.94874 6.20198C1.97415 6.18629 2.00077 6.17266 2.02835 6.16122L2.10989 6.12045C2.21766 6.06803 2.32544 6.01459 2.43904 5.96896C2.33613 6.03405 2.23027 6.08941 2.12448 6.14662C2.07206 6.17574 2.01862 6.20198 1.96621 6.2311C1.91379 6.26022 1.8633 6.29133 1.80986 6.31949C1.75744 6.35053 1.70694 6.37965 1.65357 6.40781L1.4953 6.49421L1.17587 6.66701H1.17574ZM2.43104 6.04755C2.43104 6.04755 2.0592 6.33299 1.93882 6.42426C1.81843 6.51552 1.46406 6.77184 1.46406 6.77184L2.43104 6.04755Z" fill="#CFB66C"/>
    <path fill-rule="evenodd" clip-rule="evenodd" d="M4.56506 8.3495L4.37478 7.98931L4.48544 7.53882L5.27475 7.23398L4.93882 6.5447L5.10483 5.84858L5.41651 5.22522L6.37965 5.07379L7.08736 4.39904L8.61555 4.51456L8.91552 6.14854L8.33786 8.20582L8.00877 9.27091L6.67475 9.32141L6.05536 8.89229L5.33011 8.58931L4.56506 8.3495Z" fill="#E2CC85"/>
    <path fill-rule="evenodd" clip-rule="evenodd" d="M6.9049 8.33786C6.9049 8.33786 6.72038 8.42234 6.4057 8.40288C6.31462 8.28058 5.6768 8.2233 5.6768 8.2233C5.6768 8.2233 5.59718 8.19904 5.45638 8.25728C5.31469 8.31488 5.18067 8.30778 5.05542 8.33882C4.93018 8.36986 4.80582 8.20678 4.70982 8.1728C4.61382 8.1369 4.48653 8.0505 4.48653 8.0505L4.21773 8.02426L3.67795 7.7961L2.82042 6.94176L2.58739 7.30656L2.51552 7.75802L2.77478 8.29299L3.47283 8.9289L4.83398 9.2745L5.64077 9.0368L6.65146 8.6096L6.9049 8.33779V8.33786Z" fill="#F1D789"/>
    <path fill-rule="evenodd" clip-rule="evenodd" d="M2.06893 5.31846L2.24173 4.7952L2.44762 4.45728L3.11066 4.40192L2.91162 4.98253L2.35731 5.96896L2.58739 6.84954L2.17965 7.05338L2.05434 6.86118L1.95341 6.42042L1.94662 5.92525L2.06893 5.31846Z" fill="#F4ECB4"/>
    <path fill-rule="evenodd" clip-rule="evenodd" d="M2.81261 8.30195L2.68544 8.12429C2.68544 8.12429 2.65146 8.03981 2.67091 7.96602C2.69011 7.89126 2.68736 7.8864 2.6777 7.85824C2.66803 7.83008 2.58643 7.73299 2.5913 7.64947C2.5961 7.56499 2.58451 7.53683 2.64659 7.46989C2.71162 7.40486 2.69222 7.29222 2.69222 7.29222L2.7767 7.34464L2.7959 7.31552C2.7959 7.31552 2.82694 7.33978 2.82694 7.37766C2.83373 7.32525 2.80557 7.0825 2.86963 7.0272C2.9337 6.9719 3.0473 7.2864 3.0473 7.2864L2.97741 6.83008L2.79776 6.36218L2.47834 5.93498L2.45914 5.46406V5.4233C2.45914 5.4233 2.31251 5.64858 2.27174 5.8265C2.24262 5.9488 2.31251 6.09734 2.29798 6.27309C2.28627 6.44787 2.27174 6.43424 2.31443 6.50349C2.35712 6.57274 2.46106 6.71514 2.42029 6.81805C2.38438 6.90643 2.26202 6.84429 2.26202 6.84429C2.26202 6.84429 2.23776 6.9161 2.20474 6.94234C2.19309 6.89965 2.18048 6.87245 2.15718 6.84634C2.1552 6.86285 2.1504 6.88518 2.1504 6.88518C2.1504 6.88518 2.12902 6.81818 2.10765 6.7337C2.07859 6.62112 2.04749 6.47258 2.01933 6.39296C2.00768 6.43859 1.97856 6.57741 1.97856 6.57741L1.99507 6.79104L2.07469 7.08422L2.15149 7.27622L2.22624 7.51117L2.2912 7.66899L2.34362 7.78938L2.38925 8.06029L2.6096 8.29325L2.7271 8.34573L2.81248 8.30202L2.81261 8.30195Z" fill="#F3E19D"/>
    <path fill-rule="evenodd" clip-rule="evenodd" d="M2.18445 4.89126C2.18445 4.89126 2.02618 5.16006 1.98061 5.43104C1.93504 5.70202 1.89421 5.98835 1.92301 6.35725C1.95213 6.72915 2.00749 6.95725 2.05216 7.12038C2.12896 7.3913 2.32787 7.768 2.32787 7.768L2.33466 7.75341C2.30122 7.69003 2.27454 7.62332 2.25504 7.55437C2.2288 7.45146 2.21907 7.32915 2.19482 7.27379C2.17344 7.2185 2.13754 7.17088 2.12006 7.10291C2.10355 7.03789 2.10086 6.93498 2.05018 6.8583C2.0288 6.8272 2.00256 6.74566 1.99482 6.66413C1.98509 6.54176 1.99968 6.40486 1.98803 6.29229C1.96666 6.1049 1.95213 5.97773 1.97152 5.87962C1.99091 5.7815 2.09197 5.50298 2.15411 5.2816C2.19488 5.13984 2.17056 5.02042 2.24531 4.89709C2.32006 4.77478 2.36576 4.66701 2.38221 4.59226C2.40141 4.52429 2.18419 4.89126 2.18419 4.89126H2.18445Z" fill="#F2E8B0"/>
    <path fill-rule="evenodd" clip-rule="evenodd" d="M2.93498 4.78349C2.93498 4.78349 2.85344 4.80781 2.81459 4.8505C2.77574 4.89126 2.75923 4.92525 2.70682 4.99418C2.6544 5.0631 2.65146 5.11942 2.6087 5.20582C2.56602 5.2903 2.47181 5.41747 2.46016 5.4631C2.44851 5.50874 2.42912 5.7223 2.40486 5.8233C2.38349 5.92429 2.42912 6.04858 2.42912 6.04858L2.48442 6.03686C2.48442 6.03686 2.48442 6.10874 2.53978 6.15731C2.59507 6.20486 2.6048 5.9961 2.6048 5.9961L2.81158 5.29805L3.1232 5.0864L3.15718 4.91552L2.93485 4.78349H2.93498Z" fill="#F5EEC0"/>
    <path fill-rule="evenodd" clip-rule="evenodd" d="M3.0864 5.10003C3.0864 5.10003 2.93978 5.1097 2.86797 5.16218C2.83885 5.18349 2.8272 5.20096 2.79616 5.2272C2.73888 5.27475 2.68058 5.31846 2.65248 5.3808C2.62138 5.44288 2.58739 5.53709 2.5641 5.71475C2.55437 5.7895 2.55437 5.85843 2.54758 5.91866C2.53786 6.00019 2.52333 6.06522 2.53107 6.11066C2.5408 6.20384 2.63693 6.25242 2.64627 6.35821L2.84531 6.25728L3.0327 5.5184L3.43078 5.2688L3.2055 5.01638L3.08614 5.09958L3.0864 5.10003Z" fill="#E6DB9D"/>
    <path fill-rule="evenodd" clip-rule="evenodd" d="M2.03635 10.0755C2.03718 10.0682 2.03802 10.0609 2.03885 10.0534C2.0679 9.80378 2.07283 9.61459 2.09414 9.49613C2.12518 9.32819 2.14656 9.26573 2.1417 9.20288C2.13491 9.10195 2.12717 9.02816 2.1369 8.95046C2.15142 8.84755 2.25242 8.72525 2.24954 8.64077C2.24755 8.57376 2.21357 8.53011 2.18445 8.48934C2.15533 8.44858 2.13203 8.41459 2.13203 8.41459C2.13203 8.41459 2.33107 8.2777 2.32915 7.72621C2.33322 7.72735 2.33713 7.72899 2.3408 7.73107L2.43885 8.00966L2.50586 8.0912L2.76314 8.57082L3.09421 8.89222L3.58349 9.22131L3.8903 9.5552L3.92134 10.4455L3.52038 10.9659L3.45472 11.0848C2.93304 10.8229 2.45465 10.4825 2.03629 10.0754L2.03635 10.0755Z" fill="#E5CB7A"/>
    <path fill-rule="evenodd" clip-rule="evenodd" d="M3.26118 10.9272C3.26118 10.9272 3.26797 10.8165 3.35923 10.7446C3.37382 10.7689 3.38349 10.7923 3.38061 10.8097C3.39712 10.7806 3.51264 10.5942 3.77382 10.5456C4.03501 10.498 4.09811 10.3078 4.09811 10.3078L4.65242 9.8039L5.2864 9.22042L6.05728 8.9495L6.41754 8.86112C6.41754 8.86112 6.42432 8.88736 6.41075 8.9456C6.4777 8.9408 6.62624 8.90682 6.78061 8.85242C6.84275 8.82816 6.90106 8.81843 6.9321 8.8505C6.97773 8.89318 6.98451 8.99418 6.98739 9.05434C7.06214 9.03782 7.14854 8.96602 7.21779 8.9728C7.32851 8.98445 7.42656 9.11456 7.5392 9.11456C7.68774 9.11456 7.75469 9.0233 7.85862 8.95142C7.92077 8.90874 8.01005 8.85542 8.06054 8.81939C8.18093 8.73101 9.45472 8.3417 9.45472 8.3417L9.90131 8.37082L9.97318 8.85043L9.93478 10.1042C9.93005 10.1087 9.92531 10.1135 9.92051 10.118L7.88992 11.1786L5.0752 11.61C4.44469 11.507 3.83624 11.2977 3.27578 10.9911L3.26138 10.9271L3.26118 10.9272Z" fill="#D8C173"/>
    <path fill-rule="evenodd" clip-rule="evenodd" d="M2.20704 10.2349C2.24704 10.1513 2.28301 10.0813 2.28934 10.0563C2.29434 10.1068 2.30349 10.2174 2.32192 10.335C2.28322 10.3021 2.24493 10.2688 2.20704 10.2349V10.2349Z" fill="#F1D789"/>
    <path fill-rule="evenodd" clip-rule="evenodd" d="M4.26317 11.4148L4.6272 11.3136L4.65824 11.3233C4.65824 11.3233 4.67475 11.3331 4.67475 11.366C4.72038 11.3398 4.75923 11.3446 4.78739 11.3272C4.80192 11.3583 4.81645 11.4612 4.88058 11.4738C4.94752 11.4884 5.01939 11.4447 5.09222 11.3894C5.16403 11.3321 5.24582 11.2602 5.30771 11.2311C5.33042 11.2729 5.35053 11.316 5.36794 11.3602C5.44947 11.2952 5.59123 11.0311 5.79315 11.0359C5.85151 10.898 5.94901 10.7802 6.0736 10.6971C6.26099 10.5699 6.37843 10.5602 6.52506 10.5718C6.58329 10.4962 6.65506 10.432 6.7367 10.3825C6.76096 10.3923 6.82797 10.433 6.91149 10.3942C6.99597 10.3554 7.09107 10.2049 7.21632 10.1855C7.28381 10.1762 7.35244 10.1906 7.4105 10.2262C7.4105 10.2262 7.7753 9.86406 8.02701 9.74368C8.01728 9.71456 7.99789 9.60486 8.29299 9.36211C8.3095 9.3767 8.29786 9.41747 8.3095 9.41971C8.3143 9.41971 8.3863 9.38867 8.47744 9.31872C8.59008 9.2343 8.72499 9.14592 8.80653 9.12166C8.96013 9.07603 9.12307 9.16922 9.12307 9.16922C9.13693 9.1595 9.15237 9.15226 9.1687 9.14784C9.20749 9.14106 9.23565 9.13619 9.25702 9.12864C9.2551 9.17914 9.28326 9.26554 9.25702 9.34029C9.28742 9.35738 9.31962 9.37105 9.35302 9.38106C9.33658 9.41696 9.30061 9.50822 9.24045 9.55194C9.29088 9.57619 9.29766 9.60435 9.36954 9.62874C9.34042 9.6695 9.29274 9.73946 9.27149 9.78234C9.25011 9.82797 9.17338 10.0173 9.13939 10.0891C9.10349 10.161 9.05498 10.293 9.03162 10.3195C9.00826 10.346 8.92384 10.4583 8.85882 10.5136C8.91642 10.4922 9.15206 10.4204 9.25203 10.3932C9.22227 10.4369 9.07142 10.6607 8.9264 10.8759C8.23203 11.2921 7.45693 11.5555 6.65276 11.6486C5.84859 11.7417 5.03381 11.6623 4.26272 11.4158L4.26317 11.4148Z" fill="#E0CD81"/>
    <path fill-rule="evenodd" clip-rule="evenodd" d="M3.1104 5.07379C3.1104 5.07379 3.02598 5.07379 3.00947 5.08544C2.99296 5.09709 3.09395 5.12141 3.12499 5.13306C3.15603 5.1447 3.22304 5.19808 3.24051 5.24083C3.25702 5.2816 3.8473 5.51942 3.8473 5.51942L4.26477 5.49805L4.4087 5.2992L4.13491 5.05939L4.32691 4.49338L4.07258 4.53414L3.46093 4.89894L3.15411 5.01645L3.1104 5.07379Z" fill="#DFC57C"/>
    <path fill-rule="evenodd" clip-rule="evenodd" d="M4.0272 5.26118C4.03324 5.27096 4.04173 5.27897 4.05184 5.28442C4.06195 5.28986 4.07332 5.29256 4.0848 5.29222C4.1712 5.29222 4.25075 5.3136 4.28378 5.35725C4.33914 5.4272 4.49254 5.6505 4.49254 5.6505L4.85952 5.78253L4.8832 5.3504L4.48224 5.07181L4.02592 5.23974V5.26112H4.02694L4.0272 5.26118Z" fill="#E5CC7C"/>
    <path fill-rule="evenodd" clip-rule="evenodd" d="M3.9552 5.42138C3.9552 5.42138 4.02214 5.42624 4.10662 5.39514C4.1911 5.36403 4.32992 5.29709 4.39014 5.32333C4.47456 5.35923 4.45709 5.47187 4.54842 5.57293C4.60371 5.63507 4.7047 5.63315 4.76198 5.70016C4.81926 5.76717 5.01632 5.73606 5.01632 5.73606L5.09107 6.13926L4.7911 6.52378L4.69299 7.00141H4.28736L3.9168 6.8544L3.73427 6.4128L3.82554 5.96621L3.9552 5.42138Z" fill="#D2C281"/>
    <path fill-rule="evenodd" clip-rule="evenodd" d="M4.73984 5.44077C4.7499 5.44387 4.76035 5.44551 4.77088 5.44563C4.75923 5.45536 4.73491 5.47667 4.74464 5.53203C4.75437 5.58739 4.78541 5.65728 4.75923 5.69997C4.78013 5.72282 4.79571 5.75 4.80486 5.77958C4.82138 5.8272 4.82624 5.87085 4.93395 5.8777C4.91841 5.88726 4.90407 5.89868 4.89126 5.91168C4.89126 5.91168 4.96602 5.9767 5.0039 6.03686C5.04269 6.0352 5.1456 6.0032 5.1456 6.0032L5.16698 6.01779L5.21261 5.99859C5.21261 5.99859 5.16992 5.98208 5.20096 5.87821C5.23008 5.78694 5.25632 5.79181 5.25856 5.78502C5.2608 5.77824 5.27994 5.68211 5.27994 5.64326C5.29446 5.59283 5.30611 5.43942 5.30611 5.43942L5.27507 5.10061L5.10035 4.99475L4.95827 4.8576L4.82426 5.11002L4.736 5.19802L4.72922 5.41645L4.73984 5.44077Z" fill="#E2C270"/>
    <path fill-rule="evenodd" clip-rule="evenodd" d="M5.16019 5.15731C5.16019 5.15731 5.19123 5.24563 5.20294 5.3136C5.20707 5.30039 5.20935 5.28667 5.20973 5.27283C5.20973 5.27283 5.23398 5.40685 5.23878 5.46221C5.24851 5.46022 5.25798 5.45734 5.26016 5.46701C5.26234 5.47667 5.28448 5.58451 5.27936 5.64467C5.31979 5.57797 5.37573 5.52203 5.44243 5.4816C5.48128 5.45728 5.52691 5.4311 5.57453 5.42912C5.64928 5.4272 5.70362 5.47674 5.79296 5.47674C6.00845 5.47674 6.20365 5.31846 6.34733 5.26995C6.45312 5.23398 6.54438 5.20781 6.60845 5.1495C6.63955 5.12333 6.69491 5.06509 6.74534 4.97862C6.81235 4.86342 6.88224 4.76314 6.95219 4.75053C6.92054 4.75634 6.88834 4.75862 6.85619 4.75731C6.85619 4.75731 6.87757 4.73594 6.91379 4.70682C6.95002 4.6777 6.99341 4.64179 7.05549 4.64179C7.16621 4.64179 7.2215 4.65824 7.28365 4.65824C7.34579 4.65632 7.3817 4.64179 7.3817 4.64179C7.3817 4.64179 7.44678 4.68742 7.59334 4.68742C7.73997 4.68934 7.83802 4.70195 7.91475 4.7088C7.99149 4.71565 8.2487 4.68742 8.3225 4.6896C8.37061 4.69145 8.41784 4.70301 8.46138 4.72358L8.22349 4.03238L7.36896 3.2855L6.86022 3.6457L6.07763 4.42822L5.32038 4.7088L5.16211 4.88646V5.15731H5.16019Z" fill="#CCB360"/>
    <path fill-rule="evenodd" clip-rule="evenodd" d="M6.85926 4.76115C6.85926 4.76115 6.88064 4.73984 6.91648 4.71072C6.95232 4.6816 6.99616 4.64563 7.05824 4.64563C7.1689 4.64563 7.22426 4.66214 7.2864 4.66214C7.34854 4.66022 7.38445 4.64563 7.38445 4.64563C7.38445 4.64563 7.4496 4.6912 7.5961 4.6912C7.74272 4.69312 7.84077 4.70573 7.9175 4.71251C7.99424 4.7193 8.25146 4.6912 8.32525 4.69331C8.37334 4.69512 8.42057 4.70669 8.46406 4.7273L8.35629 4.41562L8.2311 4.17779L7.87379 3.7865C7.87379 3.7865 7.44499 3.53408 7.44173 3.53216C7.43981 3.53024 7.29318 3.49139 7.29318 3.49139L6.90483 3.72634L6.55245 4.63802L6.54566 4.83002L6.77376 4.93779C6.83104 4.84179 6.89421 4.76499 6.95341 4.75526C6.89997 4.76109 6.8592 4.76109 6.8592 4.76109L6.85926 4.76115Z" fill="#D5B457"/>
    <path fill-rule="evenodd" clip-rule="evenodd" d="M6.8544 4.82624C6.82042 4.82816 6.79232 4.82138 6.78451 4.79712C6.75539 4.71558 6.7321 4.70394 6.70771 4.70394C6.68333 4.70394 6.65043 4.75635 6.63091 4.76115C6.61139 4.76595 6.58822 4.70099 6.58822 4.70099L6.56685 4.69126C6.56685 4.69126 6.4416 4.7728 6.35328 4.86893C6.26496 4.96506 6.12026 5.12819 6.05523 5.15725C5.99021 5.1863 5.76685 5.1961 5.69043 5.21261C5.61402 5.22912 5.52928 5.28448 5.51763 5.29709C5.50598 5.3097 5.55168 5.32326 5.55846 5.33587C5.56525 5.34752 5.48365 5.34266 5.47686 5.35507C5.47206 5.3648 5.49606 5.4201 5.50797 5.44826C5.5288 5.4379 5.55165 5.43226 5.57491 5.43174C5.64966 5.42982 5.70406 5.47936 5.79334 5.47936C6.0089 5.47936 6.20403 5.32109 6.34771 5.27251C6.45357 5.23661 6.54483 5.21037 6.6089 5.15213C6.63994 5.12595 6.6953 5.06765 6.74579 4.98125C6.78266 4.92205 6.81862 4.86669 6.85459 4.82592L6.8544 4.82624Z" fill="#D2B257"/>
    <path fill-rule="evenodd" clip-rule="evenodd" d="M3.7632 9.6311C3.7632 9.6311 3.744 9.55923 3.56608 9.37382C3.51558 9.32141 3.48454 9.27782 3.45056 9.24666C3.36608 9.16698 3.31654 9.14566 3.25638 9.10003C3.12435 9.00198 2.98067 9.00198 2.87002 8.8816C2.75936 8.76122 2.6304 8.5312 2.5408 8.29613C2.45248 8.06118 2.42816 7.98643 2.42816 7.97965C2.42816 7.97286 2.45248 7.92723 2.48352 7.93402C2.51456 7.9408 2.51456 8.00096 2.52237 8.01555C2.53783 8.03937 2.55537 8.06177 2.57478 8.0825C2.62042 8.13498 2.68544 8.1977 2.71846 8.29126C2.71168 8.21165 2.68448 8.12333 2.68448 8.12333C2.68448 8.12333 2.85536 8.2311 3.00096 8.34368C3.14758 8.45632 3.20774 8.49517 3.25056 8.56698C3.29338 8.63878 3.39424 8.82816 3.44256 8.88352C3.49088 8.93888 4.15296 9.14758 4.15296 9.14758L4.4679 9.3824L4.62426 9.72512L4.50189 9.91712L4.26694 9.96762L3.88538 9.79674L3.7632 9.63104V9.6311Z" fill="#D2B159"/>
    <path fill-rule="evenodd" clip-rule="evenodd" d="M2.91552 8.4505C2.91552 8.4505 2.99514 8.57766 3.18931 8.69805C3.3641 8.8039 3.64077 8.90003 3.88742 8.95731C4.02912 8.9913 4.17088 9.01747 4.29805 9.01946C4.64077 9.02426 4.87667 8.92627 5.16896 8.89421C5.32723 8.8777 5.52141 8.86509 5.72333 8.81741C5.98253 8.75526 6.13594 8.68531 6.3447 8.58701C6.49613 8.51712 6.63501 8.4647 6.74758 8.3977C6.90586 8.30451 7.02138 8.20064 7.15539 8.1696C7.13888 8.21523 7.12141 8.29677 6.98938 8.38125C7.05926 8.37926 7.15539 8.37446 7.15539 8.37446C7.15539 8.37446 7.06221 8.42976 6.89811 8.55405C6.79712 8.63085 6.66317 8.76083 6.52627 8.84723C6.43789 8.90259 6.34176 8.94323 6.27866 8.97638C6.12506 9.06086 6.0631 9.10355 5.96218 9.20678C5.99808 9.20486 6.00102 9.20678 6.00102 9.20678C6.00102 9.20678 5.87379 9.2233 5.78259 9.27181C5.76339 9.27181 5.73011 9.26502 5.67187 9.28154C5.62624 9.29606 5.56602 9.32915 5.50394 9.34656C5.41555 9.3728 5.3865 9.36115 5.3865 9.36115L5.40102 9.39027C5.40102 9.39027 5.28582 9.38829 5.24742 9.39219C5.25421 9.39411 5.25229 9.39706 5.25229 9.39706C5.24554 9.39819 5.23905 9.40048 5.23309 9.40384C5.21461 9.41581 5.19428 9.42466 5.17293 9.43002C5.16128 9.43194 5.15155 9.43194 5.13696 9.43488C5.14182 9.44653 5.17971 9.51168 5.19718 9.55008C5.18266 9.55981 4.96416 9.72486 4.96416 9.72486C4.97094 9.73553 4.97648 9.74693 4.98067 9.75885C4.98746 9.78016 4.9904 9.81126 4.99718 9.82579C5.01363 9.85491 5.02336 9.85978 5.02336 9.85978C5.02336 9.85978 4.99718 9.86464 4.95149 9.87629C4.9127 9.88602 4.86509 9.90246 4.79789 9.91219C4.77727 9.91487 4.75653 9.9165 4.73574 9.91706C4.74547 9.93843 4.78816 10.02 4.7095 10.1141C4.63085 10.2083 4.60659 10.222 4.58234 10.2821C4.57013 10.2729 4.55713 10.2647 4.54349 10.2578C4.51731 10.2461 4.48134 10.2287 4.46874 10.2054C4.46139 10.2365 4.45165 10.267 4.43962 10.2966C4.41536 10.3617 4.37946 10.4258 4.37267 10.4743C4.34643 10.4452 4.29792 10.3879 4.23091 10.3996C4.1639 10.4112 4.11053 10.5025 4.09888 10.5287C4.09888 10.5122 4.08723 10.4996 4.08435 10.519C4.08237 10.5404 4.0455 10.7636 3.83968 10.9442C3.83776 10.8986 3.83776 10.7976 3.8329 10.7646C3.8137 10.7838 3.79021 10.8122 3.65037 10.8724C3.51347 10.9325 3.53517 10.9928 3.53517 10.9928C3.53517 10.9928 3.52352 10.8968 3.59731 10.7956C3.67206 10.6947 3.7177 10.6471 3.7177 10.6394C3.71649 10.6315 3.71312 10.6241 3.70797 10.618C3.69824 10.6083 3.67885 10.5966 3.67885 10.5889C3.6905 10.5841 3.80602 10.5287 3.79923 10.4141C3.79245 10.3112 3.7488 10.2578 3.7177 10.22C3.7129 10.2151 3.76339 10.1792 3.75654 10.1676C3.75168 10.1608 3.6896 10.1151 3.68179 10.0908C3.68363 10.0762 3.68689 10.0619 3.69152 10.0481C3.6983 10.0267 3.70317 10.0121 3.70125 9.99757C3.69638 9.97331 3.67014 9.9063 3.6624 9.89952C3.66918 9.90144 3.7177 9.89952 3.7177 9.89952C3.7177 9.89952 3.67891 9.83738 3.67206 9.80826C3.66522 9.77914 3.65069 9.7024 3.64294 9.68787C3.65946 9.68979 3.70022 9.69267 3.70022 9.68787C3.70221 9.67328 3.66432 9.64902 3.68102 9.63027C3.69267 9.63219 3.71501 9.64192 3.73632 9.66912C3.72467 9.63802 3.70528 9.57786 3.66445 9.5536C3.68365 9.54682 3.74893 9.52928 3.80621 9.56326C3.86349 9.59725 3.88301 9.6448 3.88301 9.6448C3.88301 9.6448 3.91699 9.67104 3.96947 9.70989C4.02963 9.75744 4.1063 9.82509 4.22867 9.87296C4.25491 9.88755 4.32186 9.88755 4.37043 9.87782C4.39158 9.87278 4.41186 9.86461 4.43059 9.85357C4.43736 9.84958 4.44452 9.84632 4.45197 9.84384C4.44153 9.82289 4.42953 9.80276 4.41606 9.78362C4.43258 9.78362 4.45197 9.7856 4.45197 9.7856C4.45197 9.7856 4.46362 9.75936 4.4112 9.7088C4.42285 9.69715 4.43744 9.6896 4.43744 9.66995C4.42093 9.66803 4.39181 9.64377 4.38502 9.63405C4.39469 9.62726 4.40928 9.60493 4.42579 9.59814C4.4112 9.5865 4.3753 9.53792 4.35878 9.53312C4.37456 9.52726 4.38982 9.52011 4.40442 9.51174C4.40442 9.51174 4.32288 9.49037 4.29664 9.4729C4.2704 9.4537 4.23162 9.42048 4.20832 9.41075C4.184 9.40102 4.14131 9.39622 4.12384 9.37677C4.14029 9.38163 4.16653 9.37677 4.18598 9.37677C4.20051 9.37677 4.20736 9.37869 4.21216 9.37869C4.21024 9.3719 4.21024 9.35731 4.24813 9.35251C4.26635 9.34976 4.28404 9.34419 4.30054 9.336C4.30054 9.336 4.26458 9.33408 4.22374 9.29523C4.18291 9.25638 4.14899 9.22534 4.1257 9.22048C4.10144 9.21562 4.05581 9.23699 4.02765 9.23501C3.9888 9.23021 3.97229 9.21075 3.97229 9.21075C3.97229 9.21075 3.8432 9.2224 3.5568 9.04768C3.30918 8.89619 3.20141 8.76224 3.20141 8.76224C3.17823 8.75383 3.15584 8.74342 3.13446 8.73114C3.04128 8.68262 2.91213 8.58163 2.91603 8.44954L2.91552 8.4505Z" fill="#C2A44D"/>
    <path fill-rule="evenodd" clip-rule="evenodd" d="M6.48736 2.6233C6.50982 2.63059 6.52978 2.64405 6.54496 2.66214C6.59059 2.71456 6.61971 2.81357 6.51584 2.91942C6.55661 2.93395 6.57344 2.93862 6.60902 2.93395C6.57312 2.9767 6.49158 3.06797 6.48672 3.14758C6.48186 3.21261 6.52262 3.23206 6.52262 3.23206C6.52262 3.23206 6.46048 3.30387 6.4576 3.42406C6.48695 3.39097 6.51906 3.36044 6.5536 3.3328C6.62547 3.27552 6.72448 3.2105 6.79149 3.16973C6.79058 3.18681 6.79288 3.20392 6.79827 3.22016C6.79827 3.22016 6.92346 3.11725 7.02867 3.16294C7.07622 3.18432 7.05485 3.25126 7.05485 3.25126C7.05485 3.25126 7.11994 3.22701 7.16557 3.27264C7.2112 3.31827 7.27571 3.43597 7.3088 3.4816C7.32333 3.50298 7.36122 3.54374 7.4 3.60685C7.45299 3.6952 7.49723 3.7885 7.5321 3.88544C7.53402 3.83494 7.54662 3.75635 7.69037 3.80582C7.83405 3.85632 7.99712 3.96218 8.13402 4.17062C8.27091 4.37907 8.30483 4.6144 8.37376 4.704C8.44365 4.7904 8.51552 4.93408 8.52038 4.9943C8.52525 5.05453 8.49901 5.24864 8.64269 5.77389C8.68346 5.61082 8.7456 5.24864 8.7456 5.24864L8.77958 4.92922L8.81843 3.94086L7.78637 3.08346L6.97958 2.49798L6.45434 2.54848L6.4873 2.62323L6.48736 2.6233Z" fill="#CAA13E"/>
    <path fill-rule="evenodd" clip-rule="evenodd" d="M8.40486 4.09414C8.40486 4.09414 8.39027 3.99814 8.14758 3.83494C7.90483 3.67379 7.71552 3.67379 7.5408 3.5369C7.40678 3.42912 7.26701 3.1815 7.176 3.09997C7.08762 3.01939 7.07309 2.78637 7.07309 2.78637L7.37114 2.53677L7.8144 1.89606L8.18912 1.48346L8.3687 1.73306L8.6183 2.02624L8.75712 2.61459L8.80762 3.47578L8.40442 4.09421L8.40486 4.09414Z" fill="#B59544"/>
    <path fill-rule="evenodd" clip-rule="evenodd" d="M8.7049 5.1264C8.71224 4.9958 8.69611 4.86494 8.65728 4.74003C8.59328 4.54099 8.45344 4.18758 8.38848 4.05523C8.36224 3.90861 8.3817 3.89696 8.40986 3.88045C8.43802 3.86394 8.54387 3.80365 8.60186 3.59213C8.65984 3.38061 8.83974 3.3737 8.83974 3.3737L8.9504 3.29216L9.1184 3.71251L9.26496 4.09216L9.31059 4.38246L9.34458 4.63002L9.26496 5.15334L8.87181 5.50867L8.70483 5.1264H8.7049Z" fill="#C89D3A"/>
    <path fill-rule="evenodd" clip-rule="evenodd" d="M3.2185 10.9485C3.22667 10.9434 3.23388 10.9369 3.23981 10.9293C3.24659 10.9196 3.25152 10.908 3.25632 10.9051C3.26605 10.9002 3.31168 10.8859 3.33594 10.8905C3.36019 10.8951 3.42432 10.9215 3.4583 10.9196C3.52819 10.9177 3.60973 10.8643 3.73888 10.8886C3.93306 10.9245 3.97869 11.0565 4.09133 11.1313C4.16813 11.1837 4.24762 11.1604 4.25926 11.1604H4.28544C4.2903 11.1604 4.32621 11.1196 4.34566 11.1216C4.38451 11.1235 4.38835 11.1556 4.41261 11.1575C4.46989 11.1643 4.58061 11.1284 4.63597 11.143C4.65238 11.1481 4.66731 11.1572 4.67948 11.1693C4.69165 11.1815 4.7007 11.1964 4.70586 11.2128C4.7175 11.2487 4.70778 11.2943 4.67962 11.3206C4.61946 11.3759 4.56218 11.4284 4.55053 11.4742C4.56534 11.4855 4.57957 11.4975 4.59315 11.5103C4.11278 11.3879 3.6506 11.2028 3.2185 10.9599V10.9485Z" fill="#CEB052"/>
    <path fill-rule="evenodd" clip-rule="evenodd" d="M8.38835 9.01946C8.38835 9.01946 8.53978 8.81754 8.59226 8.7175C8.64467 8.6144 8.42624 7.3088 8.42624 7.3088L8.86509 5.87098L8.85338 5.40301C8.85338 5.40301 8.87475 4.97094 8.92525 4.78355C8.98547 4.89133 9.17286 5.02144 9.21363 5.09037C9.23283 4.95827 9.29805 4.67968 9.28838 4.38259C9.32429 4.43789 9.41069 4.99424 9.41069 4.99424L9.49709 5.36896L9.60973 5.76704L9.73498 6.18746L9.80973 6.47776L9.85242 6.54765L9.88838 6.66995L9.92237 6.80205L10.0204 7.11174L10.078 7.36608L10.1236 7.82726C10.1336 7.86258 10.1407 7.89861 10.145 7.93504C10.1469 7.98554 10.1382 8.01466 10.1382 8.02342C10.1382 8.03219 10.1548 8.13408 10.148 8.21082C10.1382 8.28762 10.1382 8.34771 10.078 8.40282C10.0178 8.45792 9.97997 8.78726 9.97997 8.78726L9.87219 8.71546C9.87219 8.71546 9.89357 8.61734 9.84307 8.52806C9.79258 8.43878 9.69453 8.42029 9.63917 8.43488C9.58387 8.44653 9.47322 8.46394 9.43725 8.49504C9.40326 8.52608 9.31981 8.62221 9.24307 8.66592C9.14707 8.72352 8.99066 8.72806 8.9072 8.74746C8.82272 8.76666 8.72954 8.82426 8.63142 8.89114C8.5545 8.94094 8.47328 8.98378 8.38874 9.01914L8.38835 9.01946Z" fill="#CCA847"/>
    <path fill-rule="evenodd" clip-rule="evenodd" d="M8.38835 11.1408C8.38835 11.1408 8.39475 11.145 8.4071 11.1517C9.09687 10.8286 9.7149 10.3705 10.2247 9.80454C10.2191 9.60806 10.2119 9.40666 10.204 9.33203C10.1875 9.17376 10.1992 9.01261 10.1943 8.91942C10.1894 8.82624 10.137 8.44659 10.1128 8.34854C10.0865 8.2505 10.036 8.20192 10.0283 8.20192C10.0215 8.2039 9.98067 8.38643 9.98067 8.43232C9.98067 8.47821 9.97094 8.58867 9.97094 8.61683C9.96416 8.61485 9.96128 8.59763 9.96128 8.59059C9.95155 8.61485 9.9399 8.6576 9.93504 8.66246C9.93018 8.66733 9.94182 8.6217 9.93504 8.61197C9.92826 8.60224 9.91584 8.6071 9.91853 8.58285C9.91968 8.56846 9.92194 8.55419 9.92531 8.54016C9.92531 8.54016 9.89619 8.58285 9.87488 8.69158C9.8535 8.79936 9.8535 8.8023 9.84576 8.81197C9.83898 8.82368 9.80013 8.86246 9.79814 8.87706C9.79622 8.90323 9.83411 8.92947 9.83699 8.944C9.83891 8.96832 9.80301 9.0809 9.79136 9.136C9.77971 9.1911 9.78458 9.29907 9.77216 9.35443C9.76243 9.40493 9.75296 9.43405 9.71974 9.45536C9.744 9.46022 9.7673 9.46701 9.7673 9.46701C9.7673 9.46701 9.80128 9.61069 9.71488 9.73306C9.68384 9.77574 9.6761 9.7952 9.64307 9.83405C9.57798 9.90586 9.52749 9.98765 9.52262 10.0408C9.51927 10.0251 9.517 10.0092 9.51584 9.99322C9.51584 9.99322 9.41491 10.1107 9.37216 10.1777C9.31686 10.2641 9.24013 10.2593 9.21856 10.2806C9.19699 10.302 9.19232 10.3408 9.19936 10.3719C9.18016 10.3767 9.14406 10.3836 9.11974 10.4583C9.1081 10.4971 9.07898 10.5351 9.03334 10.5612C8.98771 10.5873 8.93235 10.5952 8.90419 10.602C8.92845 10.6088 8.93818 10.6088 8.94982 10.6165C8.9353 10.6408 8.86829 10.6787 8.79354 10.7272C8.71878 10.7729 8.68282 10.8398 8.66438 10.8835C8.64518 10.9243 8.61683 10.9505 8.5712 10.9554C8.5904 10.967 8.61882 10.9942 8.63334 11.0029C8.61197 11.0078 8.57574 11.0078 8.51104 11.0632C8.44307 11.1195 8.41978 11.136 8.38867 11.1409L8.38835 11.1408Z" fill="#C39D3C"/>
    <path fill-rule="evenodd" clip-rule="evenodd" d="M7.03744 11.5907C7.07462 11.5647 7.11488 11.5433 7.15731 11.5272C7.30874 11.467 7.46893 11.4554 7.53203 11.436C7.59226 11.4168 7.63981 11.3903 7.71456 11.3757C7.71258 11.3928 7.71091 11.4088 7.70912 11.4239C7.48874 11.4932 7.26432 11.5489 7.03712 11.5907H7.03744Z" fill="#D2BA6B"/>
    <path fill-rule="evenodd" clip-rule="evenodd" d="M9.8304 7.60781C9.8304 7.60781 9.79936 7.77574 9.744 7.8816C9.68864 7.98746 9.6288 8.13402 9.6288 8.13402C9.62916 8.10099 9.63307 8.0681 9.64045 8.0359C9.57056 8.07667 9.40064 8.17478 9.35245 8.21843C9.30682 8.2592 9.23008 8.33107 9.21069 8.36506C9.25632 8.2311 9.30387 8.11072 9.31168 8.05536C9.24179 8.10586 8.91552 8.37478 8.74566 8.55245L8.21651 8.98061C8.15545 9.01355 8.09256 9.04299 8.02816 9.0688C7.93696 9.10758 7.82918 9.14061 7.74957 9.17171C7.77094 9.11443 7.80486 9.06387 7.85248 9.01536C7.90298 8.96781 8.0544 8.80371 8.0777 8.72736C8.09907 8.64774 8.10394 8.60019 8.07578 8.53318C8.04954 8.53997 7.98938 8.54291 7.94861 8.55456C7.90784 8.56621 7.86413 8.60986 7.86413 8.60986C7.86413 8.60986 7.89517 8.43219 7.96218 8.26426C7.91168 8.26618 7.82528 8.2807 7.82528 8.2807C7.82528 8.2807 7.94566 8.07878 8.15168 7.93805C8.08859 7.95148 8.02685 7.97063 7.96723 7.99526C7.84685 8.04576 7.71482 8.12051 7.61677 8.16128C7.67206 8.08448 8.06042 7.53024 8.29152 7.0137C8.52192 6.49818 8.608 6.36614 8.6585 6.08947C8.68467 5.95258 8.6777 5.75027 8.68467 5.56909C8.69146 5.38944 8.71379 5.22829 8.69926 5.12051C8.75942 5.19526 8.9847 5.40595 8.99245 5.87686C8.99923 6.34771 8.77696 6.98368 8.54099 7.32634C8.59859 7.34285 8.74784 7.3623 8.90118 7.09594C9.05453 6.82957 9.05267 6.7552 9.10803 6.64448C9.11482 6.69984 9.11283 6.71923 9.11283 6.71923C9.11283 6.71923 9.33619 6.44838 9.44198 6.10758C9.46336 6.25421 9.52646 6.38336 9.42739 6.65229C9.33907 6.89498 9.22355 6.95424 9.22355 6.95424C9.22355 6.95424 9.28083 6.94451 9.36525 6.89402C9.37984 6.92992 9.37696 6.97082 9.40122 6.98528C9.42547 6.99974 9.4585 7.02413 9.46336 7.04742C9.48954 7.00858 9.5303 6.95904 9.54298 6.92218C9.53325 6.99898 9.52646 7.33478 9.56218 7.50566C9.63699 7.49888 9.71366 7.49402 9.76608 7.35904C9.73018 7.49114 9.73018 7.57069 9.75443 7.68333C9.79424 7.65619 9.83014 7.60762 9.83014 7.60762L9.8304 7.60781Z" fill="#C0993A"/>
    <path fill-rule="evenodd" clip-rule="evenodd" d="M7.30778 2.25632C7.30778 2.25632 7.23302 2.28736 7.10586 2.28736C6.9952 2.28736 7.02624 2.24467 6.85344 2.24467C6.58746 2.24467 5.6583 2.39827 5.49517 2.3961C5.38931 2.39418 5.85242 2.44173 5.85242 2.44173L7.03597 2.45824L7.27379 2.43904L7.36218 2.2592L7.30778 2.25632Z" fill="#A88F33"/>
    <path fill-rule="evenodd" clip-rule="evenodd" d="M4.23885 4.56992C4.23885 4.56992 4.08736 4.68544 4.0233 4.77382C3.95923 4.86221 3.92525 4.92038 3.85242 4.99226C3.86951 4.99291 3.88659 4.99061 3.90291 4.98547C3.90291 4.98547 3.90291 5.00467 3.89126 5.00973C3.90133 5.0086 3.91152 5.00974 3.92109 5.01306C3.93065 5.01639 3.93936 5.02181 3.94656 5.02893C3.92518 5.04058 3.86694 5.09888 3.91258 5.16781C3.94656 5.22022 4.01843 5.22502 4.01843 5.22502C4.01843 5.22502 4.00192 5.27264 4.07085 5.26778C4.21939 5.26099 4.38541 5.1959 4.46208 5.21242C4.53888 5.23162 4.58253 5.23866 4.63686 5.33286C4.69446 5.42605 4.74464 5.44064 4.74464 5.44064C4.74464 5.44064 4.77862 5.35418 4.77088 5.22509C4.79874 5.1555 4.81419 5.08157 4.81651 5.00666L4.76602 4.63482L4.54566 4.35616L4.26022 4.51443L4.23885 4.56973V4.56992Z" fill="#E3C571"/>
    <path fill-rule="evenodd" clip-rule="evenodd" d="M4.5097 4.51456C4.5097 4.51456 4.53107 4.56506 4.62042 4.56986C4.61069 4.59123 4.61069 4.59418 4.61363 4.61062C4.61555 4.62714 4.61843 4.65139 4.61843 4.65139C4.62827 4.64663 4.63716 4.64013 4.64467 4.63219C4.64954 4.65357 4.63981 4.68749 4.64467 4.71181C4.64767 4.7266 4.65256 4.74094 4.6592 4.7545C4.66062 4.75118 4.66224 4.74795 4.66406 4.74483C4.66598 4.73997 4.68326 4.79725 4.73107 4.84083C4.73103 4.83413 4.73268 4.82753 4.73587 4.82163C4.7366 4.83381 4.74063 4.84555 4.74752 4.85562C4.74394 4.85391 4.74068 4.85162 4.73786 4.84883C4.73786 4.84883 4.74266 5.00243 4.7689 5.08186C4.77328 5.07672 4.77718 5.0712 4.78054 5.06534C4.78054 5.06054 4.77862 5.1081 4.77376 5.14214C4.76698 5.17613 4.77184 5.22368 4.77184 5.22368C4.78934 5.2099 4.80858 5.19847 4.82906 5.1897C4.85818 5.17798 4.90586 5.14208 4.93491 5.06246C4.95177 5.01738 4.96476 4.97094 4.97376 4.92365C4.98315 4.94172 4.98963 4.96116 4.99296 4.98125C4.99494 5.0055 5.04058 4.9929 5.04058 4.9929L5.0503 4.88704L5.1079 4.64723L5.16032 4.49869L5.41274 4.10554L5.8688 3.7543L6.26688 3.84557L6.60275 3.38925L6.02413 3.04166L5.47654 3.09894L4.97958 3.78726L4.58157 4.41158L4.5097 4.5145V4.51456Z" fill="#D8B65B"/>
    <path fill-rule="evenodd" clip-rule="evenodd" d="M7.37766 3.51846C7.37766 3.51846 7.34368 3.52525 7.24563 3.57606C7.14758 3.62688 7.07962 3.64301 7.04173 3.71776C7.00384 3.79251 7.00096 3.85178 7.00096 3.85178C7.00096 3.85178 7.06797 3.82266 7.10682 3.81293C7.14758 3.80326 7.19322 3.80614 7.18835 3.82266C7.18368 3.83398 7.1772 3.84446 7.16915 3.8537C7.16915 3.8537 7.24595 3.85178 7.2439 3.88966C7.24186 3.92755 7.22938 3.96928 7.21485 3.98771C7.20026 4.00691 7.1401 4.03533 7.13331 4.05766C7.1168 4.1033 7.1401 4.10522 7.13133 4.14208C7.12454 4.17805 7.09254 4.24794 6.98765 4.37024C6.87987 4.49261 6.83405 4.57901 6.83405 4.57901C6.83405 4.57901 6.78163 4.48096 6.75443 4.39648C6.73523 4.40614 6.63213 4.46342 6.63213 4.46342L6.39328 3.63142L6.39808 3.57606C6.39808 3.57606 6.41946 3.54989 6.42432 3.50131C6.38842 3.48966 6.38355 3.47994 6.33594 3.43437C6.28832 3.3888 6.24954 3.33338 6.16998 3.29549C6.15834 3.27411 6.14374 3.24506 6.0855 3.23334C6.02726 3.22163 5.99232 3.21203 5.99232 3.21203C5.99232 3.21203 6.02336 3.20032 6.03795 3.17606C6.00198 3.18093 5.97293 3.19258 5.89427 3.19066C5.81466 3.18867 5.80589 3.18579 5.76224 3.19258C5.71859 3.19936 5.66624 3.21882 5.64672 3.15181C5.62534 3.1353 5.57971 3.14989 5.54086 3.2071C5.50202 3.26432 5.48845 3.31002 5.4137 3.33235C5.40844 3.3653 5.3969 3.39694 5.37971 3.42554C5.35834 3.4615 5.32435 3.49741 5.27872 3.55078C5.20685 3.63526 5.2185 3.77408 5.10394 3.87994C4.98842 3.98573 5.12314 3.58669 5.12314 3.58669L5.30758 3.14509L5.83283 2.63149L6.64838 2.57619L6.728 2.99859L7.12608 3.13549L7.37754 3.51898L7.37766 3.51846Z" fill="#D3AE4D"/>
    <path fill-rule="evenodd" clip-rule="evenodd" d="M7.50682 3.61165L7.1641 3.1175L6.92429 2.93299C6.92429 2.93299 6.75341 2.6185 6.74176 2.60877C6.73203 2.60198 6.57088 2.58451 6.46797 2.57773L6.48717 2.62528C6.50963 2.63258 6.52959 2.64604 6.54477 2.66413C6.5904 2.71654 6.61952 2.81555 6.51565 2.92141C6.55642 2.93594 6.57325 2.94061 6.60883 2.93594C6.57293 2.97869 6.49139 3.06995 6.48653 3.14957C6.48166 3.21459 6.52243 3.23398 6.52243 3.23398C6.52243 3.23398 6.46029 3.30586 6.45741 3.42598C6.48675 3.39289 6.51887 3.36236 6.55341 3.33472C6.62528 3.27712 6.72429 3.21235 6.7913 3.17158C6.79038 3.18869 6.79268 3.20582 6.79808 3.22208C6.79808 3.22208 6.92326 3.11917 7.02848 3.1648C7.07603 3.18618 7.05466 3.25318 7.05466 3.25318C7.05466 3.25318 7.11974 3.22893 7.16538 3.27456C7.21101 3.32019 7.27603 3.43763 7.30906 3.48333C7.32358 3.5047 7.36147 3.54547 7.40026 3.60851C7.45325 3.69688 7.4975 3.7902 7.53235 3.88717C7.53427 3.84832 7.54208 3.79398 7.60915 3.79398L7.5072 3.61146L7.50682 3.61165Z" fill="#CAA13E"/>
    <path fill-rule="evenodd" clip-rule="evenodd" d="M2.36896 5.01555C2.36896 5.01555 2.3447 4.95533 2.36896 4.83789C2.39322 4.72045 2.4311 4.66509 2.44371 4.49229C2.45632 4.31949 2.56896 4.10394 2.56896 4.10394L2.88058 3.96224L3.10099 4.0224L3.16602 4.31757L2.88736 4.47117C2.88736 4.47117 2.87283 4.53619 2.79418 4.58861C2.71552 4.64102 2.60678 4.68179 2.58061 4.73523C2.56496 4.76796 2.55354 4.80254 2.54662 4.83814C2.54662 4.83814 2.46701 4.82163 2.41946 4.87405C2.36896 4.92749 2.37088 4.97504 2.36896 5.01581V5.01555Z" fill="#F4EFC8"/>
    <path fill-rule="evenodd" clip-rule="evenodd" d="M2.99808 4.9369C2.99808 4.9369 2.97184 4.95341 2.95245 4.9945C2.93325 4.96346 2.88736 4.77894 2.88544 4.61293C2.88352 4.44691 2.8736 4.40576 2.912 4.34854C2.9504 4.29133 3.10099 4.23104 3.07962 4.128C3.05824 4.02995 2.9689 3.98918 2.8592 4.01734C2.7824 4.03654 2.72525 4.19987 2.64563 4.28141C2.58541 4.34355 2.5136 4.33382 2.49421 4.36781C2.46797 4.41344 2.49222 4.45907 2.48448 4.48819C2.4825 4.49792 2.45824 4.55034 2.41453 4.61344C2.32621 4.74061 2.1767 4.92026 2.15725 5.08141C2.16403 4.99014 2.15923 4.98822 2.18349 4.88723L2.1689 4.86298L2.2649 4.54842L2.32704 4.28922L2.46592 3.85517L2.71053 3.41152L2.94842 3.14547L3.19597 3.16198L3.22509 3.53382L3.36685 4.23194L3.6649 4.59891L3.1872 4.92038L2.99789 4.9369H2.99808Z" fill="#EBCC73"/>
    <path fill-rule="evenodd" clip-rule="evenodd" d="M3.14662 5.0688C3.14662 5.0688 3.10586 5.07853 3.09126 5.07078C3.07667 5.06304 3.06221 5.05427 3.06701 5.04454C3.07181 5.03482 3.09805 5.01837 3.09805 5.01056C3.09859 5.0035 3.09635 4.99652 3.09183 4.99108C3.0873 4.98564 3.08083 4.98218 3.07379 4.98144C3.05146 4.97856 3.04467 4.99309 3.04467 4.99309C3.04467 4.99309 3.0233 4.97664 3.00589 4.97389C3.01619 4.97263 3.02655 4.97196 3.03693 4.9719C3.0101 4.95975 2.98164 4.95158 2.95245 4.94765C2.9767 4.93312 3.02432 4.89037 3.05536 4.89037C3.0864 4.89037 3.10586 4.88557 3.10099 4.86906C3.09613 4.85254 3.07187 4.82829 3.0457 4.81856C3.05536 4.80691 3.06221 4.78944 3.03891 4.74176C3.01459 4.69421 3.02432 4.66214 3.03213 4.65056C3.03891 4.63597 3.06317 4.60979 3.07482 4.59328C3.08646 4.57677 3.09619 4.55443 3.11558 4.54278C3.12531 4.536 3.15635 4.52358 3.18746 4.51174C3.22144 4.5001 3.2496 4.4855 3.26899 4.5001C3.29037 4.51462 3.28064 4.53408 3.28064 4.53408C3.28064 4.53408 3.34765 4.50976 3.40781 4.54086C3.46803 4.56992 3.61466 4.58842 3.61466 4.58842L3.6672 4.69427L3.31962 4.99232L3.17594 5.06419L3.14682 5.06899L3.14662 5.0688Z" fill="#E5C66B"/>
    <path fill-rule="evenodd" clip-rule="evenodd" d="M3.62912 4.58157C3.62912 4.58157 3.52134 4.65344 3.49709 4.67962C3.51162 4.6816 3.53587 4.69133 3.52614 4.70586C3.5145 4.72038 3.44461 4.77088 3.40576 4.8185C3.36499 4.86605 3.32614 4.92627 3.31258 4.95539C3.29805 4.98157 3.18733 5.0583 3.1495 5.06797C3.22912 5.06797 3.38931 4.96992 3.44947 4.96992C3.44755 4.99904 3.46598 5.03206 3.49997 5.03494C3.53395 5.03782 3.632 5.05632 3.76403 4.97478C3.89606 4.89517 3.85242 4.8359 3.90771 4.79712C4.01357 4.72717 4.05626 4.66502 4.1145 4.62624C4.17274 4.58746 4.20288 4.57862 4.20288 4.57862C4.20288 4.57862 4.2048 4.5495 4.22208 4.55245C4.22681 4.55299 4.2313 4.55481 4.23507 4.55773C4.23884 4.56064 4.24174 4.56452 4.24346 4.56896C4.24346 4.56896 4.34445 4.49709 4.47386 4.4777C4.47084 4.47635 4.46842 4.47393 4.46707 4.47091C4.46707 4.47091 4.47674 4.46605 4.47872 4.46118C4.47872 4.46118 4.4855 4.45146 4.49037 4.45632C4.49523 4.46118 4.50202 4.49709 4.51174 4.51168C4.53312 4.50195 4.57389 4.41069 4.57389 4.41069L4.672 4.13011V3.87379L4.5952 3.88838L4.0192 4.13299L3.66963 4.49517L3.62886 4.58157H3.62912Z" fill="#E6BD62"/>
    <path fill-rule="evenodd" clip-rule="evenodd" d="M5.28736 3.32429C5.31852 3.31673 5.34839 3.30461 5.376 3.28832C5.36435 3.31942 5.36435 3.35341 5.31386 3.4272C5.26336 3.50099 5.26144 3.51168 5.22067 3.58835C5.1799 3.66797 5.17504 3.78253 5.13619 3.83296C5.1536 3.8245 5.17228 3.81894 5.19149 3.81651C5.19149 3.81651 5.1527 3.8505 5.13619 3.8864C5.11968 3.9223 5.09056 3.99706 5.01875 4.04275C4.94694 4.08845 4.85562 4.1175 4.75757 4.22528C4.65946 4.33107 4.55853 4.46509 4.50797 4.51328C4.53421 4.46765 4.57011 4.37638 4.57984 4.31622C4.58957 4.25606 4.57786 4.18413 4.59437 4.10458C4.61088 4.02502 4.61088 3.96768 4.69037 3.8288C4.76986 3.68992 4.90592 3.20742 4.90592 3.20742L5.1991 3.11424L5.28749 3.32397L5.28736 3.32429Z" fill="#B6933F"/>
    <path fill-rule="evenodd" clip-rule="evenodd" d="M5.07571 3.14662C5.07571 3.14662 4.98739 3.27379 4.96314 3.38643C4.93888 3.49907 4.96115 3.48934 4.94662 3.5447C4.93793 3.57846 4.93793 3.61386 4.94662 3.64762C4.97721 3.59834 5.01909 3.55705 5.0688 3.52717C5.15232 3.47674 5.22029 3.44077 5.2608 3.39808C5.30157 3.35245 5.33555 3.2777 5.42387 3.22042C5.38797 3.21555 5.33747 3.19904 5.32787 3.20122C5.36384 3.16045 5.47155 3.0983 5.58029 3.02355C5.68806 2.94675 5.68128 2.91578 5.85606 2.8391C5.79878 2.84883 5.77158 2.83424 5.72397 2.8391C5.74317 2.79834 5.81037 2.77888 5.87757 2.71194C5.94477 2.64499 5.83488 2.54592 5.83488 2.54592L5.32288 2.85562L5.07533 3.14688L5.07571 3.14662Z" fill="#C49937"/>
    <path fill-rule="evenodd" clip-rule="evenodd" d="M3.6864 2.91552L3.69805 2.82234L3.84467 2.58739L3.99808 2.17478V1.61069L3.98643 1.28448L4.01069 1.07085L4.02912 1.00294L4.04858 0.976704L4.17376 1.04173L4.34662 1.27667L4.36314 1.73011L4.19514 2.44563L3.71552 2.96896L3.6864 2.91552Z" fill="#DFC068"/>
    <path fill-rule="evenodd" clip-rule="evenodd" d="M4.06797 0.950464C4.06797 0.950464 3.99117 0.952448 3.97478 1.27187C3.9584 1.5913 3.95046 1.75923 3.93882 1.9175C3.92717 2.07578 3.90003 2.17184 3.8864 2.26509C3.87277 2.35834 3.86502 2.48544 3.82138 2.56314C3.80218 2.59904 3.76115 2.71168 3.66502 2.79616C3.55725 2.88934 3.39622 2.95443 3.37184 2.9593C3.32909 2.96896 3.11258 2.99034 3.02426 3.03891C2.99322 3.05542 2.93978 3.07482 2.88058 3.13018C2.76307 3.23597 2.60678 3.42528 2.49414 3.65344C2.32134 3.99424 2.14854 4.95635 2.14854 4.95635L2.18739 4.89133C2.18739 4.89133 2.19226 4.80493 2.27866 4.65344C2.36314 4.50202 2.33888 4.3321 2.45632 4.04179C2.50195 3.93114 2.55923 3.78746 2.62912 3.66509C2.73984 3.46605 2.87379 3.29517 3.00877 3.20198C3.22912 3.05056 3.47187 3.01754 3.47187 3.01754L3.73306 2.84474C3.73306 2.84474 3.77869 2.75642 3.83891 2.65542C3.92333 2.51373 4.03091 2.35546 4.0544 2.12538C4.09037 1.78458 4.0039 1.56128 4.00877 1.35936C4.01363 1.15744 4.01555 1.0089 4.05638 0.972928C4.09722 0.93696 4.06803 0.950592 4.06803 0.950592L4.06797 0.950464Z" fill="#A88F33"/>
    <path fill-rule="evenodd" clip-rule="evenodd" d="M4.06797 2.47475C4.06797 2.47475 4.18317 2.19123 4.2359 1.93978C4.24563 1.88928 4.26502 1.83885 4.26989 1.79808C4.29414 1.56019 4.30093 1.46214 4.26989 1.33203C4.24563 1.23603 4.15245 1.1495 4.10387 1.08243C4.05632 1.01248 4.03398 0.986432 4.04371 0.971712C4.05344 0.956992 4.09126 0.932928 4.12813 0.935808C4.16731 0.936948 4.20586 0.946047 4.24142 0.96255C4.27698 0.979054 4.30881 1.00262 4.33498 1.03181C4.40973 1.11821 4.46893 1.41146 4.46893 1.41146L4.5312 1.7984L4.68947 2.28576L4.0681 2.47514L4.06797 2.47475Z" fill="#C99E3D"/>
    <path fill-rule="evenodd" clip-rule="evenodd" d="M5.15046 2.17965C5.15046 2.17965 5.12909 2.18931 5.0903 2.17965C5.09196 2.1955 5.08921 2.2115 5.08235 2.22588C5.0755 2.24027 5.06481 2.25248 5.05146 2.26118C5.01069 2.24467 4.62906 2.2777 4.62906 2.2777C4.62906 2.2777 4.45139 2.24659 4.39603 2.01165C4.35725 1.8553 4.42515 1.63981 4.40282 1.49805C4.36883 1.28928 4.32128 1.24845 4.31642 1.18349C4.31155 1.11853 4.30669 1.10195 4.30669 1.06118C4.28531 1.05632 4.2727 1.04954 4.25139 1.04954C4.24653 1.03034 4.25619 1.01357 4.23488 0.979584C4.24653 0.984448 4.32614 0.994176 4.41933 1.0825C4.49613 1.15437 4.49613 1.18054 4.50771 1.19514C4.52224 1.20966 4.63974 1.31034 4.69024 1.41069C4.74074 1.51104 4.83878 1.83104 4.86112 1.88346C4.8679 1.90483 4.8825 1.92621 4.91872 1.97472C4.97504 2.04467 5.05754 2.16032 5.15072 2.17952L5.15046 2.17965Z" fill="#B58634"/>
    <path fill-rule="evenodd" clip-rule="evenodd" d="M4.52141 1.2C4.58022 1.29501 4.63306 1.39359 4.67962 1.49517C4.7369 1.62426 4.77088 1.73011 4.84275 1.81651C4.8039 1.70394 4.73498 1.48256 4.69421 1.4039C4.64858 1.3207 4.55539 1.2311 4.52141 1.20006V1.2Z" fill="#A88F33"/>
    <path fill-rule="evenodd" clip-rule="evenodd" d="M3.86118 2.79616C3.86118 2.79616 3.76314 2.82042 3.58061 2.91654C3.52038 2.94758 3.46317 2.97376 3.40781 2.99808C3.264 3.0631 3.10976 3.1232 2.98739 3.15635C2.99712 3.168 3.00192 3.1728 3.00192 3.1728C3.00192 3.1728 3.00192 3.22042 3.02816 3.24755C3.01363 3.26214 2.81939 3.39418 2.87674 3.8359C2.91552 3.82138 2.96115 3.80192 2.96794 3.80192C2.97965 3.8039 2.98253 3.8359 2.99706 3.8359C3.01158 3.8359 3.0592 3.8167 3.1097 3.75142C3.10778 3.77766 3.07866 4.04173 3.23494 4.21939C3.26406 4.18541 3.33786 4.07277 3.33786 4.07277L3.33978 4.03686C3.33978 4.03686 3.34656 3.91162 3.38739 3.79706C3.42822 3.6825 3.50778 3.59802 3.50778 3.59802L3.9232 3.0048L3.86106 2.7961L3.86118 2.79616Z" fill="#E6C367"/>
    <path fill-rule="evenodd" clip-rule="evenodd" d="M3.47283 3.6672C3.45381 3.68064 3.43286 3.69111 3.41069 3.69824C3.4039 3.67398 3.39418 3.59046 3.45146 3.50893C3.51846 3.41082 3.66502 3.28365 3.70579 3.18253C3.73203 3.11744 3.72038 2.95437 3.95341 2.7456C4.18643 2.53683 4.27763 2.46502 4.27763 2.46502L4.65434 2.27571L5.11744 2.45824L4.88736 3.36L4.70874 3.7824L3.99834 3.64845L3.47277 3.6672H3.47283Z" fill="#DCBA5A"/>
    <path fill-rule="evenodd" clip-rule="evenodd" d="M3.744 3.42234L3.83238 3.31168V3.23302C3.83238 3.23302 3.93043 3.20678 4.03622 3.09901C4.14202 2.99123 4.28864 2.78445 4.41779 2.79706C4.54694 2.81165 4.55955 3.07763 4.56442 3.15245C4.56928 3.22726 4.58579 3.39706 4.61197 3.48838C4.64109 3.57965 4.29741 3.92525 4.29741 3.92525L4.064 4.10291L3.744 3.42234Z" fill="#E9CE77"/>
    <path fill-rule="evenodd" clip-rule="evenodd" d="M4.01747 4.34368C4.01747 4.34368 4.08934 4.23104 4.03667 4.20678C4.06771 4.1369 4.12499 4.0631 4.12499 4.0631C4.12499 4.0631 4.16576 3.96218 4.29779 3.83789C4.42982 3.7136 4.51142 3.63104 4.5328 3.54758C4.54598 3.49319 4.55315 3.43752 4.55418 3.38157C4.56845 3.39323 4.58372 3.40362 4.59981 3.41261C4.62118 3.42234 4.72211 3.50579 4.70758 3.67379C4.69306 3.84179 4.63078 3.91168 4.63078 3.91168C4.63078 3.91168 4.57062 3.97184 4.52794 4.00294C4.48224 4.03398 4.46579 4.06989 4.38906 4.07283C4.39694 4.06656 4.40581 4.06163 4.4153 4.05824C4.4153 4.05824 4.33568 4.04858 4.29293 4.08736C4.25018 4.12614 4.1593 4.24563 4.11366 4.2816C4.06803 4.31072 4.01766 4.34374 4.01766 4.34374L4.01747 4.34368Z" fill="#CDAE50"/>
    <path fill-rule="evenodd" clip-rule="evenodd" d="M7.24563 2.4553C7.13093 2.41349 7.01039 2.38991 6.88838 2.38541C6.68448 2.37862 6.38643 2.39027 6.09421 2.39219C5.77965 2.39411 5.49421 2.28442 5.09811 2.26502C5.03309 2.22618 4.86771 2.05626 4.35149 2.41645C4.38253 2.41453 4.72627 2.33683 4.84563 2.4864C4.96602 2.63494 4.93203 2.88736 4.91558 2.94752C4.88448 3.08154 4.78349 3.27667 4.74278 3.41357C4.70208 3.55046 4.71168 3.6224 4.68256 3.7184C4.65344 3.8144 4.58938 3.86208 4.6272 3.97274C4.6777 3.9417 4.704 3.9417 4.78835 3.75238C4.8727 3.56307 4.85536 3.4281 4.9952 3.2679C5.1321 3.10675 5.36 2.88634 5.44666 2.83098C5.53331 2.77562 6.22138 2.41837 6.94182 2.75917C7.11558 2.74074 7.2457 2.45523 7.2457 2.45523L7.24563 2.4553Z" fill="#D2A83E"/>
    <path fill-rule="evenodd" clip-rule="evenodd" d="M4.64173 2.3232C4.64102 2.3159 4.6394 2.30872 4.63693 2.30182C4.63019 2.28763 4.62134 2.27453 4.61069 2.26298C4.61069 2.26298 4.43981 2.23194 4.35341 2.2416C4.20192 2.25811 4.06502 2.4455 4.00096 2.54163C3.9369 2.63776 3.85728 2.78624 3.77088 2.86298C3.77183 2.8555 3.7701 2.84793 3.76602 2.8416C3.76602 2.8416 3.77088 2.84838 3.76122 2.85811C3.75155 2.86784 3.75149 2.87264 3.75635 2.87731L3.77094 2.89184C3.77574 2.89184 3.90976 2.83162 4.09229 2.66144C4.28646 2.48378 4.43501 2.39264 4.5127 2.36141C4.55414 2.3438 4.59745 2.33098 4.64179 2.3232H4.64173Z" fill="#C29637"/>
    <path fill-rule="evenodd" clip-rule="evenodd" d="M7.95635 1.59322C7.95635 1.59322 7.92525 1.632 7.8864 1.67475C7.8 1.76602 7.68736 1.86886 7.59123 1.97472C7.50003 2.07571 7.39712 2.15437 7.28154 2.2864C7.16595 2.41843 7.03194 2.56499 6.99802 2.60774C6.96698 2.6505 6.94272 2.72038 6.94272 2.75629C6.92621 2.74464 6.90682 2.73203 6.90682 2.73203C6.91498 2.74727 6.92474 2.76161 6.93594 2.77478C6.96019 2.80877 6.99802 2.85158 7.01747 2.8777C7.04134 2.91094 7.05847 2.94853 7.0679 2.98835C7.07955 2.99027 7.1543 3.00486 7.24755 2.85146C7.3408 2.69805 7.46304 2.53011 7.46304 2.53011L7.65722 2.24173L7.77958 1.99712L7.93318 1.72333L7.95654 1.59322H7.95635Z" fill="#AC8132"/>
    <path fill-rule="evenodd" clip-rule="evenodd" d="M8.15539 1.39712C8.15539 1.39712 8.03789 1.49312 7.99226 1.55072C7.94662 1.60832 7.83866 1.75949 7.83866 1.75949L7.8775 1.75462L8.07462 1.5799L8.15142 1.44301L8.15533 1.39738L8.15539 1.39712Z" fill="#A88F33"/>
    <path fill-rule="evenodd" clip-rule="evenodd" d="M8.11942 9.11264C8.11942 9.11264 8.1175 9.03302 8.16218 8.98547C8.20781 8.93786 8.32333 8.86797 8.43597 8.60582C8.54861 8.34368 8.56115 8.28448 8.56115 8.28448C8.56115 8.28448 8.35923 8.45728 8.23475 8.49805C8.26387 8.43782 8.28038 8.39514 8.29498 8.36403C8.27846 8.3495 8.20858 8.33299 8.20179 8.32525C8.24058 8.2864 8.26195 8.19123 8.34061 8.12813C8.4416 8.05133 8.62605 7.91936 8.76941 7.80173C8.91277 7.6841 9.19462 7.4105 9.23059 7.33088C9.25197 7.36192 9.25677 7.38131 9.25677 7.38131C9.25677 7.38131 9.11507 7.56582 9.04128 7.68326C8.97619 7.78426 8.98106 7.84154 8.98106 7.84154L9.11507 7.78394C9.11507 7.78394 9.15386 7.92762 8.97818 8.14611C9.05498 8.11699 9.08595 8.13446 9.1296 8.11014C9.05773 8.15584 8.95872 8.21798 8.86554 8.3888C8.77427 8.55968 8.64998 8.75872 8.44032 8.88294C8.23642 9.01402 8.11891 9.11206 8.11891 9.11206L8.11942 9.11264Z" fill="#A67A2E"/>
    <path fill-rule="evenodd" clip-rule="evenodd" d="M7.59322 2.55635C7.59322 2.55635 7.5136 2.7223 7.50195 2.85146C7.50003 2.88256 7.49222 2.90682 7.49222 2.94272C7.4903 3.05824 7.49901 3.18739 7.47302 3.24755C7.4633 3.2233 7.45843 3.20678 7.4487 3.19712C7.43418 3.23789 7.40794 3.36506 7.38656 3.41261C7.3769 3.38157 7.35552 3.27379 7.3575 3.14662C7.35949 3.01946 7.3623 2.99514 7.3623 2.96896C7.3575 3.00774 7.33126 3.06022 7.32154 3.09126C7.30701 3.06509 7.2905 3.0311 7.27104 3.00294C7.25939 3.02214 7.24486 3.0505 7.23226 3.06509C7.23027 3.05344 7.22547 3.02234 7.22253 2.97869C7.22061 2.92819 7.21766 2.86317 7.22061 2.84954C7.22541 2.82336 7.26624 2.72045 7.35264 2.62624C7.45555 2.5136 7.56141 2.29715 7.59245 2.23014C7.62349 2.16314 7.75552 1.88454 7.75552 1.88454H7.85651L7.70989 2.2185C7.70989 2.2185 7.62157 2.40102 7.57594 2.4681C7.5303 2.53517 7.43418 2.72736 7.39142 2.80211C7.42246 2.76134 7.4487 2.73997 7.47981 2.70112C7.50989 2.67392 7.59334 2.55648 7.59334 2.55648L7.59322 2.55635Z" fill="#8C6228"/>
    <path fill-rule="evenodd" clip-rule="evenodd" d="M8.15731 1.38445C8.14082 1.43522 8.11475 1.48236 8.08051 1.52333C8.02029 1.5952 7.89114 1.69126 7.8281 1.76794C7.7705 1.84269 7.6553 2.04659 7.70765 2.28832C7.72685 2.2359 7.76301 2.13203 7.85914 2.01453C7.95526 1.89702 8.05818 1.76211 8.10874 1.65728C8.15917 1.55142 8.16595 1.46797 8.16595 1.46797L8.18515 1.44371L8.1735 1.38835L8.15699 1.38445H8.15731Z" fill="#CBA94C"/>
    <path fill-rule="evenodd" clip-rule="evenodd" d="M10.1233 7.82426C10.1233 7.82426 10.0845 7.71846 10.0728 7.62234C10.0612 7.52621 10.092 7.50714 10.0563 7.39712C10.0349 7.33011 9.99616 7.33952 9.98643 7.33011C9.9767 7.3207 9.96992 7.21946 9.97184 7.1641C9.97376 7.10874 9.96992 7.03693 9.96019 7.00582C9.94566 6.99418 9.93594 6.98445 9.91456 6.91264C9.8903 6.84077 9.87866 6.80486 9.86701 6.78355C9.85536 6.76224 9.82131 6.74278 9.82131 6.72141C9.82131 6.67866 9.86016 6.65638 9.86016 6.64461C9.85824 6.62035 9.82912 6.63981 9.82131 6.63296C9.81165 6.62131 9.84563 6.55142 9.83302 6.5417C9.82816 6.5369 9.79418 6.57766 9.78541 6.56602C9.77568 6.5543 9.76403 6.43878 9.74656 6.36211C9.73011 6.28736 9.71258 6.23302 9.71066 6.21069C9.70874 6.18931 9.57664 5.81261 9.54464 5.72134C9.51885 5.64423 9.49715 5.5658 9.47962 5.4864C9.46989 5.44077 9.4631 5.34752 9.45824 5.35725C9.45338 5.36698 9.45632 5.41453 9.44851 5.41261C9.44173 5.41062 9.41747 5.24467 9.40973 5.21843C9.40294 5.19219 9.36211 5.10323 9.35213 5.03885C9.3424 4.97376 9.32109 4.80384 9.3065 4.68832C9.2919 4.5728 9.28512 4.52525 9.28512 4.49632C9.28751 4.42556 9.28361 4.35474 9.27347 4.28467C9.25427 4.1623 9.21587 4.01376 9.18221 3.92742C9.11718 3.76429 8.94432 3.34682 8.91341 3.24294C8.91341 3.2167 8.94739 3.2313 8.94739 3.2313C8.94739 3.2313 9.03181 3.44294 9.09395 3.60602C9.15418 3.76915 9.21146 3.91283 9.22605 3.92742C9.2377 3.94195 9.32896 4.10214 9.36973 4.36429C9.4105 4.62643 9.42502 4.86816 9.44934 5.02931C9.46099 5.10611 9.47072 5.18758 9.49498 5.26912C9.52115 5.3575 9.56192 5.44877 9.61536 5.58854C9.66099 5.70605 9.69498 5.8041 9.71341 5.88858C9.73478 5.99635 9.73478 6.07789 9.74739 6.13133C9.7591 6.17696 9.77651 6.26816 9.81734 6.40013C9.85818 6.5321 9.91827 6.70208 9.95904 6.80787C10.0387 7.01952 10.0742 7.19622 10.0863 7.29043C10.0969 7.38752 10.1329 7.72346 10.1231 7.82438L10.1233 7.82426Z" fill="#A88F33"/>
    <path fill-rule="evenodd" clip-rule="evenodd" d="M8.16218 1.3728L8.15731 1.38445C8.15731 1.38445 8.17184 1.38931 8.16896 1.40877C8.16917 1.43539 8.16754 1.46199 8.1641 1.48838C8.1593 1.52237 8.14957 1.54854 8.14765 1.56992C8.14765 1.61555 8.15443 1.66797 8.09005 1.79808C8.07085 1.83398 8.05901 1.86502 8.04928 1.8864C8.02502 1.93882 8.02016 1.94662 7.99878 1.97088C8.03277 1.95168 8.15514 1.87488 8.21722 1.8864C8.17453 1.91066 8.10944 1.95827 8.06867 2.02042C8.0784 2.02234 8.11917 2.03014 8.18387 2.02042C8.29165 2.0039 8.41203 1.96506 8.51782 1.9728C8.63341 1.97958 8.58778 1.83398 8.58778 1.83398L8.4544 1.5408L8.20198 1.3632L8.16218 1.37286V1.3728Z" fill="#BE9C44"/>
    <path fill-rule="evenodd" clip-rule="evenodd" d="M8.82042 3.56896C8.82042 3.56896 8.70778 3.45632 8.66214 3.06976C8.61651 2.68141 8.62624 2.10976 8.62624 2.10976L8.53498 1.88646C8.53498 1.88646 8.51578 1.73792 8.46797 1.68262C8.42016 1.62733 8.32627 1.53408 8.28352 1.48845C8.24077 1.44282 8.19226 1.38067 8.16314 1.37094C8.17766 1.34669 8.24275 1.20979 8.49222 1.20787C8.7417 1.20595 8.81862 1.34477 8.84467 1.39526C8.87072 1.44576 8.98835 1.66406 9.032 2.08006C9.07277 2.49555 9.07475 2.52666 9.06797 2.67034C9.0631 2.74995 9.03686 2.9344 8.99117 3.13146C8.94944 3.2985 8.90381 3.48493 8.82029 3.56934L8.82042 3.56896Z" fill="#A17C34"/>
    <path fill-rule="evenodd" clip-rule="evenodd" d="M8.4672 3.90003C8.50474 3.90274 8.54224 3.89428 8.57498 3.87571C8.61088 3.87379 8.74099 3.8903 8.84096 3.76314C8.84774 3.79219 8.86528 3.87091 8.81958 3.9408C8.8439 3.91648 8.87981 3.90682 8.88467 3.90003C8.88659 3.93594 8.92058 4.04659 8.7769 4.31552C8.81568 4.27283 8.86131 4.27475 8.90208 4.26989C8.90406 4.32038 8.9312 4.49024 8.85939 4.58157C8.81184 4.64371 8.73414 4.62426 8.73414 4.62426C8.73528 4.61069 8.73528 4.59705 8.73414 4.58349C8.73222 4.55725 8.7225 4.53107 8.72934 4.5136C8.6918 4.49645 8.65761 4.47276 8.62835 4.44365C8.54387 4.36403 8.43418 4.22816 8.42643 4.12717C8.4167 4.01453 8.5177 3.99027 8.5177 3.99027C8.50924 3.9827 8.50202 3.97385 8.49632 3.96403C8.49146 3.94758 8.48659 3.92134 8.4672 3.90003Z" fill="#8C6228"/>
    <path fill-rule="evenodd" clip-rule="evenodd" d="M7.7184 2.67866C7.7184 2.67866 7.71354 2.67187 7.68736 2.70291C7.69222 2.67187 7.69709 2.64269 7.69901 2.61453C7.7114 2.58846 7.72743 2.56428 7.74662 2.54272C7.73203 2.57178 7.7223 2.59802 7.7223 2.59802C7.7223 2.59802 7.75827 2.53101 7.81069 2.49024C7.84659 2.46112 7.89222 2.44755 7.91162 2.42035C7.93299 2.39123 7.92813 2.38637 7.93299 2.3815C7.93299 2.3815 7.98061 2.35046 8.05344 2.25914C8.0631 2.24749 8.0777 2.23488 8.08742 2.22323C8.10387 2.21645 8.14272 2.19898 8.18835 2.17562C8.23597 2.14944 8.28934 2.11354 8.32237 2.09882C8.38739 2.0697 8.45638 2.07264 8.48838 2.02694C8.51264 2.02016 8.53882 1.94733 8.53402 1.88525C8.56992 1.89978 8.75437 2.01434 8.81754 2.26483C8.86317 2.4425 8.78157 2.71629 8.74758 2.84838C8.7136 2.98048 8.7088 3.07846 8.66118 3.13862C8.60096 3.2183 8.40685 3.33062 8.35923 3.38624C8.31846 3.43187 8.19616 3.54739 8.20096 3.63085C8.20582 3.69299 8.2825 3.72685 8.29907 3.73862C8.31565 3.7504 8.31552 3.76486 8.34662 3.75782C8.37773 3.75078 8.38931 3.73645 8.40198 3.73645C8.41651 3.73837 8.41651 3.74131 8.4233 3.74131C8.42822 3.74117 8.43311 3.7405 8.43789 3.73933C8.43789 3.73933 8.43302 3.82771 8.22624 3.85453C8.21165 3.85651 8.19712 3.86131 8.17862 3.86426C8.20294 3.85261 8.21747 3.85261 8.24371 3.8167C8.21459 3.81184 8.13107 3.80698 8.1097 3.80019C8.11648 3.78854 8.13882 3.75744 8.15725 3.74291C8.17376 3.72838 8.15533 3.72371 8.1408 3.73126C8.11579 3.74828 8.09179 3.76675 8.06893 3.78656C8.04467 3.80794 8.0233 3.83706 7.98445 3.86336C7.9728 3.82451 7.97472 3.75072 8.02042 3.69734C8.0087 3.69926 7.98637 3.73325 7.96506 3.72646C7.9612 3.69105 7.9635 3.65524 7.97184 3.62061C7.98349 3.5769 8.04659 3.50022 8.04659 3.50022L8.35142 2.95552L8.41645 2.54291L7.7184 2.67853V2.67866Z" fill="#92723A"/>
    <path fill-rule="evenodd" clip-rule="evenodd" d="M7.70195 2.70195C7.70195 2.70195 7.68544 2.7136 7.71846 2.73594C7.7136 2.74272 7.70195 2.76698 7.68736 2.78349C7.67091 2.80269 7.65338 2.81459 7.64659 2.8311C7.63206 2.86509 7.62042 2.88838 7.62042 2.90298C7.62042 2.91757 7.61555 3.01075 7.57478 3.07091C7.56019 3.09229 7.54368 3.12819 7.53203 3.15245C7.50778 3.19514 7.4864 3.22925 7.48154 3.24845C7.47187 3.28243 7.46509 3.37562 7.46509 3.37562C7.46509 3.37562 7.48646 3.34938 7.49421 3.33971C7.4825 3.36397 7.46989 3.39014 7.45146 3.4096C7.4631 3.39987 7.49709 3.37562 7.55437 3.32512C7.63398 3.25818 7.75827 3.14554 7.90976 3.05632C7.86406 3.07283 7.82528 3.07283 7.79424 3.0777C7.8185 3.05344 8.03693 2.79712 8.15149 2.77286C8.15844 2.76404 8.16191 2.75297 8.16122 2.74176L8.0631 2.7321L7.86406 2.77478L7.83501 2.62118L7.70195 2.70176V2.70195Z" fill="#B18E3E"/>
    <path fill-rule="evenodd" clip-rule="evenodd" d="M8.0185 3.57574C8.0185 3.57574 7.99226 3.60192 7.968 3.66701C7.94933 3.64751 7.93331 3.62562 7.92038 3.60192C7.88448 3.54176 7.82918 3.46502 7.70003 3.50874C7.69811 3.46797 7.69517 3.44659 7.70003 3.41747C7.72141 3.41267 7.78643 3.36026 7.85146 3.28352C7.89715 3.2311 7.93984 3.17088 7.96896 3.09421C7.98816 3.07962 8.02138 3.05536 8.06496 3.0272C8.1271 2.98451 8.20186 2.92621 8.2135 2.86118C8.18438 2.87283 8.12224 2.90195 8.02899 2.89715C8.06496 2.88064 8.12026 2.86317 8.11347 2.7913C8.12806 2.78157 8.13971 2.77478 8.13971 2.77478C8.12877 2.77113 8.11726 2.76949 8.10573 2.76992C8.10374 2.76314 8.10086 2.75347 8.08435 2.75827C8.06784 2.76307 8.06515 2.76314 8.06298 2.76992C8.05619 2.7719 8.03386 2.76992 8.01734 2.78163C8.00083 2.79334 7.9552 2.83206 7.93773 2.83885C7.94451 2.8272 7.95418 2.80979 7.95418 2.80979C7.95418 2.80979 7.90662 2.81459 7.87264 2.82899C7.8105 2.85037 7.73869 2.88922 7.66586 2.92704C7.67264 2.91539 7.67558 2.90784 7.68038 2.90566C7.68518 2.90349 7.6969 2.90086 7.6969 2.89888C7.6969 2.8969 7.6921 2.87968 7.69498 2.8727C7.71675 2.82658 7.74244 2.7824 7.77178 2.74067C7.80576 2.69498 7.81254 2.62995 7.81254 2.62995L7.96109 2.5552L8.37856 2.4592L8.64947 2.47571L8.61549 2.6631L8.45549 2.99027L8.31859 3.28832L8.16224 3.47091L8.01856 3.57574H8.0185Z" fill="#543E26"/>
    <path fill-rule="evenodd" clip-rule="evenodd" d="M8.69517 2.7648C8.69517 2.7648 8.53203 2.96672 8.4864 2.99782C8.51552 2.93568 8.69517 2.56576 8.76019 2.46285C8.74566 2.4512 8.72621 2.4512 8.77184 2.27085C8.73306 2.36205 8.71943 2.40966 8.68742 2.43392C8.65543 2.45818 8.65146 2.45043 8.62982 2.45043C8.63391 2.44304 8.63559 2.43456 8.63462 2.42618C8.63462 2.42618 8.49773 2.40966 8.40422 2.40966C8.31072 2.40966 8.12563 2.46016 8.02266 2.50093C7.94112 2.53491 7.89549 2.53491 7.86637 2.55622C7.83725 2.58048 7.82074 2.60672 7.80614 2.6135C7.7945 2.62029 7.7392 2.63776 7.72653 2.65619C7.71488 2.67539 7.69549 2.69696 7.69549 2.70182C7.69549 2.70669 7.69062 2.71354 7.70522 2.70861C7.71002 2.70669 7.74598 2.68723 7.78675 2.66298C7.84205 2.63194 7.90906 2.59603 7.95763 2.57466C8.09645 2.5193 8.14016 2.52902 8.20224 2.51738C8.26726 2.50573 8.36051 2.47853 8.42259 2.47853C8.48474 2.47661 8.60224 2.47853 8.62944 2.48339C8.61779 2.49312 8.60806 2.50477 8.61293 2.54554C8.61293 2.55718 8.6032 2.56979 8.59373 2.59795C8.56467 2.67757 8.50931 2.8096 8.47853 2.87661C8.43584 2.96781 8.38733 3.04454 8.36333 3.0921C8.33933 3.13965 8.28653 3.2649 8.23424 3.3319C8.18195 3.39891 8.15462 3.43968 8.13824 3.45427C8.12186 3.46886 8.00422 3.5552 8.01299 3.5863C8.03437 3.57952 8.16934 3.5287 8.26733 3.41837C8.36531 3.30803 8.38483 3.2407 8.4615 3.18048C8.53818 3.12026 8.5984 3.01933 8.6343 2.93587C8.66438 2.85818 8.6576 2.83392 8.69543 2.76499L8.69517 2.7648Z" fill="#806031"/>
    <path fill-rule="evenodd" clip-rule="evenodd" d="M5.17965 4.27187C5.17965 4.27187 5.15827 4.36019 5.1097 4.4039C5.06214 4.44666 4.97766 4.48352 4.968 4.55539C4.95635 4.6272 5.05248 4.66317 5.05248 4.66317C5.05248 4.66317 5 4.74957 5 4.81459C5 4.8816 4.99808 4.89421 5.00486 4.95827C4.99716 4.96322 4.99062 4.96977 4.98566 4.97747C4.98566 4.97747 4.99046 5.03962 5.03808 5.0784C5.0857 5.11718 5.1264 5.14054 5.15066 5.13082C5.15436 5.13873 5.15761 5.14685 5.16038 5.15514C5.16038 5.15514 5.19635 5.06387 5.22061 4.98426C5.24486 4.90272 5.26624 4.9143 5.2759 4.80461C5.28557 4.69491 5.3911 4.50656 5.3911 4.50656L5.4631 4.3456L5.34566 4.25434L5.17965 4.27181V4.27187Z" fill="#B6903C"/>
    <path fill-rule="evenodd" clip-rule="evenodd" d="M5.39808 4.43008C5.37386 4.45494 5.35151 4.48155 5.3312 4.5097C5.30016 4.55245 5.2759 4.59123 5.23027 4.60781C5.18464 4.62438 5.15552 4.62426 5.1584 4.66995C5.16128 4.71565 5.20403 4.73498 5.22829 4.75827C5.25453 4.78253 5.2759 4.8233 5.26426 4.86899C5.27878 4.86221 5.30502 4.8544 5.32928 4.80198C5.35354 4.74957 5.5232 4.43014 5.5232 4.43014H5.39808V4.43008Z" fill="#685026"/>
    <path fill-rule="evenodd" clip-rule="evenodd" d="M6.0672 3.69318C6.0672 3.69318 6.08173 3.6544 6.0672 3.62624C6.05261 3.59712 5.96429 3.58739 5.92058 3.55437C5.87494 3.52038 5.81958 3.49677 5.77395 3.51168C5.78074 3.49517 5.80794 3.4592 5.7856 3.45146C5.76422 3.44467 5.68467 3.48058 5.6633 3.49709C5.64192 3.5136 5.59334 3.53299 5.58368 3.5447C5.57402 3.55642 5.55744 3.57869 5.54771 3.56896C5.53798 3.56218 5.53318 3.5447 5.51667 3.55437C5.50016 3.56403 5.42067 3.62912 5.40602 3.66701C5.39136 3.7049 5.3584 3.78938 5.25939 3.88544C5.16038 3.9815 5.11763 4.04371 5.14675 4.07962C5.17587 4.11552 5.1895 4.08934 5.19437 4.12038C5.19811 4.15085 5.19646 4.18175 5.1895 4.21165C5.17786 4.26214 5.15846 4.3097 5.18464 4.31942C5.25165 4.3408 5.31674 4.30022 5.33126 4.31264C5.36038 4.33882 5.31475 4.43302 5.38368 4.45146C5.45363 4.47066 5.52256 4.43494 5.52256 4.43494L5.7769 4.29805L6.02157 4.16896L6.14675 3.92134L6.07962 3.71456L6.06682 3.69318H6.0672Z" fill="#D4B968"/>
    <path fill-rule="evenodd" clip-rule="evenodd" d="M5.8272 4.28448C5.8272 4.28448 5.78445 4.21946 5.83693 4.16211C5.88941 4.10477 5.9641 4.08058 5.99322 4.04467C5.98767 4.03783 5.98024 4.03278 5.97184 4.03014C5.99117 3.99555 6.02066 3.96774 6.05632 3.95046C6.04179 3.93594 6.02234 3.92429 6.00102 3.92429C5.95341 3.92429 5.92422 3.95341 5.88058 3.95341C5.83789 3.95341 5.83302 3.93203 5.83302 3.93203C5.83302 3.93203 5.9049 3.92525 5.89805 3.89318C5.89126 3.8592 5.87885 3.8592 5.87885 3.8592C5.87885 3.8592 6.01766 3.8016 6.04192 3.77088C6.06618 3.74016 6.0633 3.70387 6.06816 3.68934C6.08461 3.68934 6.18074 3.63885 6.21958 3.66022C6.25843 3.6816 6.23123 3.73984 6.23123 3.73984C6.23123 3.73984 6.3488 3.65146 6.4087 3.5648C6.46112 3.56966 6.4855 3.5289 6.5239 3.5289C6.57152 3.5289 6.64627 3.59392 6.6608 3.73274C6.67053 3.81235 6.68506 3.85798 6.67053 3.99878C6.66374 4.0784 6.66566 4.24838 6.68973 4.33274C6.70618 4.39974 6.74502 4.39296 6.74502 4.39296C6.73906 4.41338 6.72725 4.4316 6.71104 4.44538C6.6848 4.46963 6.68192 4.53376 6.6848 4.55802C6.68867 4.57575 6.69354 4.59325 6.69939 4.61043C6.69939 4.61043 6.66835 4.64634 6.66054 4.67066C6.65376 4.69491 6.62176 4.71142 6.5984 4.71142C6.57504 4.71142 6.58675 4.70944 6.55571 4.71142C6.52467 4.71341 6.51494 4.71821 6.49549 4.71142C6.47603 4.70464 6.4615 4.69683 6.46931 4.63462C6.4761 4.57248 6.2295 4.42784 6.2295 4.42784L5.8263 4.28416L5.8272 4.28448Z" fill="#CCA849"/>
    <path fill-rule="evenodd" clip-rule="evenodd" d="M5.3641 4.89805C5.3641 4.89805 5.45242 5.01555 5.81555 5.01555C5.98835 5.01555 6.04858 4.99904 6.08435 4.98931C6.1232 4.97958 6.2688 4.92237 6.41542 4.7495C6.54746 4.59322 6.51834 4.52915 6.51834 4.52915L6.44154 4.5175L6.19194 4.55149L5.45338 4.86605L5.36378 4.89805H5.3641Z" fill="#585136"/>
    <path fill-rule="evenodd" clip-rule="evenodd" d="M5.63494 4.92717C5.63494 4.92717 5.32038 4.99712 5.32038 4.79808C5.32038 4.6039 5.51456 4.4 5.56314 4.3641C5.61363 4.32813 5.73402 4.2873 5.73402 4.2873H6.02432L6.07962 4.43392L6.05536 4.7504L5.63494 4.9271V4.92717Z" fill="#252211"/>
    <path fill-rule="evenodd" clip-rule="evenodd" d="M5.92525 4.34662C5.92525 4.34662 5.86509 4.29126 5.72819 4.36582C5.5913 4.44038 5.48058 4.59622 5.47379 4.73773C5.46701 4.86291 5.5767 4.95616 5.74758 4.96102C5.87475 4.96582 5.95149 4.9513 5.99034 4.94182C5.98061 4.93018 5.93011 4.86707 5.93011 4.86707L5.92531 4.34669L5.92525 4.34662Z" fill="#C3B378"/>
    <path fill-rule="evenodd" clip-rule="evenodd" d="M5.86605 4.3776C5.86605 4.3776 5.85152 4.36595 5.80845 4.38925C5.77254 4.40845 5.72013 4.4592 5.67936 4.4951C5.65312 4.51648 5.63661 4.52614 5.62176 4.54266C5.56154 4.61453 5.51104 4.73203 5.54022 4.79027C5.56941 4.84851 5.66547 4.91552 5.91014 4.86989L5.86534 4.37766L5.86605 4.3776Z" fill="#E6D89C"/>
    <path fill-rule="evenodd" clip-rule="evenodd" d="M5.78643 4.49805C5.78643 4.49805 5.74758 4.55827 5.74758 4.6544C5.74758 4.75245 5.80294 4.90874 6.00685 4.92038C6.16314 4.93011 6.26797 4.69517 6.38157 4.6039C6.46797 4.53402 6.52038 4.53203 6.52038 4.53203C6.52038 4.53203 6.43206 4.43603 6.19616 4.31168C5.96314 4.18643 5.70195 4.16992 5.56019 4.36218C5.6272 4.35731 5.84371 4.30195 5.84371 4.30195L5.94957 4.33594L5.78643 4.49811V4.49805Z" fill="#252211"/>
    <path fill-rule="evenodd" clip-rule="evenodd" d="M6.09126 4.62522C6.08448 4.61069 6.07962 4.59123 6.10778 4.58643C6.13594 4.58163 6.14854 4.58445 6.15827 4.60563C6.168 4.62682 6.17747 4.64448 6.16307 4.65325C6.14854 4.66099 6.11066 4.65325 6.0912 4.62509L6.09126 4.62522ZM6.04563 4.48832C6.04563 4.48832 6.0359 4.4951 6.04077 4.48154C6.04269 4.46509 6.05536 4.4359 6.0864 4.44275C6.11744 4.4496 6.11072 4.48352 6.1056 4.49325C6.10048 4.50298 6.07456 4.51942 6.0551 4.51245C6.05264 4.51182 6.05035 4.51061 6.04844 4.50894C6.04653 4.50726 6.04503 4.50515 6.04409 4.50279C6.04314 4.50042 6.04276 4.49787 6.04299 4.49534C6.04321 4.4928 6.04403 4.49035 6.04538 4.48819L6.04563 4.48832Z" fill="#6F674D"/>
    <path fill-rule="evenodd" clip-rule="evenodd" d="M3.4176 4.5504C3.4176 4.5504 3.4944 4.608 3.58362 4.60576C3.67194 4.60378 3.78554 4.51258 3.83795 4.45427C3.86899 4.42029 3.89555 4.38438 3.92435 4.35622C3.94867 4.33197 3.96512 4.32032 3.97677 4.30381C3.99328 4.28461 4.01075 4.24851 4.01952 4.2368C3.99814 4.25331 3.9671 4.2825 3.93504 4.30189C3.904 4.32109 3.83699 4.35718 3.80979 4.36691C3.78362 4.37664 3.51174 4.52051 3.51174 4.52051L3.4176 4.5504Z" fill="#AC924C"/>
    <path fill-rule="evenodd" clip-rule="evenodd" d="M3.53498 3.83302C3.53498 3.83302 3.57766 3.8039 3.66022 3.78541C3.73984 3.76621 3.90003 3.75142 3.90003 3.75142L4.03206 3.80902L4.08448 4.00806L3.98848 4.21491L3.86618 4.29171L3.7273 4.06842L3.5353 3.83341L3.53498 3.83302Z" fill="#9F8E57"/>
    <path fill-rule="evenodd" clip-rule="evenodd" d="M3.36218 4.01069L3.31648 4.0448C3.31648 4.0448 3.32819 4.02342 3.33786 3.9584C3.34752 3.89338 3.39808 3.7351 3.47187 3.64384C3.54566 3.55258 3.54374 3.55744 3.54374 3.55744C3.53695 3.5562 3.52998 3.55642 3.52328 3.55808C3.51658 3.55975 3.51031 3.56283 3.5049 3.5671C3.51462 3.5456 3.57677 3.4688 3.63891 3.4304C3.70106 3.392 3.72531 3.3799 3.79034 3.4112C3.85536 3.4425 3.87187 3.45875 3.91949 3.45683C3.9671 3.45491 4.00781 3.40442 4.00781 3.40442C4.00781 3.40442 4.01754 3.43546 3.98163 3.50733C3.94573 3.5792 3.80397 3.72576 3.80397 3.72576L3.5088 3.92768L3.36218 4.01088V4.01069Z" fill="#EAC970"/>
    <path fill-rule="evenodd" clip-rule="evenodd" d="M3.58054 3.80877C3.58054 3.80877 3.79418 3.83789 3.8592 3.77773C3.86112 3.78451 3.86893 3.78451 3.86893 3.78938C3.86841 3.79304 3.8667 3.79644 3.86406 3.79904C3.87114 3.79791 3.87828 3.79727 3.88544 3.79712C3.89399 3.79966 3.90279 3.8013 3.91168 3.80198C3.91884 3.80183 3.92599 3.80117 3.93306 3.8C3.93238 3.80483 3.93074 3.80947 3.92823 3.81364C3.92573 3.81782 3.9224 3.82145 3.91846 3.82432C3.92819 3.82432 3.93766 3.82624 3.93766 3.83398C3.93766 3.84173 3.93958 3.86509 3.92794 3.86995C3.91829 3.87262 3.90801 3.87192 3.89882 3.86797C3.89959 3.88635 3.90458 3.90431 3.91341 3.92045C3.93261 3.95635 3.97357 3.99725 4.02861 3.98547C4.02861 3.98547 4.05766 4.05536 3.93536 4.21069C3.91891 4.23206 3.90138 4.26118 3.88006 4.28544C3.87164 4.3038 3.86521 4.323 3.86086 4.34272C3.86086 4.34272 4.06771 4.2631 4.12691 4.08154C4.18714 3.89901 4.19878 3.71942 4.18714 3.55149C4.18515 3.50387 4.17741 3.46995 4.16576 3.44563C4.13664 3.38541 4.05504 3.39514 4.02208 3.42912C3.97446 3.47674 3.89485 3.59514 3.78419 3.67667C3.67155 3.75821 3.66675 3.77267 3.58029 3.80877H3.58054Z" fill="#D7BC6B"/>
    <path fill-rule="evenodd" clip-rule="evenodd" d="M3.32429 4.07091C3.32429 4.07091 3.28352 4.09517 3.26214 4.18611C3.24077 4.2793 3.28134 4.3929 3.30483 4.4288C3.32832 4.4647 3.38163 4.56282 3.49222 4.56768C3.5196 4.56754 3.54667 4.56192 3.57184 4.55117C3.61045 4.53347 3.64666 4.51095 3.67962 4.48416C3.72723 4.44826 3.76602 4.41722 3.76115 4.41427C3.7495 4.40941 3.46797 4.17638 3.46797 4.17638L3.36211 4.05824L3.32422 4.07104L3.32429 4.07091Z" fill="#585136"/>
    <path fill-rule="evenodd" clip-rule="evenodd" d="M3.5904 4.45728C3.5904 4.45728 3.64768 4.45248 3.68166 4.4311C3.71565 4.40973 3.48262 4.17869 3.48262 4.17869L3.49914 4.42829L3.5904 4.45728Z" fill="#453A25"/>
    <path fill-rule="evenodd" clip-rule="evenodd" d="M3.34272 4.05338C3.34272 4.05338 3.3136 4.10874 3.3136 4.12333C3.30874 4.17088 3.32333 4.32038 3.33498 4.36794C3.34662 4.41843 3.40973 4.4951 3.49133 4.4951C3.54176 4.4951 3.61171 4.46406 3.61171 4.45632C3.61171 4.44659 3.53984 4.43712 3.52045 4.40096C3.5088 4.38176 3.50394 4.33402 3.50125 4.28576C3.49933 4.25472 3.49933 4.22074 3.51098 4.20896C3.53722 4.17984 3.54202 4.09632 3.54202 4.09632L3.6352 3.9232H3.51264L3.36602 4.01446L3.34272 4.05338Z" fill="#84754B"/>
    <path fill-rule="evenodd" clip-rule="evenodd" d="M3.30682 4.10682C3.30682 4.10682 3.40282 3.97965 3.48934 3.95046C3.57587 3.92128 3.61459 3.93882 3.61459 3.93882L3.5641 4.06797L3.49222 4.14758L3.49709 4.18835C3.49709 4.18835 3.48538 4.29613 3.55725 4.37088C3.62912 4.44563 3.6825 4.44275 3.7136 4.44275C3.7447 4.44275 3.83398 4.41651 3.87962 4.30874C3.92038 4.20781 3.95437 4.07834 3.87283 3.94854C3.79315 3.81939 3.65242 3.8144 3.62522 3.8144C3.59802 3.8144 3.38445 3.82509 3.30682 4.10662V4.10682Z" fill="#252211"/>
    <path fill-rule="evenodd" clip-rule="evenodd" d="M5.77184 4.53882C5.73594 4.5223 5.76992 4.42138 5.80582 4.39027C5.84173 4.35917 5.88736 4.32333 5.96704 4.3184C5.9961 4.31648 6.02426 4.33491 6.01946 4.35437C6.01267 4.39027 5.96218 4.44077 5.91654 4.47667C5.85344 4.52621 5.81261 4.55725 5.77184 4.53882Z" fill="#F7F7E7"/>
    <path fill-rule="evenodd" clip-rule="evenodd" d="M3.83008 3.98835C3.85632 3.98643 3.8903 4.00755 3.89709 4.03597C3.90387 4.06701 3.88058 4.12915 3.83008 4.12915C3.78931 4.12915 3.76794 4.07866 3.76794 4.06413C3.76839 4.05218 3.77173 4.04052 3.77766 4.03014C3.77958 4.0272 3.78445 3.99322 3.83008 3.98835Z" fill="#F8F6DE"/>
    <path fill-rule="evenodd" clip-rule="evenodd" d="M3.45146 4.01069C3.45146 4.01069 3.38445 4.04173 3.35341 4.10669C3.33123 4.15466 3.32452 4.20834 3.33421 4.26029C3.33907 4.28454 3.36333 4.3447 3.37984 4.36608C3.39635 4.38746 3.41869 4.40205 3.4352 4.40006C3.45171 4.39808 3.48563 4.35443 3.48563 4.32826C3.48563 4.30208 3.48762 4.19136 3.51962 4.13114C3.54778 4.07098 3.45165 4.01075 3.45165 4.01075L3.45146 4.01069Z" fill="#D4C38B"/>
    <path fill-rule="evenodd" clip-rule="evenodd" d="M3.46118 4.00582C3.44954 4.01261 3.43014 4.02234 3.43494 4.03494C3.43981 4.04659 3.48058 4.05414 3.49517 4.08256C3.51168 4.11168 3.51168 4.14272 3.50682 4.15731C3.5195 4.15129 3.53101 4.14305 3.5408 4.13299C3.56218 4.10874 3.58835 4.07578 3.61069 4.07578C3.62528 4.07578 3.63981 4.08256 3.65344 4.08256C3.67482 4.08256 3.69613 4.07578 3.69907 4.05344C3.70387 4.02432 3.6583 3.99808 3.63206 4.00294C3.63693 3.98374 3.64371 3.95539 3.62234 3.93594C3.60096 3.91648 3.53402 3.95053 3.51942 3.96026C3.50483 3.96998 3.46118 4.00589 3.46118 4.00589V4.00582Z" fill="#E2D59D"/>
    <path fill-rule="evenodd" clip-rule="evenodd" d="M5.0039 6.04563L5.14758 6.0032L5.18835 6.03232C5.18835 6.03232 5.21741 6.09446 5.2631 6.10221C5.24851 6.13325 5.21062 6.15981 5.21261 6.18182C5.21459 6.20384 5.23398 6.22067 5.23398 6.22067C5.23398 6.22067 5.10483 6.43424 5.35923 6.64947C5.29901 6.67373 5.22234 6.70707 5.18157 6.72627C5.21062 6.73306 5.27277 6.74547 5.29901 6.76902C5.32525 6.79258 5.32525 6.80006 5.3495 6.81466C5.37376 6.82925 5.38829 6.84864 5.38349 6.85734C5.36698 6.84762 5.31162 6.81856 5.30195 6.8457C5.29229 6.87283 5.06214 6.86221 5.06214 6.86221L4.67379 6.93696C4.67379 6.93696 4.68832 6.89811 4.64755 6.86221C4.6 6.81952 4.54176 6.86413 4.47962 6.81658C4.39808 6.75443 4.39514 6.68256 4.36896 6.65542C4.39514 6.63891 4.44858 6.61466 4.57574 6.59782C4.57088 6.5881 4.55437 6.55898 4.5641 6.5328C4.57574 6.49882 4.62426 6.47744 4.60973 6.4368C4.6311 6.43194 4.64077 6.43194 4.69421 6.36493C4.7447 6.29792 4.77574 6.28339 4.81459 6.27853C4.85344 6.27366 4.87674 6.27853 4.94861 6.21152C4.99904 6.16397 4.98259 6.1232 4.98259 6.1232C4.98259 6.1232 5.01555 6.11251 5.00397 6.0455L5.0039 6.04563Z" fill="#CBAC5A"/>
    <path fill-rule="evenodd" clip-rule="evenodd" d="M4.57965 6.0672C4.58157 6.05747 4.58938 6.05261 4.64179 6.05747C4.69421 6.06234 5.02624 6.02643 5.11654 6.02157C5.20781 6.01478 5.52915 6.01958 5.6855 6.05261C5.84186 6.08563 6.00006 6.12448 6.07674 6.14387C6.15354 6.16525 6.17773 6.17293 6.17478 6.18266C6.17286 6.19238 6.15558 6.20186 6.14566 6.19917C6.136 6.19725 5.8816 6.11955 5.80301 6.10317C5.72442 6.08678 5.45248 6.04294 5.30381 6.04557C5.16499 6.04755 5.10963 6.04365 4.99219 6.05722C4.87469 6.07181 4.68051 6.0912 4.62227 6.08346C4.56467 6.07667 4.57658 6.07667 4.57952 6.06694L4.57965 6.0672Z" fill="#D6BC6F"/>
    <path fill-rule="evenodd" clip-rule="evenodd" d="M5.36115 6.82816C5.36115 6.82816 5.56019 6.93594 5.63206 7.06797C5.68448 7.16602 5.60102 7.21459 5.60102 7.21459C5.60102 7.21459 5.71366 7.21459 5.69907 7.27674C5.69229 7.31552 5.5049 7.42035 5.37965 7.47571C5.25248 7.53107 5.25734 7.52819 5.1952 7.53786C5.13498 7.54758 4.96992 7.51866 4.93594 7.56698C4.90195 7.6153 4.91674 7.66509 4.92621 7.67283C4.93594 7.67962 5.01459 7.68934 5.01459 7.68934C5.01459 7.68934 4.99808 7.73498 4.83501 7.73984C4.67194 7.7447 4.6311 7.75629 4.62138 7.77382C4.61165 7.79027 4.65242 7.78061 4.72723 7.79302C4.80198 7.80467 4.90682 7.81222 4.90682 7.81222C4.90682 7.81222 4.87283 7.84134 4.78451 7.86464C4.68352 7.89082 4.52525 7.91514 4.4777 7.94426C4.50195 7.96077 4.53792 7.98502 4.5545 7.98694C4.51373 7.99667 4.45638 8.01805 4.44672 8.02579C4.46125 8.03552 4.4807 8.04717 4.4807 8.04717C4.4807 8.04717 4.3991 8.14522 4.35155 8.16954C4.304 8.19386 4.03021 8.32096 3.936 8.2967C3.70106 8.23456 3.67194 7.97728 3.61466 7.95789C3.52826 7.92877 3.48749 7.98694 3.41075 7.94618C3.44474 7.92192 3.46323 7.90739 3.49914 7.89088C3.46029 7.87168 3.25933 7.74426 3.25933 7.74426C3.23831 7.69845 3.21499 7.65374 3.18944 7.6103C3.15059 7.5433 3.09344 7.45395 3.05056 7.3753C2.95738 7.2025 2.95251 7.12288 2.86803 7.02483C2.88262 7.00563 2.93306 7.00832 2.93306 7.00832L3.6409 7.24134L4.896 7.2777L5.2224 6.81171L5.36122 6.82822L5.36115 6.82816Z" fill="#DFC677"/>
    <path fill-rule="evenodd" clip-rule="evenodd" d="M3.50195 7.53882C3.50953 7.54725 3.51836 7.55446 3.52813 7.56019C3.55245 7.5767 3.58835 7.59616 3.61261 7.62522C3.62234 7.61069 3.64659 7.58445 3.68941 7.62522C3.73222 7.66598 3.78541 7.63693 3.8185 7.64659C3.85248 7.6583 3.8544 7.6631 3.8544 7.6631C3.8544 7.6631 3.8736 7.64659 3.91654 7.62912C3.94278 7.61939 3.97382 7.61261 4.00781 7.60294C4.03885 7.59616 4.07283 7.58643 4.09619 7.58643C4.11757 7.60096 4.19424 7.68243 4.50202 7.56218C4.79232 7.44954 4.85926 7.43693 4.90784 7.45434C4.9127 7.44269 4.91757 7.42035 4.99232 7.4233C4.99232 7.39226 4.93018 7.2864 4.93018 7.2864L4.58746 7.16896H4.4L3.83789 7.27187L3.5264 7.4496L3.50214 7.5392L3.50195 7.53882Z" fill="#C4A859"/>
    <path fill-rule="evenodd" clip-rule="evenodd" d="M3.31456 7.34176C3.31456 7.34176 3.32134 7.39418 3.39904 7.44954C3.47584 7.50483 3.49997 7.53786 3.49997 7.53786C3.49997 7.53786 3.51456 7.51866 3.52621 7.49907C3.53786 7.4777 3.54758 7.45344 3.56698 7.44666C3.60582 7.43014 3.69414 7.46118 3.7136 7.45632C3.73011 7.45152 3.72525 7.41754 3.74272 7.41754C3.78349 7.41555 3.80966 7.44371 3.82426 7.44371C3.83885 7.44371 3.87469 7.44179 3.87955 7.43405C3.88442 7.4263 3.88634 7.34566 3.9417 7.30682C4.00192 7.26413 4.07571 7.28256 4.0953 7.29229C4.0953 7.30682 4.09722 7.34278 4.13606 7.3447C4.17491 7.34662 4.17875 7.33984 4.21286 7.35149C4.24698 7.36314 4.28762 7.34957 4.30605 7.40678C4.32256 7.40198 4.36141 7.39712 4.35168 7.34176C4.37088 7.32723 4.38765 7.3175 4.42848 7.26022C4.43821 7.2457 4.45466 7.22918 4.46733 7.20781C4.50131 7.20781 4.54208 7.20102 4.59642 7.24858C4.5799 7.26022 4.57018 7.26778 4.56538 7.27962C4.57959 7.29369 4.59256 7.30895 4.60416 7.32525C4.61875 7.34445 4.62848 7.368 4.64691 7.37286C4.68768 7.38451 4.75469 7.368 4.82944 7.37286C4.90131 7.37773 4.96147 7.4039 4.98771 7.42042C4.99744 7.41562 4.99744 7.41363 5.0217 7.4185C5.04595 7.42336 5.06438 7.42528 5.03821 7.39424C5.05274 7.40102 5.06925 7.41562 5.08384 7.40102C5.09843 7.38643 5.11002 7.36512 5.15078 7.36026C5.19155 7.35539 5.20614 7.36218 5.22266 7.31949C5.24403 7.26707 5.17024 7.26707 5.17024 7.26707C5.17024 7.26707 5.20422 7.23597 5.24211 7.1952C5.28774 7.15251 5.34016 7.09715 5.35277 7.02918C5.37414 6.90394 5.25184 6.88749 5.25184 6.88749L4.65862 7.07002L3.93338 7.03405L3.31494 7.34182L3.31456 7.34176Z" fill="#927D49"/>
    <path fill-rule="evenodd" clip-rule="evenodd" d="M2.78157 5.62816C2.78157 5.62816 2.76237 5.65242 2.75053 5.7097C2.73869 5.76698 2.74374 5.76019 2.73402 5.80096C2.72429 5.84173 2.6048 6.24755 2.6496 6.38445C2.6944 6.52134 2.77197 6.57184 2.82048 6.6825C2.83021 6.70675 2.83968 6.72134 2.84474 6.74272C2.86125 6.81453 2.84672 6.86989 2.86611 6.94176C2.8729 6.96602 2.89043 6.99418 2.91661 7.0233C2.97421 7.08346 3.0681 7.14074 3.10861 7.1815C3.16582 7.24173 3.24742 7.3641 3.3513 7.37568C3.40666 7.38246 3.48531 7.35917 3.55034 7.32038C3.60794 7.28442 3.64352 7.23398 3.70394 7.20518C3.74662 7.18381 3.79226 7.17606 3.83302 7.16634C3.9175 7.14982 3.99424 7.14714 4.03987 7.15661C4.10976 7.1712 4.27482 7.2217 4.36627 7.2217C4.43774 7.22054 4.5088 7.21077 4.57792 7.19258C4.71674 7.15181 4.88467 7.08186 4.99539 7.05082C5.06042 7.03162 5.11283 7.02656 5.16627 7.01491C5.25754 6.99354 5.33421 6.96442 5.37792 6.90906C5.3488 6.87507 5.3129 6.82266 5.11866 6.82458C4.8983 6.82944 4.6439 6.95174 4.51866 6.9712C4.39341 6.99066 4.33907 7.0071 4.19923 6.95661C4.06214 6.9056 4.0576 6.87187 4.0576 6.87187C4.0576 6.87187 3.91366 6.7712 3.85344 6.51456C3.79322 6.25792 3.85344 6.07091 4.00979 5.89318C4.05056 5.84755 4.04083 5.80678 4.04083 5.80678C4.04083 5.80678 4.14374 5.66797 4.11558 5.53798C4.08454 5.40883 3.8855 5.43507 3.8855 5.43507L2.78163 5.62816H2.78157Z" fill="#6E6342"/>
    <path fill-rule="evenodd" clip-rule="evenodd" d="M2.94758 6.06022C2.93902 6.07632 2.935 6.09444 2.93594 6.11264C2.93786 6.13882 2.94566 6.1728 3.02426 6.24954C3.09126 6.31648 3.07667 6.39123 3.07667 6.39123C3.07667 6.39123 3.1104 6.39802 3.20192 6.3552C3.27379 6.32122 3.29792 6.38144 3.29792 6.38144C3.31884 6.37047 3.34152 6.36323 3.36493 6.36006C3.38614 6.35811 3.40667 6.35156 3.42509 6.34086C3.42509 6.34086 3.50957 6.42726 3.58336 6.46803C3.65037 6.504 3.68922 6.52826 3.72224 6.504C3.75328 6.48262 3.75328 6.43891 3.7513 6.41952C3.74359 6.40162 3.73384 6.38468 3.72224 6.36902C3.70086 6.33798 3.66688 6.30202 3.66464 6.27302C3.65978 6.20608 3.71514 6.1264 3.70342 6.10701C3.69171 6.08762 3.64813 6.08275 3.54035 6.1216C3.42874 6.15846 2.94714 6.06042 2.94714 6.06042L2.94758 6.06022Z" fill="#39331F"/>
    <path fill-rule="evenodd" clip-rule="evenodd" d="M3.20192 6.49421C3.20192 6.49421 3.14662 6.44179 3.16602 6.18739C3.18949 6.18705 3.21293 6.18933 3.2359 6.19418C3.2359 6.19418 3.26605 6.3913 3.20192 6.49421Z" fill="#292311"/>
    <path fill-rule="evenodd" clip-rule="evenodd" d="M2.80781 5.43398C2.81552 5.42827 2.82268 5.42184 2.82918 5.41478C2.80998 5.45069 2.72134 5.59437 2.79322 5.82061C2.86509 6.04582 3.04563 6.21376 3.26797 6.22157C3.4903 6.22938 3.60717 6.12058 3.7408 5.9575C3.79322 5.89248 3.85344 5.81088 3.90682 5.75558C3.98643 5.66912 4.04858 5.64486 4.04858 5.56141C4.04858 5.39053 3.87379 5.31379 3.61651 5.23712C3.35923 5.16045 3.12717 5.16992 3.00678 5.2224C2.88934 5.27962 2.83885 5.33984 2.80774 5.43405L2.80781 5.43398Z" fill="#252211"/>
    <path fill-rule="evenodd" clip-rule="evenodd" d="M3.63398 6.57088L3.65318 6.56115C3.65318 6.56115 3.65798 6.48435 3.68909 6.4864C3.72013 6.49126 3.73472 6.5321 3.73178 6.54662C3.72986 6.56115 3.72211 6.58547 3.69101 6.58253C3.65024 6.58349 3.63379 6.57088 3.63379 6.57088H3.63398Z" fill="#3F3824"/>
    <path fill-rule="evenodd" clip-rule="evenodd" d="M3.54758 6.24467C3.54758 6.24467 3.56678 6.23789 3.59027 6.26118C3.60947 6.26118 3.69318 6.25146 3.71942 6.26797C3.74566 6.28448 3.75341 6.29901 3.75341 6.29901C3.75341 6.29901 3.65536 6.32038 3.60192 6.29901C3.54758 6.28058 3.54758 6.24467 3.54758 6.24467Z" fill="#2D2815"/>
    <path fill-rule="evenodd" clip-rule="evenodd" d="M3.97965 6.2592C3.97965 6.25434 3.92723 6.21843 3.87187 6.20672C3.86214 6.2048 3.86016 6.21158 3.85267 6.21158C3.84781 6.20966 3.84589 6.19507 3.84589 6.19507L3.8144 6.21165C3.8144 6.21165 3.80954 6.21843 3.82605 6.23085C3.84058 6.2425 3.8649 6.25222 3.87168 6.27162C3.87846 6.29101 3.87846 6.29779 3.88141 6.30074C3.88333 6.30266 3.91731 6.30074 3.93382 6.29101C3.95034 6.28128 3.98144 6.26541 3.97946 6.25901L3.97965 6.2592Z" fill="#82764F"/>
    <path fill-rule="evenodd" clip-rule="evenodd" d="M3.48934 6.45632C3.48934 6.45632 3.49901 6.38938 3.5641 6.38643C3.63104 6.38157 3.64371 6.44659 3.64371 6.44659L3.60486 6.48544C3.60486 6.48448 3.57574 6.44371 3.48966 6.45632H3.48934Z" fill="#2D2816"/>
    <path fill-rule="evenodd" clip-rule="evenodd" d="M3.91168 6.16794C3.91168 6.16794 3.87571 6.20678 3.79616 6.21843C3.78938 6.2087 3.77478 6.18931 3.79616 6.15827C3.81754 6.12723 3.84179 6.1175 3.86605 6.12717C3.87675 6.1289 3.88673 6.13366 3.89482 6.14089C3.9029 6.14811 3.90876 6.1575 3.91168 6.16794Z" fill="#574F35"/>
    <path fill-rule="evenodd" clip-rule="evenodd" d="M4.05824 6.21555C4.06022 6.20582 4.05344 6.2039 4.05824 6.19904C4.06304 6.19418 4.08934 6.18451 4.09421 6.18931C4.09613 6.1913 4.09421 6.19904 4.09421 6.20851C4.09421 6.21798 4.09421 6.22771 4.08934 6.23469C4.08256 6.24442 4.06317 6.24928 4.05344 6.2464C4.04371 6.24352 4.04179 6.22989 4.04179 6.2272C4.04659 6.22528 4.05824 6.22042 4.05824 6.21555ZM4.224 6.11072C4.224 6.10586 4.24051 6.09613 4.25024 6.09613C4.26477 6.09613 4.26477 6.10778 4.26675 6.11072C4.27155 6.11264 4.27155 6.10874 4.27642 6.1175C4.28128 6.12627 4.28813 6.14176 4.2832 6.15149C4.27827 6.16122 4.25894 6.16794 4.25414 6.16602C4.24736 6.16115 4.22598 6.1175 4.224 6.11072Z" fill="#82764F"/>
    <path fill-rule="evenodd" clip-rule="evenodd" d="M3.8903 6.23789C3.8903 6.23789 3.91168 6.24269 3.9408 6.26701C3.93107 6.27379 3.91648 6.28154 3.91648 6.28154C3.91648 6.28154 3.91456 6.2592 3.8903 6.23782V6.23789Z" fill="#6E6342"/>
    <path fill-rule="evenodd" clip-rule="evenodd" d="M3.84275 6.02426C3.83789 6.01946 3.85728 6.00781 3.86893 6.00973C3.88058 6.01165 3.88544 6.01946 3.89805 6.02138C3.91066 6.0233 3.91264 6.01651 3.91725 6.01165C3.92186 6.00678 3.93862 6.00973 3.9415 6.01165C3.9433 6.01378 3.94492 6.01605 3.94637 6.01843C3.94657 6.01474 3.94753 6.01113 3.9492 6.00782C3.95086 6.00452 3.95319 6.0016 3.95603 5.99923C3.95976 5.9965 3.96405 5.99464 3.96859 5.99379C3.97314 5.99295 3.97781 5.99315 3.98227 5.99437C3.98419 6.00115 3.99392 6.02541 3.992 6.03027C3.99008 6.03514 3.96096 6.04198 3.95603 6.03706C3.9609 6.04877 3.98227 6.07302 3.98515 6.07782C3.98803 6.08262 3.96378 6.09434 3.95411 6.09242C3.94054 6.09146 3.85702 6.04288 3.8425 6.02445L3.84275 6.02426ZM3.96992 5.8631C3.96812 5.85821 3.96468 5.8541 3.96019 5.85146C3.95341 5.84954 3.93107 5.85146 3.93107 5.8631C3.93107 5.87475 3.95027 5.9399 3.97184 5.97382C3.99616 6.00781 4.01261 6.0359 4.02912 6.04371C4.0343 6.04607 4.04019 6.04638 4.04559 6.04458C4.051 6.04277 4.05552 6.03899 4.05824 6.03398C4.06016 6.02912 4.06502 5.99322 4.0631 5.90874C4.06118 5.82426 4.05824 5.74272 4.05338 5.73786C4.04851 5.73299 4.02912 5.73306 4.02234 5.74272C4.01555 5.75238 3.97184 5.84858 3.96986 5.8631H3.96992Z" fill="#585136"/>
    <path fill-rule="evenodd" clip-rule="evenodd" d="M3.88352 6.36019C3.88352 6.36019 3.84954 6.33882 3.81651 6.35341C3.78547 6.368 3.78739 6.42528 3.78739 6.42528C3.79438 6.42801 3.80192 6.429 3.80937 6.42815C3.81682 6.4273 3.82395 6.42465 3.83014 6.42042C3.85152 6.40589 3.87866 6.38163 3.88352 6.36026V6.36019Z" fill="#574F35"/>
    <path fill-rule="evenodd" clip-rule="evenodd" d="M3.94758 6.43693C3.94566 6.41773 3.92838 6.41773 3.92838 6.40781C3.92957 6.40307 3.93232 6.39886 3.93619 6.39587C3.94005 6.39287 3.94481 6.39126 3.9497 6.3913C3.95942 6.3913 3.9689 6.40294 3.9808 6.4105C3.99245 6.41728 4.00992 6.4297 4.01184 6.44448C4.01376 6.45926 3.99264 6.49978 3.96915 6.49978C3.94566 6.49978 3.95264 6.45606 3.94778 6.43667L3.94758 6.43693ZM4.13498 6.41069C4.13498 6.41069 4.09613 6.42234 4.09901 6.41069C4.10189 6.39904 4.11072 6.39616 4.12333 6.39616C4.12973 6.38946 4.13835 6.38529 4.14758 6.38445C4.15287 6.38419 4.15805 6.38592 4.16211 6.38931C4.16211 6.38931 4.18835 6.37766 4.1961 6.38445C4.20384 6.39123 4.19808 6.39123 4.20288 6.39904C4.20899 6.40771 4.213 6.41768 4.21459 6.42816C4.21459 6.4359 4.18547 6.45242 4.16211 6.44954C4.13498 6.44371 4.13978 6.41555 4.13498 6.41069ZM4.36115 6.36698C4.36115 6.36698 4.3728 6.37376 4.36314 6.38157C4.35635 6.38835 4.32237 6.40077 4.29318 6.40294C4.26406 6.40294 4.23789 6.40774 4.23789 6.39808C4.23789 6.38842 4.26214 6.36896 4.27667 6.3641C4.27959 6.36045 4.28329 6.3575 4.2875 6.35549C4.29171 6.35347 4.29632 6.35243 4.30099 6.35245C4.31264 6.35245 4.35821 6.34758 4.37088 6.34566C4.38253 6.34368 4.39226 6.35046 4.38541 6.36019C4.38253 6.36698 4.36115 6.36698 4.36115 6.36698ZM4.42816 6.0672C4.42816 6.0672 4.41357 6.09824 4.39712 6.09824C4.38061 6.09632 4.38061 6.09146 4.38061 6.08659C4.38061 6.07981 4.39712 6.06234 4.39514 6.05747C4.39034 6.05747 4.37862 6.05747 4.38061 6.04582C4.38061 6.0361 4.39712 6.02445 4.41165 6.02662C4.42263 6.0176 4.43629 6.01249 4.4505 6.0121C4.46701 6.0121 4.48154 6.0169 4.48154 6.02662C4.48154 6.03635 4.46234 6.05766 4.4553 6.06259C4.44755 6.07034 4.43782 6.07539 4.42816 6.06739V6.0672ZM4.20678 6.64096C4.20678 6.64096 4.18758 6.64294 4.18758 6.65261C4.18758 6.65747 4.19238 6.65747 4.19923 6.65459C4.20318 6.65437 4.20708 6.6537 4.21088 6.65261C4.2128 6.65459 4.2128 6.66426 4.22739 6.66426C4.23937 6.66264 4.25092 6.65868 4.26138 6.65261C4.27302 6.64781 4.28275 6.64288 4.28275 6.63341C4.27789 6.6169 4.26816 6.60909 4.25363 6.60909C4.24619 6.60862 4.23876 6.61031 4.23226 6.61395C4.23226 6.61395 4.22739 6.60422 4.21088 6.61395C4.19437 6.62368 4.19629 6.62368 4.20115 6.62854C4.20986 6.63629 4.20698 6.64134 4.20698 6.64134L4.20678 6.64096ZM4.09709 6.74195C4.09709 6.73709 4.12134 6.72736 4.12813 6.7303C4.13491 6.73222 4.1543 6.76909 4.1543 6.77299C4.1543 6.77786 4.13005 6.7895 4.12032 6.7895C4.11059 6.7895 4.09414 6.77299 4.09414 6.7703C4.09414 6.76838 4.10579 6.7655 4.10579 6.76352C4.10867 6.75872 4.09709 6.74701 4.09709 6.74214V6.74195ZM4.02029 6.60019C4.02515 6.59827 4.02515 6.59341 4.03194 6.58854C4.03406 6.58713 4.03648 6.58622 4.03901 6.58589C4.04154 6.58556 4.04411 6.58581 4.04653 6.58662C4.04824 6.58357 4.05061 6.58094 4.05347 6.57891C4.05632 6.57688 4.05959 6.57552 4.06304 6.57491C4.07469 6.57299 4.08442 6.57491 4.08224 6.57978C4.08224 6.59437 4.09197 6.60403 4.09197 6.61568C4.09197 6.62733 4.08518 6.64192 4.06093 6.65165C4.03667 6.65843 4.00365 6.65843 3.99878 6.65651C3.99392 6.65459 3.98906 6.63514 3.99392 6.62541C3.99878 6.61568 4.01235 6.60506 4.02016 6.60019H4.02029Z" fill="#82764F"/>
    <path fill-rule="evenodd" clip-rule="evenodd" d="M4.0512 6.60678C4.0512 6.60678 4.03469 6.61651 4.03469 6.62138C4.03322 6.62607 4.03257 6.63099 4.03277 6.6359C4.03277 6.63878 4.05414 6.63398 4.05702 6.63104C4.05798 6.62912 4.0512 6.61184 4.0512 6.60678Z" fill="#6E6342"/>
    <path fill-rule="evenodd" clip-rule="evenodd" d="M3.90682 6.56115C3.91648 6.56314 3.93299 6.56115 3.9456 6.56602C3.95533 6.57088 3.96211 6.58061 3.95238 6.59226C3.94266 6.6039 3.93318 6.62138 3.91162 6.61843C3.88736 6.61651 3.86406 6.6039 3.86406 6.59418C3.86366 6.58802 3.86448 6.58185 3.86648 6.57601C3.86848 6.57018 3.87162 6.5648 3.87571 6.56019C3.88544 6.55245 3.89024 6.55731 3.90675 6.56115H3.90682Z" fill="#585136"/>
    <path fill-rule="evenodd" clip-rule="evenodd" d="M3.89517 6.57088C3.89517 6.57088 3.86413 6.59514 3.85632 6.60685C3.84659 6.6185 3.79904 6.67866 3.78451 6.69126C3.78934 6.68275 3.79484 6.67464 3.80096 6.66701C3.78176 6.67929 3.76737 6.69779 3.76019 6.71942C3.74854 6.75539 3.82528 6.77478 3.87571 6.78938C3.92614 6.80397 3.94566 6.80858 3.94566 6.80858C3.9271 6.78067 3.91116 6.7511 3.89805 6.72026C3.87885 6.67462 3.86893 6.66976 3.88154 6.64838C3.89126 6.62701 3.90586 6.61248 3.90586 6.59597C3.90003 6.58061 3.89517 6.57088 3.89517 6.57088Z" fill="#574F35"/>
    <path fill-rule="evenodd" clip-rule="evenodd" d="M2.78835 6.64762C2.79542 6.64891 2.80266 6.64891 2.80973 6.64762C2.82426 6.64563 2.97574 6.59002 3.13402 6.6C3.2525 6.60716 3.36994 6.62646 3.48448 6.6576C3.68352 6.71002 3.93107 6.81389 4.09126 6.87315C4.13395 6.8896 4.17574 6.91878 4.20646 6.93037C4.32883 6.97798 4.33363 6.97798 4.4055 6.99059C4.48998 7.00224 4.57638 6.97408 4.66669 6.95469C4.77734 6.93037 4.96666 6.91872 5.13267 6.89446C5.18636 6.88702 5.23931 6.87501 5.29094 6.85856C5.29094 6.85856 5.15891 6.99059 4.84237 7.03814C4.71442 7.05757 4.5844 7.05921 4.456 7.04301C4.35501 7.03328 4.28806 7.01869 4.23757 7.00416C4.18029 6.98765 4.06278 6.94394 3.91814 6.90816C3.81715 6.88192 3.70451 6.86253 3.57542 6.83827C3.25696 6.77997 2.91136 6.71302 2.78822 6.648L2.78835 6.64762Z" fill="#252211"/>
    <path fill-rule="evenodd" clip-rule="evenodd" d="M2.43104 6.04762C2.35424 6.11264 2.27277 6.17478 2.19322 6.23494L1.95341 6.4192C1.87187 6.47936 1.79226 6.5415 1.71066 6.60173C1.62906 6.66195 1.54758 6.71917 1.46106 6.77453C1.53786 6.7095 1.61933 6.64928 1.70086 6.59008C1.7824 6.53088 1.86694 6.47283 1.9456 6.4128L2.18541 6.22829C2.2679 6.16813 2.34752 6.10598 2.43104 6.04774V6.04762ZM2.00678 6.72723C2.00678 6.72723 2.09318 6.65536 2.20096 6.55443C2.33491 6.42925 2.49901 6.26899 2.55142 6.23994L2.00672 6.7273L2.00678 6.72723Z" fill="#CFB66C"/>
    <path fill-rule="evenodd" clip-rule="evenodd" d="M2.00678 6.72717C2.04954 6.68448 2.09517 6.64275 2.1408 6.60192L2.21069 6.54176C2.23206 6.52256 2.25638 6.50099 2.2777 6.47962C2.32038 6.43693 2.36218 6.39123 2.40486 6.34758C2.42602 6.32563 2.44839 6.30489 2.47187 6.28544C2.48361 6.27505 2.49665 6.26623 2.51066 6.2592C2.52237 6.25242 2.53498 6.24 2.55142 6.23782C2.54176 6.25242 2.53011 6.2592 2.52038 6.27181C2.50874 6.28154 2.49901 6.29318 2.48934 6.30285C2.46797 6.32422 2.44371 6.34362 2.42234 6.36307C2.3767 6.40192 2.32915 6.43987 2.28352 6.48051C2.23789 6.52115 2.1952 6.56499 2.1495 6.60576C2.10003 6.64755 2.0544 6.68832 2.00678 6.72736V6.72717ZM2.58739 6.33882C2.58739 6.33882 2.27091 6.64858 2.20582 6.69901L2.58739 6.33882Z" fill="#CFB66C"/>
    <path fill-rule="evenodd" clip-rule="evenodd" d="M2.58739 6.33882C2.55892 6.37177 2.5284 6.4029 2.496 6.432L2.4 6.52326C2.36896 6.5543 2.33978 6.58541 2.30682 6.61645C2.27283 6.64557 2.24179 6.67405 2.20582 6.70093L2.29901 6.60966C2.33011 6.57862 2.3641 6.55245 2.39712 6.52134L2.4903 6.43008C2.5223 6.39808 2.55341 6.36698 2.58739 6.33882ZM2.60192 6.50675C2.57275 6.58817 2.53837 6.66763 2.49901 6.74464C2.41747 6.90778 2.29517 7.11162 2.24173 7.21555L2.60192 6.50675Z" fill="#CFB66C"/>
    <path fill-rule="evenodd" clip-rule="evenodd" d="M2.60192 6.50682C2.60192 6.54272 2.59219 6.57382 2.58054 6.60486C2.56919 6.63593 2.55624 6.66639 2.54176 6.69613C2.52717 6.72525 2.51066 6.75635 2.49414 6.78451C2.47763 6.81267 2.45824 6.84173 2.44365 6.87091L2.3456 7.04371C2.31162 7.10131 2.27859 7.15923 2.24269 7.21459C2.26694 7.15245 2.29997 7.09421 2.33107 7.03693C2.36506 6.97933 2.3961 6.92173 2.42707 6.86214C2.4422 6.83245 2.4558 6.80201 2.46784 6.77094C2.48237 6.73984 2.4969 6.71072 2.50861 6.68256C2.52314 6.65152 2.53478 6.62234 2.54938 6.59424C2.56582 6.5641 2.57946 6.53498 2.60179 6.50682H2.60192Z" fill="#CFB66C"/>
    <path fill-rule="evenodd" clip-rule="evenodd" d="M2.94758 7.30291C2.94758 7.30291 2.85158 7.43008 2.86118 7.59123C2.88736 7.50682 2.92038 7.37766 2.94758 7.30291ZM3.03885 7.4304C3.03885 7.4304 3.00486 7.776 2.9767 7.94592C3.01651 7.7495 3.02426 7.76602 3.03885 7.4304ZM3.67475 7.96634C3.67475 7.96634 3.53107 8.38874 3.52813 8.50611C3.55923 8.38541 3.61939 8.13882 3.67475 7.96602V7.96634Z" fill="#DEC270"/>
    <path fill-rule="evenodd" clip-rule="evenodd" d="M4.01069 7.2768C4.01069 7.2768 4.24371 7.66125 4.4185 7.98938C4.3712 7.82426 4.2624 7.52141 4.01069 7.2768Z" fill="#CBAF59"/>
    <path fill-rule="evenodd" clip-rule="evenodd" d="M4.63693 7.84275C4.76487 8.06891 4.88024 8.30194 4.98253 8.5408C4.96314 8.37574 4.91066 8.09325 4.63693 7.84275Z" fill="#E3C677"/>
    <path fill-rule="evenodd" clip-rule="evenodd" d="M6.4777 8.4096C6.51648 8.38534 6.59322 8.25325 6.66022 8.22029C6.72717 8.1863 6.77766 8.17952 6.83789 8.11251C6.89805 8.04256 6.91469 7.99987 7.04659 7.94458C7.2311 7.8649 7.10419 7.76198 7.10419 7.76198C7.12452 7.74202 7.14625 7.72354 7.16922 7.70669C7.21683 7.67078 7.27213 7.62707 7.26733 7.55034C7.26054 7.42125 7.23629 7.23386 7.13043 7.12512C7.23334 7.10374 7.4304 7.08922 7.55283 7.05818C7.69453 7.02221 7.75962 6.97171 7.75962 6.97171C7.75962 6.97171 7.67808 6.8329 7.81011 6.69312C7.94214 6.55334 8.04992 6.46982 8.12954 6.31347C8.03827 6.30182 7.89914 6.25331 7.54406 6.38822C7.56323 6.39724 7.58173 6.40761 7.59942 6.41926C7.59942 6.41926 7.38099 6.47949 7.30138 6.5465C7.1625 6.66394 7.14502 6.76006 6.99456 6.83194C6.8441 6.90381 6.69261 6.88435 6.56742 6.94259C6.44224 7.00083 6.42374 7.05037 6.37805 7.07174C6.38778 7.08339 6.37613 7.10278 6.39456 7.1193C6.38291 7.13581 6.31494 7.24646 6.24602 7.24646C6.2528 7.2727 6.31104 7.2921 6.31104 7.2921C6.31104 7.2921 6.26835 7.3232 6.15962 7.33094C6.21491 7.38854 6.26739 7.45133 6.41203 7.54259C6.40038 7.56685 6.35181 7.60282 6.37126 7.64845C6.39264 7.69408 6.44806 7.75622 6.66931 7.80672C6.55667 7.81152 6.4247 7.83776 6.24691 7.8135C6.06925 7.79213 6.04013 7.77952 5.93043 7.80672C5.94208 7.81837 5.97312 7.81837 6.00032 7.84941C5.9712 7.85133 5.78867 7.82803 5.72653 7.90963C5.6615 7.99405 5.63334 8.13293 5.63821 8.22611C5.60422 8.24262 5.5712 8.27174 5.58771 8.33197C5.60422 8.39219 5.69062 8.41158 5.74598 8.44941C5.80128 8.49018 5.80614 8.5047 5.85862 8.49504C5.91392 8.48339 5.99546 8.4281 6.04307 8.4281C6.09069 8.4281 6.12461 8.464 6.12461 8.464C6.12461 8.464 6.25376 8.40186 6.26637 8.4135C6.27802 8.42515 6.26829 8.4999 6.2809 8.51155C6.2937 8.52032 6.43917 8.43392 6.47802 8.4096H6.4777Z" fill="#ECD592"/>
    <path fill-rule="evenodd" clip-rule="evenodd" d="M9.30003 4.52429C8.69325 2.95731 7.19322 2.66701 7.19322 2.66701H2.9136L2.93011 4.2631H3.7824V7.8272H2.91354V9.42041H7.07475C8.07763 9.42041 8.88154 8.41261 8.88154 8.41261C10.1689 6.58547 9.29997 4.52429 9.29997 4.52429H9.30003ZM7.09709 7.33882C7.09709 7.33882 6.77069 7.80973 6.41555 7.80973H5.70515L5.68832 4.26701H6.6C6.6 4.26701 7.0224 4.35533 7.3175 5.19123C7.3175 5.19123 7.70874 6.38803 7.09709 7.33882Z" fill="white" fill-opacity="0.8"/>
</svg>
