<svg width="12" height="12" viewBox="0 0 12 12" fill="none" xmlns="http://www.w3.org/2000/svg">
	<g clip-path="url(#clip0_7886_54746)">
		<rect width="12" height="12" rx="6" fill="white"/>
		<path d="M6.15764 1L6.08867 1.22787V7.84011L6.15764 7.90703L9.31531 6.09276L6.15764 1Z" fill="#62688F"/>
		<path d="M6.15764 1L3 6.09276L6.15764 7.90703L6.15767 4.69767L6.15764 1Z" fill="#8A92B2"/>
		<path d="M6.15766 8.48819L6.11879 8.53424V10.8897L6.15766 11L9.31723 6.67483L6.15766 8.48819Z" fill="#62688F"/>
		<path d="M6.15766 11V8.48819L3 6.67483L6.15766 11Z" fill="#8A92B2"/>
		<path d="M6.15764 7.90703L9.31531 6.09276L6.15767 4.69767L6.15764 7.90703Z" fill="#454A75"/>
		<path d="M3 6.09276L6.15764 7.90703L6.15767 4.69767L3 6.09276Z" fill="#62688F"/>
	</g>
	<defs>
		<clipPath id="clip0_7886_54746">
			<rect width="12" height="12" fill="white"/>
		</clipPath>
	</defs>
</svg>
