<svg width="20" height="20" viewBox="0 0 20 20" fill="none" xmlns="http://www.w3.org/2000/svg">
	<path
		d="M3.29373 8.78673C3.29373 8.18207 3.49306 7.63088 3.83762 7.19455L7.48199 10.8377C7.03777 11.1823 6.48658 11.381 5.88921 11.381C4.44957 11.3816 3.28583 10.2179 3.29373 8.78673ZM14.1351 11.3737C15.5668 11.3816 16.7306 10.2179 16.7306 8.77883C16.7306 8.18207 16.5312 7.63088 16.1867 7.18665L12.5423 10.8298C12.9792 11.175 13.5304 11.3737 14.1351 11.3737ZM10.0009 11.8483L2.06861 3.91905C2.29042 3.63587 2.52803 3.36058 2.77293 3.09987C4.59542 1.19413 7.15991 0 10.0088 0C12.8571 0 15.4295 1.19413 17.2441 3.09987C17.4969 3.35268 17.7339 3.63587 17.9332 3.91115L10.0009 11.8483ZM3.86011 3.85038L10.0082 9.99666L16.1569 3.85038C14.5258 2.20473 12.3515 1.30169 10.0088 1.30169C7.66613 1.30169 5.49847 2.20473 3.86011 3.85038ZM10.0009 20C15.5212 20 20.0006 15.5225 20.0006 10.0039C20.0158 8.0982 19.4877 6.3298 18.5689 4.82209L16.953 6.43736C17.489 7.08031 17.8105 7.89159 17.8105 8.79463C17.8105 10.8231 16.1642 12.4688 14.1351 12.4688C13.2393 12.4688 12.4202 12.1473 11.7766 11.6113L10.0082 13.3791L8.23919 11.6113C7.59624 12.1473 6.78436 12.4688 5.88071 12.4688C3.8516 12.4688 2.20534 10.8231 2.20534 8.79463C2.20534 7.89888 2.52681 7.08031 3.0628 6.43736L2.23573 5.61089L1.44693 4.8227C0.528091 6.33831 0 8.1061 0 10.0046C0.0012154 15.5298 4.48057 20 10.0009 20Z"
		fill="#F0EBDE" />
</svg>
	