<svg aria-hidden="true" focusable="false" data-prefix="fab" data-icon="logo" role="img"
    xmlns="http://www.w3.org/2000/svg" viewBox="0 0 34 34" class="w-32">
    <path
        d="M4.04488 5.76296C4.25199 5.50346 4.47157 5.25143 4.69116 5.00191C4.70114 4.98943 4.7236 4.98694 4.73358 4.97446C4.75354 4.94951 4.78598 4.93454 4.80594 4.90958L4.8259 4.88463C4.97811 4.7424 5.1428 4.59019 5.32995 4.45544C5.99369 3.9514 6.68238 3.56713 7.411 3.31511C9.74158 2.49666 12.3367 3.0007 14.3728 4.92206C17.2149 7.587 16.9604 11.8764 14.6922 14.7285C11.8251 18.9804 6.89947 24.9116 13.719 30.2265C14.9467 31.1822 15.855 31.9707 19.7176 33.0861C17.1899 33.5527 14.8494 33.408 12.2418 32.7418C10.3978 31.7013 7.49833 29.473 6.51021 26.4612C5.01804 21.8949 9.13523 15.0703 11.124 12.4428C13.8563 8.80469 9.43466 4.86716 6.18083 9.26382C4.47906 11.5545 1.5047 18.0397 2.53774 22.848C3.1416 25.5754 3.94757 27.5641 7.144 30.2939C6.55263 29.9446 5.97622 29.5478 5.41728 29.1037C-2.00613 22.1868 -1.14277 11.4946 4.04488 5.76296Z"
        fill="url(#paint0_linear_2317_6346)"></path>
    <path
        d="M29.3167 27.5955C29.1096 27.855 28.89 28.107 28.6705 28.3565C28.6605 28.369 28.638 28.3715 28.628 28.384C28.6081 28.4089 28.5756 28.4239 28.5557 28.4489L28.5357 28.4738C28.3835 28.6161 28.2188 28.7683 28.0317 28.903C27.3679 29.4071 26.6767 29.7913 25.9506 30.0433C23.62 30.8618 21.025 30.3577 18.9888 28.4364C16.1467 25.7714 16.4012 21.4821 18.6694 18.63C21.5365 14.3781 26.4622 8.44682 19.6401 3.1319C18.4149 2.17622 17.5042 1.38771 13.6415 0.272329C16.1692 -0.194286 18.5097 -0.0495606 21.1173 0.616675C22.9613 1.6572 25.8608 3.88797 26.8489 6.89726C28.3411 11.4636 24.2239 18.2881 22.2352 20.9157C19.5029 24.5538 23.9245 28.4913 27.1783 24.0946C28.8801 21.804 31.8544 15.3188 30.8214 10.5104C30.2175 7.78308 29.4116 5.79435 26.2151 3.06453C26.8065 3.41387 27.3829 3.81062 27.9418 4.25477C35.3653 11.1692 34.5044 21.8639 29.3167 27.5955Z"
        fill="url(#paint1_linear_2317_6346)"></path>
    <defs>
        <linearGradient id="paint0_linear_2317_6346" x1="5.88942e-05" y1="18.1495" x2="33.3618"
            y2="18.1495" gradientUnits="userSpaceOnUse">
            <stop stop-color="#0082FA"></stop>
            <stop offset="1" stop-color="#00F2FE"></stop>
        </linearGradient>
        <linearGradient id="paint1_linear_2317_6346" x1="-0.000138779" y1="15.2115" x2="33.3616"
            y2="15.2115" gradientUnits="userSpaceOnUse">
            <stop stop-color="#0082FA"></stop>
            <stop offset="1" stop-color="#00F2FE"></stop>
        </linearGradient>
    </defs>
</svg>