<svg width="25" height="24" viewBox="0 0 25 24" fill="none" xmlns="http://www.w3.org/2000/svg">
    <rect width="24" height="24" rx="12" fill="black" />
    <path
        d="M23.9901 12C23.9901 13.5759 23.6798 15.1363 23.077 16.5922C22.4742 18.0481 21.5906 19.371 20.4768 20.4853C19.363 21.5996 18.0406 22.4835 16.5853 23.0865C15.13 23.6896 13.5702 24 11.995 24C10.4198 24 8.86004 23.6896 7.40473 23.0865C5.94943 22.4835 4.62711 21.5996 3.51326 20.4853C2.39942 19.371 1.51587 18.0481 0.913067 16.5922C0.31026 15.1363 -2.98224e-07 13.5759 0 12C6.02292e-07 8.8174 1.26376 5.76516 3.51327 3.51472C5.76277 1.26429 8.81375 1.32614e-07 11.995 0C15.1763 -1.20558e-07 18.2273 1.26429 20.4768 3.51472C22.7263 5.76516 23.9901 8.8174 23.9901 12Z"
        fill="black" />
    <path
        d="M4.6911 6.65081L0 11.3157L0.00245094 12.0468C0.00245094 12.9196 0.0514697 13.4501 0.198526 14.257C0.482835 15.7948 1.13969 17.3987 2.01957 18.7018C2.20339 18.9757 2.68623 19.6187 2.69603 19.6065C2.70094 19.6016 3.32347 17.9757 4.07836 15.9929C8.2131 5.12273 9.39935 1.99812 9.392 1.99323C9.3871 1.98834 7.27194 4.08364 4.6911 6.65081Z"
        fill="url(#paint0_linear_10344_71853)" />
    <path
        d="M4.31856 21.2348L4.41414 21.3179C4.5661 21.4499 5.02688 21.7898 5.30628 21.9756C6.95577 23.0807 8.77191 23.7311 10.8209 23.956C11.1273 23.9878 11.4214 24 12.0219 24C12.6223 24 12.9165 23.9878 13.2228 23.956C15.2154 23.7384 16.9728 23.1198 18.6149 22.0612C18.9188 21.8656 19.6026 21.3619 19.6786 21.2764C19.7276 21.2226 19.7276 21.2226 19.6541 21.1541C19.6149 21.1174 17.8845 19.3962 15.8061 17.3302L12.0317 13.5724L4.31856 21.2348Z"
        fill="url(#paint1_linear_10344_71853)" />
    <path
        d="M4.31856 21.2348L4.41414 21.3179C4.5661 21.4499 5.02688 21.7898 5.30628 21.9756C6.95577 23.0807 8.77191 23.7311 10.8209 23.956C11.1273 23.9878 11.4214 24 12.0219 24C12.6223 24 12.9165 23.9878 13.2228 23.956C15.2154 23.7384 16.9728 23.1198 18.6149 22.0612C18.9188 21.8656 19.6026 21.3619 19.6786 21.2764C19.7276 21.2226 19.7276 21.2226 19.6541 21.1541C19.6149 21.1174 17.8845 19.3962 15.8061 17.3302L12.0317 13.5724L4.31856 21.2348Z"
        fill="url(#paint2_linear_10344_71853)" />
    <path d="M13.4066 12.2766L21.0051 19.8131C24.9983 15.5809 25.4933 8.73212 21.5 4.5"
        fill="url(#paint3_linear_10344_71853)" />
    <path
        d="M19.4595 3.13518L12.4454 10.072L6.31117 16.1824L12.5243 0H13.0206C14.2375 0.0304624 15.7234 0.458386 17.2115 1.15566C18.2311 1.6334 19.0104 2.18101 19.7478 2.79779L19.7852 2.81309L19.7764 2.82177L19.7774 2.82259L19.4595 3.13518Z"
        fill="url(#paint4_linear_10344_71853)" />
    <defs>
        <linearGradient id="paint0_linear_10344_71853" x1="6.47303" y1="21.8826" x2="9.29036"
            y2="5.07222" gradientUnits="userSpaceOnUse">
            <stop stop-color="#7D0000" />
            <stop offset="1" stop-color="#FF3100" />
        </linearGradient>
        <linearGradient id="paint1_linear_10344_71853" x1="21.2446" y1="5.585" x2="9.4578"
            y2="14.574" gradientUnits="userSpaceOnUse">
            <stop stop-color="#D5006F" />
            <stop offset="1" stop-color="#D9121E" />
        </linearGradient>
        <linearGradient id="paint2_linear_10344_71853" x1="14.1766" y1="9.38335" x2="1.06754"
            y2="14.0388" gradientUnits="userSpaceOnUse">
            <stop stop-color="#D8131F" stop-opacity="0.2" />
            <stop offset="1" stop-color="#7B0000" />
        </linearGradient>
        <linearGradient id="paint3_linear_10344_71853" x1="16.792" y1="1.96478" x2="13.6132"
            y2="17.3067" gradientUnits="userSpaceOnUse">
            <stop stop-color="#FF8201" />
            <stop offset="1" stop-color="#EF004C" />
        </linearGradient>
        <linearGradient id="paint4_linear_10344_71853" x1="15.8147" y1="1.54947" x2="9.95355"
            y2="11.2441" gradientUnits="userSpaceOnUse">
            <stop stop-color="#FF8700" />
            <stop offset="1" stop-color="#FF1800" />
        </linearGradient>
    </defs>
</svg>
    