<svg width="12" height="12" viewBox="0 0 12 12" fill="none" xmlns="http://www.w3.org/2000/svg">
    <circle cx="6" cy="6" r="6" fill="#333333"/>
    <rect width="12" height="12" rx="6" fill="#3E5C98"/>
    <path d="M5.50177 8.34246L6.13878 6.19439L7.13134 5.91292L7.33874 5.20183L6.361 5.49812L7.398 1.97232V1.91603C7.39723 1.89345 7.39202 1.87126 7.38267 1.8507C7.37332 1.83014 7.36001 1.81163 7.3435 1.79622C7.32699 1.78081 7.30761 1.7688 7.28645 1.76089C7.2653 1.75298 7.24279 1.74931 7.22022 1.75011H5.90175C5.85184 1.74857 5.80285 1.76378 5.76258 1.79331C5.72231 1.82284 5.69308 1.86499 5.67954 1.91306L4.44996 6.09069L3.47221 6.38697L3.25 7.06843L4.22774 6.77214L3.3537 9.74981H8.56832C8.61835 9.75188 8.6676 9.73688 8.70798 9.70727C8.74836 9.67766 8.77747 9.63519 8.79054 9.58686L9.08682 8.56467V8.50838C9.08606 8.48581 9.08085 8.46361 9.0715 8.44305C9.06215 8.42249 9.04884 8.40398 9.03233 8.38857C9.01582 8.37316 8.99643 8.36115 8.97528 8.35324C8.95413 8.34533 8.93162 8.34166 8.90905 8.34246H5.50177Z" fill="white"/>
</svg>
