<svg width="12" height="12" viewBox="0 0 12 12" fill="none" xmlns="http://www.w3.org/2000/svg">
    <circle cx="6" cy="6" r="6" fill="#333333"/>
    <circle cx="6" cy="6" r="6" fill="white"/>
    <path d="M7.98093 3.05954L6.61275 5.0909C6.59326 5.12016 6.58503 5.15548 6.58957 5.19033C6.59411 5.22519 6.61112 5.25722 6.63746 5.2805C6.66379 5.30379 6.69766 5.31675 6.73281 5.31699C6.76796 5.31723 6.80201 5.30473 6.82866 5.28181L8.17548 4.11363C8.18337 4.10657 8.19315 4.10196 8.20362 4.10036C8.21409 4.09876 8.2248 4.10025 8.23443 4.10463C8.24407 4.10902 8.25223 4.11612 8.2579 4.12506C8.26358 4.134 8.26652 4.1444 8.26639 4.15499V7.81226C8.26638 7.82346 8.26293 7.83438 8.25651 7.84355C8.25008 7.85272 8.24099 7.85969 8.23046 7.86351C8.21994 7.86733 8.20849 7.86783 8.19768 7.86492C8.18687 7.86201 8.17721 7.85585 8.17002 7.84726L4.09911 2.97408C4.03363 2.89676 3.9521 2.83463 3.86018 2.79201C3.76826 2.74938 3.66816 2.72729 3.56684 2.72726H3.42457C3.23964 2.72726 3.06229 2.80073 2.93152 2.93149C2.80076 3.06225 2.72729 3.23961 2.72729 3.42454V8.57545C2.72729 8.76037 2.80076 8.93773 2.93152 9.06849C3.06229 9.19926 3.23964 9.27272 3.42457 9.27272V9.27272C3.5438 9.27275 3.66106 9.24223 3.76514 9.18406C3.86922 9.12589 3.95666 9.04202 4.01911 8.94045L5.3873 6.90908C5.40678 6.87983 5.41501 6.84451 5.41047 6.80965C5.40593 6.7748 5.38892 6.74276 5.36259 6.71948C5.33625 6.6962 5.30238 6.68324 5.26723 6.683C5.23208 6.68276 5.19803 6.69525 5.17139 6.71817L3.82457 7.88636C3.81667 7.89342 3.8069 7.89803 3.79643 7.89963C3.78596 7.90122 3.77525 7.89974 3.76561 7.89535C3.75597 7.89097 3.74782 7.88387 3.74214 7.87493C3.73647 7.86598 3.73352 7.85558 3.73366 7.84499V4.18681C3.73366 4.17561 3.73711 4.16469 3.74354 4.15552C3.74997 4.14635 3.75906 4.13938 3.76958 4.13556C3.78011 4.13174 3.79155 4.13125 3.80236 4.13416C3.81318 4.13706 3.82283 4.14323 3.83002 4.15181L7.90048 9.0259C7.96596 9.10322 8.04749 9.16535 8.13941 9.20798C8.23133 9.2506 8.33143 9.27269 8.43275 9.27272H8.57502C8.66663 9.27278 8.75735 9.25479 8.842 9.21977C8.92665 9.18476 9.00357 9.13341 9.06836 9.06865C9.13316 9.0039 9.18456 8.92701 9.21963 8.84239C9.2547 8.75776 9.27275 8.66705 9.27275 8.57545V3.42454C9.27275 3.23961 9.19929 3.06225 9.06852 2.93149C8.93776 2.80073 8.76041 2.72726 8.57548 2.72726C8.45624 2.72723 8.33899 2.75776 8.23491 2.81593C8.13082 2.8741 8.04338 2.95797 7.98093 3.05954V3.05954Z" fill="black"/>
</svg>
