<svg width="24" height="24" viewBox="0 0 24 24" fill="none" xmlns="http://www.w3.org/2000/svg">
    <path d="M12 24C18.6274 24 24 18.6274 24 12C24 5.37258 18.6274 0 12 0C5.37258 0 0 5.37258 0 12C0 18.6274 5.37258 24 12 24Z" fill="#F5F0FD"/>
    <path d="M15.598 14.7136L19.0219 12.7373C19.2047 12.6335 19.3134 12.4359 19.3134 12.2284V8.27577C19.3134 8.06826 19.1998 7.87062 19.0219 7.76687L15.598 5.79056C15.4152 5.6868 15.1928 5.6868 15.01 5.79056L11.5861 7.76687C11.4032 7.87062 11.2946 8.06826 11.2946 8.27577V15.3411L8.89333 16.7245L6.49211 15.3411V12.5693L8.89333 11.1809L10.4793 12.095V10.2373L9.18978 9.4912C9.10084 9.44179 8.99709 9.41215 8.89827 9.41215C8.79946 9.41215 8.6957 9.44179 8.60676 9.4912L5.1828 11.4675C4.99999 11.5713 4.8913 11.7689 4.8913 11.9764V15.929C4.8913 16.1366 5.00493 16.3342 5.1828 16.4379L8.60676 18.4143C8.78957 18.518 9.01191 18.518 9.19472 18.4143L12.6187 16.4379C12.8015 16.3342 12.9102 16.1366 12.9102 15.929V8.86372L12.9547 8.83902L15.3114 7.47536L17.7126 8.86372V11.6355L15.3114 13.0189L13.7304 12.1049V13.9626L15.0199 14.7037C15.1928 14.8174 15.4201 14.8174 15.598 14.7136Z" fill="url(#paint0_linear_5726_50925)"/>
    <defs>
    <linearGradient id="paint0_linear_5726_50925" x1="6.11167" y1="16.4706" x2="18.517" y2="7.42497" gradientUnits="userSpaceOnUse">
    <stop stop-color="#A726C1"/>
    <stop offset="0.88" stop-color="#803BDF"/>
    <stop offset="1" stop-color="#7B3FE4"/>
    </linearGradient>
    </defs>
    </svg>
    