<svg width="24" height="24" viewBox="0 0 24 24" fill="none" xmlns="http://www.w3.org/2000/svg">
<rect width="24" height="24" rx="12" fill="black"/>
<path d="M23.9901 12C23.9901 13.5759 23.6798 15.1363 23.077 16.5922C22.4742 18.0481 21.5906 19.371 20.4768 20.4853C19.363 21.5996 18.0406 22.4835 16.5853 23.0865C15.13 23.6896 13.5702 24 11.995 24C10.4198 24 8.86004 23.6896 7.40473 23.0865C5.94943 22.4835 4.62711 21.5996 3.51326 20.4853C2.39942 19.371 1.51587 18.0481 0.913067 16.5922C0.31026 15.1363 -2.98224e-07 13.5759 0 12C6.02292e-07 8.8174 1.26376 5.76516 3.51327 3.51472C5.76277 1.26429 8.81375 1.32614e-07 11.995 0C15.1763 -1.20558e-07 18.2273 1.26429 20.4768 3.51472C22.7263 5.76516 23.9901 8.8174 23.9901 12Z" fill="white"/>
<path fill-rule="evenodd" clip-rule="evenodd" d="M11.9694 24C15.5343 24 18.7371 22.4534 20.9401 19.9962C19.9153 19.1079 18.3709 19.0539 17.2799 19.932L17.0715 20.0997C15.074 21.7075 12.1633 21.4701 10.4541 19.56C9.52196 18.5182 7.92551 18.4118 6.86272 19.3206L4.45971 21.3756C6.51788 23.0179 9.12869 24 11.9694 24ZM15.8701 18.1893C17.7727 16.6579 20.447 16.7128 22.2769 18.1918C23.3707 16.3841 24 14.2654 24 12C24 9.48281 23.223 7.14663 21.8952 5.21713C21.0392 5.0353 20.1113 5.24767 19.407 5.87022L19.2065 6.0474C17.2855 7.74539 14.367 7.64221 12.5713 5.81285C11.5919 4.8151 9.99222 4.78233 8.9726 5.73914L6.17618 8.36331L4.63783 6.73233L7.43424 4.10813C9.34422 2.31579 12.3409 2.37717 14.1755 4.2462C15.134 5.22277 16.6921 5.27785 17.7176 4.37141L17.918 4.19423C18.5406 3.64399 19.2607 3.27305 20.0149 3.07796C17.8834 1.16449 15.0628 0 11.9694 0C5.86223 0 0.817902 4.53907 0.0422493 10.4195C1.89725 9.53162 4.18539 9.87328 5.69786 11.4182C6.6527 12.3935 8.19017 12.4964 9.26711 11.6572L10.8306 10.4388C12.7957 8.90756 15.5734 8.98167 17.4536 10.6155L20.4976 13.2609L19.0229 14.9493L15.9788 12.304C14.9097 11.3749 13.3302 11.3327 12.2128 12.2034L10.6493 13.4219C8.67061 14.9638 5.84591 14.7747 4.09162 12.9827C3.07151 11.9407 1.4031 11.9044 0.33835 12.901L0 13.2177C0.253212 15.724 1.27965 18.0028 2.83776 19.8129L5.40149 17.6206C7.39236 15.9181 10.3829 16.1173 12.1291 18.0688C13.0415 19.0885 14.5953 19.2152 15.6616 18.357L15.8701 18.1893Z" fill="url(#paint0_linear_10344_71639)"/>
<defs>
<linearGradient id="paint0_linear_10344_71639" x1="12" y1="0" x2="12" y2="24" gradientUnits="userSpaceOnUse">
<stop stop-color="#8D2E5B"/>
<stop offset="1" stop-color="#E03C3F"/>
</linearGradient>
</defs>
</svg>
