<svg width="12" height="12" viewBox="0 0 12 12" fill="none" xmlns="http://www.w3.org/2000/svg">
	<circle cx="6" cy="6" r="6" fill="#333333"/>
	<circle cx="6" cy="6" r="6" fill="black"/>
	<g clip-path="url(#clip0_7886_54737)">
		<path d="M9.23905 7.76912L8.15852 8.89804C8.13503 8.92256 8.10661 8.94211 8.07503 8.95547C8.04345 8.96884 8.00938 8.97573 7.97495 8.97571H2.85274C2.8283 8.97571 2.80439 8.96875 2.78395 8.95569C2.76351 8.94264 2.74743 8.92405 2.73769 8.90221C2.72795 8.88038 2.72497 8.85624 2.72911 8.83278C2.73326 8.80931 2.74435 8.78753 2.76102 8.77013L3.84236 7.64121C3.86579 7.61675 3.89412 7.59724 3.92559 7.58388C3.95708 7.57052 3.99103 7.5636 4.02538 7.56354H9.14731C9.17175 7.56354 9.19566 7.5705 9.21611 7.58355C9.23652 7.59661 9.25259 7.6152 9.26238 7.63704C9.2721 7.65888 9.27508 7.683 9.27093 7.70647C9.26679 7.72994 9.25571 7.75171 9.23905 7.76912ZM8.15852 5.49581C8.13503 5.47128 8.10661 5.45173 8.07503 5.43837C8.04345 5.42501 8.00938 5.41812 7.97495 5.41814H2.85274C2.8283 5.41814 2.80439 5.4251 2.78395 5.43815C2.76351 5.45121 2.74743 5.4698 2.73769 5.49163C2.72795 5.51347 2.72497 5.53761 2.72911 5.56107C2.73326 5.58453 2.74435 5.60631 2.76102 5.62372L3.84236 6.75264C3.86579 6.77709 3.89412 6.7966 3.92559 6.80996C3.95708 6.82332 3.99103 6.83025 4.02538 6.8303H9.14731C9.17175 6.8303 9.19566 6.82335 9.21611 6.81029C9.23652 6.79723 9.25259 6.77864 9.26238 6.75681C9.2721 6.73497 9.27508 6.71084 9.27093 6.68737C9.26679 6.66391 9.25571 6.64213 9.23905 6.62472L8.15852 5.49581ZM2.85274 4.6849H7.97495C8.00938 4.68491 8.04345 4.67803 8.07503 4.66467C8.10661 4.65131 8.13503 4.63175 8.15852 4.60723L9.23905 3.47831C9.25571 3.46091 9.26679 3.43913 9.27093 3.41567C9.27508 3.3922 9.2721 3.36807 9.26238 3.34623C9.25259 3.32439 9.23652 3.30581 9.21611 3.29275C9.19566 3.27969 9.17175 3.27274 9.14731 3.27274H4.02538C3.99103 3.27279 3.95708 3.27972 3.92559 3.29307C3.89412 3.30643 3.86579 3.32595 3.84236 3.3504L2.7613 4.47932C2.74464 4.49671 2.73356 4.51847 2.7294 4.5419C2.72525 4.56534 2.72821 4.58945 2.73791 4.61128C2.74762 4.63311 2.76366 4.65169 2.78405 4.66477C2.80445 4.67785 2.82832 4.68484 2.85274 4.6849Z" fill="url(#paint0_linear_7886_54737)"/>
	</g>
	<defs>
		<linearGradient id="paint0_linear_7886_54737" x1="3.27981" y1="9.11162" x2="8.49464" y2="3.07726" gradientUnits="userSpaceOnUse">
			<stop offset="0.08" stop-color="#9945FF"/>
			<stop offset="0.3" stop-color="#8752F3"/>
			<stop offset="0.5" stop-color="#5497D5"/>
			<stop offset="0.6" stop-color="#43B4CA"/>
			<stop offset="0.72" stop-color="#28E0B9"/>
			<stop offset="0.97" stop-color="#19FB9B"/>
		</linearGradient>
		<clipPath id="clip0_7886_54737">
			<rect width="6.54545" height="5.70297" fill="white" transform="translate(2.72729 3.27274)"/>
		</clipPath>
	</defs>
</svg>
