<svg width="12" height="12" viewBox="0 0 12 12" fill="none" xmlns="http://www.w3.org/2000/svg">
    <circle cx="6" cy="6" r="6" fill="white"/>
    <path d="M5.61801 8.64272C5.86561 9.55692 6.75037 10.2547 7.19708 10.227C7.21266 10.227 8.89215 9.91186 9.81155 8.37262C10.5266 7.17447 10.2842 6.01787 9.31116 5.9919C8.96487 6.01787 5.15572 6.9009 5.61801 8.64272Z" fill="url(#paint0_linear_6462_53106)"/>
    <path d="M9.21939 2.76971C8.60694 2.24742 7.85919 1.90911 7.06257 1.79391C6.26594 1.6787 5.45298 1.7913 4.71766 2.11869C4.62441 2.15754 4.53363 2.20207 4.44582 2.25201C4.38696 2.28318 4.32636 2.31607 4.27268 2.3507H4.28826C4.11362 2.47025 3.95979 2.61765 3.8329 2.78702C2.61224 4.40245 6.71573 5.58329 8.91292 5.58675C9.92408 6.31395 10.208 3.5402 9.21939 2.76971Z" fill="url(#paint1_linear_6462_53106)"/>
    <path d="M4.96702 2.80259C4.40257 3.65273 2.52224 4.2518 2.21231 4.15831L2.2504 4.08039C2.35557 3.87121 2.47654 3.67036 2.61227 3.47958C2.88785 3.10912 3.21764 2.78226 3.59053 2.50998C3.70569 2.42299 3.82533 2.34208 3.94894 2.26758C4.13855 2.15917 4.35217 2.09967 4.57052 2.09444C5.40854 2.11002 4.97048 2.78701 4.96702 2.78701" fill="url(#paint2_linear_6462_53106)"/>
    <path d="M4.50301 8.81067C4.54457 9.07731 4.50301 10.1318 4.44761 10.2218C4.40086 10.2218 4.3039 10.2304 4.01994 10.0712C3.87117 9.98659 3.72777 9.89291 3.59055 9.79066C3.40618 9.65406 3.23253 9.50356 3.07112 9.34049C2.9076 9.17949 2.75707 9.0058 2.62094 8.82106C2.34366 8.4449 2.12799 8.02702 1.98204 7.58308C1.90556 7.35733 1.84765 7.1257 1.8089 6.89051C1.73041 6.40598 1.73041 5.91198 1.8089 5.42745C1.84805 5.19234 1.90595 4.96075 1.98204 4.73487C1.9959 4.68986 2.01148 4.64484 2.02879 4.59982C2.35257 5.03268 2.72137 5.42399 3.04861 5.86031C3.37585 6.29663 3.77062 6.95457 3.85546 7.10001C4.37489 7.99863 4.46838 8.55442 4.50821 8.82106" fill="url(#paint3_linear_6462_53106)"/>
    <path d="M10.75 6.15119C10.7506 6.71831 10.6443 7.28045 10.4366 7.80818C9.90678 8.37782 6.33137 6.97362 6.29674 6.95804C5.80675 6.74334 4.31945 6.09233 4.1844 5.06385C3.9974 3.58694 6.98066 2.55847 8.29482 2.51865C8.45238 2.51865 8.93199 2.51865 9.21075 2.75412C9.69515 3.17749 10.0832 3.69977 10.3487 4.28576C10.6142 4.87175 10.7511 5.50785 10.75 6.15119Z" fill="url(#paint4_linear_6462_53106)"/>
    <path d="M8.32602 10.1508C7.93644 10.3343 7.50705 10.201 7.61959 9.8201C7.83256 9.09117 9.69731 8.34146 10.1146 8.30164C10.1648 8.30164 10.1873 8.33107 10.1648 8.37089C9.73431 9.12753 9.09626 9.74516 8.32602 10.1508Z" fill="url(#paint5_linear_6462_53106)"/>
    <defs>
        <linearGradient id="paint0_linear_6462_53106" x1="7.90177" y1="10.227" x2="7.90177" y2="5.9919" gradientUnits="userSpaceOnUse">
            <stop stop-color="#4366C2"/>
            <stop offset="0.15" stop-color="#3458B8"/>
            <stop offset="0.4" stop-color="#2348AC"/>
            <stop offset="0.67" stop-color="#193FA5"/>
            <stop offset="1" stop-color="#163CA3"/>
        </linearGradient>
        <linearGradient id="paint1_linear_6462_53106" x1="6.72093" y1="5.70622" x2="6.72093" y2="1.74816" gradientUnits="userSpaceOnUse">
            <stop stop-color="#4366C2"/>
            <stop offset="0.15" stop-color="#3458B8"/>
            <stop offset="0.4" stop-color="#2348AC"/>
            <stop offset="0.67" stop-color="#193FA5"/>
            <stop offset="1" stop-color="#163CA3"/>
        </linearGradient>
        <linearGradient id="paint2_linear_6462_53106" x1="2.21058" y1="3.13676" x2="5.08476" y2="3.13676" gradientUnits="userSpaceOnUse">
            <stop stop-color="#58C66B"/>
            <stop offset="1" stop-color="#5491F6"/>
        </linearGradient>
        <linearGradient id="paint3_linear_6462_53106" x1="1.74657" y1="7.40648" x2="4.52033" y2="7.40648" gradientUnits="userSpaceOnUse">
            <stop stop-color="#58C66B"/>
            <stop offset="1" stop-color="#5491F6"/>
        </linearGradient>
        <linearGradient id="paint4_linear_6462_53106" x1="4.17574" y1="5.2318" x2="10.75" y2="5.2318" gradientUnits="userSpaceOnUse">
            <stop stop-color="#58C66B"/>
            <stop offset="1" stop-color="#5491F6"/>
        </linearGradient>
        <linearGradient id="paint5_linear_6462_53106" x1="7.60401" y1="9.26604" x2="10.1769" y2="9.26604" gradientUnits="userSpaceOnUse">
            <stop stop-color="#58C66B"/>
            <stop offset="1" stop-color="#5491F6"/>
        </linearGradient>
    </defs>
</svg>
