<svg width="12" height="12" viewBox="0 0 12 12" fill="none" xmlns="http://www.w3.org/2000/svg">
    <circle cx="6" cy="6" r="6" fill="white"/>
    <rect width="12" height="12" rx="6" fill="white"/>
    <path fill-rule="evenodd" clip-rule="evenodd" d="M5.65594 8.55989C5.88681 9.44405 6.71939 10.117 7.1369 10.09C7.15164 10.09 8.72838 9.78543 9.59289 8.29956C10.2658 7.14279 10.035 6.02532 9.12134 6.00076C8.79224 6.02532 5.21387 6.87754 5.65349 8.56235L5.65594 8.55989ZM6.44923 1.90909C5.85488 1.90909 5.29 2.0368 4.77916 2.26521C4.69074 2.30205 4.60233 2.34625 4.51882 2.39292C4.45988 2.42484 4.40339 2.45432 4.34691 2.4887L4.35919 2.49361C4.18972 2.6115 4.04482 2.74658 3.92448 2.90622C2.74315 4.47068 6.70465 5.6078 8.82171 5.61271C9.79673 6.31267 10.0693 3.6381 9.11888 2.89639C8.37717 2.25784 7.42916 1.90909 6.44923 1.91154V1.90909Z" fill="#0E3BA5"/>
    <path fill-rule="evenodd" clip-rule="evenodd" d="M4.95844 2.82517C4.42303 3.61109 2.63753 4.16614 2.34527 4.08018L2.34282 4.07772L2.37966 4.0065C2.68665 3.4318 3.12136 2.93324 3.65186 2.55501C3.76237 2.47642 3.87535 2.40274 3.99324 2.33398C4.24129 2.19153 4.49917 2.18416 4.58267 2.1817C5.37596 2.19644 4.96335 2.82026 4.95844 2.82763V2.82517Z" fill="#5493F6"/>
    <path fill-rule="evenodd" clip-rule="evenodd" d="M4.509 8.72198C4.54829 8.97986 4.509 10.0016 4.45497 10.0875C4.4083 10.09 4.31252 10.0973 4.03499 9.94261C3.49468 9.63807 3.02313 9.223 2.65473 8.7269C2.38457 8.36341 2.1709 7.95817 2.026 7.52838C1.87618 7.08384 1.80005 6.61721 1.80005 6.14811C1.80005 5.63236 1.89092 5.11906 2.07266 4.63768C2.39194 5.05766 2.76034 5.43588 3.0747 5.85831C3.37433 6.26109 3.78448 6.91684 3.86799 7.05683C4.38866 7.9287 4.4697 8.46411 4.509 8.72444V8.72198Z" fill="#5493F6"/>
    <path fill-rule="evenodd" clip-rule="evenodd" d="M10.5237 6.19478C10.5237 6.75229 10.4181 7.28769 10.2241 7.77643C9.71814 8.32166 6.30678 6.97824 6.27485 6.9635C5.80822 6.75965 4.38866 6.13338 4.26095 5.15344C4.07675 3.74371 6.92814 2.76131 8.1807 2.72447C8.33051 2.72693 8.78732 2.73184 9.05503 2.94797C9.99076 3.76581 10.5262 4.94959 10.5237 6.19232V6.19478ZM7.54214 9.68227C7.74599 8.96021 9.52903 8.22096 9.92199 8.18167C9.97111 8.17676 9.99076 8.21114 9.97111 8.25043C9.56096 8.99705 8.95187 9.61105 8.21754 10.0114C7.84668 10.1907 7.43653 10.0605 7.54214 9.68473V9.68227Z" fill="#5493F6"/>
</svg>
