<svg width="108" height="108" viewBox="0 0 108 108" fill="none" xmlns="http://www.w3.org/2000/svg">
<path d="M54 107.333C83.4548 107.333 107.333 83.4553 107.333 54.0001C107.333 24.5449 83.4548 0.666748 54 0.666748C24.5451 0.666748 0.667236 24.5449 0.667236 54.0001C0.667236 83.4553 24.5451 107.333 54 107.333Z" fill="#FF007A"/>
<path d="M42.819 23.6106C41.869 23.4639 41.829 23.4439 42.2757 23.3773C43.1323 23.2439 45.159 23.4273 46.5556 23.7573C49.8123 24.5339 52.7756 26.5173 55.9422 30.0406L56.7822 30.9739L57.9822 30.7839C63.0488 29.9673 68.2054 30.6173 72.5153 32.6073C73.702 33.1539 75.572 34.2439 75.8053 34.5273C75.882 34.6139 76.0186 35.1906 76.1086 35.8039C76.4286 37.9273 76.2686 39.5539 75.622 40.7706C75.2686 41.4306 75.2486 41.6373 75.4853 42.2039C75.5976 42.438 75.7734 42.6358 75.9926 42.7749C76.2118 42.9139 76.4657 42.9887 76.7253 42.9906C77.7986 42.9906 78.9519 41.2573 79.4853 38.8473L79.6986 37.8906L80.1186 38.3673C82.4252 40.9806 84.2352 44.5439 84.5452 47.0773L84.6285 47.7406L84.2385 47.1406C83.5719 46.1073 82.9052 45.4006 82.0452 44.8306C80.4986 43.8073 78.8619 43.4606 74.5286 43.2306C70.6154 43.0239 68.3987 42.6906 66.2054 41.9739C62.4688 40.7573 60.5855 39.1339 56.1455 33.3106C54.1756 30.7239 52.9556 29.2939 51.7456 28.1439C48.9889 25.5239 46.2823 24.1506 42.819 23.6106Z" fill="white"/>
<path d="M76.9244 31.3401C77.0244 29.6067 77.2578 28.4634 77.7311 27.4201C77.9178 27.0067 78.0944 26.6667 78.1211 26.6667C78.0914 26.9007 78.0297 27.1295 77.9378 27.3467C77.5944 28.3601 77.5378 29.7467 77.7744 31.3567C78.0744 33.4034 78.2478 33.6967 80.4077 35.9067C81.4244 36.9434 82.6044 38.2501 83.031 38.8134L83.8077 39.8334L83.031 39.1034C82.081 38.2134 79.8944 36.4701 79.4111 36.2234C79.0877 36.0568 79.0378 36.0601 78.8378 36.2568C78.6544 36.4434 78.6144 36.7167 78.5911 38.0201C78.5511 40.0467 78.2744 41.3534 77.6044 42.6534C77.2444 43.3534 77.1878 43.2068 77.5144 42.4101C77.7578 41.8167 77.7811 41.5567 77.7811 39.5934C77.7811 35.6467 77.3111 34.7001 74.5611 33.0734C73.7337 32.5933 72.8838 32.1528 72.0145 31.7534C71.585 31.5811 71.1684 31.3784 70.7678 31.1467C70.8445 31.0701 73.5245 31.8501 74.6011 32.2667C76.2078 32.8834 76.4711 32.9634 76.6678 32.8867C76.7978 32.8368 76.8611 32.4567 76.9244 31.3401ZM44.9015 38.0901C42.9715 35.4334 41.7782 31.3567 42.0348 28.3101L42.1148 27.3667L42.5548 27.4467C43.3815 27.5967 44.8048 28.1267 45.4715 28.5334C47.2981 29.6434 48.0914 31.1067 48.8948 34.8601C49.1314 35.9601 49.4414 37.2034 49.5848 37.6267C49.8114 38.3034 50.6781 39.8867 51.3847 40.9167C51.8914 41.6567 51.5514 42.0068 50.4314 41.9068C48.7181 41.7501 46.3981 40.1501 44.9015 38.0901ZM74.5845 57.8734C65.5612 54.2401 62.3846 51.0868 62.3846 45.7668C62.3846 44.9834 62.4113 44.3434 62.4413 44.3434C62.4746 44.3434 62.8246 44.6001 63.2179 44.9167C65.0479 46.3834 67.0979 47.0101 72.7678 47.8368C76.1044 48.3268 77.9844 48.7201 79.7177 49.2934C85.2243 51.1201 88.631 54.8268 89.4443 59.8734C89.6776 61.3401 89.541 64.0901 89.1576 65.5401C88.8576 66.6868 87.9343 68.7501 87.691 68.8301C87.6243 68.8501 87.5577 68.5934 87.5377 68.2368C87.4443 66.3434 86.4877 64.4968 84.8777 63.1134C83.0477 61.5434 80.5944 60.2901 74.5845 57.8734ZM68.2512 59.3801C68.1446 58.7362 67.9988 58.0995 67.8145 57.4734L67.5812 56.7868L68.0112 57.2668C68.6012 57.9334 69.0712 58.7801 69.4645 59.9134C69.7679 60.7768 69.8012 61.0334 69.7979 62.4368C69.7979 63.8168 69.7612 64.1034 69.4812 64.8834C69.0919 66.0271 68.44 67.0637 67.5779 67.9101C65.9279 69.5901 63.8113 70.5168 60.7513 70.9034C60.218 70.9701 58.6713 71.0834 57.308 71.1534C53.8747 71.3334 51.6181 71.7001 49.5881 72.4134C49.405 72.4954 49.2084 72.5429 49.0081 72.5534C48.9281 72.4701 50.3081 71.6468 51.4514 71.0968C53.0614 70.3201 54.6614 69.8968 58.2513 69.3001C60.0246 69.0034 61.858 68.6468 62.3213 68.5034C66.7146 67.1568 68.9745 63.6834 68.2512 59.3801Z" fill="white"/>
<path d="M70.2199 67.8367C69.0199 65.2601 68.7466 62.7701 69.4033 60.4501C69.4733 60.2034 69.5866 60.0001 69.6533 60.0001C69.8789 60.0817 70.0912 60.1963 70.2833 60.3401C70.8366 60.7134 71.9432 61.3401 74.8932 62.9468C78.5765 64.9567 80.6765 66.5134 82.1065 68.2867C83.3564 69.8434 84.1298 71.6168 84.5031 73.7768C84.7131 75.0001 84.5898 77.9434 84.2764 79.1768C83.2865 83.0634 80.9831 86.1168 77.7032 87.8968C77.3936 88.0758 77.073 88.235 76.7432 88.3734C76.6965 88.3734 76.8699 87.9301 77.1332 87.3834C78.2332 85.0767 78.3632 82.8301 77.5265 80.3301C77.0165 78.8001 75.9732 76.9301 73.8699 73.7768C71.4233 70.1101 70.8233 69.1301 70.2199 67.8367ZM36.3303 81.7401C39.6803 78.9134 43.8436 76.9067 47.6402 76.2901C49.2735 76.0234 52.0001 76.1301 53.5135 76.5168C55.9401 77.1367 58.1134 78.5301 59.2434 80.1867C60.3434 81.8067 60.82 83.2201 61.31 86.3601C61.51 87.6001 61.72 88.8434 61.7834 89.1267C62.15 90.7534 62.8734 92.0567 63.7667 92.7101C65.1833 93.7467 67.6266 93.8101 70.0266 92.8767C70.2774 92.7617 70.5417 92.6788 70.8133 92.6301C70.8999 92.7168 69.6933 93.5267 68.8399 93.9534C67.833 94.4923 66.7052 94.7653 65.5633 94.7467C63.3633 94.7467 61.5367 93.6301 60.0134 91.3467C59.7134 90.8968 59.0401 89.5534 58.5134 88.3568C56.9067 84.6901 56.1134 83.5701 54.2468 82.3467C52.6168 81.2801 50.5202 81.0901 48.9435 81.8634C46.8702 82.8801 46.2935 85.5301 47.7769 87.2067C48.3668 87.8734 49.4668 88.4501 50.3668 88.5601C50.7594 88.6121 51.1586 88.5792 51.5374 88.4637C51.9162 88.3482 52.2658 88.1526 52.5626 87.8903C52.8593 87.628 53.0962 87.3051 53.2574 86.9433C53.4186 86.5816 53.5002 86.1894 53.4968 85.7934C53.4968 84.6868 53.0701 84.0601 52.0035 83.5768C50.5468 82.9201 48.9802 83.6868 48.9868 85.0567C48.9902 85.6401 49.2435 86.0067 49.8302 86.2734C50.2068 86.4401 50.2135 86.4568 49.9068 86.3934C48.5702 86.1134 48.2568 84.5034 49.3335 83.4334C50.6235 82.1468 53.2935 82.7134 54.2101 84.4668C54.5968 85.2034 54.6401 86.6734 54.3034 87.5601C53.5535 89.5434 51.3601 90.5834 49.1368 90.0168C47.6235 89.6301 47.0069 89.2134 45.1836 87.3334C42.0136 84.0667 40.7836 83.4334 36.2103 82.7201L35.3337 82.5834L36.3303 81.7401Z" fill="white"/>
<path fill-rule="evenodd" clip-rule="evenodd" d="M22.0005 17.2134L22.3205 17.6034C34.6803 32.7367 41.0669 40.5901 41.4736 41.1501C42.1403 42.0767 41.8903 42.9067 40.7436 43.5601C40.1069 43.9234 38.7936 44.2901 38.1403 44.2901C37.397 44.2901 36.5603 43.9334 35.9503 43.3567C35.5203 42.9467 33.7837 40.3534 29.7737 34.1301C27.8959 31.1887 25.9937 28.2631 24.0671 25.3534C23.9038 25.2001 23.9071 25.2034 29.4604 35.1401C32.947 41.3801 34.127 43.5834 34.127 43.8801C34.127 44.4801 33.9604 44.7934 33.2204 45.6201C31.987 46.9967 31.437 48.5434 31.037 51.7434C30.5904 55.3334 29.3371 57.8668 25.8571 62.2034C23.8238 64.7434 23.4905 65.2101 22.9738 66.2334C22.3272 67.5201 22.1505 68.2434 22.0772 69.8701C22.0005 71.5901 22.1505 72.7034 22.6771 74.3467C23.1371 75.7867 23.6171 76.7401 24.8438 78.6401C25.9038 80.2834 26.5138 81.5034 26.5138 81.9801C26.5138 82.3601 26.5871 82.3601 28.2304 81.9901C32.1604 81.1034 35.3503 79.5401 37.147 77.6268C38.257 76.4434 38.517 75.7901 38.527 74.1668C38.5303 73.1068 38.4936 72.8834 38.207 72.2734C37.7403 71.2801 36.8903 70.4534 35.017 69.1734C32.5604 67.4934 31.5137 66.1401 31.2237 64.2834C30.9837 62.7601 31.2604 61.6834 32.6204 58.8368C34.0237 55.8901 34.3737 54.6367 34.6103 51.6667C34.7603 49.7467 34.9703 48.9901 35.5237 48.3834C36.097 47.7501 36.617 47.5334 38.0403 47.3401C40.3603 47.0234 41.8369 46.4234 43.0502 45.3068C44.1036 44.3334 44.5436 43.3967 44.6102 41.9901L44.6636 40.9234L44.0736 40.2367C43.2269 39.2501 36.2237 31.5234 23.0605 17.0501L22.7071 16.6667L22.0005 17.2134ZM27.7138 71.8201C27.9463 71.4083 28.0158 70.9243 27.9083 70.4637C27.8009 70.0032 27.5245 69.5998 27.1338 69.3334C26.3738 68.8268 25.1905 69.0668 25.1905 69.7268C25.1905 69.9268 25.3005 70.0734 25.5504 70.2034C25.9738 70.4201 26.0038 70.6667 25.6738 71.1634C25.3371 71.6701 25.3638 72.1168 25.7504 72.4201C26.3704 72.9068 27.2471 72.6368 27.7138 71.8201ZM46.1269 47.9001C45.0369 48.2334 43.9802 49.3901 43.6502 50.6001C43.4502 51.3368 43.5636 52.6334 43.8636 53.0334C44.3469 53.6801 44.8169 53.8501 46.0835 53.8401C48.5635 53.8234 50.7168 52.7601 50.9702 51.4301C51.1768 50.3401 50.2268 48.8301 48.9235 48.1634C48.2502 47.8234 46.8202 47.6868 46.1269 47.9001ZM49.0268 50.1668C49.4102 49.6234 49.2402 49.0334 48.5935 48.6401C47.3535 47.8834 45.4802 48.5068 45.4802 49.6801C45.4802 50.2601 46.4569 50.8967 47.3502 50.8967C47.9502 50.8967 48.7635 50.5401 49.0268 50.1668Z" fill="white"/>
</svg>
