<svg width="13" height="7" viewBox="0 0 13 7" fill="none" xmlns="http://www.w3.org/2000/svg">
    <path d="M5.04226 5.42056H1.85095L1.22181 6.93458H0L2.87217 0.392523H4.03928L6.92056 6.93458H5.68052L5.04226 5.42056ZM4.65018 4.46729L3.44661 1.60748L2.25215 4.46729H4.65018Z" fill="url(#paint0_linear)"/>
    <path d="M10.529 1.88785C11.0032 1.88785 11.4256 1.99377 11.7964 2.20561C12.1733 2.41745 12.4681 2.71651 12.6809 3.1028C12.8936 3.4891 13 3.93458 13 4.43925C13 4.94393 12.8936 5.39252 12.6809 5.78505C12.4681 6.17134 12.1733 6.47041 11.7964 6.68224C11.4256 6.89408 11.0032 7 10.529 7C10.1947 7 9.88772 6.94081 9.6081 6.82243C9.33456 6.70405 9.10357 6.52648 8.91513 6.28972V6.93458H7.83009V0H8.96984V2.5514C9.16436 2.33333 9.39231 2.16822 9.65369 2.05608C9.92115 1.94393 10.2129 1.88785 10.529 1.88785ZM10.4014 6C10.8208 6 11.1642 5.8567 11.4317 5.57009C11.7052 5.28349 11.842 4.90654 11.842 4.43925C11.842 3.97196 11.7052 3.59502 11.4317 3.30841C11.1642 3.02181 10.8208 2.8785 10.4014 2.8785C10.1278 2.8785 9.88164 2.94393 9.66281 3.07477C9.44398 3.19938 9.27074 3.38006 9.14308 3.61682C9.01543 3.85358 8.95161 4.12773 8.95161 4.43925C8.95161 4.75078 9.01543 5.02492 9.14308 5.26168C9.27074 5.49844 9.44398 5.68224 9.66281 5.81309C9.88164 5.9377 10.1278 6 10.4014 6Z" fill="url(#paint1_linear)"/>
    <defs>
        <linearGradient id="paint0_linear" x1="2.39474" y1="6.07895" x2="6.01464" y2="-1.45045" gradientUnits="userSpaceOnUse">
            <stop offset="0.407986" stop-color="#2041E0"/>
            <stop offset="1" stop-color="#4476F2"/>
        </linearGradient>
        <linearGradient id="paint1_linear" x1="2.39474" y1="6.07895" x2="6.01464" y2="-1.45045" gradientUnits="userSpaceOnUse">
            <stop offset="0.407986" stop-color="#2041E0"/>
            <stop offset="1" stop-color="#4476F2"/>
        </linearGradient>
    </defs>
</svg>
