<svg width="10" height="10" viewBox="0 0 10 10" fill="none" xmlns="http://www.w3.org/2000/svg">
<path d="M5 10C2.25 10 0 7.75 0 5C0 2.25 2.25 0 5 0C7.75 0 10 2.25 10 5C10 7.75 7.75 10 5 10Z" fill="#4BDB4B"/>
<path opacity="0.4" d="M7.90779 5.97844C8.15779 6.43677 7.99113 7.0201 7.57446 7.2701C7.11613 7.5201 6.53279 7.35344 6.28279 6.93677L4.28279 3.5201C4.03279 3.06177 4.19946 2.47844 4.65779 2.22844C5.11613 1.93677 5.65779 2.10344 5.94946 2.56177L7.90779 5.97844Z" fill="black"/>
<path opacity="0.65" d="M3.97843 6.93677C3.72843 7.3951 3.1451 7.56177 2.68676 7.2701C2.22843 7.0201 2.06176 6.43677 2.35343 5.97844L4.31176 2.56177C4.56176 2.10344 5.1451 1.93677 5.60343 2.22844C6.06176 2.47844 6.22843 3.06177 5.93676 3.5201L3.97843 6.93677Z" fill="black"/>
<path d="M6.0625 3.04167C6.0625 3.58333 5.10416 4.91667 5.10416 4.91667C5.10416 4.91667 4.1875 3.58333 4.1875 3.04167C4.1875 2.5 4.60416 2.08333 5.14583 2.08333C5.6875 2.08333 6.0625 2.54167 6.0625 3.04167Z" fill="black"/>
</svg>
