<svg width="7" height="9" viewBox="0 0 7 9" fill="none" xmlns="http://www.w3.org/2000/svg">
<path d="M2.97495 0.524995L2.97495 7.325L0.974951 5.325C0.774951 5.125 0.474951 5.125 0.274951 5.325C0.174951 5.525 0.174951 5.825 0.274951 6.025L3.17495 8.925C3.37495 9.025 3.67495 9.025 3.87495 8.925L6.67495 6.025C6.87495 5.825 6.87495 5.525 6.67495 5.325C6.47495 5.125 6.17495 5.125 5.97495 5.325L3.97495 7.325L3.97495 0.524995C3.97495 0.224995 3.77495 0.0249939 3.47495 0.0249939C3.27495 0.0249939 2.97495 0.224995 2.97495 0.524995Z" fill="url(#paint0_linear)"/>
<defs>
<linearGradient id="paint0_linear" x1="3.50335" y1="9.025" x2="3.50335" y2="0.0238939" gradientUnits="userSpaceOnUse">
<stop offset="0.3645" stop-color="#2041E0"/>
<stop offset="0.5292" stop-color="#2549E3"/>
<stop offset="0.7806" stop-color="#345EEA"/>
<stop offset="1" stop-color="#4476F2"/>
</linearGradient>
</defs>
</svg>
