<svg width="9" height="7" viewBox="0 0 9 7" fill="none" xmlns="http://www.w3.org/2000/svg">
<path d="M0.499975 3.90078L7.29998 3.90078L5.29998 5.90078C5.09998 6.10078 5.09998 6.40078 5.29998 6.60078C5.49998 6.70078 5.79998 6.70078 5.99998 6.60078L8.89998 3.70078C8.99998 3.50078 8.99998 3.20078 8.89998 3.00078L5.99998 0.200782C5.79998 0.000781814 5.49998 0.00078184 5.29998 0.200782C5.09998 0.400781 5.09998 0.700782 5.29998 0.900781L7.29998 2.90078L0.499975 2.90078C0.199975 2.90078 -2.51081e-05 3.10078 -2.50818e-05 3.40078C-2.50644e-05 3.60078 0.199975 3.90078 0.499975 3.90078Z" fill="url(#paint0_linear)"/>
<defs>
<linearGradient id="paint0_linear" x1="8.99998" y1="3.37238" x2="-0.00112509" y2="3.37238" gradientUnits="userSpaceOnUse">
<stop offset="0.3645" stop-color="#2041E0"/>
<stop offset="0.5292" stop-color="#2549E3"/>
<stop offset="0.7806" stop-color="#345EEA"/>
<stop offset="1" stop-color="#4476F2"/>
</linearGradient>
</defs>
</svg>
