<svg width="18" height="17" viewBox="0 0 18 17" fill="none" xmlns="http://www.w3.org/2000/svg">
<g clip-path="url(#clip0)">
<path d="M8.99999 0C8.69999 0 8.49999 0.1 8.29999 0.3L4.69999 3.9C4.29999 4.3 4.29999 4.9 4.69999 5.3C4.89999 5.5 5.19999 5.6 5.39999 5.6C5.59999 5.6 5.89999 5.5 6.09999 5.3L7.99999 3.4V11.6C7.99999 12.2 8.39999 12.6 8.99999 12.6C9.59999 12.6 9.99999 12.2 9.99999 11.6V3.4L11.9 5.3C12.1 5.5 12.4 5.6 12.6 5.6C12.8 5.6 13.1 5.5 13.3 5.3C13.7 4.9 13.7 4.3 13.3 3.9L9.69999 0.3C9.49999 0.1 9.29999 0 8.99999 0Z" fill="url(#paint0_linear)"/>
<path d="M17 11.6001C16.4 11.6001 16 12.0001 16 12.6001V14.6001H2V12.6001C2 12.0001 1.6 11.6001 1 11.6001C0.4 11.6001 0 12.0001 0 12.6001V15.6001C0 16.2001 0.4 16.6001 1 16.6001H17C17.6 16.6001 18 16.2001 18 15.6001V12.6001C18 12.0001 17.6 11.6001 17 11.6001Z" fill="url(#paint1_linear)"/>
</g>
<defs>
<linearGradient id="paint0_linear" x1="4.87659" y1="8.62417" x2="12.2989" y2="4.57041" gradientUnits="userSpaceOnUse">
<stop offset="0.36" stop-color="#2041E0"/>
<stop offset="0.53" stop-color="#2549E3"/>
<stop offset="0.78" stop-color="#345EEA"/>
<stop offset="1" stop-color="#4476F2"/>
</linearGradient>
<linearGradient id="paint1_linear" x1="0.932468" y1="15.0224" x2="3.21741" y2="8.86947" gradientUnits="userSpaceOnUse">
<stop offset="0.36" stop-color="#2041E0"/>
<stop offset="0.53" stop-color="#2549E3"/>
<stop offset="0.78" stop-color="#345EEA"/>
<stop offset="1" stop-color="#4476F2"/>
</linearGradient>
<clipPath id="clip0">
<rect width="18" height="16.6" fill="white"/>
</clipPath>
</defs>
</svg>
