<svg width="45" height="42" viewBox="0 0 45 42" fill="none" xmlns="http://www.w3.org/2000/svg">
<path d="M44.9328 17.7269L41.5231 19.1846C42.7976 7.94042 34.0131 1.08802 34.0131 1.08802L33.1149 3.88082C22.9322 -3.81022 11.4442 2.28082 11.0702 3.12055C11.0702 3.12055 28.1262 2.38455 32.156 14.9826C34.4059 22.0149 30.919 27.4207 27.5745 29.5327C19.6031 34.5677 13.8023 30.7233 12.8633 29.8328C11.0213 28.1887 9.88818 25.8948 9.70191 23.4328C9.51984 14.8182 18.8506 13.1001 18.8506 13.1001C16.2059 12.2018 13.3443 12.1665 10.6783 12.9994C8.01232 13.8324 5.67975 15.4905 4.01693 17.7346C-3.7701 27.4604 5.6357 38.5104 5.6357 38.5104L6.59237 35.7186C16.2685 47.0841 33.7913 39.4538 33.7913 39.4538L31.239 37.6486C35.0279 35.7674 38.2742 32.9504 40.6705 29.4643C43.0668 25.9782 44.5338 21.9383 44.9328 17.7269V17.7269Z" fill="#00E676"/>
<g style="mix-blend-mode:soft-light" opacity="0.8">
<path d="M2.10355 20.817C2.60958 19.7111 3.25237 18.6731 4.01691 17.7273C5.67972 15.4832 8.01232 13.8251 10.6783 12.9921C13.3443 12.1592 16.2059 12.1945 18.8506 13.0929C18.8506 13.0929 6.59237 11.3053 0.955956 25.4515C1.05079 23.8493 1.43982 22.2783 2.10355 20.817Z" fill="black"/>
</g>
<g style="mix-blend-mode:soft-light" opacity="0.8">
<path d="M6.5924 35.7139C16.2685 47.0794 33.7913 39.4491 33.7913 39.4491C33.7913 39.4491 14.3706 44.3572 7.62523 32.7026L6.5924 35.7139Z" fill="black"/>
</g>
<g style="mix-blend-mode:soft-light" opacity="0.8">
<path d="M41.5231 19.1828C42.7976 7.93862 34.0131 1.08621 34.0131 1.08621C36.0422 3.82505 37.5072 6.93969 38.3228 10.2493C39.1385 13.5589 39.2886 16.9976 38.7645 20.3657L41.5231 19.1828Z" fill="black"/>
</g>
<g style="mix-blend-mode:soft-light" opacity="0.8">
<path d="M33.1138 3.87641C22.9312 -3.81463 11.4432 2.27641 11.0691 3.11614C11.0691 3.11614 22.6884 -2.76743 32.1659 6.82374L33.1138 3.87641Z" fill="black"/>
</g>
<g style="mix-blend-mode:soft-light" opacity="0.8">
<path d="M31.2379 37.6403C35.0262 35.7596 38.2719 32.9435 40.6681 29.4584C43.0644 25.9733 44.5319 21.9346 44.9317 17.7241C44.9317 17.7241 40.1593 31.8483 28.1373 35.4477L31.2379 37.6403Z" fill="black"/>
</g>
</svg>
