<svg width="18" height="18" viewBox="0 0 18 18" fill="none" xmlns="http://www.w3.org/2000/svg">
<path d="M16.8313 1.1687C16.0522 0.389567 15.0333 0 14.0044 0C12.9756 0 11.9567 0.389567 11.1776 1.1687L9.16982 3.17647C7.86127 4.48502 7.67148 6.49279 8.5605 8.02109L8.02109 8.56049C7.40177 8.20089 6.70256 8.00111 6.00334 8.00111C4.97448 8.00111 3.95561 8.39068 3.17648 9.16981L1.1687 11.1776C-0.389567 12.7358 -0.389567 15.273 1.1687 16.8313C1.94784 17.6104 2.9667 18 3.99556 18C5.02442 18 6.04329 17.6104 6.82242 16.8313L8.8302 14.8235C10.1387 13.515 10.3285 11.5072 9.43951 9.97891L9.97892 9.43951C10.5982 9.79911 11.2975 9.99889 11.9967 9.99889C13.0255 9.99889 14.0444 9.60932 14.8235 8.83019L16.8313 6.82242C18.3896 5.26415 18.3896 2.72697 16.8313 1.1687ZM7.43175 13.3951L5.42398 15.4029C5.05439 15.7725 4.54496 15.9822 4.01554 15.9822C3.48613 15.9822 2.97669 15.7725 2.60711 15.4029C1.82797 14.6237 1.82797 13.3552 2.60711 12.576L4.61488 10.5683C4.98447 10.1987 5.4939 9.9889 6.02331 9.9889C6.20311 9.9889 6.36294 10.0189 6.53275 10.0588L5.3141 11.2775C4.92454 11.667 4.92454 12.3063 5.3141 12.6859C5.50389 12.8757 5.7636 12.9756 6.02331 12.9756C6.28302 12.9756 6.53275 12.8757 6.73252 12.6859L7.95117 11.4673C8.11099 12.1465 7.95117 12.8757 7.43175 13.3951ZM15.4229 5.404L13.4151 7.41176C13.0455 7.78135 12.5361 7.99112 12.0067 7.99112C11.8269 7.99112 11.667 7.96116 11.4972 7.9212L12.7159 6.70255C13.1054 6.31299 13.1054 5.6737 12.7159 5.29412C12.5261 5.10433 12.2664 5.00444 12.0067 5.00444C11.747 5.00444 11.4972 5.10433 11.2974 5.29412L10.0788 6.51276C9.89901 5.84351 10.0688 5.11432 10.5882 4.59489L12.596 2.58713C12.9656 2.21754 13.475 2.00777 14.0044 2.00777C14.5438 2.00777 15.0433 2.21754 15.4129 2.58713C16.202 3.36626 16.202 4.62486 15.4229 5.404Z" fill="url(#paint0_linear)"/>
<defs>
<linearGradient id="paint0_linear" x1="0.0199778" y1="8.99481" x2="18" y2="8.99481" gradientUnits="userSpaceOnUse">
<stop offset="0.3645" stop-color="#2041E0"/>
<stop offset="0.5292" stop-color="#2549E3"/>
<stop offset="0.7806" stop-color="#345EEA"/>
<stop offset="1" stop-color="#4476F2"/>
</linearGradient>
</defs>
</svg>
