<svg width="10" height="10" viewBox="0 0 10 10" fill="none" xmlns="http://www.w3.org/2000/svg">
<path d="M9.36012 0.580117C8.58012 -0.199883 7.31012 -0.199883 6.53012 0.580117L5.12012 2.00012C4.74012 2.38012 4.53012 2.88012 4.53012 3.41012C4.53012 3.80012 4.64012 4.18012 4.85012 4.50012L4.50012 4.86012C3.73012 4.38012 2.65012 4.46012 2.00012 5.12012L0.580117 6.53012C-0.199883 7.31012 -0.199883 8.58012 0.580117 9.36012C0.970117 9.75012 1.49012 9.95012 2.00012 9.95012C2.51012 9.95012 3.03012 9.75012 3.42012 9.37012L4.83012 7.96012C5.46012 7.31012 5.57012 6.36012 5.17012 5.60012L5.60012 5.17012C5.89012 5.32012 6.21012 5.41012 6.53012 5.41012C7.04012 5.41012 7.55012 5.21012 7.94012 4.83012L9.35012 3.42012C10.1401 2.63012 10.1401 1.36012 9.36012 0.580117ZM4.12012 7.24012L2.71012 8.66012C2.32012 9.05012 1.69012 9.05012 1.29012 8.66012C0.900117 8.27012 0.900117 7.64012 1.29012 7.25012L2.71012 5.84012C2.98012 5.55012 3.40012 5.48012 3.75012 5.61012L2.65012 6.71012C2.45012 6.91012 2.45012 7.22012 2.65012 7.42012C2.85012 7.62012 3.16012 7.62012 3.36012 7.42012L4.38012 6.40012C4.43012 6.69012 4.35012 7.01012 4.12012 7.24012ZM8.66012 2.71012L7.24012 4.12012C7.01012 4.35012 6.69012 4.43012 6.39012 4.39012L7.53012 3.25012C7.73012 3.05012 7.73012 2.74012 7.53012 2.54012C7.33012 2.34012 7.02012 2.34012 6.82012 2.54012L5.60012 3.76012C5.56012 3.65012 5.53012 3.53012 5.53012 3.41012C5.53012 3.14012 5.63012 2.89012 5.82012 2.70012L7.23012 1.28012C7.44012 1.10012 7.69012 1.00012 7.95012 1.00012C8.21012 1.00012 8.46012 1.10012 8.66012 1.29012C9.04012 1.68012 9.04012 2.32012 8.66012 2.71012Z" fill="url(#paint0_linear)"/>
<defs>
<linearGradient id="paint0_linear" x1="0.000117187" y1="4.97402" x2="9.94742" y2="4.97402" gradientUnits="userSpaceOnUse">
<stop offset="0.3645" stop-color="#2041E0"/>
<stop offset="0.5292" stop-color="#2549E3"/>
<stop offset="0.7806" stop-color="#345EEA"/>
<stop offset="1" stop-color="#4476F2"/>
</linearGradient>
</defs>
</svg>
