<svg width="19" height="19" viewBox="0 0 19 19" fill="none" xmlns="http://www.w3.org/2000/svg">
<circle cx="9.5" cy="9.5" r="9.5" fill="url(#paint0_linear)"/>
<path d="M8.70057 13.7137L14.657 7.73253C14.7598 7.64426 14.8432 7.53564 14.9021 7.41348C14.961 7.29132 14.9941 7.15826 14.9993 7.02265C15.0045 6.88705 14.9817 6.75182 14.9324 6.62547C14.8831 6.49911 14.8082 6.38436 14.7126 6.2884C14.617 6.19244 14.5027 6.11735 14.3767 6.06785C14.2508 6.01835 14.1161 5.9955 13.981 6.00074C13.8458 6.00597 13.7133 6.03919 13.5915 6.09829C13.4698 6.15739 13.3616 6.2411 13.2736 6.34418L8.01375 11.6262L5.67857 9.28276C5.58736 9.19047 5.47884 9.11722 5.35928 9.06723C5.23971 9.01724 5.11147 8.99151 4.98194 8.99151C4.85242 8.99151 4.72417 9.01724 4.60461 9.06723C4.48505 9.11722 4.37653 9.19047 4.28532 9.28276C4.10257 9.46725 4 9.71681 4 9.97694C4 10.2371 4.10257 10.4866 4.28532 10.6711L7.31712 13.7137C7.50095 13.8971 7.74963 14 8.00884 14C8.26805 14 8.51673 13.8971 8.70057 13.7137Z" fill="white"/>
<defs>
<linearGradient id="paint0_linear" x1="3.5" y1="16.5" x2="16" y2="2.5" gradientUnits="userSpaceOnUse">
<stop offset="0.407986" stop-color="#2041E0"/>
<stop offset="1" stop-color="#4476F2"/>
</linearGradient>
</defs>
</svg>
