<svg width="9" height="9" viewBox="0 0 9 9" fill="none" xmlns="http://www.w3.org/2000/svg">
<path d="M5.20842 4.5L8.85033 0.858094C9.04989 0.658537 9.04989 0.349224 8.85033 0.149667C8.65077 -0.0498891 8.34146 -0.0498891 8.1419 0.149667L4.5 3.79158L0.858093 0.149667C0.658536 -0.0498891 0.349224 -0.0498891 0.149667 0.149667C-0.0498891 0.349224 -0.0498891 0.658537 0.149667 0.858094L3.79157 4.5L0.149667 8.14191C-0.0498891 8.34146 -0.0498891 8.65077 0.149667 8.85033C0.349224 9.04989 0.658536 9.04989 0.858093 8.85033L4.5 5.20842L8.13193 8.84035C8.33148 9.03991 8.6408 9.03991 8.84035 8.84035C9.03991 8.6408 9.03991 8.33148 8.84035 8.13193L5.20842 4.5Z" fill="url(#paint0_linear)"/>
<defs>
<linearGradient id="paint0_linear" x1="0.00558758" y1="4.49721" x2="8.99122" y2="4.49721" gradientUnits="userSpaceOnUse">
<stop offset="0.3645" stop-color="#2041E0"/>
<stop offset="0.5292" stop-color="#2549E3"/>
<stop offset="0.7806" stop-color="#345EEA"/>
<stop offset="1" stop-color="#4476F2"/>
</linearGradient>
</defs>
</svg>
