<svg width="16" height="16" viewBox="0 0 16 16" fill="none" xmlns="http://www.w3.org/2000/svg">
<path d="M14.4 0C14.1 0 13.9 0.1 13.7 0.3L7.7 6.3L1.7 0.3C1.5 0.1 1.3 0 1 0C0.7 0 0.5 0.1 0.3 0.3C-0.1 0.7 -0.1 1.3 0.3 1.7L6.3 7.7L0.3 13.7C-0.1 14.1 -0.1 14.7 0.3 15.1C0.5 15.3 0.8 15.4 1 15.4C1.2 15.4 1.5 15.3 1.7 15.1L7.7 9.1L13.7 15.1C13.9 15.3 14.2 15.4 14.4 15.4C14.6 15.4 14.9 15.3 15.1 15.1C15.5 14.7 15.5 14.1 15.1 13.7L9.1 7.7L15.1 1.7C15.5 1.3 15.5 0.7 15.1 0.3C14.9 0.1 14.7 0 14.4 0Z" fill="#ffffff"/>
</svg>
