<svg width="18" height="18" viewBox="0 0 18 18" fill="none" xmlns="http://www.w3.org/2000/svg">
<path d="M9 2.1L11 3.1V5.6L9 6.6L7 5.6V3.1L9 2.1ZM9 0C8.8 0 8.7 0 8.6 0.1L5.6 1.6C5.2 1.8 5 2.1 5 2.5V6.3C5 6.7 5.2 7 5.6 7.2L8.6 8.7C8.7 8.7 8.8 8.8 9 8.8C9.2 8.8 9.3 8.8 9.4 8.7L12.4 7.2C12.8 7 13 6.7 13 6.3V2.5C13 2.1 12.8 1.8 12.4 1.6L9.4 0.1C9.3 0 9.2 0 9 0Z" fill="url(#paint0_linear)"/>
<path d="M14 11.1L16 12.1V14.6L14 15.6L12 14.6V12.1L14 11.1ZM14 9C13.8 9 13.7 9 13.6 9.1L10.6 10.6C10.3 10.8 10 11.1 10 11.5V15.3C10 15.7 10.2 16 10.6 16.2L13.6 17.7C13.7 17.8 13.9 17.8 14 17.8C14.1 17.8 14.3 17.8 14.4 17.7L17.4 16.2C17.7 16 18 15.7 18 15.3V11.5C18 11.1 17.8 10.8 17.4 10.6L14.4 9.1C14.3 9 14.2 9 14 9Z" fill="url(#paint1_linear)"/>
<path d="M4 11.1L6 12.1V14.6L4 15.6L2 14.6V12.1L4 11.1ZM4 9C3.8 9 3.7 9 3.6 9.1L0.6 10.6C0.2 10.8 0 11.1 0 11.5V15.3C0 15.7 0.2 16 0.6 16.2L3.6 17.7C3.7 17.8 3.9 17.8 4 17.8C4.1 17.8 4.3 17.8 4.4 17.7L7.4 16.2C7.8 16 8 15.6 8 15.3V11.5C8 11.1 7.8 10.8 7.4 10.6L4.4 9.1C4.3 9 4.2 9 4 9Z" fill="url(#paint2_linear)"/>
<defs>
<linearGradient id="paint0_linear" x1="5" y1="4.3839" x2="13" y2="4.3839" gradientUnits="userSpaceOnUse">
<stop offset="0.3645" stop-color="#2041E0"/>
<stop offset="0.5292" stop-color="#2549E3"/>
<stop offset="0.7806" stop-color="#345EEA"/>
<stop offset="1" stop-color="#4476F2"/>
</linearGradient>
<linearGradient id="paint1_linear" x1="10" y1="13.3824" x2="18" y2="13.3824" gradientUnits="userSpaceOnUse">
<stop offset="0.3645" stop-color="#2041E0"/>
<stop offset="0.5292" stop-color="#2549E3"/>
<stop offset="0.7806" stop-color="#345EEA"/>
<stop offset="1" stop-color="#4476F2"/>
</linearGradient>
<linearGradient id="paint2_linear" x1="0" y1="13.381" x2="8" y2="13.381" gradientUnits="userSpaceOnUse">
<stop offset="0.3645" stop-color="#2041E0"/>
<stop offset="0.5292" stop-color="#2549E3"/>
<stop offset="0.7806" stop-color="#345EEA"/>
<stop offset="1" stop-color="#4476F2"/>
</linearGradient>
</defs>
</svg>
