<svg width="48" height="40" viewBox="0 0 48 40" fill="none" xmlns="http://www.w3.org/2000/svg">
<g clip-path="url(#clip0_271_2480)">
<path d="M44.8242 9.84101C43.412 7.22373 41.3257 5.02615 38.7786 3.47302C36.6155 2.15073 34.1361 1.21244 31.4106 0.681017C26.5166 -0.226517 21.496 -0.226517 16.602 0.681017C15.1905 0.952203 13.8067 1.35041 12.4678 1.87073C13.4674 2.7761 14.113 4.00339 14.2905 5.33587C15.2723 4.98455 16.2801 4.70944 17.3047 4.51302C21.7339 3.69626 26.2765 3.69626 30.7056 4.51302C32.9976 4.95987 35.063 5.73702 36.8455 6.82616C38.8166 8.02784 40.4314 9.72803 41.5248 11.753C42.6461 13.8033 43.2142 16.2924 43.2142 19.1519V20.8479C43.2142 23.705 42.6449 26.1987 41.5214 28.2444C40.4269 30.2613 38.8174 31.9562 36.8547 33.1587C35.0722 34.2558 33.0033 35.0387 30.7068 35.4867C26.2776 36.3035 21.735 36.3035 17.3058 35.4867C15.0058 35.0398 12.9358 34.257 11.1476 33.1587C9.18487 31.9562 7.57535 30.2613 6.4809 28.2444C5.3585 26.1999 4.78925 23.7107 4.78925 20.8479V19.1541C4.78925 16.297 5.35735 13.8044 6.47745 11.7553C6.53035 11.6582 6.58555 11.5633 6.64075 11.4684C5.39259 11.0185 4.33865 10.1548 3.6565 9.02273C3.4909 9.29016 3.3299 9.56215 3.17695 9.84215C1.73485 12.4799 1 15.6113 1 19.1541V20.8501C1 24.393 1.73485 27.5279 3.185 30.1656C4.59729 32.7682 6.67347 34.9561 9.20524 36.5096C11.373 37.8433 13.8627 38.7896 16.6055 39.3221C21.4991 40.2295 26.5193 40.2295 31.4129 39.3221C34.1476 38.7896 36.6327 37.8433 38.7993 36.5107C41.3311 34.9572 43.4073 32.7694 44.8196 30.1667C46.2686 27.5279 47.0046 24.3941 47.0046 20.8513V19.1541C47 15.6113 46.2686 12.481 44.8242 9.84101Z" fill="url(#paint0_linear_271_2480)"/>
<path d="M30.3805 21.9897H39.4091C39.252 23.9409 38.7537 25.5767 37.9142 26.8971C37.0827 28.2098 35.9317 29.293 34.5677 30.0468C33.1785 30.8262 31.5842 31.3801 29.7848 31.7085C27.8845 32.0465 25.9572 32.2118 24.0268 32.2022C22.0157 32.2134 20.0084 32.0304 18.0329 31.656C16.1676 31.2925 14.5285 30.683 13.1155 29.8274C11.7155 28.9805 10.5691 27.7765 9.7955 26.3405C8.99433 24.8754 8.59375 23.0468 8.59375 20.8548V19.1543C8.59375 16.9623 8.99433 15.1364 9.7955 13.6765C10.572 12.2426 11.7198 11.0409 13.1201 10.1954C14.5323 9.33598 16.1715 8.7215 18.0376 8.35198C20.0124 7.97245 22.02 7.78679 24.0314 7.79769C25.9602 7.78802 27.8858 7.9552 29.7837 8.29712C31.5823 8.6316 33.1765 9.18855 34.5665 9.96798C35.9289 10.7205 37.0796 11.8007 37.913 13.1097C38.7563 14.424 39.2547 16.0564 39.408 18.0068H30.3805C30.1413 17.296 29.6748 16.6824 29.0522 16.2594C28.3818 15.8226 27.625 15.5334 26.8328 15.4114C25.9054 15.255 24.9662 15.1786 24.0256 15.1828C22.9094 15.1716 21.7956 15.2867 20.7055 15.5257C19.702 15.7543 18.9035 16.1954 18.3101 16.8491C17.7167 17.5028 17.4196 18.4617 17.4188 19.7257V20.2971C17.4188 21.5443 17.7159 22.4937 18.3101 23.1451C18.9043 23.7965 19.7043 24.2396 20.7101 24.4742C21.7992 24.7201 22.9134 24.839 24.0302 24.8285C24.9709 24.8358 25.9104 24.7593 26.8374 24.6C27.6279 24.4718 28.3835 24.1831 29.0569 23.752C29.6826 23.3268 30.1483 22.7068 30.3805 21.9897Z" fill="white"/>
<path d="M8.59082 10.376C10.9725 10.376 12.9033 8.4572 12.9033 6.09027C12.9033 3.72334 10.9725 1.80457 8.59082 1.80457C6.20909 1.80457 4.27832 3.72334 4.27832 6.09027C4.27832 8.4572 6.20909 10.376 8.59082 10.376Z" fill="white"/>
</g>
<defs>
<linearGradient id="paint0_linear_271_2480" x1="62.6749" y1="-9.95021" x2="30.9531" y2="-27.5587" gradientUnits="userSpaceOnUse">
<stop stop-color="#E33FED"/>
<stop offset="1" stop-color="#5E13AA"/>
</linearGradient>
<clipPath id="clip0_271_2480">
<rect width="48" height="40" fill="white"/>
</clipPath>
</defs>
</svg>
