<svg width="10" height="11" viewBox="0 0 10 11" fill="none" xmlns="http://www.w3.org/2000/svg">
<path fill-rule="evenodd" clip-rule="evenodd" d="M2 3C2.55228 3 3 2.55228 3 2C3 1.44772 2.55228 1 2 1C1.44772 1 1 1.44772 1 2C1 2.55228 1.44772 3 2 3ZM2 4C2.57278 4 3.08933 3.75922 3.45394 3.37335L6.21421 5.09852C6.07719 5.3694 6 5.67569 6 6C6 6.14369 6.01515 6.28384 6.04395 6.41894L3.50843 7.6867C3.14178 7.26592 2.60194 7 2 7C0.895431 7 0 7.89543 0 9C0 10.1046 0.895431 11 2 11C3.10457 11 4 10.1046 4 9C4 8.85627 3.98484 8.71608 3.95603 8.58094L6.49149 7.31321C6.85814 7.73404 7.39801 8 8 8C9.10457 8 10 7.10457 10 6C10 4.89543 9.10457 4 8 4C7.58747 4 7.20412 4.1249 6.88568 4.33894L3.93787 2.49656C3.97844 2.33779 4 2.17141 4 2C4 0.895431 3.10457 0 2 0C0.895431 0 0 0.895431 0 2C0 3.10457 0.895431 4 2 4ZM8 7C8.55228 7 9 6.55228 9 6C9 5.44772 8.55228 5 8 5C7.44772 5 7 5.44772 7 6C7 6.55228 7.44772 7 8 7ZM3 9C3 9.55228 2.55228 10 2 10C1.44772 10 1 9.55228 1 9C1 8.44772 1.44772 8 2 8C2.55228 8 3 8.44772 3 9Z" fill="url(#paint0_linear)"/>
<defs>
<linearGradient id="paint0_linear" x1="0.00121083" y1="5.4975" x2="10.0025" y2="5.4975" gradientUnits="userSpaceOnUse">
<stop offset="0.3645" stop-color="#2041E0"/>
<stop offset="0.5292" stop-color="#2549E3"/>
<stop offset="0.7806" stop-color="#345EEA"/>
<stop offset="1" stop-color="#4476F2"/>
</linearGradient>
</defs>
</svg>
