<svg width="18" height="22" viewBox="0 0 18 22" fill="none" xmlns="http://www.w3.org/2000/svg">
<path fill-rule="evenodd" clip-rule="evenodd" d="M16 4.2V3C16 1.4 14.8 0 13 0H3C1.4 0 0 1.4 0 3V3.2V19.2C0 20.6 1.4 22 3 22H15C16.6 22 18 20.6 18 19V7C18 5.8 17.2 4.6 16 4.2ZM3 2H13C13.6 2 14 2.4 14 3V4H3C2.4 4 2 3.6 2 3C2 2.4 2.4 2 3 2ZM16 19C16 19.6 15.6 20 15 20H3C2.4 20 2 19.6 2 19V5.8C2.4 6 2.6 6 3 6H15C15.6 6 16 6.4 16 7V19ZM13 8H5C4.4 8 4 8.4 4 9C4 9.6 4.4 10 5 10H13C13.6 10 14 9.6 14 9C14 8.4 13.6 8 13 8ZM7 12H11C11.6 12 12 12.4 12 13C12 13.6 11.6 14 11 14H7C6.4 14 6 13.6 6 13C6 12.4 6.4 12 7 12Z" fill="url(#paint0_linear)"/>
<defs>
<linearGradient id="paint0_linear" x1="6.0118" y1="13.0056" x2="12.0118" y2="13.0056" gradientUnits="userSpaceOnUse">
<stop offset="0.3645" stop-color="#2041E0"/>
<stop offset="0.5292" stop-color="#2549E3"/>
<stop offset="0.7806" stop-color="#345EEA"/>
<stop offset="1" stop-color="#4476F2"/>
</linearGradient>
</defs>
</svg>
