<svg width="18" height="17" viewBox="0 0 18 17" fill="none" xmlns="http://www.w3.org/2000/svg">
<path d="M9.77665 9.26193L16.3864 9.26193C16.816 9.26193 17.1631 8.91492 17.1631 8.48528C17.1631 8.05565 16.816 7.70863 16.3864 7.70863L9.77665 7.70863L9.77665 1.09887C9.77665 0.669238 9.42963 0.322226 9 0.322226C8.57037 0.322226 8.22335 0.669238 8.22335 1.09887L8.22335 7.70863L1.61359 7.70863C1.18396 7.70863 0.836944 8.05565 0.836944 8.48528C0.836944 8.91492 1.18396 9.26193 1.61359 9.26193L8.22335 9.26193L8.22335 15.8717C8.22335 16.3013 8.57037 16.6483 9 16.6483C9.42963 16.6483 9.77665 16.3013 9.77665 15.8717L9.77665 9.26193Z" fill="white"/>
</svg>
