<svg width="16" height="21" viewBox="0 0 16 21" fill="none" xmlns="http://www.w3.org/2000/svg">
<g clip-path="url(#clip0)">
<path d="M13.99 11.0402V10.4802C13.99 9.11023 12.87 7.99023 11.5 7.99023H2.49C1.12 7.99023 0 9.11023 0 10.4802C0 10.6502 0.02 10.8202 0.05 10.9902H0V18.5002C0 19.8702 1.19 20.9902 2.65 20.9902H13.34C14.8 20.9902 15.99 19.8702 15.99 18.5002V13.4502C16 12.2802 15.14 11.3102 13.99 11.0402ZM2.49 9.99023H11.5C11.77 9.99023 11.99 10.2102 11.99 10.4802V10.9502H2.42C2.19 10.9202 2 10.7302 2 10.4802C2 10.2102 2.22 9.99023 2.49 9.99023ZM13.35 18.9902H2.65C2.3 18.9902 2 18.7602 2 18.5002V12.9202C2.1 12.9402 2.21 12.9402 2.31 12.9502V12.9602H2.36C2.4 12.9602 2.44 12.9702 2.49 12.9702V12.9602H13.35C13.7 12.9602 14 13.1902 14 13.4502V14.8302H13.25C12.7 14.8302 12.25 15.2802 12.25 15.8302C12.25 16.3802 12.7 16.8302 13.25 16.8302H14V18.5002C14 18.7602 13.7 18.9902 13.35 18.9902Z" fill="white"/>
<path d="M9 3.99H10C10.55 3.99 11 3.54 11 2.99C11 2.44 10.55 1.99 10 1.99H9V1C9 0.45 8.55 0 8 0C7.45 0 7 0.45 7 1V1.99H6C5.45 1.99 5 2.44 5 2.99C5 3.54 5.45 3.99 6 3.99H7V4.99C7 5.54 7.45 5.99 8 5.99C8.55 5.99 9 5.54 9 4.99V3.99Z" fill="white"/>
</g>
<defs>
<clipPath id="clip0">
<rect width="16" height="20.99" fill="white"/>
</clipPath>
</defs>
</svg>
