<svg width="12" height="14" viewBox="0 0 12 14" fill="none" xmlns="http://www.w3.org/2000/svg">
<path d="M4.15308 12.2797H11.7005V14H0V12.2797H2.17637V7.73164H0V6.42655H2.17637V5.14124C2.17637 4.09981 2.40266 3.1968 2.85524 2.4322C3.32113 1.65442 3.99334 1.05461 4.87188 0.632767C5.76373 0.210922 6.82862 0 8.06656 0C8.87854 0 9.59734 0.0790953 10.223 0.237287C10.8619 0.395479 11.4542 0.645951 12 0.9887L11.3411 2.62994C10.4759 2.04991 9.32446 1.75989 7.88686 1.75989C6.66223 1.75989 5.73045 2.04991 5.09152 2.62994C4.46589 3.20998 4.15308 4.04049 4.15308 5.12147V6.42655H9.46423V7.73164H4.15308V12.2797Z" fill="url(#paint0_linear)"/>
<defs>
<linearGradient id="paint0_linear" x1="2.21053" y1="12.1579" x2="11.4725" y2="3.26636" gradientUnits="userSpaceOnUse">
<stop offset="0.407986" stop-color="#2041E0"/>
<stop offset="1" stop-color="#4476F2"/>
</linearGradient>
</defs>
</svg>
