<svg width="16" height="20" viewBox="0 0 16 20" fill="none" xmlns="http://www.w3.org/2000/svg">
<path d="M10.1 20C4.5 20 0 15.5 0 10C0 4.5 4.5 0 10.1 0C11.9 0 13.7 0.5 15.3 1.5C15.6 1.7 15.8 2.1 15.8 2.5C15.8 2.9 15.5 3.2 15.1 3.3C12.1 4.3 10.2 7 10.2 10C10.2 13 12.2 15.8 15.1 16.7C15.5 16.8 15.7 17.1 15.8 17.5C15.8 17.9 15.7 18.3 15.3 18.5C13.8 19.5 12 20 10.1 20ZM10.1 2C5.6 2 2 5.6 2 10C2 14.4 5.6 18 10.1 18C10.9 18 11.7 17.9 12.4 17.7C9.8 16 8.2 13.2 8.2 10C8.2 6.8 9.8 4 12.4 2.3C11.7 2.1 10.9 2 10.1 2Z" fill="url(#paint0_linear)"/>
<defs>
<linearGradient id="paint0_linear" x1="2.91053" y1="17.3684" x2="16.0544" y2="5.73869" gradientUnits="userSpaceOnUse">
<stop offset="0.407986" stop-color="#2041E0"/>
<stop offset="1" stop-color="#4476F2"/>
</linearGradient>
</defs>
</svg>
