<svg width="16" height="16" viewBox="0 0 16 16" fill="none" xmlns="http://www.w3.org/2000/svg">
<path d="M11.9077 3.23384C12.2132 3.23384 12.4968 3.35373 12.715 3.57171C13.1623 4.01858 13.1623 4.73792 12.7041 5.18479L5.80957 12.2474L3.43139 12.836L4.02048 10.46L11.1005 3.56081C11.3187 3.35373 11.6023 3.23384 11.9077 3.23384ZM11.9077 2.14392C11.3405 2.14392 10.7623 2.3619 10.3368 2.79787L3.03866 9.90413L2.15502 13.4355C2.06775 13.806 2.34048 14.133 2.68957 14.133C2.73321 14.133 2.77684 14.1221 2.83139 14.1112L6.36593 13.2284L13.4787 5.93683C14.3514 5.0649 14.3514 3.6589 13.4787 2.78697C13.0532 2.3619 12.4859 2.14392 11.9077 2.14392Z" fill="url(#paint0_linear)"/>
<defs>
<linearGradient id="paint0_linear" x1="2.13934" y1="8.13846" x2="14.1393" y2="8.13846" gradientUnits="userSpaceOnUse">
<stop offset="0.3645" stop-color="#2041E0"/>
<stop offset="0.5292" stop-color="#2549E3"/>
<stop offset="0.7806" stop-color="#345EEA"/>
<stop offset="1" stop-color="#4476F2"/>
</linearGradient>
</defs>
</svg>
