<svg width="15" height="15" viewBox="0 0 15 15" fill="none" xmlns="http://www.w3.org/2000/svg">
<path d="M7 3.5C7 3.2 6.8 3 6.5 3H3.5C3.2 3 3 3.2 3 3.5V6.5C3 6.8 3.2 7 3.5 7C3.8 7 4 6.8 4 6.5V4.7L6.1 6.8C6.3 7 6.7 7 6.9 6.9C7 6.7 7 6.3 6.9 6.1L4.7 4H6.5C6.8 4 7 3.8 7 3.5Z" fill="white"/>
<path d="M11.5 8C11.2 8 11 8.2 11 8.5V10.3L8.9 8.1C8.7 8 8.3 8 8.1 8.1C8 8.3 8 8.7 8.1 8.9L10.3 11H8.5C8.2 11 8 11.2 8 11.5C8 11.8 8.2 12 8.5 12H11.5C11.8 12 12 11.8 12 11.5V8.5C12 8.2 11.8 8 11.5 8Z" fill="white"/>
</svg>
