<svg width="23" height="18" viewBox="0 0 23 18" fill="none" xmlns="http://www.w3.org/2000/svg">
<path d="M18.4982 4.73525L17.0659 6.16753C18.0629 6.92734 18.9845 7.87597 19.795 9.00001C17.525 12.19 14.345 14 11.005 14C10.4571 14 9.91358 13.9513 9.37764 13.8558L7.7193 15.5141C8.78289 15.8343 9.88443 16 11.005 16C15.225 16 19.175 13.65 21.845 9.54001C22.055 9.21001 22.055 8.79001 21.845 8.46001C20.8815 6.97651 19.7499 5.72691 18.4982 4.73525Z" fill="url(#paint0_linear)"/>
<path fill-rule="evenodd" clip-rule="evenodd" d="M4.114 16.3194L3.15576 17.2777C2.76524 17.6682 2.13207 17.6682 1.74155 17.2777C1.35102 16.8872 1.35103 16.254 1.74155 15.8635L3.97336 13.6316C2.53858 12.585 1.24674 11.2111 0.165 9.55001C-0.055 9.22001 -0.055 8.79001 0.165 8.46001C2.685 4.58001 6.355 2.29001 10.315 2.05001C10.545 2.02001 10.775 2.00001 11.005 2.00001C11.235 2.00001 11.465 2.02001 11.695 2.05001C12.7889 2.11907 13.8607 2.34303 14.8922 2.71283L17.2979 0.307114C17.6884 -0.0834099 18.3216 -0.0834099 18.7121 0.307114C19.0541 0.649085 19.0966 1.17711 18.8397 1.56535L4.24155 16.1635C4.193 16.212 4.15048 16.2643 4.114 16.3194ZM11.005 4.00001C11.7406 4.00001 12.4238 4.22806 12.9878 4.61717L8.12216 9.48285C7.73305 8.91885 7.505 8.23557 7.505 7.50001C7.505 5.57001 9.075 4.00001 11.005 4.00001ZM5.505 7.50001C5.505 8.78649 5.95026 9.97202 6.6946 10.9104L5.40991 12.1951C4.22668 11.3812 3.14454 10.3063 2.215 9.00001C3.265 7.53001 4.515 6.36001 5.885 5.52001C5.645 6.13001 5.505 6.80001 5.505 7.50001Z" fill="url(#paint1_linear)"/>
<path d="M10.281 12.9524C10.518 12.9838 10.7597 13 11.005 13C14.035 13 16.505 10.53 16.505 7.50001C16.505 7.25527 16.4879 7.01419 16.4554 6.77807L14.0999 9.13349C13.7707 9.75482 13.2598 10.2657 12.6385 10.595L10.281 12.9524Z" fill="url(#paint2_linear)"/>
<defs>
<linearGradient id="paint0_linear" x1="4.005" y1="14" x2="18.505" y2="4.00001" gradientUnits="userSpaceOnUse">
<stop offset="0.40829" stop-color="#2041E0"/>
<stop offset="1" stop-color="#4476F2"/>
</linearGradient>
<linearGradient id="paint1_linear" x1="4.005" y1="14" x2="18.505" y2="4.00001" gradientUnits="userSpaceOnUse">
<stop offset="0.40829" stop-color="#2041E0"/>
<stop offset="1" stop-color="#4476F2"/>
</linearGradient>
<linearGradient id="paint2_linear" x1="4.005" y1="14" x2="18.505" y2="4.00001" gradientUnits="userSpaceOnUse">
<stop offset="0.40829" stop-color="#2041E0"/>
<stop offset="1" stop-color="#4476F2"/>
</linearGradient>
</defs>
</svg>
