<svg width="22" height="14" viewBox="0 0 22 14" fill="none" xmlns="http://www.w3.org/2000/svg">
<path d="M21.84 6.46C19.32 2.58 15.65 0.3 11.69 0.05C11.46 0.02 11.23 0 11 0C10.77 0 10.54 0.02 10.31 0.05C6.35 0.29 2.68 2.58 0.159995 6.46C-0.0600049 6.79 -0.0600049 7.22 0.159995 7.55C2.83 11.65 6.78 14 11 14C15.22 14 19.17 11.65 21.84 7.54C22.05 7.21 22.05 6.79 21.84 6.46ZM14.5 5.5C14.5 7.43 12.93 9 11 9C9.06999 9 7.5 7.43 7.5 5.5C7.5 3.57 9.06999 2 11 2C12.93 2 14.5 3.57 14.5 5.5ZM11 12C7.66 12 4.48 10.19 2.21 7C3.26 5.53 4.51 4.36 5.88 3.52C5.64 4.13 5.5 4.8 5.5 5.5C5.5 8.53 7.97 11 11 11C14.03 11 16.5 8.53 16.5 5.5C16.5 4.8 16.36 4.13 16.12 3.52C17.48 4.36 18.73 5.53 19.79 7C17.52 10.19 14.34 12 11 12Z" fill="url(#paint0_linear)"/>
<defs>
<linearGradient id="paint0_linear" x1="4.04809" y1="12.1579" x2="12.0107" y2="-1.85789" gradientUnits="userSpaceOnUse">
<stop offset="0.407986" stop-color="#2041E0"/>
<stop offset="1" stop-color="#4476F2"/>
</linearGradient>
</defs>
</svg>
