<svg width="10" height="12" viewBox="0 0 10 12" fill="none" xmlns="http://www.w3.org/2000/svg">
<path d="M9.37647 5.14931L4.37569 0.148526C4.25067 0.0235064 4.07564 -0.0265015 3.90561 0.0135048C3.73559 0.0585119 3.60057 0.183532 3.54556 0.348558L2.48539 3.63407L0.70011 5.41935C0.250039 5.86943 0 6.46952 0 7.10962C0 7.74972 0.250039 8.34982 0.70011 8.80489C1.17018 9.27496 1.78028 9.505 2.39538 9.505C2.40038 9.505 2.40538 9.505 2.40538 9.505C2.41038 9.51 2.41038 9.51 2.41038 9.515L3.96062 11.0652C4.25067 11.3503 4.62573 11.5053 5.02579 11.5053C5.42585 11.5053 5.80091 11.3503 6.08096 11.0652C6.361 10.7852 6.52102 10.4101 6.52102 10.0101C6.52102 9.61001 6.366 9.23495 6.08096 8.95491L5.01079 7.88474L5.87592 7.01961L9.17644 5.97944C9.34147 5.92443 9.47149 5.78941 9.51149 5.61939C9.5515 5.45436 9.50149 5.27433 9.37647 5.14931ZM1.00016 7.10962C1.00016 6.73456 1.14518 6.38451 1.41022 6.12447L2.92546 4.60923L4.90577 6.57954L3.38553 8.09978C2.84045 8.64486 1.95531 8.64486 1.41022 8.09978C1.14518 7.83473 1.00016 7.48468 1.00016 7.10962ZM5.37584 9.66002C5.47086 9.75504 5.52087 9.88006 5.52087 10.0101C5.52087 10.1401 5.47086 10.2651 5.37584 10.3601C5.19082 10.5502 4.86576 10.5502 4.67573 10.3601L3.52555 9.20995C3.72559 9.09993 3.92062 8.97491 4.09064 8.80489L4.30568 8.58985L5.37584 9.66002ZM5.7459 6.00945L3.49555 3.76409L4.25067 1.43373L8.09127 5.27433L5.7459 6.00945Z" fill="white"/>
</svg>
