<svg width="20" height="23" viewBox="0 0 20 23" fill="none" xmlns="http://www.w3.org/2000/svg">
<path d="M18.75 10.2899L8.75 0.289925C8.5 0.0399253 8.15 -0.0600747 7.81 0.0199253C7.47 0.109925 7.2 0.359925 7.09 0.689925L4.97 7.25993L1.4 10.8299C0.5 11.7299 0 12.9299 0 14.2099C0 15.4899 0.5 16.6899 1.4 17.5999C2.34 18.5399 3.56 18.9999 4.79 18.9999C4.8 18.9999 4.81 18.9999 4.81 18.9999C4.82 19.0099 4.82 19.0099 4.82 19.0199L7.92 22.1199C8.5 22.6899 9.25 22.9999 10.05 22.9999C10.85 22.9999 11.6 22.6899 12.16 22.1199C12.72 21.5599 13.04 20.8099 13.04 20.0099C13.04 19.2099 12.73 18.4599 12.16 17.8999L10.02 15.7599L11.75 14.0299L18.35 11.9499C18.68 11.8399 18.94 11.5699 19.02 11.2299C19.1 10.8999 19 10.5399 18.75 10.2899ZM2 14.2099C2 13.4599 2.29 12.7599 2.82 12.2399L5.85 9.20993L9.81 13.1499L6.77 16.1899C5.68 17.2799 3.91 17.2799 2.82 16.1899C2.29 15.6599 2 14.9599 2 14.2099ZM10.75 19.3099C10.94 19.4999 11.04 19.7499 11.04 20.0099C11.04 20.2699 10.94 20.5199 10.75 20.7099C10.38 21.0899 9.73 21.0899 9.35 20.7099L7.05 18.4099C7.45 18.1899 7.84 17.9399 8.18 17.5999L8.61 17.1699L10.75 19.3099ZM11.49 12.0099L6.99 7.51993L8.5 2.85993L16.18 10.5399L11.49 12.0099Z" fill="url(#paint0_linear)"/>
<defs>
<linearGradient id="paint0_linear" x1="0.986707" y1="15.7402" x2="15.4071" y2="6.81035" gradientUnits="userSpaceOnUse">
<stop offset="0.36" stop-color="#2041E0"/>
<stop offset="0.53" stop-color="#2549E3"/>
<stop offset="0.78" stop-color="#345EEA"/>
<stop offset="1" stop-color="#4476F2"/>
</linearGradient>
</defs>
</svg>
