<svg width="11" height="11" viewBox="0 0 11 11" fill="none" xmlns="http://www.w3.org/2000/svg">
<path d="M6.50001 11C6.37001 11 6.24001 10.95 6.15001 10.85L4.15001 8.85C4.05001 8.76 4.00001 8.63 4.00001 8.5V4.71L0.150012 0.85C1.20997e-05 0.71 -0.0399879 0.5 0.0400121 0.31C0.120012 0.12 0.300012 0 0.500012 0H10.5C10.7 0 10.88 0.12 10.96 0.31C11.04 0.5 10.99 0.71 10.85 0.85L7.00001 4.71V10.5C7.00001 10.7 6.88001 10.88 6.69001 10.96C6.63001 10.99 6.56001 11 6.50001 11ZM5.00001 8.29L6.00001 9.29V4.5C6.00001 4.37 6.05001 4.24 6.15001 4.15L9.29001 1H1.71001L4.86001 4.15C4.95001 4.24 5.00001 4.37 5.00001 4.5V8.29Z" fill="url(#paint0_linear)"/>
<defs>
<linearGradient id="paint0_linear" x1="1.2097e-05" y1="5.5" x2="10.9996" y2="5.5" gradientUnits="userSpaceOnUse">
<stop offset="0.3645" stop-color="#2041E0"/>
<stop offset="0.5292" stop-color="#2549E3"/>
<stop offset="0.7806" stop-color="#345EEA"/>
<stop offset="1" stop-color="#4476F2"/>
</linearGradient>
</defs>
</svg>
