<svg width="18" height="22" viewBox="0 0 18 22" fill="none" xmlns="http://www.w3.org/2000/svg">
<path d="M17 6.995H15C14.45 6.995 14 7.445 14 7.995V9.985C14 10.535 14.45 10.985 15 10.985V12.985H10V3.405L11.88 5.285C12.27 5.675 12.9 5.675 13.29 5.285C13.68 4.895 13.68 4.265 13.29 3.875L9.71 0.285C9.61 0.195 9.5 0.125 9.38 0.075C9.14 -0.025 8.86 -0.025 8.62 0.075C8.5 0.125 8.39 0.195 8.29 0.285L4.71 3.875C4.32 4.265 4.32 4.895 4.71 5.285C5.1 5.675 5.73 5.675 6.12 5.285L8 3.405V12.995H3V10.715C3.6 10.365 4 9.735 4 8.995C4 7.895 3.1 6.995 2 6.995C0.9 6.995 0 7.895 0 8.995C0 9.735 0.4 10.375 1 10.715V13.995C1 14.545 1.45 14.995 2 14.995H8V18.275C7.4 18.615 7 19.255 7 19.995C7 21.095 7.9 21.995 9 21.995C10.1 21.995 11 21.095 11 19.995C11 19.255 10.6 18.615 10 18.275V14.995H16C16.55 14.995 17 14.545 17 13.995V10.995C17.55 10.995 18 10.545 18 9.995V7.995C18 7.445 17.55 6.995 17 6.995Z" fill="url(#paint0_linear)"/>
<defs>
<linearGradient id="paint0_linear" x1="3.31579" y1="19.1009" x2="17.8241" y2="5.80299" gradientUnits="userSpaceOnUse">
<stop offset="0.407986" stop-color="#2041E0"/>
<stop offset="1" stop-color="#4476F2"/>
</linearGradient>
</defs>
</svg>
