<svg width="20" height="19" viewBox="0 0 20 19" fill="none" xmlns="http://www.w3.org/2000/svg">
<path d="M18 4.2V3C18 1.3 16.7 0 15 0H3C1.3 0 0 1.3 0 3V9C0 9.6 0.4 10 1 10C1.6 10 2 9.6 2 9V5.8C2.3 5.9 2.6 6 3 6H17C17.6 6 18 6.4 18 7V8H16.6C15.2 8 14 9.1 14 10.5C14 11.9 15.2 13 16.6 13H18V14C18 14.6 17.6 15 17 15H11C10.4 15 10 15.4 10 16C10 16.6 10.4 17 11 17H17.1H17.2C18.7 16.9 20 15.6 20 14V7C20 5.7 19.2 4.6 18 4.2ZM2 3C2 2.4 2.4 2 3 2H15C15.6 2 16 2.4 16 3V4H3C2.4 4 2 3.6 2 3ZM16.6 11C16.3 11 16 10.8 16 10.5C16 10.2 16.3 10 16.6 10H18V11H16.6Z" fill="url(#paint0_linear)"/>
<path d="M9.7 13.0571C7.3 10.3143 2.7 10.3143 0.3 13.0571C-0.1 13.5143 -0.1 14.2 0.3 14.6571C0.7 15.1143 1.3 15.1143 1.7 14.6571C3.3 12.8286 6.7 12.8286 8.3 14.6571C8.5 14.8857 8.7 15 9 15C9.3 15 9.5 14.8857 9.7 14.6571C10.1 14.2 10.1 13.5143 9.7 13.0571Z" fill="url(#paint1_linear)"/>
<path d="M2.3 15.0935C1.9 15.5421 1.9 16.215 2.3 16.6636C2.7 17.1121 3.3 17.1121 3.7 16.6636C4.3 15.9907 5.7 15.9907 6.3 16.6636C6.5 16.8878 6.8 17 7 17C7.2 17 7.5 16.8878 7.7 16.6636C8.1 16.215 8.1 15.5421 7.7 15.0935C6.3 13.6355 3.7 13.6355 2.3 15.0935Z" fill="url(#paint2_linear)"/>
<path d="M5 19C5.55228 19 6 18.5523 6 18C6 17.4477 5.55228 17 5 17C4.44772 17 4 17.4477 4 18C4 18.5523 4.44772 19 5 19Z" fill="url(#paint3_linear)"/>
<defs>
<linearGradient id="paint0_linear" x1="3.68421" y1="14.7632" x2="14.5252" y2="0.478507" gradientUnits="userSpaceOnUse">
<stop offset="0.407986" stop-color="#2041E0"/>
<stop offset="1" stop-color="#4476F2"/>
</linearGradient>
<linearGradient id="paint1_linear" x1="1.84211" y1="14.4737" x2="3.51989" y2="9.7759" gradientUnits="userSpaceOnUse">
<stop offset="0.407986" stop-color="#2041E0"/>
<stop offset="1" stop-color="#4476F2"/>
</linearGradient>
<linearGradient id="paint2_linear" x1="3.10526" y1="16.6053" x2="4.58408" y2="13.2927" gradientUnits="userSpaceOnUse">
<stop offset="0.407986" stop-color="#2041E0"/>
<stop offset="1" stop-color="#4476F2"/>
</linearGradient>
<linearGradient id="paint3_linear" x1="4.36842" y1="18.7368" x2="5.68421" y2="17.2632" gradientUnits="userSpaceOnUse">
<stop offset="0.407986" stop-color="#2041E0"/>
<stop offset="1" stop-color="#4476F2"/>
</linearGradient>
</defs>
</svg>
