<svg width="18" height="18" viewBox="0 0 18 18" fill="none" xmlns="http://www.w3.org/2000/svg">
<path d="M17.7 3.3L14.7 0.3C14.5 0.1 14.3 0 14 0H12H6H1C0.4 0 0 0.4 0 1V17C0 17.6 0.4 18 1 18H17C17.6 18 18 17.6 18 17V4C18 3.7 17.9 3.5 17.7 3.3ZM11 2V4H7V2H11ZM16 16H2V2H5V5C5 5.6 5.4 6 6 6H12C12.6 6 13 5.6 13 5V2H13.6L16 4.4V16Z" fill="white"/>
<path d="M9 7C6.8 7 5 8.8 5 11C5 13.2 6.8 15 9 15C11.2 15 13 13.2 13 11C13 8.8 11.2 7 9 7ZM9 13C7.9 13 7 12.1 7 11C7 9.9 7.9 9 9 9C10.1 9 11 9.9 11 11C11 12.1 10.1 13 9 13Z" fill="white"/>
</svg>
