<svg width="11" height="11" viewBox="0 0 11 11" fill="none" xmlns="http://www.w3.org/2000/svg">
<path d="M2.5 1C1.67157 1 1 1.67157 1 2.5V8.5C1 9.32843 1.67157 10 2.5 10H8.5C9.32843 10 10 9.32843 10 8.5V7.5C10 7.22386 10.2239 7 10.5 7C10.7761 7 11 7.22386 11 7.5V8.5C11 9.88071 9.88071 11 8.5 11H2.5C1.11929 11 0 9.88071 0 8.5V2.5C0 1.11929 1.11929 0 2.5 0H3.5C3.77614 0 4 0.223858 4 0.5C4 0.776142 3.77614 1 3.5 1H2.5Z" fill="url(#paint0_linear)"/>
<path fill-rule="evenodd" clip-rule="evenodd" d="M6.00001 0.5C6.00001 0.223858 6.22387 0 6.50001 0H10.5C10.7761 0 11 0.223858 11 0.5V4.5C11 4.77614 10.7761 5 10.5 5C10.2239 5 10 4.77614 10 4.5V1.69208L4.85001 6.84207C4.65475 7.03733 4.33817 7.03733 4.14291 6.84207C3.94764 6.64681 3.94764 6.33023 4.14291 6.13496L9.27787 1H6.50001C6.22387 1 6.00001 0.776142 6.00001 0.5Z" fill="url(#paint1_linear)"/>
<defs>
<linearGradient id="paint0_linear" x1="2.02632" y1="9.55263" x2="9.26316" y2="1.44737" gradientUnits="userSpaceOnUse">
<stop offset="0.407986" stop-color="#2041E0"/>
<stop offset="1" stop-color="#4476F2"/>
</linearGradient>
<linearGradient id="paint1_linear" x1="5.28659" y1="6.06898" x2="9.88317" y2="0.90973" gradientUnits="userSpaceOnUse">
<stop offset="0.407986" stop-color="#2041E0"/>
<stop offset="1" stop-color="#4476F2"/>
</linearGradient>
</defs>
</svg>
