<svg width="18" height="18" viewBox="0 0 18 18" fill="none" xmlns="http://www.w3.org/2000/svg">
<path d="M9 2.12L11 3.12V5.67L9 6.65L7 5.66V3.12L9 2.12ZM9 0C8.85 0 8.69 0.04 8.55 0.11L5.55 1.61C5.21 1.78 5 2.12 5 2.5V6.29C5 6.67 5.22 7.02 5.56 7.18L8.56 8.66C8.7 8.73 8.85 8.77 9 8.77C9.15 8.77 9.3 8.74 9.44 8.67L12.44 7.19C12.78 7.01 13 6.67 13 6.29V2.5C13 2.12 12.79 1.78 12.45 1.61L9.45 0.11C9.31 0.04 9.15 0 9 0Z" fill="url(#paint0_linear)"/>
<path d="M14 11.12L16 12.12V14.65L14 15.65L12 14.65V12.12L14 11.12ZM14 9C13.85 9 13.69 9.04 13.55 9.11L10.55 10.61C10.21 10.78 10 11.12 10 11.5V15.27C10 15.65 10.21 15.99 10.55 16.16L13.55 17.66C13.69 17.73 13.84 17.77 14 17.77C14.16 17.77 14.31 17.73 14.45 17.66L17.45 16.16C17.79 15.99 18 15.65 18 15.27V11.5C18 11.12 17.79 10.78 17.45 10.61L14.45 9.11C14.31 9.04 14.15 9 14 9Z" fill="url(#paint1_linear)"/>
<path d="M4 11.11L6 12.1V14.65L4 15.65L2 14.65V12.1L4 11.11ZM4 9C3.85 9 3.7 9.03 3.56 9.1L0.56 10.58C0.22 10.75 0 11.1 0 11.48V15.27C0 15.65 0.21 15.99 0.55 16.16L3.55 17.66C3.69 17.73 3.84 17.77 4 17.77C4.16 17.77 4.31 17.73 4.45 17.66L7.45 16.16C7.79 15.99 8 15.64 8 15.27V11.48C8 11.1 7.78 10.75 7.44 10.59L4.44 9.11C4.3 9.03 4.15 9 4 9Z" fill="url(#paint2_linear)"/>
<defs>
<linearGradient id="paint0_linear" x1="8.44405" y1="-1.05692" x2="1.57872" y2="4.66519" gradientUnits="userSpaceOnUse">
<stop stop-color="#4476F2"/>
<stop offset="1" stop-color="#2041E0"/>
</linearGradient>
<linearGradient id="paint1_linear" x1="13.444" y1="7.94308" x2="6.57872" y2="13.6652" gradientUnits="userSpaceOnUse">
<stop stop-color="#4476F2"/>
<stop offset="1" stop-color="#2041E0"/>
</linearGradient>
<linearGradient id="paint2_linear" x1="3.44405" y1="7.94308" x2="-3.42128" y2="13.6652" gradientUnits="userSpaceOnUse">
<stop stop-color="#4476F2"/>
<stop offset="1" stop-color="#2041E0"/>
</linearGradient>
</defs>
</svg>
