<svg width="10" height="10" viewBox="0 0 10 10" fill="none" xmlns="http://www.w3.org/2000/svg">
<path d="M5 10C7.76143 10 10 7.76143 10 4.99999C10 4.1741 9.79977 3.39497 9.44518 2.70852C9.42241 2.66444 9.35684 2.67115 9.33925 2.7175C9.11048 3.32029 8.532 3.74213 7.88634 3.77563C7.8463 3.7777 7.81925 3.81899 7.83425 3.85615C7.97698 4.20947 8.05557 4.59555 8.05557 4.99999C8.05557 6.68754 6.68754 8.05555 5 8.05555C4.61677 8.05555 4.25002 7.985 3.91202 7.85617C3.87454 7.8419 3.83379 7.8698 3.83252 7.90988C3.81209 8.55593 3.40079 9.14267 2.8029 9.3832C2.7569 9.4017 2.75149 9.46738 2.79599 9.48928C3.46088 9.8163 4.209 10 5 10Z" fill="#00BF72"/>
<path d="M6.088 2.14382C6.12548 2.15811 6.16623 2.1302 6.1675 2.09012C6.18793 1.44407 6.59923 0.857316 7.19711 0.616803C7.24311 0.598295 7.24852 0.532617 7.20402 0.510728C6.53914 0.183685 5.79102 0 5 0C2.23859 0 0 2.23858 0 4.99999C0 5.8259 0.200246 6.60503 0.554837 7.29149C0.577596 7.33556 0.643158 7.32885 0.660753 7.2825C0.889522 6.67972 1.468 6.25788 2.11368 6.22437C2.15371 6.22231 2.18077 6.18101 2.16575 6.14385C2.02303 5.79054 1.94445 5.40446 1.94445 4.99999C1.94445 3.31247 3.31247 1.94444 5 1.94444C5.38325 1.94444 5.75 2.015 6.088 2.14382Z" fill="#00BF72"/>
<path d="M7.22222 4.99998C7.22222 6.22728 6.22731 7.22222 4.99999 7.22222C3.77269 7.22222 2.77778 6.22728 2.77778 4.99998C2.77778 3.7727 3.77269 2.77777 4.99999 2.77777C6.22731 2.77777 7.22222 3.7727 7.22222 4.99998Z" fill="#00BF72"/>
<path d="M3.16667 7.86111C3.16667 8.39806 2.73138 8.83334 2.19444 8.83334C1.65749 8.83334 1.22222 8.39806 1.22222 7.86111C1.22222 7.32417 1.65749 6.88889 2.19444 6.88889C2.73138 6.88889 3.16667 7.32417 3.16667 7.86111Z" fill="#00BF72"/>
<path d="M7.80558 3.11111C8.34251 3.11111 8.7778 2.67583 8.7778 2.13888C8.7778 1.60194 8.34251 1.16666 7.80558 1.16666C7.26862 1.16666 6.83335 1.60194 6.83335 2.13888C6.83335 2.67583 7.26862 3.11111 7.80558 3.11111Z" fill="#00BF72"/>
</svg>
