<svg width="9" height="9" viewBox="0 0 9 9" fill="none" xmlns="http://www.w3.org/2000/svg">
<path d="M7.06792 7.49861L7.06792 1.5L8.18113 2.68524C8.39245 2.88579 8.70943 2.88579 8.92075 2.68524C9.02641 2.48468 9.02641 2.18384 8.92075 1.98329L6.8566 0.0752088C6.64528 -0.0250697 6.3283 -0.0250698 6.11698 0.0752088L4.15849 1.98329C3.94717 2.18384 3.94717 2.48468 4.15849 2.68524C4.36981 2.88579 4.68679 2.88579 4.89811 2.68524L6.01132 1.5L6.01132 7.49861C6.01132 7.79944 6.22264 8 6.53962 8C6.75094 8 7.06792 7.79944 7.06792 7.49861Z" fill="#979797"/>
<path d="M1.93208 1.50139L1.93208 7.5L0.818868 6.31476C0.607547 6.11421 0.290566 6.11421 0.0792456 6.31476C-0.0264148 6.51532 -0.0264148 6.81616 0.0792455 7.01671L2.1434 8.92479C2.35472 9.02507 2.6717 9.02507 2.88302 8.92479L4.84151 7.01671C5.05283 6.81616 5.05283 6.51532 4.84151 6.31476C4.63019 6.11421 4.31321 6.11421 4.10189 6.31476L2.98868 7.5L2.98868 1.50139C2.98868 1.20056 2.77736 0.999999 2.46038 0.999999C2.24906 0.999999 1.93208 1.20056 1.93208 1.50139Z" fill="#979797"/>
</svg>
