<svg xmlns="http://www.w3.org/2000/svg" viewBox="0 0 13 13"><defs><style>.cls-1{fill:#333;}</style></defs><g id="artwork"><path class="cls-1" d="M1.49,5.49A.5.5,0,0,1,1,5V2.41A1.43,1.43,0,0,1,2.41,1H5a.5.5,0,0,1,.5.5A.5.5,0,0,1,5,2H2.41A.42.42,0,0,0,2,2.41V5A.5.5,0,0,1,1.49,5.49Z"/><path class="cls-1" d="M5,12H2.41A1.42,1.42,0,0,1,1,10.57V8a.51.51,0,0,1,.5-.5A.5.5,0,0,1,2,8v2.58a.42.42,0,0,0,.42.42H5a.5.5,0,0,1,.5.5A.5.5,0,0,1,5,12Z"/><path class="cls-1" d="M10.57,12H8a.5.5,0,0,1-.5-.5A.51.51,0,0,1,8,11h2.58a.41.41,0,0,0,.42-.42V8a.51.51,0,0,1,.5-.5A.5.5,0,0,1,12,8v2.58A1.41,1.41,0,0,1,10.57,12Z"/><path class="cls-1" d="M11.49,5.49A.5.5,0,0,1,11,5V2.41A.42.42,0,0,0,10.57,2H8a.5.5,0,0,1-.5-.5A.51.51,0,0,1,8,1h2.58A1.42,1.42,0,0,1,12,2.41V5A.5.5,0,0,1,11.49,5.49Z"/><path class="cls-1" d="M8.49,9h-4a.5.5,0,0,1-.5-.5v-4a.5.5,0,0,1,.5-.5h4a.5.5,0,0,1,.5.5v4A.5.5,0,0,1,8.49,9ZM5,8H8V5H5Z"/></g></svg>