<?xml version="1.0" standalone="no"?>
<!DOCTYPE svg PUBLIC "-//W3C//DTD SVG 20010904//EN"
 "http://www.w3.org/TR/2001/REC-SVG-20010904/DTD/svg10.dtd">
<svg version="1.0" xmlns="http://www.w3.org/2000/svg"
 width="860.000000pt" height="621.000000pt" viewBox="0 0 860.000000 621.000000"
 preserveAspectRatio="xMidYMid meet">

<g transform="translate(0.000000,621.000000) scale(0.100000,-0.100000)"
fill="#000000" stroke="none">
<path d="M1600 5100 l0 -700 100 0 100 0 0 600 0 600 600 0 600 0 0 100 0 100
-700 0 -700 0 0 -700z"/>
<path d="M5600 5700 l0 -100 600 0 600 0 0 -600 0 -600 100 0 100 0 0 700 0
700 -700 0 -700 0 0 -100z"/>
<path d="M2200 4500 l0 -700 700 0 700 0 0 700 0 700 -700 0 -700 0 0 -700z
m1200 0 l0 -500 -500 0 -500 0 0 500 0 500 500 0 500 0 0 -500z"/>
<path d="M2600 4500 l0 -300 300 0 300 0 0 300 0 300 -300 0 -300 0 0 -300z"/>
<path d="M3800 5000 l0 -200 100 0 100 0 0 -100 0 -100 -100 0 -100 0 0 -200
0 -200 100 0 100 0 0 -100 0 -100 -100 0 -100 0 0 -100 0 -100 100 0 100 0 0
-100 0 -100 100 0 100 0 0 -200 0 -200 -100 0 -100 0 0 100 0 100 -100 0 -100
0 0 100 0 100 -200 0 -200 0 0 -100 0 -100 -100 0 -100 0 0 100 0 100 -100 0
-100 0 0 -100 0 -100 -200 0 -200 0 0 100 0 100 -200 0 -200 0 0 -100 0 -100
200 0 200 0 0 -100 0 -100 100 0 100 0 0 -100 0 -100 100 0 100 0 0 -100 0
-100 -200 0 -200 0 0 100 0 100 -100 0 -100 0 0 100 0 100 -100 0 -100 0 0
-300 0 -300 100 0 100 0 0 100 0 100 100 0 100 0 0 -100 0 -100 200 0 200 0 0
100 0 100 100 0 100 0 0 -100 0 -100 100 0 100 0 0 100 0 100 -100 0 -100 0 0
100 0 100 200 0 200 0 0 -200 0 -200 200 0 200 0 0 -100 0 -100 -100 0 -100 0
0 -200 0 -200 200 0 200 0 0 -100 0 -100 -200 0 -200 0 0 -200 0 -200 100 0
100 0 0 100 0 100 200 0 200 0 0 200 0 200 100 0 100 0 0 -100 0 -100 200 0
200 0 0 100 0 100 100 0 100 0 0 -200 0 -200 -100 0 -100 0 0 -100 0 -100
-100 0 -100 0 0 100 0 100 -100 0 -100 0 0 -100 0 -100 100 0 100 0 0 -100 0
-100 -200 0 -200 0 0 100 0 100 -100 0 -100 0 0 -100 0 -100 -200 0 -200 0 0
-100 0 -100 200 0 200 0 0 100 0 100 100 0 100 0 0 -100 0 -100 200 0 200 0 0
100 0 100 100 0 100 0 0 -100 0 -100 100 0 100 0 0 300 0 300 100 0 100 0 0
-100 0 -100 100 0 100 0 0 -100 0 -100 -100 0 -100 0 0 -100 0 -100 200 0 200
0 0 200 0 200 200 0 200 0 0 -100 0 -100 -100 0 -100 0 0 -100 0 -100 200 0
200 0 0 200 0 200 -100 0 -100 0 0 100 0 100 100 0 100 0 0 100 0 100 -100 0
-100 0 0 100 0 100 100 0 100 0 0 100 0 100 -200 0 -200 0 0 -100 0 -100 -100
0 -100 0 0 200 0 200 100 0 100 0 0 100 0 100 100 0 100 0 0 -100 0 -100 100
0 100 0 0 200 0 200 -100 0 -100 0 0 100 0 100 100 0 100 0 0 200 0 200 -100
0 -100 0 0 100 0 100 -200 0 -200 0 0 -100 0 -100 200 0 200 0 0 -200 0 -200
-100 0 -100 0 0 100 0 100 -200 0 -200 0 0 200 0 200 -100 0 -100 0 0 -200 0
-200 -200 0 -200 0 0 100 0 100 100 0 100 0 0 100 0 100 -100 0 -100 0 0 -100
0 -100 -100 0 -100 0 0 300 0 300 -100 0 -100 0 0 -300 0 -300 100 0 100 0 0
-100 0 -100 -200 0 -200 0 0 200 0 200 -100 0 -100 0 0 100 0 100 100 0 100 0
0 100 0 100 -100 0 -100 0 0 100 0 100 100 0 100 0 0 100 0 100 100 0 100 0 0
-100 0 -100 100 0 100 0 0 100 0 100 -100 0 -100 0 0 100 0 100 100 0 100 0 0
100 0 100 -200 0 -200 0 0 -200 0 -200 -100 0 -100 0 0 -100 0 -100 -100 0
-100 0 0 200 0 200 100 0 100 0 0 100 0 100 -100 0 -100 0 0 100 0 100 100 0
100 0 0 100 0 100 -200 0 -200 0 0 -200z m-600 -1800 l0 -200 -100 0 -100 0 0
200 0 200 100 0 100 0 0 -200z m600 100 l0 -100 100 0 100 0 0 -200 0 -200
100 0 100 0 0 200 0 200 100 0 100 0 0 -200 0 -200 100 0 100 0 0 100 0 100
100 0 100 0 0 100 0 100 100 0 100 0 0 -100 0 -100 100 0 100 0 0 -100 0 -100
100 0 100 0 0 200 0 200 100 0 100 0 0 -200 0 -200 100 0 100 0 0 100 0 100
100 0 100 0 0 -200 0 -200 -100 0 -100 0 0 -100 0 -100 -200 0 -200 0 0 -100
0 -100 100 0 100 0 0 -100 0 -100 100 0 100 0 0 -100 0 -100 200 0 200 0 0
-100 0 -100 -200 0 -200 0 0 -100 0 -100 -100 0 -100 0 0 100 0 100 -100 0
-100 0 0 300 0 300 -200 0 -200 0 0 -100 0 -100 -200 0 -200 0 0 100 0 100
-100 0 -100 0 0 -100 0 -100 -100 0 -100 0 0 100 0 100 -100 0 -100 0 0 100 0
100 200 0 200 0 0 100 0 100 -200 0 -200 0 0 100 0 100 -100 0 -100 0 0 100 0
100 -100 0 -100 0 0 100 0 100 -100 0 -100 0 0 100 0 100 200 0 200 0 0 -100z"/>
<path d="M4600 2500 l0 -300 200 0 200 0 0 100 0 100 100 0 100 0 0 200 0 200
-100 0 -100 0 0 -200 0 -200 -100 0 -100 0 0 200 0 200 -100 0 -100 0 0 -300z"/>
<path d="M5400 2700 l0 -100 100 0 100 0 0 100 0 100 -100 0 -100 0 0 -100z"/>
<path d="M5600 1700 l0 -100 100 0 100 0 0 100 0 100 -100 0 -100 0 0 -100z"/>
<path d="M4400 5100 l0 -100 200 0 200 0 0 100 0 100 -200 0 -200 0 0 -100z"/>
<path d="M5000 4500 l0 -700 700 0 700 0 0 700 0 700 -700 0 -700 0 0 -700z
m1200 0 l0 -500 -500 0 -500 0 0 500 0 500 500 0 500 0 0 -500z"/>
<path d="M5400 4500 l0 -300 300 0 300 0 0 300 0 300 -300 0 -300 0 0 -300z"/>
<path d="M2200 1700 l0 -700 700 0 700 0 0 700 0 700 -700 0 -700 0 0 -700z
m1200 0 l0 -500 -500 0 -500 0 0 500 0 500 500 0 500 0 0 -500z"/>
<path d="M2600 1700 l0 -300 300 0 300 0 0 300 0 300 -300 0 -300 0 0 -300z"/>
<path d="M1600 1100 l0 -700 700 0 700 0 0 100 0 100 -600 0 -600 0 0 600 0
600 -100 0 -100 0 0 -700z"/>
<path d="M6800 1200 l0 -600 -600 0 -600 0 0 -100 0 -100 700 0 700 0 0 700 0
700 -100 0 -100 0 0 -600z"/>
</g>
</svg>
