<svg xmlns="http://www.w3.org/2000/svg" xmlns:xlink="http://www.w3.org/1999/xlink" viewBox="0 0 13 13"><defs><style>.cls-1{fill:url(#linear-gradient);}.cls-2{fill:url(#linear-gradient-2);}</style><linearGradient id="linear-gradient" x1="0.99" y1="6.5" x2="1.99" y2="6.5" gradientUnits="userSpaceOnUse"><stop offset="0.36" stop-color="#2041e0"/><stop offset="0.53" stop-color="#2549e3"/><stop offset="0.78" stop-color="#345eea"/><stop offset="1" stop-color="#4476f2"/></linearGradient><linearGradient id="linear-gradient-2" x1="2.99" x2="11.99" xlink:href="#linear-gradient"/></defs><g id="artwork"><rect class="cls-1" x="0.99" y="1.99" width="1" height="9.01" rx="0.5"/><path class="cls-2" d="M11.49,6H4.7l2-2a.51.51,0,0,0,0-.71.5.5,0,0,0-.71,0L3.14,6.15a.48.48,0,0,0,0,.7L6,9.68a.5.5,0,0,0,.71,0,.51.51,0,0,0,0-.71l-2-2h6.79a.5.5,0,1,0,0-1Z"/></g></svg>