<svg width="22" height="18" viewBox="0 0 22 18" fill="none" xmlns="http://www.w3.org/2000/svg">
<g clip-path="url(#clip0)">
<path d="M21.6 8.3L19.6 6.3C19.2 5.9 18.6 5.9 18.2 6.3L16.2 8.3C15.8 8.7 15.8 9.3 16.2 9.7C16.4 9.9 16.7 10 16.9 10C17.1 10 17.4 9.9 17.6 9.7L17.9 9.4C17.7 13.1 14.6 16 10.9 16C8.80004 16 6.80004 15 5.40004 13.4C5.10004 13 4.40004 12.9 4.00004 13.2C3.60004 13.5 3.50004 14.2 3.80004 14.6C5.50004 16.7 8.10004 18 10.8 18C15.6 18 19.6 14.2 19.8 9.4L20.1 9.7C20.3 9.9 20.6 10 20.8 10C21 10 21.3 9.9 21.5 9.7C22 9.3 22 8.7 21.6 8.3Z" fill="#979797"/>
<path d="M5.7 9.7C6.1 9.3 6.1 8.7 5.7 8.3C5.3 7.9 4.7 7.9 4.3 8.3L4 8.6C4.2 4.9 7.3 2 11 2C13 2 14.9 2.8 16.2 4.3C16.6 4.7 17.2 4.7 17.6 4.4C18 4 18 3.4 17.7 3C16 1.1 13.5 0 11 0C6.2 0 2.2 3.8 2 8.6L1.7 8.3C1.3 7.9 0.7 7.9 0.3 8.3C-0.1 8.7 -0.1 9.3 0.3 9.7L2.3 11.7C2.5 11.9 2.7 12 3 12C3.3 12 3.5 11.9 3.7 11.7L5.7 9.7Z" fill="#979797"/>
</g>
<defs>
<clipPath id="clip0">
<rect width="21.9" height="18" fill="white"/>
</clipPath>
</defs>
</svg>
