<svg width="9" height="7" viewBox="0 0 9 7" fill="none" xmlns="http://www.w3.org/2000/svg">
<path d="M0.500097 3.89981L7.3001 3.8998L5.3001 5.8998C5.1001 6.0998 5.1001 6.39981 5.3001 6.59981C5.5001 6.6998 5.8001 6.6998 6.0001 6.5998L8.9001 3.6998C9.0001 3.4998 9.0001 3.1998 8.9001 2.9998L6.0001 0.199805C5.8001 -0.000194749 5.5001 -0.000194723 5.3001 0.199805C5.1001 0.399805 5.1001 0.699805 5.3001 0.899805L7.3001 2.8998L0.500097 2.89981C0.200097 2.89981 9.69622e-05 3.09981 9.69885e-05 3.39981C9.7006e-05 3.59981 0.200097 3.89981 0.500097 3.89981Z" fill="#4F4F4F"/>
</svg>
