<svg width="9" height="7" viewBox="0 0 9 7" fill="none" xmlns="http://www.w3.org/2000/svg">
<path d="M3.21109 6.83233L8.80617 1.01454C8.86422 0.962847 8.91137 0.899239 8.94465 0.827705C8.97793 0.75617 8.99664 0.678254 8.99959 0.598846C9.00254 0.519439 8.98967 0.440254 8.96179 0.366263C8.93391 0.292272 8.89163 0.225072 8.83759 0.168881C8.78355 0.112689 8.71892 0.0687197 8.64776 0.0397319C8.5766 0.010744 8.50045 -0.00263601 8.42408 0.000431143C8.34771 0.0034983 8.27278 0.0229465 8.20398 0.0575553C8.13519 0.0921641 8.07401 0.141186 8.0243 0.201545L2.82293 5.60996L0.948663 3.66108C0.897114 3.60704 0.835783 3.56415 0.76821 3.53487C0.700637 3.5056 0.628159 3.49053 0.554956 3.49053C0.481753 3.49053 0.409275 3.5056 0.341702 3.53487C0.274129 3.56415 0.212798 3.60704 0.161249 3.66108C0.0579694 3.76912 -6.84565e-07 3.91525 -7.11198e-07 4.06758C-7.37832e-07 4.21991 0.0579693 4.36604 0.161249 4.47408L2.42922 6.83233C2.53312 6.93972 2.67366 7 2.82016 7C2.96665 7 3.1072 6.93972 3.21109 6.83233Z" fill="#333333"/>
</svg>
