<svg width="11" height="7" viewBox="0 0 11 7" fill="none" xmlns="http://www.w3.org/2000/svg">
<path d="M10.9099 3.35C9.91995 2 8.83995 1.05 7.69995 0.51C7.68995 0.51 7.67995 0.5 7.66995 0.5C6.95995 0.17 6.23995 0 5.49995 0C3.55995 0 1.68995 1.16 0.0999468 3.35C-0.0300532 3.53 -0.0300532 3.78 0.109947 3.96C1.70995 5.95 3.56995 7 5.49995 7C7.42995 7 9.28995 5.95 10.8899 3.96C11.0299 3.78 11.0399 3.53 10.9099 3.35ZM7.15995 1.4C7.37995 1.73 7.49995 2.1 7.49995 2.51C7.49995 3.61 6.59995 4.51 5.49995 4.51C4.39995 4.51 3.49995 3.61 3.49995 2.51C3.49995 2.13 3.60995 1.75 3.81995 1.43C3.81995 1.42 3.81995 1.41 3.82995 1.4C4.92995 0.93 6.05995 0.93 7.15995 1.4ZM1.13995 3.63C1.57995 3.06 2.04995 2.59 2.51995 2.21C2.50995 2.31 2.49995 2.41 2.49995 2.51C2.49995 4.16 3.84995 5.51 5.49995 5.51C7.14995 5.51 8.49995 4.16 8.49995 2.51C8.49995 2.41 8.47995 2.31 8.46995 2.21C8.94995 2.59 9.40995 3.06 9.85995 3.63C7.17995 6.74 3.81995 6.74 1.13995 3.63Z" fill="url(#paint0_linear)"/>
<defs>
<linearGradient id="paint0_linear" x1="-5.31607e-05" y1="3.501" x2="11.0019" y2="3.501" gradientUnits="userSpaceOnUse">
<stop offset="0.3645" stop-color="#2041E0"/>
<stop offset="0.5292" stop-color="#2549E3"/>
<stop offset="0.7806" stop-color="#345EEA"/>
<stop offset="1" stop-color="#4476F2"/>
</linearGradient>
</defs>
</svg>
