<svg width="18" height="13" viewBox="0 0 18 13" fill="none" xmlns="http://www.w3.org/2000/svg">
<path d="M1.33236 12.3737C1.04942 12.3737 0.77772 12.3192 0.548212 12.1768C0.338393 12.0469 -0.0120563 11.7268 0.000319123 11.0496C0.0160696 10.1917 0.757469 9.80695 1.20073 9.57744L1.34136 9.50375C1.92526 9.18874 2.36908 8.90467 2.73753 8.60822C3.22636 8.21502 3.55319 7.83813 3.67863 7.6255C3.59031 7.60806 3.502 7.60188 3.40918 7.59513C3.27193 7.585 3.1358 7.57431 3.00529 7.54956C2.35108 7.42524 1.72725 7.09955 1.24742 6.63266C0.122386 5.53687 -0.205563 3.69462 0.468335 2.25232C1.10736 0.884279 2.55528 0 4.15677 0C5.39656 0 6.52047 0.538893 7.32094 1.5188C8.24515 2.64834 8.63498 4.2577 8.33966 5.71969C7.85139 8.13627 5.9422 10.4184 3.23311 11.8225C2.92992 11.9794 2.09176 12.3737 1.33236 12.3737V12.3737ZM4.15677 1.12504C2.9721 1.12504 1.94945 1.73931 1.48818 2.72878C1.0106 3.75144 1.23955 5.05423 2.0327 5.82713C2.35615 6.14214 2.77579 6.36152 3.21455 6.44478C3.30287 6.46165 3.39624 6.46671 3.48962 6.47346C3.68144 6.48696 3.89914 6.50271 4.12246 6.5764C4.66304 6.75472 4.80648 7.12767 4.84417 7.33412C4.95161 7.92645 4.48022 8.64985 3.44293 9.48519C3.01992 9.82495 2.52153 10.1461 1.87519 10.4943L1.71938 10.5765C1.31099 10.788 1.12817 10.91 1.12536 11.0709C1.12311 11.1868 1.14561 11.2256 1.14617 11.2262C1.27555 11.3156 1.97251 11.2082 2.71503 10.8234C4.57528 9.8587 6.74042 7.95289 7.23712 5.49637C7.46775 4.35727 7.16624 3.10566 6.45072 2.23095C6.03727 1.72637 5.30487 1.12504 4.15677 1.12504V1.12504ZM10.8952 12.3743C10.6122 12.3743 10.3405 12.3192 10.1105 12.1768C9.90064 12.0463 9.5502 11.7268 9.56257 11.0496C9.57832 10.1917 10.3203 9.80695 10.7635 9.57744L10.9036 9.50375C11.4875 9.1893 11.9313 8.90467 12.3003 8.60822C12.8066 8.19927 13.1205 7.83251 13.2414 7.6255C13.1531 7.60806 13.0642 7.60188 12.972 7.59513C12.8353 7.585 12.6992 7.57431 12.5681 7.54956C11.9139 7.42524 11.2901 7.09955 10.8102 6.63266C9.6852 5.53687 9.35725 3.69462 10.0306 2.25289C10.6797 0.863466 12.0933 0 13.7196 0C14.9588 0 16.0827 0.539455 16.8837 1.5188C17.808 2.64834 18.1984 4.25827 17.903 5.71969C17.4142 8.13683 15.505 10.4184 12.7959 11.8225C12.4922 11.9794 11.6546 12.3737 10.8952 12.3743V12.3743ZM13.7196 1.12504C12.5355 1.12504 11.5128 1.73987 11.051 2.72878C10.5734 3.75144 10.8029 5.05423 11.5961 5.82713C11.919 6.14214 12.3386 6.36152 12.7779 6.44478C12.8662 6.46109 12.9591 6.46671 13.0524 6.47346C13.2443 6.48696 13.462 6.50271 13.6858 6.5764C14.2264 6.75472 14.3699 7.12711 14.4075 7.33355C14.515 7.92476 14.0442 8.64872 13.0069 9.48463C12.5822 9.82551 12.0838 10.1467 11.438 10.4943L11.2822 10.5765C10.8744 10.788 10.6915 10.91 10.6887 11.0709C10.6865 11.1868 10.709 11.2256 10.7095 11.2262C10.8372 11.3156 11.5353 11.2087 12.2784 10.8234C14.1387 9.8587 16.3032 7.95289 16.7999 5.49637C17.0306 4.35727 16.7291 3.10566 16.0135 2.23095C15.6001 1.72637 14.8677 1.12504 13.7196 1.12504V1.12504Z" fill="white"/>
</svg>
