<svg width="20" height="21" viewBox="0 0 20 21" fill="none" xmlns="http://www.w3.org/2000/svg">
<path d="M10 21H9.9C0.0999994 19.9 0 4.6 0 4C0 3.6 0.2 3.3 0.5 3.1C0.8 2.9 1.2 2.9 1.5 3.1C1.5 3.1 3.7 4.5 5.9 3.9C7.2 3.5 8.3 2.4 9.1 0.5C9.2 0.2 9.6 0 10 0C10.4 0 10.8 0.2 10.9 0.6C10.9 0.6 12.1 3.4 14.4 4.1C15.6 4.5 17 4.1 18.4 3.2C18.7 3 19.1 3 19.4 3.2C19.8 3.3 20 3.6 20 4C20 4.6 19.9 19.9 10.1 21H10ZM2.1 5.6C2.4 9.4 3.8 18.2 10 19C16.2 18.2 17.6 9.5 17.9 5.7C16.5 6.3 15.1 6.4 13.8 6C12 5.5 10.8 4.1 10 3C9.1 4.5 7.9 5.5 6.5 5.9C4.8 6.4 3.2 6.1 2.1 5.6Z" fill="url(#paint0_linear)"/>
<defs>
<linearGradient id="paint0_linear" x1="3.68421" y1="18.2368" x2="17.5599" y2="3.4361" gradientUnits="userSpaceOnUse">
<stop offset="0.407986" stop-color="#2041E0"/>
<stop offset="1" stop-color="#4476F2"/>
</linearGradient>
</defs>
</svg>
