<svg width="11" height="8" viewBox="0 0 11 8" fill="none" xmlns="http://www.w3.org/2000/svg">
<path d="M4.70056 7.71368L10.657 1.73253C10.7597 1.64426 10.8432 1.53564 10.9021 1.41348C10.961 1.29132 10.994 1.15826 10.9993 1.02265C11.0045 0.887049 10.9817 0.751825 10.9324 0.62547C10.8831 0.499115 10.8082 0.384357 10.7126 0.288399C10.617 0.19244 10.5026 0.117353 10.3767 0.0678501C10.2508 0.0183474 10.1161 -0.00450232 9.98096 0.000735484C9.84584 0.00597329 9.71325 0.0391851 9.59152 0.0982869C9.46979 0.157389 9.36155 0.241105 9.27359 0.344179L4.01375 5.62623L1.67857 3.28276C1.58736 3.19048 1.47884 3.11722 1.35928 3.06723C1.23971 3.01725 1.11147 2.99151 0.981943 2.99151C0.852418 2.99151 0.724174 3.01724 0.60461 3.06723C0.485046 3.11722 0.376527 3.19048 0.285315 3.28276C0.102572 3.46725 -6.49867e-07 3.71681 -6.9535e-07 3.97694C-7.40832e-07 4.23707 0.102572 4.48663 0.285315 4.67112L3.31712 7.71368C3.50095 7.89707 3.74963 8.00001 4.00884 8.00001C4.26805 8.00001 4.51673 7.89707 4.70056 7.71368Z" fill="url(#paint0_linear)"/>
<defs>
<linearGradient id="paint0_linear" x1="2.02631" y1="6.94737" x2="6.86519" y2="-0.504488" gradientUnits="userSpaceOnUse">
<stop offset="0.407986" stop-color="#2041E0"/>
<stop offset="1" stop-color="#4476F2"/>
</linearGradient>
</defs>
</svg>
