<svg width="137" height="136" viewBox="0 0 137 136" fill="none" xmlns="http://www.w3.org/2000/svg">
<g clip-path="url(#clip0_1741_8293)">
<rect x="0.0253906" width="136" height="136" rx="68" fill="#1782FF"/>
<rect x="-11.9746" y="-12" width="160" height="160" fill="url(#paint0_linear_1741_8293)"/>
<path d="M44.1823 78.8675C44.1823 77.4683 43.0829 76.334 41.7267 76.334H30.6769C29.3208 76.334 28.2214 77.4683 28.2214 78.8675V90.2681C28.2214 91.6673 29.3208 92.8016 30.6769 92.8016H40.499C41.8551 92.8016 42.9545 93.9358 42.9545 95.335V105.469C42.9545 106.868 44.0539 108.002 45.41 108.002H56.4598C57.8159 108.002 58.9153 106.868 58.9153 105.469V94.0683C58.9153 92.6691 57.8159 91.5348 56.4598 91.5348H46.6378C45.2816 91.5348 44.1823 90.4005 44.1823 89.0014V78.8675Z" fill="url(#paint1_linear_1741_8293)"/>
<path d="M58.9153 30.7317C58.9153 29.3325 57.8159 28.1982 56.4598 28.1982H45.41C44.0539 28.1982 42.9545 29.3325 42.9545 30.7317V40.8656C42.9545 42.2647 41.8551 43.399 40.499 43.399H30.6769C29.3208 43.399 28.2214 44.5333 28.2214 45.9325V57.3331C28.2214 58.7323 29.3208 59.8665 30.6769 59.8665H41.7267C43.0829 59.8665 44.1823 58.7323 44.1823 57.3331V47.1992C44.1823 45.8 45.2816 44.6658 46.6378 44.6658H56.4598C57.8159 44.6658 58.9153 43.5315 58.9153 42.1323V30.7317Z" fill="url(#paint2_linear_1741_8293)"/>
<path d="M77.3316 30.7317C77.3316 29.3325 78.431 28.1982 79.7872 28.1982H90.8369C92.1931 28.1982 93.2925 29.3325 93.2925 30.7317V40.8656C93.2925 42.2647 94.3918 43.399 95.748 43.399H105.57C106.926 43.399 108.026 44.5333 108.026 45.9325V57.3331C108.026 58.7323 106.926 59.8665 105.57 59.8665H94.5202C93.1641 59.8665 92.0647 58.7323 92.0647 57.3331V47.1992C92.0647 45.8 90.9653 44.6658 89.6092 44.6658H79.7872C78.431 44.6658 77.3316 43.5315 77.3316 42.1323V30.7317Z" fill="url(#paint3_linear_1741_8293)"/>
<path d="M92.0647 78.8675C92.0647 77.4683 93.1641 76.334 94.5202 76.334H105.57C106.926 76.334 108.026 77.4683 108.026 78.8675V90.2681C108.026 91.6673 106.926 92.8016 105.57 92.8016H95.748C94.3918 92.8016 93.2925 93.9358 93.2925 95.335V105.469C93.2925 106.868 92.1931 108.002 90.8369 108.002H79.7872C78.431 108.002 77.3316 106.868 77.3316 105.469V94.0683C77.3316 92.6691 78.431 91.5348 79.7872 91.5348H89.6092C90.9653 91.5348 92.0647 90.4005 92.0647 89.0014V78.8675Z" fill="url(#paint4_linear_1741_8293)"/>
<path d="M56.165 69.5212C55.6016 68.6631 55.6016 67.5375 56.165 66.6794L66.0905 50.8837C67.0645 49.4003 69.1825 49.4003 70.1564 50.8837L80.082 66.6794C80.6454 67.5375 80.6454 68.6631 80.082 69.5212L70.1564 85.3168C69.1825 86.8003 67.0645 86.8003 66.0905 85.3168L56.165 69.5212Z" fill="url(#paint5_linear_1741_8293)"/>
</g>
<defs>
<linearGradient id="paint0_linear_1741_8293" x1="68.0254" y1="-12" x2="128.575" y2="270.821" gradientUnits="userSpaceOnUse">
<stop offset="0.409968" stop-color="#FDFDFF"/>
<stop offset="1" stop-color="#CBD8FA"/>
</linearGradient>
<linearGradient id="paint1_linear_1741_8293" x1="68.1235" y1="28.1982" x2="68.1235" y2="108.002" gradientUnits="userSpaceOnUse">
<stop stop-color="#1766FF"/>
<stop offset="1" stop-color="#16ABFF"/>
</linearGradient>
<linearGradient id="paint2_linear_1741_8293" x1="68.1235" y1="28.1982" x2="68.1235" y2="108.002" gradientUnits="userSpaceOnUse">
<stop stop-color="#1766FF"/>
<stop offset="1" stop-color="#16ABFF"/>
</linearGradient>
<linearGradient id="paint3_linear_1741_8293" x1="68.1235" y1="28.1982" x2="68.1235" y2="108.002" gradientUnits="userSpaceOnUse">
<stop stop-color="#1766FF"/>
<stop offset="1" stop-color="#16ABFF"/>
</linearGradient>
<linearGradient id="paint4_linear_1741_8293" x1="68.1235" y1="28.1982" x2="68.1235" y2="108.002" gradientUnits="userSpaceOnUse">
<stop stop-color="#1766FF"/>
<stop offset="1" stop-color="#16ABFF"/>
</linearGradient>
<linearGradient id="paint5_linear_1741_8293" x1="68.1235" y1="28.1982" x2="68.1235" y2="108.002" gradientUnits="userSpaceOnUse">
<stop stop-color="#1766FF"/>
<stop offset="1" stop-color="#16ABFF"/>
</linearGradient>
<clipPath id="clip0_1741_8293">
<rect x="0.0253906" width="136" height="136" rx="68" fill="white"/>
</clipPath>
</defs>
</svg>
