
<svg width="420" height="420" viewBox="0 0 420 420" fill="none" xmlns="http://www.w3.org/2000/svg">
<rect width="420" height="420" fill="black"/>
<path d="M109.047 224.997C108.683 224.997 108.319 225.016 107.955 225.016C99.781 200.512 100.341 176.222 110.381 152.287C120.375 128.463 136.547 110.136 160.025 98.1547C158.756 97.7535 158.149 98.2294 157.543 98.4907C150.189 101.626 142.976 105.097 136.575 109.931C99.128 138.196 84.216 176.222 90.3281 222.058C94.2007 251.126 108.301 275.509 131.032 294.414C151.729 311.631 175.758 320.3 202.614 321.261C217.096 321.774 231.196 319.469 245.109 315.671C245.585 315.541 246.089 315.447 246.369 314.859C245.996 314.859 245.688 314.831 245.389 314.859C226.932 316.754 208.81 314.953 191.761 307.609C160.706 294.228 139.72 272.112 134.653 237.492C133.16 227.256 134.401 217.047 138.497 207.38C139.178 205.775 139.832 204.114 141.745 202.593C141.745 204.151 141.745 205.271 141.745 206.39C141.819 227.097 148.407 245.667 160.379 262.379C172.398 279.157 188.477 290.906 207.083 299.397C220.698 305.612 235.097 308.813 249.962 310.016C253.927 310.334 257.772 310.81 261.719 308.747C291.281 293.341 311.941 270.302 322.719 238.603C326.862 226.416 329.158 213.874 330.044 201.081C330.436 195.482 330.548 189.836 329.54 184.163C328.729 184.601 328.794 185.264 328.645 185.852C323.68 205.429 313.752 222.095 297.795 234.441C273.971 252.861 246.826 260.112 216.891 255.511C197.463 252.525 180.909 244.024 167.77 229.075C148.482 207.118 145.039 177.146 159.204 151.605C168.087 135.583 181.543 124.656 198.069 117.219C198.489 117.032 198.937 116.874 199.348 116.668C199.758 116.463 200.141 116.202 200.533 115.968C178.66 122.51 161.593 135.957 146.849 153.472C147.063 152.716 147.119 152.417 147.222 152.147C149.602 145.727 153.493 140.277 157.86 135.061C173.5 116.37 193.711 106.273 217.684 103.772C232.764 102.195 247.507 104.677 261.859 109.465C264.752 110.426 267.617 111.499 270.892 112.665C270.482 112.171 270.407 112.021 270.295 111.947C269.763 111.629 269.222 111.331 268.671 111.041C255.141 103.996 240.695 100.366 225.513 99.2558C210.48 98.164 195.774 99.4985 181.459 104.351C158.886 112.003 141.297 126.149 127.859 145.633C115.682 163.288 109.495 182.903 109.066 204.328C108.926 211.234 109.047 218.139 109.047 225.044V224.997ZM225.812 119.533C221.006 120.037 216.508 121.614 212.085 123.424C207.699 125.216 203.538 127.465 199.562 130.022C195.503 132.635 191.836 135.742 188.374 139.101C184.996 142.377 181.889 145.895 178.678 149.254C191.099 126.186 211.908 115.623 236.524 110.678C233.902 110.528 231.327 110.995 228.751 111.396C208.558 114.541 191.36 123.303 177.988 138.943C164.215 155.067 158.597 173.478 163.216 194.521C164.905 202.238 168.218 209.255 172.865 215.675C170.14 210.188 168.768 204.366 168.572 198.291C168.377 192.123 169.263 186.085 171.195 180.216C173.462 173.348 177.055 166.414 179.462 164.473C176.859 170.744 174.862 177.09 174.171 183.762C172.734 197.778 176.243 209.852 188.355 218.213C196.296 223.691 205.292 225.679 214.875 225.072C225.812 224.372 236.179 221.302 246.322 217.346C246.817 217.15 247.554 217.178 247.629 216.235C244.801 216.105 242.011 216.03 239.24 215.825C227.081 214.947 215.444 212.409 205.441 204.888C191.575 194.474 183.204 181.382 185.677 163.251C187.59 149.245 193.833 137.701 205.506 129.331C211.712 124.88 218.515 121.707 225.821 119.514L225.812 119.533Z" fill="url(#paint0_linear_26_989)"/>
<defs>
<linearGradient id="paint0_linear_26_989" x1="209.664" y1="98" x2="209.664" y2="321.332" gradientUnits="userSpaceOnUse">
<stop stop-color="white"/>
<stop offset="0.96875" stop-color="#C1C1C1"/>
<stop offset="1" stop-color="#9F9F9F"/>
</linearGradient>
</defs>
</svg>
